<svg width="81" height="81" viewBox="0 0 81 81" fill="none" xmlns="http://www.w3.org/2000/svg">
<circle cx="40.25" cy="40.083" r="40" fill="#00690B" fill-opacity="0.05"/>
<path d="M32.79 54.563C30.2567 54.563 28.07 53.963 26.23 52.763C24.4167 51.5363 23.0167 49.843 22.03 47.683C21.07 45.4963 20.59 42.963 20.59 40.083C20.59 37.203 21.07 34.683 22.03 32.523C23.0167 30.3363 24.4167 28.643 26.23 27.443C28.07 26.2163 30.2567 25.603 32.79 25.603C35.3233 25.603 37.4967 26.2163 39.31 27.443C41.1233 28.643 42.51 30.3363 43.47 32.523C44.4567 34.683 44.95 37.203 44.95 40.083C44.95 42.963 44.4567 45.4963 43.47 47.683C42.51 49.843 41.1233 51.5363 39.31 52.763C37.4967 53.963 35.3233 54.563 32.79 54.563ZM32.79 50.763C34.31 50.763 35.6567 50.3363 36.83 49.483C38.03 48.6297 38.9633 47.403 39.63 45.803C40.2967 44.203 40.63 42.2963 40.63 40.083C40.63 37.8697 40.2967 35.963 39.63 34.363C38.9633 32.763 38.03 31.5363 36.83 30.683C35.6567 29.8297 34.31 29.403 32.79 29.403C31.2433 29.403 29.8833 29.8297 28.71 30.683C27.5367 31.5363 26.6167 32.763 25.95 34.363C25.2833 35.963 24.95 37.8697 24.95 40.083C24.95 42.2963 25.2833 44.203 25.95 45.803C26.6167 47.403 27.5367 48.6297 28.71 49.483C29.8833 50.3363 31.2433 50.763 32.79 50.763ZM53.7559 54.083V30.883L49.2359 31.923V28.803L55.4359 26.083H58.1559V54.083H53.7559Z" fill="#00690B"/>
</svg>
