<svg width="81" height="81" viewBox="0 0 81 81" fill="none" xmlns="http://www.w3.org/2000/svg">
<circle cx="40.25" cy="40.5701" r="40" fill="#00690B" fill-opacity="0.05"/>
<path d="M28.29 55.0501C25.7567 55.0501 23.57 54.4501 21.73 53.2501C19.9167 52.0234 18.5167 50.3301 17.53 48.1701C16.57 45.9834 16.09 43.4501 16.09 40.5701C16.09 37.6901 16.57 35.1701 17.53 33.0101C18.5167 30.8234 19.9167 29.1301 21.73 27.9301C23.57 26.7034 25.7567 26.0901 28.29 26.0901C30.8233 26.0901 32.9967 26.7034 34.81 27.9301C36.6233 29.1301 38.01 30.8234 38.97 33.0101C39.9567 35.1701 40.45 37.6901 40.45 40.5701C40.45 43.4501 39.9567 45.9834 38.97 48.1701C38.01 50.3301 36.6233 52.0234 34.81 53.2501C32.9967 54.4501 30.8233 55.0501 28.29 55.0501ZM28.29 51.2501C29.81 51.2501 31.1567 50.8234 32.33 49.9701C33.53 49.1167 34.4633 47.8901 35.13 46.2901C35.7967 44.6901 36.13 42.7834 36.13 40.5701C36.13 38.3567 35.7967 36.4501 35.13 34.8501C34.4633 33.2501 33.53 32.0234 32.33 31.1701C31.1567 30.3167 29.81 29.8901 28.29 29.8901C26.7433 29.8901 25.3833 30.3167 24.21 31.1701C23.0367 32.0234 22.1167 33.2501 21.45 34.8501C20.7833 36.4501 20.45 38.3567 20.45 40.5701C20.45 42.7834 20.7833 44.6901 21.45 46.2901C22.1167 47.8901 23.0367 49.1167 24.21 49.9701C25.3833 50.8234 26.7433 51.2501 28.29 51.2501ZM45.5034 54.5701V51.5301C47.3168 50.0901 49.0501 48.6367 50.7034 47.1701C52.3568 45.7034 53.8234 44.2634 55.1034 42.8501C56.4101 41.4101 57.4368 40.0101 58.1834 38.6501C58.9301 37.2634 59.3034 35.9301 59.3034 34.6501C59.3034 33.7967 59.1568 32.9967 58.8634 32.2501C58.5701 31.4767 58.0901 30.8634 57.4234 30.4101C56.7568 29.9301 55.8634 29.6901 54.7434 29.6901C53.0634 29.6901 51.7968 30.2234 50.9434 31.2901C50.1168 32.3567 49.7168 33.6367 49.7434 35.1301H45.6234C45.6501 33.1567 46.0634 31.5034 46.8634 30.1701C47.6901 28.8367 48.7834 27.8234 50.1434 27.1301C51.5301 26.4367 53.0901 26.0901 54.8234 26.0901C57.4634 26.0901 59.5701 26.8367 61.1434 28.3301C62.7434 29.7967 63.5434 31.8501 63.5434 34.4901C63.5434 36.0634 63.1568 37.6234 62.3834 39.1701C61.6368 40.7167 60.6501 42.2101 59.4234 43.6501C58.2234 45.0634 56.9301 46.3967 55.5434 47.6501C54.1568 48.9034 52.8368 50.0367 51.5834 51.0501H64.3834V54.5701H45.5034Z" fill="#00690B"/>
</svg>
