<svg width="80" height="81" viewBox="0 0 80 81" fill="none" xmlns="http://www.w3.org/2000/svg">
<circle cx="40" cy="40.0588" r="40" fill="#00690B" fill-opacity="0.05"/>
<path d="M27.54 54.5388C25.0067 54.5388 22.82 53.9388 20.98 52.7388C19.1667 51.5122 17.7667 49.8188 16.78 47.6588C15.82 45.4722 15.34 42.9388 15.34 40.0588C15.34 37.1788 15.82 34.6588 16.78 32.4988C17.7667 30.3122 19.1667 28.6188 20.98 27.4188C22.82 26.1922 25.0067 25.5788 27.54 25.5788C30.0733 25.5788 32.2467 26.1922 34.06 27.4188C35.8733 28.6188 37.26 30.3122 38.22 32.4988C39.2067 34.6588 39.7 37.1788 39.7 40.0588C39.7 42.9388 39.2067 45.4722 38.22 47.6588C37.26 49.8188 35.8733 51.5122 34.06 52.7388C32.2467 53.9388 30.0733 54.5388 27.54 54.5388ZM27.54 50.7388C29.06 50.7388 30.4067 50.3122 31.58 49.4588C32.78 48.6055 33.7133 47.3788 34.38 45.7788C35.0467 44.1788 35.38 42.2722 35.38 40.0588C35.38 37.8455 35.0467 35.9388 34.38 34.3388C33.7133 32.7388 32.78 31.5122 31.58 30.6588C30.4067 29.8055 29.06 29.3788 27.54 29.3788C25.9933 29.3788 24.6333 29.8055 23.46 30.6588C22.2867 31.5122 21.3667 32.7388 20.7 34.3388C20.0333 35.9388 19.7 37.8455 19.7 40.0588C19.7 42.2722 20.0333 44.1788 20.7 45.7788C21.3667 47.3788 22.2867 48.6055 23.46 49.4588C24.6333 50.3122 25.9933 50.7388 27.54 50.7388ZM54.5859 54.5388C52.7726 54.5388 51.1193 54.2188 49.6259 53.5788C48.1593 52.9122 46.9859 51.9122 46.1059 50.5788C45.2259 49.2455 44.7593 47.5788 44.7059 45.5788H48.9059C48.9593 47.0722 49.4659 48.3388 50.4259 49.3788C51.4126 50.3922 52.7993 50.8988 54.5859 50.8988C56.2926 50.8988 57.5993 50.4322 58.5059 49.4988C59.4126 48.5388 59.8659 47.3522 59.8659 45.9388C59.8659 44.2322 59.2526 42.9655 58.0259 42.1388C56.8259 41.3122 55.3459 40.8988 53.5859 40.8988H51.5059V37.3788H53.6259C55.1993 37.3788 56.4659 37.0055 57.4259 36.2588C58.4126 35.5122 58.9059 34.4588 58.9059 33.0988C58.9059 31.9522 58.5193 31.0188 57.7459 30.2988C56.9993 29.5788 55.9326 29.2188 54.5459 29.2188C53.1059 29.2188 51.9726 29.6455 51.1459 30.4988C50.3193 31.3255 49.8659 32.3655 49.7859 33.6188H45.5859C45.6393 31.9922 46.0393 30.5788 46.7859 29.3788C47.5593 28.1788 48.6126 27.2455 49.9459 26.5788C51.2793 25.9122 52.8126 25.5788 54.5459 25.5788C56.4126 25.5788 57.9726 25.9122 59.2259 26.5788C60.5059 27.2188 61.4659 28.0988 62.1059 29.2188C62.7726 30.3122 63.1059 31.5122 63.1059 32.8188C63.1059 34.3122 62.6926 35.6188 61.8659 36.7388C61.0393 37.8588 59.9326 38.6055 58.5459 38.9788C60.1459 39.3255 61.4659 40.1122 62.5059 41.3388C63.5459 42.5388 64.0659 44.0988 64.0659 46.0188C64.0659 47.5655 63.7059 48.9922 62.9859 50.2988C62.2659 51.5788 61.1993 52.6055 59.7859 53.3788C58.3726 54.1522 56.6393 54.5388 54.5859 54.5388Z" fill="#00690B"/>
</svg>
