<svg width="30" height="30" viewBox="0 0 30 30" fill="none" xmlns="http://www.w3.org/2000/svg">
<circle cx="15" cy="15" r="15" fill="#00690B" fill-opacity="0.1"/>
<path d="M11.382 20V19.174C12.0447 18.6513 12.67 18.124 13.258 17.592C13.8553 17.0507 14.3827 16.5187 14.84 15.996C15.3067 15.4733 15.6707 14.96 15.932 14.456C16.2027 13.952 16.338 13.4667 16.338 13C16.338 12.6547 16.2773 12.3327 16.156 12.034C16.044 11.7353 15.8573 11.4973 15.596 11.32C15.3347 11.1333 14.98 11.04 14.532 11.04C14.1027 11.04 13.7433 11.138 13.454 11.334C13.1647 11.5207 12.9453 11.7727 12.796 12.09C12.656 12.4073 12.586 12.748 12.586 13.112H11.452C11.452 12.468 11.5873 11.9173 11.858 11.46C12.1287 10.9933 12.4973 10.6387 12.964 10.396C13.4307 10.1533 13.958 10.032 14.546 10.032C15.414 10.032 16.1233 10.2793 16.674 10.774C17.234 11.2593 17.514 11.9873 17.514 12.958C17.514 13.5367 17.3693 14.1107 17.08 14.68C16.7907 15.24 16.422 15.786 15.974 16.318C15.526 16.8407 15.0453 17.3307 14.532 17.788C14.028 18.2453 13.5567 18.656 13.118 19.02H17.85V20H11.382Z" fill="#00690B"/>
</svg>
