<svg width="127" height="43" viewBox="0 0 127 43" fill="none" xmlns="http://www.w3.org/2000/svg">
<path d="M66.5887 30.8791H44.0709C45.0705 34.4214 47.8748 36.1269 52.4006 36.1269C53.673 36.2051 54.9466 35.9905 56.112 35.5015C57.2774 35.0125 58.3 34.2637 59.0921 33.3193L65.3115 36.7042C63.8803 38.6729 61.9404 40.2632 59.6758 41.3241C57.4113 42.3849 54.8973 42.8811 52.3728 42.7654C50.1923 42.8606 48.0141 42.5351 45.971 41.8088C43.9279 41.0825 42.0627 39.9706 40.4892 38.5409C39.008 37.1451 37.8448 35.4776 37.0712 33.6409C36.2976 31.8043 35.9301 29.8375 35.9912 27.8615C35.9602 25.9214 36.3369 23.9946 37.0995 22.193C37.8621 20.3914 38.9953 18.7507 40.4336 17.3659C41.9024 15.9391 43.6728 14.8209 45.6295 14.0839C47.5861 13.347 49.6851 13.0079 51.7897 13.0889C53.811 13.0151 55.825 13.3597 57.6907 14.0984C59.5563 14.8372 61.2286 15.9524 62.5905 17.3659C65.4584 20.2293 67.0063 24.0515 66.8942 27.9927C66.8629 28.9604 66.7608 29.9248 66.5887 30.8791ZM43.9599 25.2376H59.1753C58.8925 23.5978 57.9861 22.1118 56.6263 21.0587C55.2665 20.0055 53.5467 19.4575 51.7897 19.5175C49.9468 19.4453 48.1335 19.9733 46.6531 21.0131C45.2527 22.0741 44.2979 23.5717 43.9599 25.2376Z" fill="#2054D2"/>
<path d="M78.4725 42.0038H70.7259V0.782227H78.4725V42.0038Z" fill="#2054D2"/>
<path d="M91.3563 42.0038H83.6375V0.782227H91.3563V42.0038Z" fill="#2054D2"/>
<path d="M24.5237 13.875V13.9275V42.0034H32.0759V13.875H24.5237Z" fill="#2054D2"/>
<path d="M31.9654 27.9399C31.9709 30.8627 31.0587 33.7215 29.3444 36.1543C27.6301 38.5871 25.1906 40.4846 22.3348 41.6068C19.4789 42.7289 16.3349 43.0252 13.3008 42.4581C10.2667 41.8911 7.47871 40.4862 5.28976 38.4213C3.1008 36.3563 1.60924 33.7241 1.00382 30.8578C0.398407 27.9915 0.706347 25.0198 1.88868 22.3189C3.071 19.618 5.07457 17.3093 7.64584 15.6849C10.2171 14.0605 13.2405 13.1934 16.3334 13.1934C20.4744 13.1934 24.4463 14.7462 27.3771 17.511C30.3078 20.2757 31.958 24.0265 31.9654 27.9399ZM8.33692 27.9399C8.33692 29.4345 8.8059 30.8955 9.68456 32.1383C10.5632 33.381 11.8121 34.3496 13.2733 34.9215C14.7344 35.4935 16.3423 35.6432 17.8934 35.3516C19.4446 35.06 20.8694 34.3403 21.9877 33.2834C23.1061 32.2266 23.8677 30.88 24.1762 29.4142C24.4847 27.9483 24.3264 26.4288 23.7212 25.048C23.1159 23.6671 22.091 22.4869 20.776 21.6565C19.461 20.8262 17.9149 20.383 16.3334 20.383C14.2126 20.383 12.1787 21.1791 10.679 22.5963C9.1794 24.0135 8.33692 25.9357 8.33692 27.9399Z" fill="#D8A28F"/>
<path d="M119.149 13.875V13.9275V42.0034H126.701V13.875H119.149Z" fill="#2054D2"/>
<path d="M126.59 27.9399C126.596 30.8627 125.684 33.7215 123.969 36.1543C122.255 38.5871 119.816 40.4846 116.96 41.6068C114.104 42.7289 110.96 43.0252 107.926 42.4581C104.892 41.8911 102.104 40.4862 99.9148 38.4213C97.7258 36.3563 96.2342 33.7241 95.6288 30.8578C95.0234 27.9915 95.3313 25.0198 96.5137 22.3189C97.696 19.618 99.6996 17.3093 102.271 15.6849C104.842 14.0605 107.865 13.1934 110.958 13.1934C115.099 13.1934 119.071 14.7462 122.002 17.511C124.933 20.2757 126.583 24.0265 126.59 27.9399ZM102.962 27.9399C102.962 29.4345 103.431 30.8955 104.31 32.1383C105.188 33.381 106.437 34.3496 107.898 34.9215C109.359 35.4935 110.967 35.6432 112.518 35.3516C114.07 35.06 115.494 34.3403 116.613 33.2834C117.731 32.2266 118.493 30.88 118.801 29.4142C119.11 27.9483 118.951 26.4288 118.346 25.048C117.741 23.6671 116.716 22.4869 115.401 21.6565C114.086 20.8262 112.54 20.383 110.958 20.383C108.84 20.3899 106.81 21.1883 105.312 22.604C103.814 24.0197 102.969 25.9378 102.962 27.9399Z" fill="#D8A28F"/>
</svg>
