<svg width="382" height="61" viewBox="0 0 382 61" fill="none" xmlns="http://www.w3.org/2000/svg">
<rect y="0.734375" width="382" height="60" rx="5" fill="black"/>
<path d="M64.176 35.9024C63.6067 35.9024 63.098 35.7857 62.65 35.5524C62.2113 35.319 61.8753 34.9924 61.642 34.5724L61.53 35.7344H60.466V25.6544H61.642V29.9384C61.866 29.6024 62.1833 29.299 62.594 29.0284C63.014 28.7577 63.546 28.6224 64.19 28.6224C64.8807 28.6224 65.4827 28.781 65.996 29.0984C66.5093 29.4157 66.906 29.8497 67.186 30.4004C67.4753 30.951 67.62 31.5764 67.62 32.2764C67.62 32.9764 67.4753 33.6017 67.186 34.1524C66.906 34.6937 66.5047 35.123 65.982 35.4404C65.4687 35.7484 64.8667 35.9024 64.176 35.9024ZM64.05 34.8804C64.5167 34.8804 64.9273 34.773 65.282 34.5584C65.6367 34.3344 65.9167 34.0264 66.122 33.6344C66.3273 33.2424 66.43 32.785 66.43 32.2624C66.43 31.7397 66.3273 31.2824 66.122 30.8904C65.9167 30.4984 65.6367 30.195 65.282 29.9804C64.9273 29.7564 64.5167 29.6444 64.05 29.6444C63.5833 29.6444 63.1727 29.7564 62.818 29.9804C62.4633 30.195 62.1833 30.4984 61.978 30.8904C61.7727 31.2824 61.67 31.7397 61.67 32.2624C61.67 32.785 61.7727 33.2424 61.978 33.6344C62.1833 34.0264 62.4633 34.3344 62.818 34.5584C63.1727 34.773 63.5833 34.8804 64.05 34.8804ZM71.567 35.9024C70.9883 35.9024 70.5077 35.8044 70.125 35.6084C69.7423 35.4124 69.4577 35.151 69.271 34.8244C69.0843 34.4977 68.991 34.143 68.991 33.7604C68.991 33.051 69.2617 32.505 69.803 32.1224C70.3443 31.7397 71.0817 31.5484 72.015 31.5484H73.891V31.4644C73.891 30.8577 73.7323 30.4004 73.415 30.0924C73.0977 29.775 72.673 29.6164 72.141 29.6164C71.6837 29.6164 71.287 29.733 70.951 29.9664C70.6243 30.1904 70.419 30.5217 70.335 30.9604H69.131C69.1777 30.4564 69.3457 30.0317 69.635 29.6864C69.9337 29.341 70.3023 29.0797 70.741 28.9024C71.1797 28.7157 71.6463 28.6224 72.141 28.6224C73.1117 28.6224 73.8397 28.8837 74.325 29.4064C74.8197 29.9197 75.067 30.6057 75.067 31.4644V35.7344H74.017L73.947 34.4884C73.751 34.8804 73.4617 35.2164 73.079 35.4964C72.7057 35.767 72.2017 35.9024 71.567 35.9024ZM71.749 34.9084C72.197 34.9084 72.5797 34.7917 72.897 34.5584C73.2237 34.325 73.471 34.0217 73.639 33.6484C73.807 33.275 73.891 32.883 73.891 32.4724V32.4584H72.113C71.4223 32.4584 70.9323 32.5797 70.643 32.8224C70.363 33.0557 70.223 33.3497 70.223 33.7044C70.223 34.0684 70.3537 34.3624 70.615 34.5864C70.8857 34.801 71.2637 34.9084 71.749 34.9084ZM76.8312 35.7344V28.7904H77.8952L77.9652 30.0364C78.1892 29.5977 78.5112 29.2524 78.9312 29.0004C79.3512 28.7484 79.8272 28.6224 80.3592 28.6224C81.1806 28.6224 81.8339 28.8744 82.3192 29.3784C82.8139 29.873 83.0612 30.6384 83.0612 31.6744V35.7344H81.8852V31.8004C81.8852 30.3537 81.2879 29.6304 80.0932 29.6304C79.4959 29.6304 78.9966 29.8497 78.5952 30.2884C78.2032 30.7177 78.0072 31.3337 78.0072 32.1364V35.7344H76.8312ZM87.993 35.9024C87.3023 35.9024 86.6956 35.7437 86.173 35.4264C85.6596 35.109 85.2583 34.675 84.969 34.1244C84.689 33.5737 84.549 32.9484 84.549 32.2484C84.549 31.5484 84.6936 30.9277 84.983 30.3864C85.2723 29.8357 85.6736 29.4064 86.187 29.0984C86.7003 28.781 87.307 28.6224 88.007 28.6224C88.5763 28.6224 89.0803 28.739 89.519 28.9724C89.9576 29.2057 90.2983 29.5324 90.541 29.9524V25.6544H91.717V35.7344H90.653L90.541 34.5864C90.317 34.9224 89.995 35.2257 89.575 35.4964C89.155 35.767 88.6276 35.9024 87.993 35.9024ZM88.119 34.8804C88.5856 34.8804 88.9963 34.773 89.351 34.5584C89.715 34.3344 89.995 34.0264 90.191 33.6344C90.3963 33.2424 90.499 32.785 90.499 32.2624C90.499 31.7397 90.3963 31.2824 90.191 30.8904C89.995 30.4984 89.715 30.195 89.351 29.9804C88.9963 29.7564 88.5856 29.6444 88.119 29.6444C87.6616 29.6444 87.251 29.7564 86.887 29.9804C86.5323 30.195 86.2523 30.4984 86.047 30.8904C85.851 31.2824 85.753 31.7397 85.753 32.2624C85.753 32.785 85.851 33.2424 86.047 33.6344C86.2523 34.0264 86.5323 34.3344 86.887 34.5584C87.251 34.773 87.6616 34.8804 88.119 34.8804ZM94.348 27.2504C94.1146 27.2504 93.9186 27.1757 93.76 27.0264C93.6106 26.8677 93.536 26.6717 93.536 26.4384C93.536 26.2144 93.6106 26.0277 93.76 25.8784C93.9186 25.729 94.1146 25.6544 94.348 25.6544C94.572 25.6544 94.7633 25.729 94.922 25.8784C95.0806 26.0277 95.16 26.2144 95.16 26.4384C95.16 26.6717 95.0806 26.8677 94.922 27.0264C94.7633 27.1757 94.572 27.2504 94.348 27.2504ZM93.76 35.7344V28.7904H94.936V35.7344H93.76ZM100.176 35.9024C99.5129 35.9024 98.9156 35.753 98.3836 35.4544C97.8609 35.1464 97.4456 34.7217 97.1376 34.1804C96.8389 33.6297 96.6896 32.9904 96.6896 32.2624C96.6896 31.5344 96.8389 30.8997 97.1376 30.3584C97.4456 29.8077 97.8609 29.383 98.3836 29.0844C98.9156 28.7764 99.5129 28.6224 100.176 28.6224C100.997 28.6224 101.688 28.837 102.248 29.2664C102.817 29.6957 103.176 30.2697 103.326 30.9884H102.122C102.028 30.559 101.8 30.2277 101.436 29.9944C101.072 29.7517 100.647 29.6304 100.162 29.6304C99.7696 29.6304 99.4009 29.7284 99.0556 29.9244C98.7102 30.1204 98.4302 30.4144 98.2156 30.8064C98.0009 31.1984 97.8936 31.6837 97.8936 32.2624C97.8936 32.841 98.0009 33.3264 98.2156 33.7184C98.4302 34.1104 98.7102 34.409 99.0556 34.6144C99.4009 34.8104 99.7696 34.9084 100.162 34.9084C100.647 34.9084 101.072 34.7917 101.436 34.5584C101.8 34.3157 102.028 33.975 102.122 33.5364H103.326C103.186 34.2364 102.831 34.8057 102.262 35.2444C101.692 35.683 100.997 35.9024 100.176 35.9024ZM107.278 35.9024C106.699 35.9024 106.219 35.8044 105.836 35.6084C105.453 35.4124 105.169 35.151 104.982 34.8244C104.795 34.4977 104.702 34.143 104.702 33.7604C104.702 33.051 104.973 32.505 105.514 32.1224C106.055 31.7397 106.793 31.5484 107.726 31.5484H109.602V31.4644C109.602 30.8577 109.443 30.4004 109.126 30.0924C108.809 29.775 108.384 29.6164 107.852 29.6164C107.395 29.6164 106.998 29.733 106.662 29.9664C106.335 30.1904 106.13 30.5217 106.046 30.9604H104.842C104.889 30.4564 105.057 30.0317 105.346 29.6864C105.645 29.341 106.013 29.0797 106.452 28.9024C106.891 28.7157 107.357 28.6224 107.852 28.6224C108.823 28.6224 109.551 28.8837 110.036 29.4064C110.531 29.9197 110.778 30.6057 110.778 31.4644V35.7344H109.728L109.658 34.4884C109.462 34.8804 109.173 35.2164 108.79 35.4964C108.417 35.767 107.913 35.9024 107.278 35.9024ZM107.46 34.9084C107.908 34.9084 108.291 34.7917 108.608 34.5584C108.935 34.325 109.182 34.0217 109.35 33.6484C109.518 33.275 109.602 32.883 109.602 32.4724V32.4584H107.824C107.133 32.4584 106.643 32.5797 106.354 32.8224C106.074 33.0557 105.934 33.3497 105.934 33.7044C105.934 34.0684 106.065 34.3624 106.326 34.5864C106.597 34.801 106.975 34.9084 107.46 34.9084ZM112.542 35.7344V28.7904H113.606L113.69 29.7984C113.914 29.425 114.213 29.1357 114.586 28.9304C114.96 28.725 115.38 28.6224 115.846 28.6224C116.397 28.6224 116.868 28.7344 117.26 28.9584C117.662 29.1824 117.97 29.523 118.184 29.9804C118.427 29.5604 118.758 29.229 119.178 28.9864C119.608 28.7437 120.07 28.6224 120.564 28.6224C121.395 28.6224 122.058 28.8744 122.552 29.3784C123.047 29.873 123.294 30.6384 123.294 31.6744V35.7344H122.132V31.8004C122.132 31.0817 121.988 30.5404 121.698 30.1764C121.409 29.8124 120.994 29.6304 120.452 29.6304C119.892 29.6304 119.426 29.8497 119.052 30.2884C118.688 30.7177 118.506 31.3337 118.506 32.1364V35.7344H117.33V31.8004C117.33 31.0817 117.186 30.5404 116.896 30.1764C116.607 29.8124 116.192 29.6304 115.65 29.6304C115.1 29.6304 114.638 29.8497 114.264 30.2884C113.9 30.7177 113.718 31.3337 113.718 32.1364V35.7344H112.542ZM124.926 37.3444V36.2384H132.262V37.3444H124.926ZM133.964 35.7344V34.9084C134.627 34.3857 135.252 33.8584 135.84 33.3264C136.437 32.785 136.965 32.253 137.422 31.7304C137.889 31.2077 138.253 30.6944 138.514 30.1904C138.785 29.6864 138.92 29.201 138.92 28.7344C138.92 28.389 138.859 28.067 138.738 27.7684C138.626 27.4697 138.439 27.2317 138.178 27.0544C137.917 26.8677 137.562 26.7744 137.114 26.7744C136.685 26.7744 136.325 26.8724 136.036 27.0684C135.747 27.255 135.527 27.507 135.378 27.8244C135.238 28.1417 135.168 28.4824 135.168 28.8464H134.034C134.034 28.2024 134.169 27.6517 134.44 27.1944C134.711 26.7277 135.079 26.373 135.546 26.1304C136.013 25.8877 136.54 25.7664 137.128 25.7664C137.996 25.7664 138.705 26.0137 139.256 26.5084C139.816 26.9937 140.096 27.7217 140.096 28.6924C140.096 29.271 139.951 29.845 139.662 30.4144C139.373 30.9744 139.004 31.5204 138.556 32.0524C138.108 32.575 137.627 33.065 137.114 33.5224C136.61 33.9797 136.139 34.3904 135.7 34.7544H140.432V35.7344H133.964ZM145.815 35.9024C144.947 35.9024 144.196 35.6924 143.561 35.2724C142.936 34.843 142.455 34.2504 142.119 33.4944C141.783 32.729 141.615 31.8424 141.615 30.8344C141.615 29.8264 141.783 28.9444 142.119 28.1884C142.455 27.423 142.936 26.8304 143.561 26.4104C144.196 25.981 144.947 25.7664 145.815 25.7664C146.683 25.7664 147.43 25.981 148.055 26.4104C148.68 26.8304 149.161 27.423 149.497 28.1884C149.833 28.9444 150.001 29.8264 150.001 30.8344C150.001 31.8424 149.833 32.729 149.497 33.4944C149.161 34.2504 148.68 34.843 148.055 35.2724C147.43 35.6924 146.683 35.9024 145.815 35.9024ZM145.815 34.8664C146.384 34.8664 146.893 34.7077 147.341 34.3904C147.798 34.0637 148.153 33.6017 148.405 33.0044C148.666 32.3977 148.797 31.6744 148.797 30.8344C148.797 29.9944 148.666 29.2757 148.405 28.6784C148.153 28.081 147.798 27.6237 147.341 27.3064C146.893 26.9797 146.384 26.8164 145.815 26.8164C145.236 26.8164 144.723 26.9797 144.275 27.3064C143.827 27.6237 143.472 28.081 143.211 28.6784C142.95 29.2757 142.819 29.9944 142.819 30.8344C142.819 31.6744 142.95 32.3977 143.211 33.0044C143.472 33.6017 143.827 34.0637 144.275 34.3904C144.723 34.7077 145.236 34.8664 145.815 34.8664ZM151.409 35.7344V34.9084C152.072 34.3857 152.697 33.8584 153.285 33.3264C153.883 32.785 154.41 32.253 154.867 31.7304C155.334 31.2077 155.698 30.6944 155.959 30.1904C156.23 29.6864 156.365 29.201 156.365 28.7344C156.365 28.389 156.305 28.067 156.183 27.7684C156.071 27.4697 155.885 27.2317 155.623 27.0544C155.362 26.8677 155.007 26.7744 154.559 26.7744C154.13 26.7744 153.771 26.8724 153.481 27.0684C153.192 27.255 152.973 27.507 152.823 27.8244C152.683 28.1417 152.613 28.4824 152.613 28.8464H151.479C151.479 28.2024 151.615 27.6517 151.885 27.1944C152.156 26.7277 152.525 26.373 152.991 26.1304C153.458 25.8877 153.985 25.7664 154.573 25.7664C155.441 25.7664 156.151 26.0137 156.701 26.5084C157.261 26.9937 157.541 27.7217 157.541 28.6924C157.541 29.271 157.397 29.845 157.107 30.4144C156.818 30.9744 156.449 31.5204 156.001 32.0524C155.553 32.575 155.073 33.065 154.559 33.5224C154.055 33.9797 153.584 34.3904 153.145 34.7544H157.877V35.7344H151.409ZM159.421 35.7344V34.9084C160.084 34.3857 160.709 33.8584 161.297 33.3264C161.894 32.785 162.422 32.253 162.879 31.7304C163.346 31.2077 163.71 30.6944 163.971 30.1904C164.242 29.6864 164.377 29.201 164.377 28.7344C164.377 28.389 164.316 28.067 164.195 27.7684C164.083 27.4697 163.896 27.2317 163.635 27.0544C163.374 26.8677 163.019 26.7744 162.571 26.7744C162.142 26.7744 161.782 26.8724 161.493 27.0684C161.204 27.255 160.984 27.507 160.835 27.8244C160.695 28.1417 160.625 28.4824 160.625 28.8464H159.491C159.491 28.2024 159.626 27.6517 159.897 27.1944C160.168 26.7277 160.536 26.373 161.003 26.1304C161.47 25.8877 161.997 25.7664 162.585 25.7664C163.453 25.7664 164.162 26.0137 164.713 26.5084C165.273 26.9937 165.553 27.7217 165.553 28.6924C165.553 29.271 165.408 29.845 165.119 30.4144C164.83 30.9744 164.461 31.5204 164.013 32.0524C163.565 32.575 163.084 33.065 162.571 33.5224C162.067 33.9797 161.596 34.3904 161.157 34.7544H165.889V35.7344H159.421ZM167.377 32.1644V31.1704H172.921V32.1644H167.377ZM178.587 35.9024C177.719 35.9024 176.967 35.6924 176.333 35.2724C175.707 34.843 175.227 34.2504 174.891 33.4944C174.555 32.729 174.387 31.8424 174.387 30.8344C174.387 29.8264 174.555 28.9444 174.891 28.1884C175.227 27.423 175.707 26.8304 176.333 26.4104C176.967 25.981 177.719 25.7664 178.587 25.7664C179.455 25.7664 180.201 25.981 180.827 26.4104C181.452 26.8304 181.933 27.423 182.269 28.1884C182.605 28.9444 182.773 29.8264 182.773 30.8344C182.773 31.8424 182.605 32.729 182.269 33.4944C181.933 34.2504 181.452 34.843 180.827 35.2724C180.201 35.6924 179.455 35.9024 178.587 35.9024ZM178.587 34.8664C179.156 34.8664 179.665 34.7077 180.113 34.3904C180.57 34.0637 180.925 33.6017 181.177 33.0044C181.438 32.3977 181.569 31.6744 181.569 30.8344C181.569 29.9944 181.438 29.2757 181.177 28.6784C180.925 28.081 180.57 27.6237 180.113 27.3064C179.665 26.9797 179.156 26.8164 178.587 26.8164C178.008 26.8164 177.495 26.9797 177.047 27.3064C176.599 27.6237 176.244 28.081 175.983 28.6784C175.721 29.2757 175.591 29.9944 175.591 30.8344C175.591 31.6744 175.721 32.3977 175.983 33.0044C176.244 33.6017 176.599 34.0637 177.047 34.3904C177.495 34.7077 178.008 34.8664 178.587 34.8664ZM184.181 35.7344V34.9084C184.843 34.3857 185.469 33.8584 186.057 33.3264C186.654 32.785 187.181 32.253 187.639 31.7304C188.105 31.2077 188.469 30.6944 188.731 30.1904C189.001 29.6864 189.137 29.201 189.137 28.7344C189.137 28.389 189.076 28.067 188.955 27.7684C188.843 27.4697 188.656 27.2317 188.395 27.0544C188.133 26.8677 187.779 26.7744 187.331 26.7744C186.901 26.7744 186.542 26.8724 186.253 27.0684C185.963 27.255 185.744 27.507 185.595 27.8244C185.455 28.1417 185.385 28.4824 185.385 28.8464H184.251C184.251 28.2024 184.386 27.6517 184.657 27.1944C184.927 26.7277 185.296 26.373 185.763 26.1304C186.229 25.8877 186.757 25.7664 187.345 25.7664C188.213 25.7664 188.922 26.0137 189.473 26.5084C190.033 26.9937 190.313 27.7217 190.313 28.6924C190.313 29.271 190.168 29.845 189.879 30.4144C189.589 30.9744 189.221 31.5204 188.773 32.0524C188.325 32.575 187.844 33.065 187.331 33.5224C186.827 33.9797 186.355 34.3904 185.917 34.7544H190.649V35.7344H184.181ZM192.137 32.1644V31.1704H197.681V32.1644H192.137ZM203.346 35.9024C202.478 35.9024 201.727 35.6924 201.092 35.2724C200.467 34.843 199.986 34.2504 199.65 33.4944C199.314 32.729 199.146 31.8424 199.146 30.8344C199.146 29.8264 199.314 28.9444 199.65 28.1884C199.986 27.423 200.467 26.8304 201.092 26.4104C201.727 25.981 202.478 25.7664 203.346 25.7664C204.214 25.7664 204.961 25.981 205.586 26.4104C206.212 26.8304 206.692 27.423 207.028 28.1884C207.364 28.9444 207.532 29.8264 207.532 30.8344C207.532 31.8424 207.364 32.729 207.028 33.4944C206.692 34.2504 206.212 34.843 205.586 35.2724C204.961 35.6924 204.214 35.9024 203.346 35.9024ZM203.346 34.8664C203.916 34.8664 204.424 34.7077 204.872 34.3904C205.33 34.0637 205.684 33.6017 205.936 33.0044C206.198 32.3977 206.328 31.6744 206.328 30.8344C206.328 29.9944 206.198 29.2757 205.936 28.6784C205.684 28.081 205.33 27.6237 204.872 27.3064C204.424 26.9797 203.916 26.8164 203.346 26.8164C202.768 26.8164 202.254 26.9797 201.806 27.3064C201.358 27.6237 201.004 28.081 200.742 28.6784C200.481 29.2757 200.35 29.9944 200.35 30.8344C200.35 31.6744 200.481 32.3977 200.742 33.0044C201.004 33.6017 201.358 34.0637 201.806 34.3904C202.254 34.7077 202.768 34.8664 203.346 34.8664ZM212.283 35.9024C211.658 35.9024 211.093 35.7904 210.589 35.5664C210.085 35.333 209.679 34.9877 209.371 34.5304C209.073 34.073 208.914 33.5037 208.895 32.8224H210.085C210.095 33.3824 210.291 33.8677 210.673 34.2784C211.056 34.6797 211.593 34.8804 212.283 34.8804C212.974 34.8804 213.492 34.689 213.837 34.3064C214.192 33.9237 214.369 33.4617 214.369 32.9204C214.369 32.463 214.257 32.0897 214.033 31.8004C213.819 31.511 213.525 31.2964 213.151 31.1564C212.787 31.0164 212.386 30.9464 211.947 30.9464H211.219V29.9524H211.947C212.582 29.9524 213.077 29.8077 213.431 29.5184C213.795 29.229 213.977 28.823 213.977 28.3004C213.977 27.8617 213.833 27.5024 213.543 27.2224C213.263 26.933 212.843 26.7884 212.283 26.7884C211.742 26.7884 211.308 26.9517 210.981 27.2784C210.655 27.5957 210.473 27.997 210.435 28.4824H209.245C209.273 27.9504 209.413 27.479 209.665 27.0684C209.927 26.6577 210.281 26.3404 210.729 26.1164C211.177 25.883 211.695 25.7664 212.283 25.7664C212.918 25.7664 213.445 25.8784 213.865 26.1024C214.295 26.3264 214.617 26.625 214.831 26.9984C215.055 27.3717 215.167 27.7824 215.167 28.2304C215.167 28.725 215.032 29.1777 214.761 29.5884C214.491 29.9897 214.085 30.2604 213.543 30.4004C214.122 30.5217 214.603 30.797 214.985 31.2264C215.368 31.6557 215.559 32.2204 215.559 32.9204C215.559 33.4617 215.433 33.961 215.181 34.4184C214.939 34.8664 214.575 35.2257 214.089 35.4964C213.604 35.767 213.002 35.9024 212.283 35.9024ZM217.252 37.3444V36.2384H224.588V37.3444H217.252ZM229.432 35.9024C228.564 35.9024 227.813 35.6924 227.178 35.2724C226.553 34.843 226.072 34.2504 225.736 33.4944C225.4 32.729 225.232 31.8424 225.232 30.8344C225.232 29.8264 225.4 28.9444 225.736 28.1884C226.072 27.423 226.553 26.8304 227.178 26.4104C227.813 25.981 228.564 25.7664 229.432 25.7664C230.3 25.7664 231.047 25.981 231.672 26.4104C232.298 26.8304 232.778 27.423 233.114 28.1884C233.45 28.9444 233.618 29.8264 233.618 30.8344C233.618 31.8424 233.45 32.729 233.114 33.4944C232.778 34.2504 232.298 34.843 231.672 35.2724C231.047 35.6924 230.3 35.9024 229.432 35.9024ZM229.432 34.8664C230.002 34.8664 230.51 34.7077 230.958 34.3904C231.416 34.0637 231.77 33.6017 232.022 33.0044C232.284 32.3977 232.414 31.6744 232.414 30.8344C232.414 29.9944 232.284 29.2757 232.022 28.6784C231.77 28.081 231.416 27.6237 230.958 27.3064C230.51 26.9797 230.002 26.8164 229.432 26.8164C228.854 26.8164 228.34 26.9797 227.892 27.3064C227.444 27.6237 227.09 28.081 226.828 28.6784C226.567 29.2757 226.436 29.9944 226.436 30.8344C226.436 31.6744 226.567 32.3977 226.828 33.0044C227.09 33.6017 227.444 34.0637 227.892 34.3904C228.34 34.7077 228.854 34.8664 229.432 34.8664ZM235.107 32.1644V31.1704H240.651V32.1644H235.107ZM246.933 35.7344V33.6344H241.963V32.7244L246.723 25.9344H248.095V32.5984H249.551V33.6344H248.095V35.7344H246.933ZM243.265 32.5984H246.989V27.2364L243.265 32.5984ZM254.304 35.9024C253.632 35.9024 253.048 35.781 252.554 35.5384C252.059 35.2957 251.662 34.9644 251.364 34.5444C251.074 34.115 250.897 33.6297 250.832 33.0884H251.98C252.092 33.6297 252.353 34.0684 252.764 34.4044C253.174 34.731 253.692 34.8944 254.318 34.8944C254.784 34.8944 255.186 34.787 255.522 34.5724C255.858 34.3484 256.114 34.0497 256.292 33.6764C256.478 33.303 256.572 32.8877 256.572 32.4304C256.572 31.7024 256.366 31.1144 255.956 30.6664C255.545 30.2184 255.013 29.9944 254.36 29.9944C253.818 29.9944 253.356 30.1157 252.974 30.3584C252.591 30.601 252.311 30.9184 252.134 31.3104H251.014L251.854 25.9344H256.992V26.9564H252.764L252.19 29.9384C252.414 29.6677 252.722 29.4437 253.114 29.2664C253.515 29.089 253.972 29.0004 254.486 29.0004C255.13 29.0004 255.69 29.1497 256.166 29.4484C256.651 29.747 257.029 30.153 257.3 30.6664C257.57 31.1797 257.706 31.763 257.706 32.4164C257.706 33.0417 257.57 33.6204 257.3 34.1524C257.038 34.6844 256.651 35.109 256.138 35.4264C255.634 35.7437 255.022 35.9024 254.304 35.9024ZM259.334 32.1644V31.1704H264.878V32.1644H259.334ZM266.568 35.7344V34.9084C267.23 34.3857 267.856 33.8584 268.444 33.3264C269.041 32.785 269.568 32.253 270.026 31.7304C270.492 31.2077 270.856 30.6944 271.118 30.1904C271.388 29.6864 271.524 29.201 271.524 28.7344C271.524 28.389 271.463 28.067 271.342 27.7684C271.23 27.4697 271.043 27.2317 270.782 27.0544C270.52 26.8677 270.166 26.7744 269.718 26.7744C269.288 26.7744 268.929 26.8724 268.64 27.0684C268.35 27.255 268.131 27.507 267.982 27.8244C267.842 28.1417 267.772 28.4824 267.772 28.8464H266.638C266.638 28.2024 266.773 27.6517 267.044 27.1944C267.314 26.7277 267.683 26.373 268.15 26.1304C268.616 25.8877 269.144 25.7664 269.732 25.7664C270.6 25.7664 271.309 26.0137 271.86 26.5084C272.42 26.9937 272.7 27.7217 272.7 28.6924C272.7 29.271 272.555 29.845 272.266 30.4144C271.976 30.9744 271.608 31.5204 271.16 32.0524C270.712 32.575 270.231 33.065 269.718 33.5224C269.214 33.9797 268.742 34.3904 268.304 34.7544H273.036V35.7344H266.568ZM278.939 35.7344V33.6344H273.969V32.7244L278.729 25.9344H280.101V32.5984H281.557V33.6344H280.101V35.7344H278.939ZM275.271 32.5984H278.995V27.2364L275.271 32.5984ZM286.029 35.9024C285.404 35.9024 284.839 35.7904 284.335 35.5664C283.831 35.333 283.425 34.9877 283.117 34.5304C282.819 34.073 282.66 33.5037 282.641 32.8224H283.831C283.841 33.3824 284.037 33.8677 284.419 34.2784C284.802 34.6797 285.339 34.8804 286.029 34.8804C286.72 34.8804 287.238 34.689 287.583 34.3064C287.938 33.9237 288.115 33.4617 288.115 32.9204C288.115 32.463 288.003 32.0897 287.779 31.8004C287.565 31.511 287.271 31.2964 286.897 31.1564C286.533 31.0164 286.132 30.9464 285.693 30.9464H284.965V29.9524H285.693C286.328 29.9524 286.823 29.8077 287.177 29.5184C287.541 29.229 287.723 28.823 287.723 28.3004C287.723 27.8617 287.579 27.5024 287.289 27.2224C287.009 26.933 286.589 26.7884 286.029 26.7884C285.488 26.7884 285.054 26.9517 284.727 27.2784C284.401 27.5957 284.219 27.997 284.181 28.4824H282.991C283.019 27.9504 283.159 27.479 283.411 27.0684C283.673 26.6577 284.027 26.3404 284.475 26.1164C284.923 25.883 285.441 25.7664 286.029 25.7664C286.664 25.7664 287.191 25.8784 287.611 26.1024C288.041 26.3264 288.363 26.625 288.577 26.9984C288.801 27.3717 288.913 27.7824 288.913 28.2304C288.913 28.725 288.778 29.1777 288.507 29.5884C288.237 29.9897 287.831 30.2604 287.289 30.4004C287.868 30.5217 288.349 30.797 288.731 31.2264C289.114 31.6557 289.305 32.2204 289.305 32.9204C289.305 33.4617 289.179 33.961 288.927 34.4184C288.685 34.8664 288.321 35.2257 287.835 35.4964C287.35 35.767 286.748 35.9024 286.029 35.9024ZM291.544 35.8044C291.311 35.8044 291.115 35.7297 290.956 35.5804C290.807 35.4217 290.732 35.2304 290.732 35.0064C290.732 34.7824 290.807 34.5957 290.956 34.4464C291.115 34.2877 291.311 34.2084 291.544 34.2084C291.768 34.2084 291.955 34.2877 292.104 34.4464C292.263 34.5957 292.342 34.7824 292.342 35.0064C292.342 35.2304 292.263 35.4217 292.104 35.5804C291.955 35.7297 291.768 35.8044 291.544 35.8044ZM293.872 35.7344V28.7904H294.936L295.02 29.7984C295.244 29.425 295.543 29.1357 295.916 28.9304C296.29 28.725 296.71 28.6224 297.176 28.6224C297.727 28.6224 298.198 28.7344 298.59 28.9584C298.992 29.1824 299.3 29.523 299.514 29.9804C299.757 29.5604 300.088 29.229 300.508 28.9864C300.938 28.7437 301.4 28.6224 301.894 28.6224C302.725 28.6224 303.388 28.8744 303.882 29.3784C304.377 29.873 304.624 30.6384 304.624 31.6744V35.7344H303.462V31.8004C303.462 31.0817 303.318 30.5404 303.028 30.1764C302.739 29.8124 302.324 29.6304 301.782 29.6304C301.222 29.6304 300.756 29.8497 300.382 30.2884C300.018 30.7177 299.836 31.3337 299.836 32.1364V35.7344H298.66V31.8004C298.66 31.0817 298.516 30.5404 298.226 30.1764C297.937 29.8124 297.522 29.6304 296.98 29.6304C296.43 29.6304 295.968 29.8497 295.594 30.2884C295.23 30.7177 295.048 31.3337 295.048 32.1364V35.7344H293.872ZM306.396 38.8144V28.7904H307.46L307.572 29.9384C307.796 29.6024 308.113 29.299 308.524 29.0284C308.944 28.7577 309.476 28.6224 310.12 28.6224C310.81 28.6224 311.412 28.781 311.926 29.0984C312.439 29.4157 312.836 29.8497 313.116 30.4004C313.405 30.951 313.55 31.5764 313.55 32.2764C313.55 32.9764 313.405 33.6017 313.116 34.1524C312.836 34.6937 312.434 35.123 311.912 35.4404C311.398 35.7484 310.796 35.9024 310.106 35.9024C309.536 35.9024 309.028 35.7857 308.58 35.5524C308.141 35.319 307.805 34.9924 307.572 34.5724V38.8144H306.396ZM309.98 34.8804C310.446 34.8804 310.857 34.773 311.212 34.5584C311.566 34.3344 311.846 34.0264 312.052 33.6344C312.257 33.2424 312.36 32.785 312.36 32.2624C312.36 31.7397 312.257 31.2824 312.052 30.8904C311.846 30.4984 311.566 30.195 311.212 29.9804C310.857 29.7564 310.446 29.6444 309.98 29.6444C309.513 29.6444 309.102 29.7564 308.748 29.9804C308.393 30.195 308.113 30.4984 307.908 30.8904C307.702 31.2824 307.6 31.7397 307.6 32.2624C307.6 32.785 307.702 33.2424 307.908 33.6344C308.113 34.0264 308.393 34.3344 308.748 34.5584C309.102 34.773 309.513 34.8804 309.98 34.8804ZM319.695 35.7344V33.6344H314.725V32.7244L319.485 25.9344H320.857V32.5984H322.313V33.6344H320.857V35.7344H319.695ZM316.027 32.5984H319.751V27.2364L316.027 32.5984Z" fill="white"/>
<circle cx="32.5" cy="30.7344" r="17.5" stroke="white"/>
<path d="M29.76 22.8482C28.2724 21.9949 27.0664 22.6939 27.0664 24.4083V37.0593C27.0664 38.7753 28.2724 39.4734 29.76 38.6209L40.8176 32.2795C42.3057 31.4259 42.3057 30.0429 40.8176 29.1895L29.76 22.8482Z" fill="white"/>
</svg>
