<svg width="124" height="41" viewBox="0 0 124 41" fill="none" xmlns="http://www.w3.org/2000/svg">
<path d="M31.2243 4.28076H9.32283C9.31928 4.28076 9.31641 4.28395 9.31641 4.28788V28.5831C9.31641 28.587 9.31928 28.5902 9.32283 28.5902H31.2243C31.2279 28.5902 31.2307 28.587 31.2307 28.5831V4.28788C31.2307 4.28395 31.2279 4.28076 31.2243 4.28076Z" fill="#D8D8D8"/>
<path d="M40.2559 1.9535C40.2858 1.76097 40.2774 1.56349 40.2311 1.37496C40.1849 1.18644 40.102 1.01145 39.9882 0.862296C39.8744 0.713145 39.7326 0.593458 39.5726 0.511656C39.4127 0.429854 39.2385 0.387923 39.0624 0.388814H1.49659C1.31944 0.38595 1.14391 0.426428 0.982476 0.507369C0.821041 0.58831 0.677671 0.707724 0.562567 0.857115C0.447463 1.00651 0.363454 1.1822 0.316518 1.3717C0.269582 1.5612 0.260872 1.75984 0.291008 1.9535L5.77638 39.2653C5.82229 39.5795 5.96768 39.8652 6.18645 40.0711C6.40521 40.277 6.683 40.3896 6.9699 40.3887H33.6132C34.2159 40.3887 34.7223 39.9206 34.8187 39.2653L40.2559 1.9535ZM24.4628 26.935H16.1082L13.8537 13.8291H26.4882L24.4628 26.935Z" fill="white"/>
<path d="M51.4094 27.085V15.885H55.6334C56.7961 15.885 57.6761 16.157 58.2734 16.701C58.8708 17.245 59.1694 17.9276 59.1694 18.749C59.1694 19.4636 58.9774 20.0343 58.5934 20.461C58.2094 20.877 57.7454 21.1596 57.2014 21.309C57.6281 21.3943 58.0068 21.565 58.3374 21.821C58.6788 22.077 58.9454 22.397 59.1374 22.781C59.3294 23.165 59.4254 23.581 59.4254 24.029C59.4254 24.605 59.2814 25.1276 58.9934 25.597C58.7161 26.0556 58.3054 26.4183 57.7614 26.685C57.2174 26.9516 56.5508 27.085 55.7614 27.085H51.4094ZM53.1054 20.685H55.4254C56.0761 20.685 56.5721 20.5356 56.9134 20.237C57.2548 19.9276 57.4254 19.5063 57.4254 18.973C57.4254 18.4503 57.2548 18.0343 56.9134 17.725C56.5828 17.4156 56.0761 17.261 55.3934 17.261H53.1054V20.685ZM53.1054 25.693H55.5374C56.2201 25.693 56.7481 25.533 57.1214 25.213C57.5054 24.893 57.6974 24.445 57.6974 23.869C57.6974 23.293 57.5001 22.8396 57.1054 22.509C56.7108 22.1676 56.1774 21.997 55.5054 21.997H53.1054V25.693ZM62.1804 17.645C61.8604 17.645 61.5938 17.549 61.3804 17.357C61.1778 17.1543 61.0764 16.9036 61.0764 16.605C61.0764 16.3063 61.1778 16.061 61.3804 15.869C61.5938 15.6663 61.8604 15.565 62.1804 15.565C62.5004 15.565 62.7618 15.6663 62.9644 15.869C63.1778 16.061 63.2844 16.3063 63.2844 16.605C63.2844 16.9036 63.1778 17.1543 62.9644 17.357C62.7618 17.549 62.5004 17.645 62.1804 17.645ZM61.3324 27.085V19.149H63.0284V27.085H61.3324ZM68.5953 27.085C67.8166 27.085 67.198 26.8983 66.7393 26.525C66.2806 26.141 66.0513 25.4636 66.0513 24.493V20.573H64.6913V19.149H66.0513L66.2593 17.133H67.7473V19.149H69.9873V20.573H67.7473V24.493C67.7473 24.9303 67.838 25.2343 68.0193 25.405C68.2113 25.565 68.5366 25.645 68.9953 25.645H69.9073V27.085H68.5953ZM76.2001 27.277C75.5814 27.277 75.0321 27.1543 74.5521 26.909C74.0827 26.6636 73.7094 26.317 73.4321 25.869L73.2561 27.085H71.7361V15.565H73.4321V20.381C73.6881 20.0076 74.0401 19.677 74.4881 19.389C74.9361 19.101 75.5121 18.957 76.2161 18.957C76.9841 18.957 77.6614 19.1383 78.2481 19.501C78.8347 19.8636 79.2934 20.3596 79.6241 20.989C79.9654 21.6183 80.1361 22.333 80.1361 23.133C80.1361 23.933 79.9654 24.6476 79.6241 25.277C79.2934 25.8956 78.8347 26.3863 78.2481 26.749C77.6614 27.101 76.9787 27.277 76.2001 27.277ZM75.9121 25.805C76.6374 25.805 77.2347 25.5596 77.7041 25.069C78.1734 24.5676 78.4081 23.917 78.4081 23.117C78.4081 22.5943 78.3014 22.1303 78.0881 21.725C77.8747 21.3196 77.5814 21.005 77.2081 20.781C76.8347 20.5463 76.4027 20.429 75.9121 20.429C75.1867 20.429 74.5894 20.6796 74.1201 21.181C73.6614 21.6823 73.4321 22.3276 73.4321 23.117C73.4321 23.917 73.6614 24.5676 74.1201 25.069C74.5894 25.5596 75.1867 25.805 75.9121 25.805ZM84.8984 27.277C83.9384 27.277 83.1811 26.9783 82.6264 26.381C82.0824 25.7836 81.8104 24.893 81.8104 23.709V19.149H83.5064V23.533C83.5064 25.069 84.1358 25.837 85.3944 25.837C86.0238 25.837 86.5411 25.613 86.9464 25.165C87.3518 24.717 87.5544 24.077 87.5544 23.245V19.149H89.2504V27.085H87.7464L87.6184 25.693C87.3731 26.1836 87.0104 26.573 86.5304 26.861C86.0611 27.1383 85.5171 27.277 84.8984 27.277ZM95.1679 27.277C94.3893 27.277 93.6906 27.101 93.0719 26.749C92.4639 26.397 91.9839 25.9116 91.6319 25.293C91.2906 24.6636 91.1199 23.9383 91.1199 23.117C91.1199 22.2956 91.2906 21.5756 91.6319 20.957C91.9839 20.3276 92.4639 19.837 93.0719 19.485C93.6906 19.133 94.3893 18.957 95.1679 18.957C96.1493 18.957 96.9706 19.213 97.6319 19.725C98.3039 20.237 98.7359 20.9303 98.9279 21.805H97.1519C97.0453 21.3676 96.8106 21.0263 96.4479 20.781C96.0853 20.5356 95.6586 20.413 95.1679 20.413C94.7519 20.413 94.3679 20.5196 94.0159 20.733C93.6639 20.9356 93.3813 21.2396 93.1679 21.645C92.9546 22.0396 92.8479 22.5303 92.8479 23.117C92.8479 23.7036 92.9546 24.1996 93.1679 24.605C93.3813 24.9996 93.6639 25.3036 94.0159 25.517C94.3679 25.7303 94.7519 25.837 95.1679 25.837C95.6586 25.837 96.0853 25.7143 96.4479 25.469C96.8106 25.2236 97.0453 24.877 97.1519 24.429H98.9279C98.7466 25.2823 98.3199 25.9703 97.6479 26.493C96.9759 27.0156 96.1493 27.277 95.1679 27.277ZM100.767 27.085V15.565H102.463V22.429L105.503 19.149H107.535L104.159 22.749L108.031 27.085H105.887L102.463 23.021V27.085H100.767ZM112.448 27.277C111.669 27.277 110.976 27.1063 110.368 26.765C109.771 26.413 109.301 25.9276 108.96 25.309C108.619 24.6903 108.448 23.9703 108.448 23.149C108.448 22.317 108.613 21.5863 108.944 20.957C109.285 20.3276 109.755 19.837 110.352 19.485C110.96 19.133 111.664 18.957 112.464 18.957C113.243 18.957 113.92 19.133 114.496 19.485C115.072 19.8263 115.52 20.285 115.84 20.861C116.16 21.437 116.32 22.0716 116.32 22.765C116.32 22.8716 116.315 22.989 116.304 23.117C116.304 23.2343 116.299 23.3676 116.288 23.517H110.112C110.165 24.285 110.416 24.8716 110.864 25.277C111.323 25.6716 111.851 25.869 112.448 25.869C112.928 25.869 113.328 25.7623 113.648 25.549C113.979 25.325 114.224 25.0263 114.384 24.653H116.08C115.867 25.3996 115.44 26.0236 114.8 26.525C114.171 27.0263 113.387 27.277 112.448 27.277ZM112.448 20.349C111.883 20.349 111.381 20.5196 110.944 20.861C110.507 21.1916 110.24 21.693 110.144 22.365H114.624C114.592 21.7463 114.373 21.2556 113.968 20.893C113.563 20.5303 113.056 20.349 112.448 20.349ZM121.205 27.085C120.426 27.085 119.807 26.8983 119.349 26.525C118.89 26.141 118.661 25.4636 118.661 24.493V20.573H117.301V19.149H118.661L118.869 17.133H120.357V19.149H122.597V20.573H120.357V24.493C120.357 24.9303 120.447 25.2343 120.629 25.405C120.821 25.565 121.146 25.645 121.605 25.645H122.517V27.085H121.205Z" fill="white"/>
</svg>
