<svg width="147" height="43" viewBox="0 0 147 43" fill="none" xmlns="http://www.w3.org/2000/svg">
<path fill-rule="evenodd" clip-rule="evenodd" d="M25.5951 0.929688L0.201416 14.8063L17.3561 42.9291L17.357 42.9285L17.3579 42.9297L47.0704 26.6928L35.9557 8.47181L31.6357 10.8325L25.5951 0.929688Z" fill="#184542"/>
<path fill-rule="evenodd" clip-rule="evenodd" d="M7.72561 15.2212C7.31822 15.4439 7.17861 15.9369 7.4138 16.3224L18.0174 33.7058C18.723 34.8624 20.2856 35.2586 21.5076 34.5908L23.0124 33.7686L23.0132 33.7701L33.9647 27.7856L33.9642 27.7847C37.4408 25.8395 38.6216 21.6022 36.5974 18.284C34.5605 14.9446 30.049 13.8004 26.5207 15.7284C26.4966 15.7416 26.4726 15.755 26.4485 15.7685C26.7411 14.4645 26.545 13.0574 25.7853 11.812C24.1974 9.20886 20.7325 8.27099 17.9432 9.6457L17.9394 9.63974L7.72561 15.2212Z" fill="#A7FC81"/>
<path d="M69.9041 15.7495H69.3458V15.679C74.4072 15.679 77.4218 13.6711 77.4218 10.3599C77.4218 6.76689 74.5562 4.65332 69.6807 4.65332H57.7341V30.7203H69.383C75.7098 30.7203 79.4315 27.867 79.4315 23.0059C79.4315 18.4265 75.8959 15.7495 69.9041 15.7495ZM72.0998 12.0507C72.0998 14.3052 70.574 15.679 68.006 15.679H62.87V8.42255H68.006C70.574 8.42255 72.0998 9.79634 72.0998 12.0507ZM69.6435 26.9511H62.87V19.0605H69.6435C72.4347 19.0605 74.1095 20.5402 74.1095 23.0059C74.1095 25.4718 72.4347 26.9511 69.6435 26.9511Z" fill="#184542"/>
<path d="M83.1965 30.7203H88.1091V4.65332H83.1965V30.7203Z" fill="#184542"/>
<path d="M110.352 21.8785C110.352 16.0662 106.928 12.6846 101.196 12.6846C95.3903 12.6846 91.9666 16.0662 91.9666 21.8785C91.9666 27.6554 95.3903 31.0723 101.196 31.0723C106.258 31.0723 109.682 28.6066 110.352 24.4147H105.588C105.104 26.3521 103.504 27.5498 101.196 27.5498C98.5539 27.5498 96.9163 25.6476 96.7302 22.4067H110.352V21.8785ZM101.196 16.172C103.652 16.172 105.253 17.8628 105.551 20.8218H96.7675C97.1024 17.8628 98.7028 16.172 101.196 16.172Z" fill="#184542"/>
<path d="M126.042 13.0371L121.798 30.4035H121.724L117.481 13.0371H112.234L117.109 30.7205H121.166L118.896 38.8222H124.144L131.289 13.0371H126.042Z" fill="#184542"/>
<path d="M146.202 16.2415V13.036H135.929V12.9655C138.908 12.4371 140.694 10.8521 140.694 8.59762V7.11823H135.781V13.036H132.803V16.2415H135.483V25.3649C135.483 28.9581 137.828 31.0715 141.81 31.0715C143.225 31.0715 144.75 30.7545 145.867 30.2614V26.8092C145.197 27.1615 144.267 27.3729 143.373 27.3729C141.513 27.3729 140.396 26.4218 140.396 24.7661V16.2415H146.202Z" fill="#184542"/>
</svg>
