<svg width="165" height="165" viewBox="0 0 165 165" fill="none" xmlns="http://www.w3.org/2000/svg">
<mask id="path-1-inside-1_1184_8530" fill="white">
<path d="M89.5973 22.67C74.3919 20.7892 59.0429 24.7964 46.6975 33.8703C34.3521 42.9441 25.9456 56.3969 23.2016 71.4706C20.4577 86.5442 23.5841 102.096 31.94 114.939C40.2959 127.781 53.2481 136.94 68.1409 140.538C83.0338 144.136 98.7389 141.901 112.036 134.29C125.334 126.679 135.216 114.27 139.656 99.606C144.097 84.9423 142.759 69.1353 135.918 55.426C129.077 41.7168 117.251 31.1439 102.864 25.8753L96.6743 42.7776C106.745 46.4656 115.024 53.8666 119.812 63.4631C124.601 73.0596 125.537 84.1245 122.429 94.3891C119.32 104.654 112.403 113.34 103.095 118.668C93.7867 123.995 82.7931 125.56 72.3681 123.042C61.9431 120.523 52.8766 114.112 47.0275 105.122C41.1784 96.1324 38.9898 85.2458 40.9106 74.6943C42.8314 64.1427 48.7159 54.7257 57.3577 48.374C65.9995 42.0224 76.7438 39.2173 87.3876 40.5339L89.5973 22.67Z"/>
</mask>
<path d="M89.5973 22.67C74.3919 20.7892 59.0429 24.7964 46.6975 33.8703C34.3521 42.9441 25.9456 56.3969 23.2016 71.4706C20.4577 86.5442 23.5841 102.096 31.94 114.939C40.2959 127.781 53.2481 136.94 68.1409 140.538C83.0338 144.136 98.7389 141.901 112.036 134.29C125.334 126.679 135.216 114.27 139.656 99.606C144.097 84.9423 142.759 69.1353 135.918 55.426C129.077 41.7168 117.251 31.1439 102.864 25.8753L96.6743 42.7776C106.745 46.4656 115.024 53.8666 119.812 63.4631C124.601 73.0596 125.537 84.1245 122.429 94.3891C119.32 104.654 112.403 113.34 103.095 118.668C93.7867 123.995 82.7931 125.56 72.3681 123.042C61.9431 120.523 52.8766 114.112 47.0275 105.122C41.1784 96.1324 38.9898 85.2458 40.9106 74.6943C42.8314 64.1427 48.7159 54.7257 57.3577 48.374C65.9995 42.0224 76.7438 39.2173 87.3876 40.5339L89.5973 22.67Z" stroke="#7AFF88" stroke-width="32" mask="url(#path-1-inside-1_1184_8530)"/>
<mask id="path-2-inside-2_1184_8530" fill="white">
<path d="M93.4244 23.2695C92.1451 23.0265 90.8583 22.8253 89.5659 22.6662L87.3656 40.5312C88.2702 40.6426 89.171 40.7834 90.0666 40.9535L93.4244 23.2695Z"/>
</mask>
<path d="M93.4244 23.2695C92.1451 23.0265 90.8583 22.8253 89.5659 22.6662L87.3656 40.5312C88.2702 40.6426 89.171 40.7834 90.0666 40.9535L93.4244 23.2695Z" stroke="#EC8A00" stroke-width="32" mask="url(#path-2-inside-2_1184_8530)"/>
<mask id="path-3-inside-3_1184_8530" fill="white">
<path d="M103.192 25.9963C101.98 25.5447 100.755 25.1323 99.5166 24.7599L94.3311 41.9968C95.1977 42.2575 96.0556 42.5461 96.9035 42.8623L103.192 25.9963Z"/>
</mask>
<path d="M103.192 25.9963C101.98 25.5447 100.755 25.1323 99.5166 24.7599L94.3311 41.9968C95.1977 42.2575 96.0556 42.5461 96.9035 42.8623L103.192 25.9963Z" stroke="#2054D2" stroke-width="32" mask="url(#path-3-inside-3_1184_8530)"/>
<mask id="path-4-inside-4_1184_8530" fill="white">
<path d="M96.1369 23.8498C97.3595 24.141 98.5725 24.4706 99.7744 24.8381L94.5115 42.0515C93.6703 41.7943 92.8211 41.5636 91.9653 41.3597L96.1369 23.8498Z"/>
</mask>
<path d="M96.1369 23.8498C97.3595 24.141 98.5725 24.4706 99.7744 24.8381L94.5115 42.0515C93.6703 41.7943 92.8211 41.5636 91.9653 41.3597L96.1369 23.8498Z" stroke="#EDD500" stroke-width="32" mask="url(#path-4-inside-4_1184_8530)"/>
<mask id="path-5-inside-5_1184_8530" fill="white">
<path d="M93.3398 23.2535C94.5748 23.4861 95.8022 23.7575 97.0202 24.0673L92.5836 41.512C91.731 41.2951 90.8718 41.1051 90.0073 40.9423L93.3398 23.2535Z"/>
</mask>
<path d="M93.3398 23.2535C94.5748 23.4861 95.8022 23.7575 97.0202 24.0673L92.5836 41.512C91.731 41.2951 90.8718 41.1051 90.0073 40.9423L93.3398 23.2535Z" stroke="#C8C9CB" stroke-width="32" mask="url(#path-5-inside-5_1184_8530)"/>
</svg>
