<svg width="279" height="76" viewBox="0 0 279 76" fill="none" xmlns="http://www.w3.org/2000/svg">
<rect width="278.07" height="76" rx="5" fill="#EF44A0" fill-opacity="0.1"/>
<path d="M76.8266 33V21.8H80.2666C82.2399 21.8 83.6906 22.3013 84.6186 23.304C85.5572 24.3067 86.0266 25.6827 86.0266 27.432C86.0266 29.1493 85.5572 30.5093 84.6186 31.512C83.6906 32.504 82.2399 33 80.2666 33H76.8266ZM78.1706 31.88H80.2346C81.3226 31.88 82.1866 31.704 82.8266 31.352C83.4772 30.9893 83.9412 30.4773 84.2186 29.816C84.4959 29.144 84.6346 28.3493 84.6346 27.432C84.6346 26.4933 84.4959 25.688 84.2186 25.016C83.9412 24.344 83.4772 23.8267 82.8266 23.464C82.1866 23.1013 81.3226 22.92 80.2346 22.92H78.1706V31.88ZM91.5032 33.192C90.7565 33.192 90.0845 33.0213 89.4872 32.68C88.8899 32.3387 88.4152 31.8587 88.0632 31.24C87.7219 30.6107 87.5512 29.8747 87.5512 29.032C87.5512 28.1893 87.7272 27.4587 88.0792 26.84C88.4312 26.2107 88.9059 25.7253 89.5032 25.384C90.1112 25.0427 90.7885 24.872 91.5352 24.872C92.2819 24.872 92.9539 25.0427 93.5512 25.384C94.1485 25.7253 94.6179 26.2107 94.9592 26.84C95.3112 27.4587 95.4872 28.1893 95.4872 29.032C95.4872 29.8747 95.3112 30.6107 94.9592 31.24C94.6072 31.8587 94.1272 32.3387 93.5192 32.68C92.9219 33.0213 92.2499 33.192 91.5032 33.192ZM91.5032 32.04C91.9619 32.04 92.3885 31.928 92.7832 31.704C93.1779 31.48 93.4979 31.144 93.7432 30.696C93.9885 30.248 94.1112 29.6933 94.1112 29.032C94.1112 28.3707 93.9885 27.816 93.7432 27.368C93.5085 26.92 93.1939 26.584 92.7992 26.36C92.4045 26.136 91.9832 26.024 91.5352 26.024C91.0765 26.024 90.6499 26.136 90.2552 26.36C89.8605 26.584 89.5405 26.92 89.2952 27.368C89.0499 27.816 88.9272 28.3707 88.9272 29.032C88.9272 29.6933 89.0499 30.248 89.2952 30.696C89.5405 31.144 89.8552 31.48 90.2392 31.704C90.6339 31.928 91.0552 32.04 91.5032 32.04ZM101.59 33V25.064H102.806L102.886 26.488C103.142 25.9867 103.51 25.592 103.99 25.304C104.47 25.016 105.014 24.872 105.622 24.872C106.561 24.872 107.308 25.16 107.862 25.736C108.428 26.3013 108.71 27.176 108.71 28.36V33H107.366V28.504C107.366 26.8507 106.684 26.024 105.318 26.024C104.636 26.024 104.065 26.2747 103.606 26.776C103.158 27.2667 102.934 27.9707 102.934 28.888V33H101.59ZM114.363 33.192C113.616 33.192 112.944 33.0213 112.347 32.68C111.749 32.3387 111.275 31.8587 110.923 31.24C110.581 30.6107 110.411 29.8747 110.411 29.032C110.411 28.1893 110.587 27.4587 110.939 26.84C111.291 26.2107 111.765 25.7253 112.363 25.384C112.971 25.0427 113.648 24.872 114.395 24.872C115.141 24.872 115.813 25.0427 116.411 25.384C117.008 25.7253 117.477 26.2107 117.819 26.84C118.171 27.4587 118.347 28.1893 118.347 29.032C118.347 29.8747 118.171 30.6107 117.819 31.24C117.467 31.8587 116.987 32.3387 116.379 32.68C115.781 33.0213 115.109 33.192 114.363 33.192ZM114.363 32.04C114.821 32.04 115.248 31.928 115.643 31.704C116.037 31.48 116.357 31.144 116.603 30.696C116.848 30.248 116.971 29.6933 116.971 29.032C116.971 28.3707 116.848 27.816 116.603 27.368C116.368 26.92 116.053 26.584 115.659 26.36C115.264 26.136 114.843 26.024 114.395 26.024C113.936 26.024 113.509 26.136 113.115 26.36C112.72 26.584 112.4 26.92 112.155 27.368C111.909 27.816 111.787 28.3707 111.787 29.032C111.787 29.6933 111.909 30.248 112.155 30.696C112.4 31.144 112.715 31.48 113.099 31.704C113.493 31.928 113.915 32.04 114.363 32.04ZM123.039 33C122.313 33 121.743 32.824 121.327 32.472C120.911 32.12 120.703 31.4853 120.703 30.568V26.2H119.327V25.064H120.703L120.879 23.16H122.047V25.064H124.383V26.2H122.047V30.568C122.047 31.0693 122.148 31.4107 122.351 31.592C122.553 31.7627 122.911 31.848 123.423 31.848H124.255V33H123.039ZM133.973 33.192C133.215 33.192 132.533 33.0213 131.925 32.68C131.327 32.328 130.853 31.8427 130.501 31.224C130.159 30.5947 129.989 29.864 129.989 29.032C129.989 28.2 130.159 27.4747 130.501 26.856C130.853 26.2267 131.327 25.7413 131.925 25.4C132.533 25.048 133.215 24.872 133.973 24.872C134.911 24.872 135.701 25.1173 136.341 25.608C136.991 26.0987 137.402 26.7547 137.573 27.576H136.197C136.09 27.0853 135.829 26.7067 135.413 26.44C134.997 26.1627 134.511 26.024 133.957 26.024C133.509 26.024 133.087 26.136 132.693 26.36C132.298 26.584 131.978 26.92 131.733 27.368C131.487 27.816 131.365 28.3707 131.365 29.032C131.365 29.6933 131.487 30.248 131.733 30.696C131.978 31.144 132.298 31.4853 132.693 31.72C133.087 31.944 133.509 32.056 133.957 32.056C134.511 32.056 134.997 31.9227 135.413 31.656C135.829 31.3787 136.09 30.9893 136.197 30.488H137.573C137.413 31.288 137.007 31.9387 136.357 32.44C135.706 32.9413 134.911 33.192 133.973 33.192ZM143.066 33.192C142.319 33.192 141.647 33.0213 141.05 32.68C140.452 32.3387 139.978 31.8587 139.626 31.24C139.284 30.6107 139.114 29.8747 139.114 29.032C139.114 28.1893 139.29 27.4587 139.642 26.84C139.994 26.2107 140.468 25.7253 141.066 25.384C141.674 25.0427 142.351 24.872 143.098 24.872C143.844 24.872 144.516 25.0427 145.114 25.384C145.711 25.7253 146.18 26.2107 146.522 26.84C146.874 27.4587 147.05 28.1893 147.05 29.032C147.05 29.8747 146.874 30.6107 146.522 31.24C146.17 31.8587 145.69 32.3387 145.082 32.68C144.484 33.0213 143.812 33.192 143.066 33.192ZM143.066 32.04C143.524 32.04 143.951 31.928 144.346 31.704C144.74 31.48 145.06 31.144 145.306 30.696C145.551 30.248 145.674 29.6933 145.674 29.032C145.674 28.3707 145.551 27.816 145.306 27.368C145.071 26.92 144.756 26.584 144.362 26.36C143.967 26.136 143.546 26.024 143.098 26.024C142.639 26.024 142.212 26.136 141.818 26.36C141.423 26.584 141.103 26.92 140.858 27.368C140.612 27.816 140.49 28.3707 140.49 29.032C140.49 29.6933 140.612 30.248 140.858 30.696C141.103 31.144 141.418 31.48 141.802 31.704C142.196 31.928 142.618 32.04 143.066 32.04ZM148.918 33V25.064H150.134L150.214 26.488C150.47 25.9867 150.838 25.592 151.318 25.304C151.798 25.016 152.342 24.872 152.95 24.872C153.889 24.872 154.636 25.16 155.19 25.736C155.756 26.3013 156.038 27.176 156.038 28.36V33H154.694V28.504C154.694 26.8507 154.012 26.024 152.646 26.024C151.964 26.024 151.393 26.2747 150.934 26.776C150.486 27.2667 150.262 27.9707 150.262 28.888V33H148.918ZM161.211 33C160.485 33 159.915 32.824 159.499 32.472C159.083 32.12 158.875 31.4853 158.875 30.568V26.2H157.499V25.064H158.875L159.051 23.16H160.219V25.064H162.555V26.2H160.219V30.568C160.219 31.0693 160.32 31.4107 160.523 31.592C160.725 31.7627 161.083 31.848 161.595 31.848H162.427V33H161.211ZM166.902 33.192C166.241 33.192 165.692 33.08 165.254 32.856C164.817 32.632 164.492 32.3333 164.278 31.96C164.065 31.5867 163.958 31.1813 163.958 30.744C163.958 29.9333 164.268 29.3093 164.886 28.872C165.505 28.4347 166.348 28.216 167.414 28.216H169.558V28.12C169.558 27.4267 169.377 26.904 169.014 26.552C168.652 26.1893 168.166 26.008 167.558 26.008C167.036 26.008 166.582 26.1413 166.198 26.408C165.825 26.664 165.59 27.0427 165.494 27.544H164.118C164.172 26.968 164.364 26.4827 164.694 26.088C165.036 25.6933 165.457 25.3947 165.958 25.192C166.46 24.9787 166.993 24.872 167.558 24.872C168.668 24.872 169.5 25.1707 170.054 25.768C170.62 26.3547 170.902 27.1387 170.902 28.12V33H169.702L169.622 31.576C169.398 32.024 169.068 32.408 168.63 32.728C168.204 33.0373 167.628 33.192 166.902 33.192ZM167.11 32.056C167.622 32.056 168.06 31.9227 168.422 31.656C168.796 31.3893 169.078 31.0427 169.27 30.616C169.462 30.1893 169.558 29.7413 169.558 29.272V29.256H167.526C166.737 29.256 166.177 29.3947 165.846 29.672C165.526 29.9387 165.366 30.2747 165.366 30.68C165.366 31.096 165.516 31.432 165.814 31.688C166.124 31.9333 166.556 32.056 167.11 32.056ZM176.566 33.192C175.809 33.192 175.126 33.0213 174.518 32.68C173.921 32.328 173.446 31.8427 173.094 31.224C172.753 30.5947 172.582 29.864 172.582 29.032C172.582 28.2 172.753 27.4747 173.094 26.856C173.446 26.2267 173.921 25.7413 174.518 25.4C175.126 25.048 175.809 24.872 176.566 24.872C177.505 24.872 178.294 25.1173 178.934 25.608C179.585 26.0987 179.996 26.7547 180.166 27.576H178.79C178.684 27.0853 178.422 26.7067 178.006 26.44C177.59 26.1627 177.105 26.024 176.55 26.024C176.102 26.024 175.681 26.136 175.286 26.36C174.892 26.584 174.572 26.92 174.326 27.368C174.081 27.816 173.958 28.3707 173.958 29.032C173.958 29.6933 174.081 30.248 174.326 30.696C174.572 31.144 174.892 31.4853 175.286 31.72C175.681 31.944 176.102 32.056 176.55 32.056C177.105 32.056 177.59 31.9227 178.006 31.656C178.422 31.3787 178.684 30.9893 178.79 30.488H180.166C180.006 31.288 179.601 31.9387 178.95 32.44C178.3 32.9413 177.505 33.192 176.566 33.192ZM184.961 33C184.235 33 183.665 32.824 183.249 32.472C182.833 32.12 182.625 31.4853 182.625 30.568V26.2H181.249V25.064H182.625L182.801 23.16H183.969V25.064H186.305V26.2H183.969V30.568C183.969 31.0693 184.07 31.4107 184.273 31.592C184.475 31.7627 184.833 31.848 185.345 31.848H186.177V33H184.961ZM195.895 33.192C195.137 33.192 194.455 33.0213 193.847 32.68C193.249 32.328 192.775 31.8427 192.423 31.224C192.081 30.5947 191.911 29.864 191.911 29.032C191.911 28.2 192.081 27.4747 192.423 26.856C192.775 26.2267 193.249 25.7413 193.847 25.4C194.455 25.048 195.137 24.872 195.895 24.872C196.833 24.872 197.623 25.1173 198.263 25.608C198.913 26.0987 199.324 26.7547 199.495 27.576H198.119C198.012 27.0853 197.751 26.7067 197.335 26.44C196.919 26.1627 196.433 26.024 195.879 26.024C195.431 26.024 195.009 26.136 194.615 26.36C194.22 26.584 193.9 26.92 193.655 27.368C193.409 27.816 193.287 28.3707 193.287 29.032C193.287 29.6933 193.409 30.248 193.655 30.696C193.9 31.144 194.22 31.4853 194.615 31.72C195.009 31.944 195.431 32.056 195.879 32.056C196.433 32.056 196.919 31.9227 197.335 31.656C197.751 31.3787 198.012 30.9893 198.119 30.488H199.495C199.335 31.288 198.929 31.9387 198.279 32.44C197.628 32.9413 196.833 33.192 195.895 33.192ZM204.268 33.192C203.329 33.192 202.582 32.9093 202.028 32.344C201.473 31.768 201.196 30.888 201.196 29.704V25.064H202.54V29.56C202.54 31.2133 203.217 32.04 204.572 32.04C205.265 32.04 205.836 31.7947 206.284 31.304C206.742 30.8027 206.972 30.0933 206.972 29.176V25.064H208.316V33H207.1L207.004 31.576C206.758 32.0773 206.39 32.472 205.9 32.76C205.42 33.048 204.876 33.192 204.268 33.192ZM213.568 33.192C212.618 33.192 211.829 32.952 211.2 32.472C210.57 31.992 210.202 31.3413 210.096 30.52H211.472C211.557 30.936 211.776 31.2987 212.128 31.608C212.49 31.9067 212.976 32.056 213.584 32.056C214.149 32.056 214.565 31.9387 214.832 31.704C215.098 31.4587 215.232 31.1707 215.232 30.84C215.232 30.36 215.056 30.04 214.704 29.88C214.362 29.72 213.877 29.576 213.248 29.448C212.821 29.3627 212.394 29.24 211.968 29.08C211.541 28.92 211.184 28.696 210.896 28.408C210.608 28.1093 210.464 27.72 210.464 27.24C210.464 26.5467 210.72 25.9813 211.232 25.544C211.754 25.096 212.458 24.872 213.344 24.872C214.186 24.872 214.874 25.0853 215.408 25.512C215.952 25.928 216.266 26.5253 216.352 27.304H215.024C214.97 26.8987 214.794 26.584 214.496 26.36C214.208 26.1253 213.818 26.008 213.328 26.008C212.848 26.008 212.474 26.1093 212.208 26.312C211.952 26.5147 211.824 26.7813 211.824 27.112C211.824 27.432 211.989 27.6827 212.32 27.864C212.661 28.0453 213.12 28.2 213.696 28.328C214.186 28.4347 214.65 28.568 215.088 28.728C215.536 28.8773 215.898 29.1067 216.176 29.416C216.464 29.7147 216.608 30.152 216.608 30.728C216.618 31.4427 216.346 32.0347 215.792 32.504C215.248 32.9627 214.506 33.192 213.568 33.192ZM221.304 33C220.579 33 220.008 32.824 219.592 32.472C219.176 32.12 218.968 31.4853 218.968 30.568V26.2H217.592V25.064H218.968L219.144 23.16H220.312V25.064H222.648V26.2H220.312V30.568C220.312 31.0693 220.414 31.4107 220.616 31.592C220.819 31.7627 221.176 31.848 221.688 31.848H222.52V33H221.304ZM227.753 33.192C227.007 33.192 226.335 33.0213 225.737 32.68C225.14 32.3387 224.665 31.8587 224.313 31.24C223.972 30.6107 223.801 29.8747 223.801 29.032C223.801 28.1893 223.977 27.4587 224.329 26.84C224.681 26.2107 225.156 25.7253 225.753 25.384C226.361 25.0427 227.039 24.872 227.785 24.872C228.532 24.872 229.204 25.0427 229.801 25.384C230.399 25.7253 230.868 26.2107 231.209 26.84C231.561 27.4587 231.737 28.1893 231.737 29.032C231.737 29.8747 231.561 30.6107 231.209 31.24C230.857 31.8587 230.377 32.3387 229.769 32.68C229.172 33.0213 228.5 33.192 227.753 33.192ZM227.753 32.04C228.212 32.04 228.639 31.928 229.033 31.704C229.428 31.48 229.748 31.144 229.993 30.696C230.239 30.248 230.361 29.6933 230.361 29.032C230.361 28.3707 230.239 27.816 229.993 27.368C229.759 26.92 229.444 26.584 229.049 26.36C228.655 26.136 228.233 26.024 227.785 26.024C227.327 26.024 226.9 26.136 226.505 26.36C226.111 26.584 225.791 26.92 225.545 27.368C225.3 27.816 225.177 28.3707 225.177 29.032C225.177 29.6933 225.3 30.248 225.545 30.696C225.791 31.144 226.105 31.48 226.489 31.704C226.884 31.928 227.305 32.04 227.753 32.04ZM233.606 33V25.064H234.822L234.918 26.216C235.174 25.7893 235.515 25.4587 235.942 25.224C236.369 24.9893 236.849 24.872 237.382 24.872C238.011 24.872 238.55 25 238.998 25.256C239.457 25.512 239.809 25.9013 240.054 26.424C240.331 25.944 240.71 25.5653 241.19 25.288C241.681 25.0107 242.209 24.872 242.774 24.872C243.723 24.872 244.481 25.16 245.046 25.736C245.611 26.3013 245.894 27.176 245.894 28.36V33H244.566V28.504C244.566 27.6827 244.401 27.064 244.07 26.648C243.739 26.232 243.265 26.024 242.646 26.024C242.006 26.024 241.473 26.2747 241.046 26.776C240.63 27.2667 240.422 27.9707 240.422 28.888V33H239.078V28.504C239.078 27.6827 238.913 27.064 238.582 26.648C238.251 26.232 237.777 26.024 237.158 26.024C236.529 26.024 236.001 26.2747 235.574 26.776C235.158 27.2667 234.95 27.9707 234.95 28.888V33H233.606ZM251.486 33.192C250.729 33.192 250.057 33.0213 249.47 32.68C248.884 32.328 248.42 31.8427 248.078 31.224C247.748 30.6053 247.582 29.8747 247.582 29.032C247.582 28.2 247.748 27.4747 248.078 26.856C248.409 26.2267 248.868 25.7413 249.454 25.4C250.052 25.048 250.74 24.872 251.518 24.872C252.286 24.872 252.948 25.048 253.502 25.4C254.068 25.7413 254.5 26.1947 254.798 26.76C255.097 27.3253 255.246 27.9333 255.246 28.584C255.246 28.7013 255.241 28.8187 255.23 28.936C255.23 29.0533 255.23 29.1867 255.23 29.336H248.91C248.942 29.944 249.081 30.4507 249.326 30.856C249.582 31.2507 249.897 31.5493 250.27 31.752C250.654 31.9547 251.06 32.056 251.486 32.056C252.041 32.056 252.505 31.928 252.878 31.672C253.252 31.416 253.524 31.0693 253.694 30.632H255.022C254.809 31.368 254.398 31.9813 253.79 32.472C253.193 32.952 252.425 33.192 251.486 33.192ZM251.486 26.008C250.846 26.008 250.276 26.2053 249.774 26.6C249.284 26.984 249.001 27.5493 248.926 28.296H253.918C253.886 27.5813 253.641 27.0213 253.182 26.616C252.724 26.2107 252.158 26.008 251.486 26.008ZM257.028 33V25.064H258.244L258.356 26.584C258.601 26.0613 258.974 25.6453 259.476 25.336C259.977 25.0267 260.596 24.872 261.332 24.872V26.28H260.964C260.494 26.28 260.062 26.3653 259.668 26.536C259.273 26.696 258.958 26.9733 258.724 27.368C258.489 27.7627 258.372 28.3067 258.372 29V33H257.028ZM79.7866 54.192C78.8372 54.192 78.0479 53.952 77.4186 53.472C76.7892 52.992 76.4212 52.3413 76.3146 51.52H77.6906C77.7759 51.936 77.9946 52.2987 78.3466 52.608C78.7092 52.9067 79.1946 53.056 79.8026 53.056C80.3679 53.056 80.7839 52.9387 81.0506 52.704C81.3172 52.4587 81.4506 52.1707 81.4506 51.84C81.4506 51.36 81.2746 51.04 80.9226 50.88C80.5812 50.72 80.0959 50.576 79.4666 50.448C79.0399 50.3627 78.6132 50.24 78.1866 50.08C77.7599 49.92 77.4026 49.696 77.1146 49.408C76.8266 49.1093 76.6826 48.72 76.6826 48.24C76.6826 47.5467 76.9386 46.9813 77.4506 46.544C77.9732 46.096 78.6772 45.872 79.5626 45.872C80.4052 45.872 81.0932 46.0853 81.6266 46.512C82.1706 46.928 82.4852 47.5253 82.5706 48.304H81.2426C81.1892 47.8987 81.0132 47.584 80.7146 47.36C80.4266 47.1253 80.0372 47.008 79.5466 47.008C79.0666 47.008 78.6932 47.1093 78.4266 47.312C78.1706 47.5147 78.0426 47.7813 78.0426 48.112C78.0426 48.432 78.2079 48.6827 78.5386 48.864C78.8799 49.0453 79.3386 49.2 79.9146 49.328C80.4052 49.4347 80.8692 49.568 81.3066 49.728C81.7546 49.8773 82.1172 50.1067 82.3946 50.416C82.6826 50.7147 82.8266 51.152 82.8266 51.728C82.8372 52.4427 82.5652 53.0347 82.0106 53.504C81.4666 53.9627 80.7252 54.192 79.7866 54.192ZM87.6426 54.192C86.7039 54.192 85.9572 53.9093 85.4026 53.344C84.8479 52.768 84.5706 51.888 84.5706 50.704V46.064H85.9146V50.56C85.9146 52.2133 86.5919 53.04 87.9466 53.04C88.6399 53.04 89.2106 52.7947 89.6586 52.304C90.1172 51.8027 90.3466 51.0933 90.3466 50.176V46.064H91.6906V54H90.4746L90.3786 52.576C90.1332 53.0773 89.7652 53.472 89.2746 53.76C88.7946 54.048 88.2506 54.192 87.6426 54.192ZM93.9028 57.52V46.064H95.1188L95.2468 47.376C95.5028 46.992 95.8655 46.6453 96.3348 46.336C96.8148 46.0267 97.4228 45.872 98.1588 45.872C98.9482 45.872 99.6362 46.0533 100.223 46.416C100.809 46.7787 101.263 47.2747 101.583 47.904C101.913 48.5333 102.079 49.248 102.079 50.048C102.079 50.848 101.913 51.5627 101.583 52.192C101.263 52.8107 100.804 53.3013 100.207 53.664C99.6202 54.016 98.9322 54.192 98.1428 54.192C97.4922 54.192 96.9108 54.0587 96.3988 53.792C95.8975 53.5253 95.5135 53.152 95.2468 52.672V57.52H93.9028ZM97.9988 53.024C98.5322 53.024 99.0015 52.9013 99.4068 52.656C99.8122 52.4 100.132 52.048 100.367 51.6C100.601 51.152 100.719 50.6293 100.719 50.032C100.719 49.4347 100.601 48.912 100.367 48.464C100.132 48.016 99.8122 47.6693 99.4068 47.424C99.0015 47.168 98.5322 47.04 97.9988 47.04C97.4655 47.04 96.9962 47.168 96.5908 47.424C96.1855 47.6693 95.8655 48.016 95.6308 48.464C95.3962 48.912 95.2788 49.4347 95.2788 50.032C95.2788 50.6293 95.3962 51.152 95.6308 51.6C95.8655 52.048 96.1855 52.4 96.5908 52.656C96.9962 52.9013 97.4655 53.024 97.9988 53.024ZM103.95 57.52V46.064H105.166L105.294 47.376C105.55 46.992 105.912 46.6453 106.382 46.336C106.862 46.0267 107.47 45.872 108.206 45.872C108.995 45.872 109.683 46.0533 110.27 46.416C110.856 46.7787 111.31 47.2747 111.63 47.904C111.96 48.5333 112.126 49.248 112.126 50.048C112.126 50.848 111.96 51.5627 111.63 52.192C111.31 52.8107 110.851 53.3013 110.254 53.664C109.667 54.016 108.979 54.192 108.19 54.192C107.539 54.192 106.958 54.0587 106.446 53.792C105.944 53.5253 105.56 53.152 105.294 52.672V57.52H103.95ZM108.046 53.024C108.579 53.024 109.048 52.9013 109.454 52.656C109.859 52.4 110.179 52.048 110.414 51.6C110.648 51.152 110.766 50.6293 110.766 50.032C110.766 49.4347 110.648 48.912 110.414 48.464C110.179 48.016 109.859 47.6693 109.454 47.424C109.048 47.168 108.579 47.04 108.046 47.04C107.512 47.04 107.043 47.168 106.638 47.424C106.232 47.6693 105.912 48.016 105.678 48.464C105.443 48.912 105.326 49.4347 105.326 50.032C105.326 50.6293 105.443 51.152 105.678 51.6C105.912 52.048 106.232 52.4 106.638 52.656C107.043 52.9013 107.512 53.024 108.046 53.024ZM117.613 54.192C116.866 54.192 116.194 54.0213 115.597 53.68C114.999 53.3387 114.525 52.8587 114.173 52.24C113.831 51.6107 113.661 50.8747 113.661 50.032C113.661 49.1893 113.837 48.4587 114.189 47.84C114.541 47.2107 115.015 46.7253 115.613 46.384C116.221 46.0427 116.898 45.872 117.645 45.872C118.391 45.872 119.063 46.0427 119.661 46.384C120.258 46.7253 120.727 47.2107 121.069 47.84C121.421 48.4587 121.597 49.1893 121.597 50.032C121.597 50.8747 121.421 51.6107 121.069 52.24C120.717 52.8587 120.237 53.3387 119.629 53.68C119.031 54.0213 118.359 54.192 117.613 54.192ZM117.613 53.04C118.071 53.04 118.498 52.928 118.893 52.704C119.287 52.48 119.607 52.144 119.853 51.696C120.098 51.248 120.221 50.6933 120.221 50.032C120.221 49.3707 120.098 48.816 119.853 48.368C119.618 47.92 119.303 47.584 118.909 47.36C118.514 47.136 118.093 47.024 117.645 47.024C117.186 47.024 116.759 47.136 116.365 47.36C115.97 47.584 115.65 47.92 115.405 48.368C115.159 48.816 115.037 49.3707 115.037 50.032C115.037 50.6933 115.159 51.248 115.405 51.696C115.65 52.144 115.965 52.48 116.349 52.704C116.743 52.928 117.165 53.04 117.613 53.04ZM123.465 54V46.064H124.681L124.793 47.584C125.039 47.0613 125.412 46.6453 125.913 46.336C126.415 46.0267 127.033 45.872 127.769 45.872V47.28H127.401C126.932 47.28 126.5 47.3653 126.105 47.536C125.711 47.696 125.396 47.9733 125.161 48.368C124.927 48.7627 124.809 49.3067 124.809 50V54H123.465ZM132.414 54C131.688 54 131.118 53.824 130.702 53.472C130.286 53.12 130.078 52.4853 130.078 51.568V47.2H128.702V46.064H130.078L130.254 44.16H131.422V46.064H133.758V47.2H131.422V51.568C131.422 52.0693 131.523 52.4107 131.726 52.592C131.928 52.7627 132.286 52.848 132.798 52.848H133.63V54H132.414Z" fill="black" fill-opacity="0.6"/>
<path d="M37.82 44.6045C36.8235 44.6045 35.9883 45.4397 35.9883 46.4362C35.9883 47.4326 36.8235 48.2678 37.82 48.2678C38.7798 48.2678 39.6516 47.4326 39.6077 46.4801C39.6516 45.4324 38.8237 44.6045 37.82 44.6045Z" fill="#EF44A0"/>
<path d="M54.7744 51.0964C55.9247 49.1109 55.932 46.7443 54.7891 44.7661L43.3154 24.8961C42.1798 22.8959 40.1283 21.709 37.8277 21.709C35.5271 21.709 33.4757 22.9032 32.34 24.8888L20.8518 44.7808C19.7088 46.781 19.7161 49.1621 20.8737 51.1477C22.0167 53.1112 24.0609 54.2908 26.3468 54.2908H49.2647C51.558 54.2908 53.6168 53.0966 54.7744 51.0964ZM52.2833 49.6604C51.6459 50.7594 50.5176 51.4114 49.2574 51.4114H26.3395C25.0939 51.4114 23.9729 50.774 23.3502 49.697C22.7201 48.6053 22.7127 47.3012 23.3428 46.2022L34.8311 26.3175C35.4539 25.2258 36.5675 24.5811 37.8277 24.5811C39.0806 24.5811 40.2016 25.2331 40.8244 26.3248L52.3053 46.2095C52.9207 47.2792 52.9134 48.5687 52.2833 49.6604Z" fill="#EF44A0"/>
<path d="M37.3652 31.747C36.4933 31.9961 35.9512 32.7874 35.9512 33.7472C35.9951 34.326 36.0318 34.9122 36.0757 35.491C36.2003 37.6963 36.3248 39.8577 36.4494 42.063C36.4933 42.8103 37.0722 43.3525 37.8195 43.3525C38.5668 43.3525 39.1529 42.7737 39.1896 42.0191C39.1896 41.5648 39.1896 41.1472 39.2335 40.6856C39.3141 39.2715 39.402 37.8575 39.4826 36.4434C39.5266 35.5276 39.6072 34.6118 39.6512 33.6959C39.6512 33.3662 39.6072 33.0732 39.4826 32.7801C39.109 31.9595 38.2371 31.5419 37.3652 31.747Z" fill="#EF44A0"/>
</svg>
