<svg width="103" height="41" viewBox="0 0 103 41" fill="none" xmlns="http://www.w3.org/2000/svg">
<path d="M20.4999 0.466431C15.7509 0.466633 11.1569 2.19941 7.53994 5.35471C3.92297 8.51002 1.51905 12.8819 0.758319 17.6882C-0.00241113 22.4945 0.929687 27.4215 3.38783 31.5876C5.84598 35.7538 9.66976 38.8872 14.175 40.4272C15.175 40.6066 15.55 39.9915 15.55 39.4531C15.55 38.9662 15.525 37.3513 15.525 35.634C10.5 36.5823 9.19999 34.378 8.8 33.2246C8.35615 32.1028 7.65255 31.1086 6.75001 30.3281C6.05002 29.9436 5.05002 28.9952 6.72499 28.9696C7.36456 29.0408 7.97798 29.2689 8.51326 29.6348C9.04854 30.0007 9.48992 30.4935 9.79999 31.0714C10.0735 31.5752 10.4413 32.0187 10.8824 32.3766C11.3234 32.7344 11.8289 32.9995 12.37 33.1566C12.9111 33.3138 13.4772 33.3599 14.0357 33.2924C14.5942 33.2249 15.1343 33.045 15.6249 32.7631C15.7115 31.7206 16.1646 30.746 16.8999 30.0205C12.45 29.5079 7.8 27.7392 7.8 19.8958C7.7719 17.8578 8.50537 15.886 9.84999 14.3848C9.23856 12.6136 9.3101 10.6698 10.05 8.95079C10.05 8.95079 11.7249 8.41249 15.5499 11.0526C18.8225 10.1298 22.2773 10.1298 25.5499 11.0526C29.3748 8.38688 31.0498 8.95079 31.0498 8.95079C31.7898 10.6697 31.8614 12.6136 31.2498 14.3848C32.5985 15.8835 33.3326 17.857 33.2998 19.8958C33.2998 27.7648 28.6248 29.5079 24.1749 30.0205C24.6522 30.5165 25.0198 31.1121 25.2527 31.7666C25.4857 32.4212 25.5785 33.1195 25.5249 33.8141C25.5249 36.5568 25.4999 38.7611 25.4999 39.4532C25.4999 39.9915 25.8749 40.6323 26.8749 40.4273C31.3722 38.8747 35.1849 35.734 37.6326 31.5657C40.0803 27.3974 41.0035 22.473 40.2375 17.6713C39.4715 12.8697 37.0661 8.50343 33.4508 5.35197C29.8354 2.20051 25.2453 0.468963 20.4999 0.466431Z" fill="white"/>
<path d="M56.5 26.1586C55.444 26.1586 54.5213 25.9186 53.732 25.4386C52.9427 24.9586 52.3293 24.2866 51.892 23.4226C51.4547 22.5586 51.236 21.5506 51.236 20.3986C51.236 19.2572 51.46 18.2492 51.908 17.3746C52.356 16.4999 52.9907 15.8172 53.812 15.3266C54.644 14.8252 55.6253 14.5746 56.756 14.5746C58.036 14.5746 59.1027 14.8839 59.956 15.5026C60.8093 16.1212 61.364 16.9746 61.62 18.0626H59.7C59.5293 17.4652 59.1933 16.9959 58.692 16.6546C58.1907 16.3132 57.5453 16.1426 56.756 16.1426C55.5827 16.1426 54.66 16.5212 53.988 17.2786C53.316 18.0359 52.98 19.0812 52.98 20.4146C52.98 21.7479 53.3107 22.7879 53.972 23.5346C54.6333 24.2812 55.5133 24.6546 56.612 24.6546C57.7213 24.6546 58.5533 24.3399 59.108 23.7106C59.6733 23.0812 60.004 22.2439 60.1 21.1986H57.06V19.8866H61.812V25.9666H60.26L60.116 24.3186C59.7427 24.9052 59.2733 25.3586 58.708 25.6786C58.1427 25.9986 57.4067 26.1586 56.5 26.1586ZM64.7664 16.5266C64.4464 16.5266 64.1797 16.4306 63.9664 16.2386C63.7637 16.0359 63.6624 15.7852 63.6624 15.4866C63.6624 15.1879 63.7637 14.9426 63.9664 14.7506C64.1797 14.5479 64.4464 14.4466 64.7664 14.4466C65.0864 14.4466 65.3477 14.5479 65.5504 14.7506C65.7637 14.9426 65.8704 15.1879 65.8704 15.4866C65.8704 15.7852 65.7637 16.0359 65.5504 16.2386C65.3477 16.4306 65.0864 16.5266 64.7664 16.5266ZM63.9184 25.9666V18.0306H65.6144V25.9666H63.9184ZM71.1813 25.9666C70.4026 25.9666 69.7839 25.7799 69.3253 25.4066C68.8666 25.0226 68.6373 24.3452 68.6373 23.3746V19.4546H67.2773V18.0306H68.6373L68.8453 16.0146H70.3333V18.0306H72.5733V19.4546H70.3333V23.3746C70.3333 23.8119 70.4239 24.1159 70.6053 24.2866C70.7973 24.4466 71.1226 24.5266 71.5813 24.5266H72.4933V25.9666H71.1813ZM74.322 25.9666V14.4466H76.018V19.3106C76.2847 18.8519 76.6527 18.4946 77.122 18.2386C77.602 17.9719 78.13 17.8386 78.706 17.8386C79.6553 17.8386 80.402 18.1372 80.946 18.7346C81.49 19.3319 81.762 20.2226 81.762 21.4066V25.9666H80.082V21.5826C80.082 20.0466 79.4687 19.2786 78.242 19.2786C77.602 19.2786 77.0687 19.5026 76.642 19.9506C76.226 20.3986 76.018 21.0386 76.018 21.8706V25.9666H74.322ZM86.6875 26.1586C85.7275 26.1586 84.9702 25.8599 84.4155 25.2626C83.8715 24.6652 83.5995 23.7746 83.5995 22.5906V18.0306H85.2955V22.4146C85.2955 23.9506 85.9248 24.7186 87.1835 24.7186C87.8128 24.7186 88.3302 24.4946 88.7355 24.0466C89.1408 23.5986 89.3435 22.9586 89.3435 22.1266V18.0306H91.0395V25.9666H89.5355L89.4075 24.5746C89.1622 25.0652 88.7995 25.4546 88.3195 25.7426C87.8502 26.0199 87.3062 26.1586 86.6875 26.1586ZM97.661 26.1586C97.0423 26.1586 96.493 26.0359 96.013 25.7906C95.5437 25.5452 95.1703 25.1986 94.893 24.7506L94.717 25.9666H93.197V14.4466H94.893V19.2626C95.149 18.8892 95.501 18.5586 95.949 18.2706C96.397 17.9826 96.973 17.8386 97.677 17.8386C98.445 17.8386 99.1223 18.0199 99.709 18.3826C100.296 18.7452 100.754 19.2412 101.085 19.8706C101.426 20.4999 101.597 21.2146 101.597 22.0146C101.597 22.8146 101.426 23.5292 101.085 24.1586C100.754 24.7772 100.296 25.2679 99.709 25.6306C99.1223 25.9826 98.4397 26.1586 97.661 26.1586ZM97.373 24.6866C98.0983 24.6866 98.6957 24.4412 99.165 23.9506C99.6343 23.4492 99.869 22.7986 99.869 21.9986C99.869 21.4759 99.7623 21.0119 99.549 20.6066C99.3357 20.2012 99.0423 19.8866 98.669 19.6626C98.2957 19.4279 97.8637 19.3106 97.373 19.3106C96.6477 19.3106 96.0503 19.5612 95.581 20.0626C95.1223 20.5639 94.893 21.2092 94.893 21.9986C94.893 22.7986 95.1223 23.4492 95.581 23.9506C96.0503 24.4412 96.6477 24.6866 97.373 24.6866Z" fill="white"/>
</svg>
