<svg width="97" height="41" viewBox="0 0 97 41" fill="none" xmlns="http://www.w3.org/2000/svg">
<path d="M20.7267 40.3886L28.0918 15.7814H13.3613L20.7265 40.3886H20.7267Z" fill="white"/>
<path d="M20.7263 40.3885L13.361 15.7812H3.03906L20.7263 40.3885Z" fill="white"/>
<path d="M3.03934 15.7812L0.801208 23.2593C0.701694 23.5918 0.70168 23.9499 0.801169 24.2823C0.900658 24.6148 1.09454 24.9045 1.35503 25.11L20.7266 40.3886L3.03918 15.7814L3.03934 15.7812Z" fill="white"/>
<path d="M3.03906 15.7814H13.361L8.92522 0.960589C8.69694 0.197948 7.70312 0.198118 7.47499 0.960589L3.03906 15.7814Z" fill="white"/>
<path d="M20.7267 40.3885L28.0919 15.7812H38.414L20.7266 40.3885H20.7267Z" fill="white"/>
<path d="M38.4138 15.7812L40.6519 23.2593C40.7514 23.5918 40.7514 23.9499 40.6519 24.2824C40.5524 24.6148 40.3584 24.9045 40.0979 25.11L20.7266 40.3886L38.4138 15.7814V15.7812Z" fill="white"/>
<path d="M38.4139 15.7814H28.0918L32.5277 0.960589C32.756 0.197948 33.7498 0.198118 33.978 0.960589L38.4139 15.7814Z" fill="white"/>
<path d="M56.7266 27.277C55.6706 27.277 54.7479 27.037 53.9586 26.557C53.1692 26.077 52.5559 25.405 52.1186 24.541C51.6812 23.677 51.4626 22.669 51.4626 21.517C51.4626 20.3756 51.6866 19.3676 52.1346 18.493C52.5826 17.6183 53.2172 16.9356 54.0386 16.445C54.8706 15.9436 55.8519 15.693 56.9826 15.693C58.2626 15.693 59.3292 16.0023 60.1826 16.621C61.0359 17.2396 61.5906 18.093 61.8466 19.181H59.9266C59.7559 18.5836 59.4199 18.1143 58.9186 17.773C58.4172 17.4316 57.7719 17.261 56.9826 17.261C55.8092 17.261 54.8866 17.6396 54.2146 18.397C53.5426 19.1543 53.2066 20.1996 53.2066 21.533C53.2066 22.8663 53.5372 23.9063 54.1986 24.653C54.8599 25.3996 55.7399 25.773 56.8386 25.773C57.9479 25.773 58.7799 25.4583 59.3346 24.829C59.8999 24.1996 60.2306 23.3623 60.3266 22.317H57.2866V21.005H62.0386V27.085H60.4866L60.3426 25.437C59.9692 26.0236 59.4999 26.477 58.9346 26.797C58.3692 27.117 57.6332 27.277 56.7266 27.277ZM64.9929 17.645C64.6729 17.645 64.4063 17.549 64.1929 17.357C63.9903 17.1543 63.8889 16.9036 63.8889 16.605C63.8889 16.3063 63.9903 16.061 64.1929 15.869C64.4063 15.6663 64.6729 15.565 64.9929 15.565C65.3129 15.565 65.5743 15.6663 65.7769 15.869C65.9903 16.061 66.0969 16.3063 66.0969 16.605C66.0969 16.9036 65.9903 17.1543 65.7769 17.357C65.5743 17.549 65.3129 17.645 64.9929 17.645ZM64.1449 27.085V19.149H65.8409V27.085H64.1449ZM71.4078 27.085C70.6291 27.085 70.0105 26.8983 69.5518 26.525C69.0931 26.141 68.8638 25.4636 68.8638 24.493V20.573H67.5038V19.149H68.8638L69.0718 17.133H70.5598V19.149H72.7998V20.573H70.5598V24.493C70.5598 24.9303 70.6505 25.2343 70.8318 25.405C71.0238 25.565 71.3491 25.645 71.8078 25.645H72.7198V27.085H71.4078ZM74.5486 27.085V15.565H76.2446V27.085H74.5486ZM81.0803 27.277C80.4083 27.277 79.8536 27.165 79.4163 26.941C78.979 26.717 78.6536 26.4236 78.4403 26.061C78.227 25.6876 78.1203 25.2823 78.1203 24.845C78.1203 24.077 78.419 23.469 79.0163 23.021C79.6136 22.573 80.467 22.349 81.5763 22.349H83.6563V22.205C83.6563 21.5863 83.4856 21.1223 83.1443 20.813C82.8136 20.5036 82.3816 20.349 81.8483 20.349C81.379 20.349 80.9683 20.4663 80.6163 20.701C80.275 20.925 80.067 21.261 79.9923 21.709H78.2963C78.3496 21.133 78.5416 20.6423 78.8723 20.237C79.2136 19.821 79.6403 19.5063 80.1523 19.293C80.675 19.069 81.2456 18.957 81.8643 18.957C82.9736 18.957 83.8323 19.2503 84.4403 19.837C85.0483 20.413 85.3523 21.2023 85.3523 22.205V27.085H83.8803L83.7363 25.725C83.5123 26.1623 83.187 26.5303 82.7603 26.829C82.3336 27.1276 81.7736 27.277 81.0803 27.277ZM81.4163 25.901C81.875 25.901 82.259 25.7943 82.5683 25.581C82.8883 25.357 83.1336 25.0636 83.3043 24.701C83.4856 24.3383 83.5976 23.9383 83.6403 23.501H81.7523C81.0803 23.501 80.6003 23.6183 80.3123 23.853C80.035 24.0876 79.8963 24.381 79.8963 24.733C79.8963 25.0956 80.0296 25.3836 80.2963 25.597C80.5736 25.7996 80.947 25.901 81.4163 25.901ZM91.7938 27.277C91.1751 27.277 90.6258 27.1543 90.1458 26.909C89.6765 26.6636 89.3031 26.317 89.0258 25.869L88.8498 27.085H87.3298V15.565H89.0258V20.381C89.2818 20.0076 89.6338 19.677 90.0818 19.389C90.5298 19.101 91.1058 18.957 91.8098 18.957C92.5778 18.957 93.2551 19.1383 93.8418 19.501C94.4285 19.8636 94.8871 20.3596 95.2178 20.989C95.5591 21.6183 95.7298 22.333 95.7298 23.133C95.7298 23.933 95.5591 24.6476 95.2178 25.277C94.8871 25.8956 94.4285 26.3863 93.8418 26.749C93.2551 27.101 92.5725 27.277 91.7938 27.277ZM91.5058 25.805C92.2311 25.805 92.8285 25.5596 93.2978 25.069C93.7671 24.5676 94.0018 23.917 94.0018 23.117C94.0018 22.5943 93.8951 22.1303 93.6818 21.725C93.4685 21.3196 93.1751 21.005 92.8018 20.781C92.4285 20.5463 91.9965 20.429 91.5058 20.429C90.7805 20.429 90.1831 20.6796 89.7138 21.181C89.2551 21.6823 89.0258 22.3276 89.0258 23.117C89.0258 23.917 89.2551 24.5676 89.7138 25.069C90.1831 25.5596 90.7805 25.805 91.5058 25.805Z" fill="white"/>
</svg>
