<svg width="78" height="41" viewBox="0 0 78 41" fill="none" xmlns="http://www.w3.org/2000/svg">
<path d="M0.478685 21.9247C11.188 32.2613 5.46293 26.7297 20.0383 40.7997C37.104 24.3297 35.5284 25.8263 33.9545 27.3197C32.7058 28.5047 31.4606 29.6913 39.5161 21.9163C40.1613 21.2997 40.1613 20.2997 39.5161 19.6813V19.683C33.6362 14.003 25.8503 6.40968 20.0383 0.799683C6.68899 13.683 0.478685 19.683 0.478685 19.683C-0.159562 20.2997 -0.159562 21.2997 0.478685 21.9247ZM20.0348 14.8863L26.1668 20.7997L20.0365 26.713L13.9045 20.7997L20.0348 14.8863Z" fill="white"/>
<path d="M20.0008 14.9211L13.9053 20.7995L20.0008 26.6778V14.9211Z" fill="#DEDEDE"/>
<path d="M20.0007 0.836426C6.67746 13.6948 0.479334 19.6831 0.479334 19.6831C-0.157174 20.2998 -0.157174 21.2998 0.479334 21.9248C11.18 32.2531 5.47227 26.7398 20.0007 40.7631V26.6781L13.9051 20.7998L20.0007 14.9214V0.836426Z" fill="white"/>
<path d="M53.84 27.7202C52.7947 27.7202 51.9627 27.4269 51.344 26.8402C50.736 26.2535 50.432 25.4269 50.432 24.3602H52.128C52.128 24.8935 52.256 25.3362 52.512 25.6882C52.7787 26.0402 53.2107 26.2162 53.808 26.2162C54.3947 26.2162 54.8107 26.0509 55.056 25.7202C55.3013 25.3789 55.424 24.9469 55.424 24.4242V16.3282H57.12V24.4242C57.12 25.4802 56.8267 26.2962 56.24 26.8722C55.6533 27.4375 54.8533 27.7202 53.84 27.7202ZM60.282 18.0882C59.962 18.0882 59.6953 17.9922 59.482 17.8002C59.2793 17.5975 59.178 17.3469 59.178 17.0482C59.178 16.7495 59.2793 16.5042 59.482 16.3122C59.6953 16.1095 59.962 16.0082 60.282 16.0082C60.602 16.0082 60.8633 16.1095 61.066 16.3122C61.2793 16.5042 61.386 16.7495 61.386 17.0482C61.386 17.3469 61.2793 17.5975 61.066 17.8002C60.8633 17.9922 60.602 18.0882 60.282 18.0882ZM59.434 27.5282V19.5922H61.13V27.5282H59.434ZM63.3689 27.5282V19.5922H64.8889L65.0329 21.0962C65.3102 20.5735 65.6942 20.1629 66.1849 19.8642C66.6862 19.5549 67.2889 19.4002 67.9929 19.4002V21.1762H67.5289C67.0595 21.1762 66.6382 21.2562 66.2649 21.4162C65.9022 21.5655 65.6089 21.8269 65.3849 22.2002C65.1715 22.5629 65.0649 23.0695 65.0649 23.7202V27.5282H63.3689ZM72.135 27.7202C71.463 27.7202 70.9083 27.6082 70.471 27.3842C70.0337 27.1602 69.7083 26.8669 69.495 26.5042C69.2817 26.1309 69.175 25.7255 69.175 25.2882C69.175 24.5202 69.4737 23.9122 70.071 23.4642C70.6683 23.0162 71.5217 22.7922 72.631 22.7922H74.711V22.6482C74.711 22.0295 74.5403 21.5655 74.199 21.2562C73.8683 20.9469 73.4363 20.7922 72.903 20.7922C72.4337 20.7922 72.023 20.9095 71.671 21.1442C71.3297 21.3682 71.1217 21.7042 71.047 22.1522H69.351C69.4043 21.5762 69.5963 21.0855 69.927 20.6802C70.2683 20.2642 70.695 19.9495 71.207 19.7362C71.7297 19.5122 72.3003 19.4002 72.919 19.4002C74.0283 19.4002 74.887 19.6935 75.495 20.2802C76.103 20.8562 76.407 21.6455 76.407 22.6482V27.5282H74.935L74.791 26.1682C74.567 26.6055 74.2417 26.9735 73.815 27.2722C73.3883 27.5709 72.8283 27.7202 72.135 27.7202ZM72.471 26.3442C72.9297 26.3442 73.3137 26.2375 73.623 26.0242C73.943 25.8002 74.1883 25.5069 74.359 25.1442C74.5403 24.7815 74.6523 24.3815 74.695 23.9442H72.807C72.135 23.9442 71.655 24.0615 71.367 24.2962C71.0897 24.5309 70.951 24.8242 70.951 25.1762C70.951 25.5389 71.0843 25.8269 71.351 26.0402C71.6283 26.2429 72.0017 26.3442 72.471 26.3442Z" fill="white"/>
</svg>
