<svg width="589" height="46" viewBox="0 0 589 46" fill="none" xmlns="http://www.w3.org/2000/svg">
<rect y="0.464844" width="588.07" height="45" rx="5" fill="#EF4444" fill-opacity="0.1"/>
<path d="M61.536 27.9648V18.1648H64.546C66.2727 18.1648 67.542 18.6035 68.354 19.4808C69.1753 20.3582 69.586 21.5622 69.586 23.0928C69.586 24.5955 69.1753 25.7855 68.354 26.6628C67.542 27.5308 66.2727 27.9648 64.546 27.9648H61.536ZM62.712 26.9848H64.518C65.47 26.9848 66.226 26.8308 66.786 26.5228C67.3553 26.2055 67.7613 25.7575 68.004 25.1788C68.2467 24.5908 68.368 23.8955 68.368 23.0928C68.368 22.2715 68.2467 21.5668 68.004 20.9788C67.7613 20.3908 67.3553 19.9382 66.786 19.6208C66.226 19.3035 65.47 19.1448 64.518 19.1448H62.712V26.9848ZM74.378 28.1328C73.7247 28.1328 73.1367 27.9835 72.614 27.6848C72.0914 27.3862 71.676 26.9662 71.368 26.4248C71.0694 25.8742 70.92 25.2302 70.92 24.4928C70.92 23.7555 71.074 23.1162 71.382 22.5748C71.69 22.0242 72.1054 21.5995 72.628 21.3008C73.16 21.0022 73.7527 20.8528 74.406 20.8528C75.0594 20.8528 75.6474 21.0022 76.17 21.3008C76.6927 21.5995 77.1034 22.0242 77.402 22.5748C77.71 23.1162 77.864 23.7555 77.864 24.4928C77.864 25.2302 77.71 25.8742 77.402 26.4248C77.094 26.9662 76.674 27.3862 76.142 27.6848C75.6194 27.9835 75.0314 28.1328 74.378 28.1328ZM74.378 27.1248C74.7794 27.1248 75.1527 27.0268 75.498 26.8308C75.8434 26.6348 76.1234 26.3408 76.338 25.9488C76.5527 25.5568 76.66 25.0715 76.66 24.4928C76.66 23.9142 76.5527 23.4288 76.338 23.0368C76.1327 22.6448 75.8574 22.3508 75.512 22.1548C75.1667 21.9588 74.798 21.8608 74.406 21.8608C74.0047 21.8608 73.6314 21.9588 73.286 22.1548C72.9407 22.3508 72.6607 22.6448 72.446 23.0368C72.2314 23.4288 72.124 23.9142 72.124 24.4928C72.124 25.0715 72.2314 25.5568 72.446 25.9488C72.6607 26.3408 72.936 26.6348 73.272 26.8308C73.6174 27.0268 73.986 27.1248 74.378 27.1248ZM83.2043 27.9648V21.0208H84.2683L84.3383 22.2668C84.5623 21.8282 84.8843 21.4828 85.3043 21.2308C85.7243 20.9788 86.2003 20.8528 86.7323 20.8528C87.5536 20.8528 88.2069 21.1048 88.6923 21.6088C89.1869 22.1035 89.4343 22.8688 89.4343 23.9048V27.9648H88.2583V24.0308C88.2583 22.5842 87.6609 21.8608 86.4663 21.8608C85.8689 21.8608 85.3696 22.0802 84.9683 22.5188C84.5763 22.9482 84.3803 23.5642 84.3803 24.3668V27.9648H83.2043ZM94.38 28.1328C93.7267 28.1328 93.1387 27.9835 92.616 27.6848C92.0933 27.3862 91.678 26.9662 91.37 26.4248C91.0713 25.8742 90.922 25.2302 90.922 24.4928C90.922 23.7555 91.076 23.1162 91.384 22.5748C91.692 22.0242 92.1073 21.5995 92.63 21.3008C93.162 21.0022 93.7547 20.8528 94.408 20.8528C95.0613 20.8528 95.6493 21.0022 96.172 21.3008C96.6947 21.5995 97.1053 22.0242 97.404 22.5748C97.712 23.1162 97.866 23.7555 97.866 24.4928C97.866 25.2302 97.712 25.8742 97.404 26.4248C97.096 26.9662 96.676 27.3862 96.144 27.6848C95.6213 27.9835 95.0333 28.1328 94.38 28.1328ZM94.38 27.1248C94.7813 27.1248 95.1547 27.0268 95.5 26.8308C95.8453 26.6348 96.1253 26.3408 96.34 25.9488C96.5547 25.5568 96.662 25.0715 96.662 24.4928C96.662 23.9142 96.5547 23.4288 96.34 23.0368C96.1347 22.6448 95.8593 22.3508 95.514 22.1548C95.1687 21.9588 94.8 21.8608 94.408 21.8608C94.0067 21.8608 93.6333 21.9588 93.288 22.1548C92.9427 22.3508 92.6627 22.6448 92.448 23.0368C92.2333 23.4288 92.126 23.9142 92.126 24.4928C92.126 25.0715 92.2333 25.5568 92.448 25.9488C92.6627 26.3408 92.938 26.6348 93.274 26.8308C93.6193 27.0268 93.988 27.1248 94.38 27.1248ZM101.972 27.9648C101.337 27.9648 100.838 27.8108 100.474 27.5028C100.11 27.1948 99.9277 26.6395 99.9277 25.8368V22.0148H98.7237V21.0208H99.9277L100.082 19.3548H101.104V21.0208H103.148V22.0148H101.104V25.8368C101.104 26.2755 101.192 26.5742 101.37 26.7328C101.547 26.8822 101.86 26.9568 102.308 26.9568H103.036V27.9648H101.972ZM108.347 31.0448V21.0208H109.411L109.523 22.1688C109.747 21.8328 110.064 21.5295 110.475 21.2588C110.895 20.9882 111.427 20.8528 112.071 20.8528C112.762 20.8528 113.364 21.0115 113.877 21.3288C114.39 21.6462 114.787 22.0802 115.067 22.6308C115.356 23.1815 115.501 23.8068 115.501 24.5068C115.501 25.2068 115.356 25.8322 115.067 26.3828C114.787 26.9242 114.386 27.3535 113.863 27.6708C113.35 27.9788 112.748 28.1328 112.057 28.1328C111.488 28.1328 110.979 28.0162 110.531 27.7828C110.092 27.5495 109.756 27.2228 109.523 26.8028V31.0448H108.347ZM111.931 27.1108C112.398 27.1108 112.808 27.0035 113.163 26.7888C113.518 26.5648 113.798 26.2568 114.003 25.8648C114.208 25.4728 114.311 25.0155 114.311 24.4928C114.311 23.9702 114.208 23.5128 114.003 23.1208C113.798 22.7288 113.518 22.4255 113.163 22.2108C112.808 21.9868 112.398 21.8748 111.931 21.8748C111.464 21.8748 111.054 21.9868 110.699 22.2108C110.344 22.4255 110.064 22.7288 109.859 23.1208C109.654 23.5128 109.551 23.9702 109.551 24.4928C109.551 25.0155 109.654 25.4728 109.859 25.8648C110.064 26.2568 110.344 26.5648 110.699 26.7888C111.054 27.0035 111.464 27.1108 111.931 27.1108ZM120.26 28.1328C119.597 28.1328 119.009 27.9835 118.496 27.6848C117.983 27.3768 117.577 26.9522 117.278 26.4108C116.989 25.8695 116.844 25.2302 116.844 24.4928C116.844 23.7648 116.989 23.1302 117.278 22.5888C117.567 22.0382 117.969 21.6135 118.482 21.3148C119.005 21.0068 119.607 20.8528 120.288 20.8528C120.96 20.8528 121.539 21.0068 122.024 21.3148C122.519 21.6135 122.897 22.0102 123.158 22.5048C123.419 22.9995 123.55 23.5315 123.55 24.1008C123.55 24.2035 123.545 24.3062 123.536 24.4088C123.536 24.5115 123.536 24.6282 123.536 24.7588H118.006C118.034 25.2908 118.155 25.7342 118.37 26.0888C118.594 26.4342 118.869 26.6955 119.196 26.8728C119.532 27.0502 119.887 27.1388 120.26 27.1388C120.745 27.1388 121.151 27.0268 121.478 26.8028C121.805 26.5788 122.043 26.2755 122.192 25.8928H123.354C123.167 26.5368 122.808 27.0735 122.276 27.5028C121.753 27.9228 121.081 28.1328 120.26 28.1328ZM120.26 21.8468C119.7 21.8468 119.201 22.0195 118.762 22.3648C118.333 22.7008 118.085 23.1955 118.02 23.8488H122.388C122.36 23.2235 122.145 22.7335 121.744 22.3788C121.343 22.0242 120.848 21.8468 120.26 21.8468ZM125.109 27.9648V21.0208H126.173L126.271 22.3508C126.485 21.8935 126.812 21.5295 127.251 21.2588C127.689 20.9882 128.231 20.8528 128.875 20.8528V22.0848H128.553C128.142 22.0848 127.764 22.1595 127.419 22.3088C127.073 22.4488 126.798 22.6915 126.593 23.0368C126.387 23.3822 126.285 23.8582 126.285 24.4648V27.9648H125.109ZM130.573 27.9648V22.0148H129.523V21.0208H130.573V19.8168C130.573 19.1448 130.741 18.6548 131.077 18.3468C131.413 18.0388 131.903 17.8848 132.547 17.8848H133.247V18.8928H132.729C132.374 18.8928 132.122 18.9675 131.973 19.1168C131.823 19.2568 131.749 19.4995 131.749 19.8448V21.0208H133.457V22.0148H131.749V27.9648H130.573ZM137.747 28.1328C137.094 28.1328 136.506 27.9835 135.983 27.6848C135.461 27.3862 135.045 26.9662 134.737 26.4248C134.439 25.8742 134.289 25.2302 134.289 24.4928C134.289 23.7555 134.443 23.1162 134.751 22.5748C135.059 22.0242 135.475 21.5995 135.997 21.3008C136.529 21.0022 137.122 20.8528 137.775 20.8528C138.429 20.8528 139.017 21.0022 139.539 21.3008C140.062 21.5995 140.473 22.0242 140.771 22.5748C141.079 23.1162 141.233 23.7555 141.233 24.4928C141.233 25.2302 141.079 25.8742 140.771 26.4248C140.463 26.9662 140.043 27.3862 139.511 27.6848C138.989 27.9835 138.401 28.1328 137.747 28.1328ZM137.747 27.1248C138.149 27.1248 138.522 27.0268 138.867 26.8308C139.213 26.6348 139.493 26.3408 139.707 25.9488C139.922 25.5568 140.029 25.0715 140.029 24.4928C140.029 23.9142 139.922 23.4288 139.707 23.0368C139.502 22.6448 139.227 22.3508 138.881 22.1548C138.536 21.9588 138.167 21.8608 137.775 21.8608C137.374 21.8608 137.001 21.9588 136.655 22.1548C136.31 22.3508 136.03 22.6448 135.815 23.0368C135.601 23.4288 135.493 23.9142 135.493 24.4928C135.493 25.0715 135.601 25.5568 135.815 25.9488C136.03 26.3408 136.305 26.6348 136.641 26.8308C136.987 27.0268 137.355 27.1248 137.747 27.1248ZM142.868 27.9648V21.0208H143.932L144.03 22.3508C144.245 21.8935 144.572 21.5295 145.01 21.2588C145.449 20.9882 145.99 20.8528 146.634 20.8528V22.0848H146.312C145.902 22.0848 145.524 22.1595 145.178 22.3088C144.833 22.4488 144.558 22.6915 144.352 23.0368C144.147 23.3822 144.044 23.8582 144.044 24.4648V27.9648H142.868ZM147.954 27.9648V21.0208H149.018L149.102 22.0288C149.326 21.6555 149.625 21.3662 149.998 21.1608C150.372 20.9555 150.792 20.8528 151.258 20.8528C151.809 20.8528 152.28 20.9648 152.672 21.1888C153.074 21.4128 153.382 21.7535 153.596 22.2108C153.839 21.7908 154.17 21.4595 154.59 21.2168C155.02 20.9742 155.482 20.8528 155.976 20.8528C156.807 20.8528 157.47 21.1048 157.964 21.6088C158.459 22.1035 158.706 22.8688 158.706 23.9048V27.9648H157.544V24.0308C157.544 23.3122 157.4 22.7708 157.11 22.4068C156.821 22.0428 156.406 21.8608 155.864 21.8608C155.304 21.8608 154.838 22.0802 154.464 22.5188C154.1 22.9482 153.918 23.5642 153.918 24.3668V27.9648H152.742V24.0308C152.742 23.3122 152.598 22.7708 152.308 22.4068C152.019 22.0428 151.604 21.8608 151.062 21.8608C150.512 21.8608 150.05 22.0802 149.676 22.5188C149.312 22.9482 149.13 23.5642 149.13 24.3668V27.9648H147.954ZM166.493 28.1328C165.914 28.1328 165.433 28.0348 165.051 27.8388C164.668 27.6428 164.383 27.3815 164.197 27.0548C164.01 26.7282 163.917 26.3735 163.917 25.9908C163.917 25.2815 164.187 24.7355 164.729 24.3528C165.27 23.9702 166.007 23.7788 166.941 23.7788H168.817V23.6948C168.817 23.0882 168.658 22.6308 168.341 22.3228C168.023 22.0055 167.599 21.8468 167.067 21.8468C166.609 21.8468 166.213 21.9635 165.877 22.1968C165.55 22.4208 165.345 22.7522 165.261 23.1908H164.057C164.103 22.6868 164.271 22.2622 164.561 21.9168C164.859 21.5715 165.228 21.3102 165.667 21.1328C166.105 20.9462 166.572 20.8528 167.067 20.8528C168.037 20.8528 168.765 21.1142 169.251 21.6368C169.745 22.1502 169.993 22.8362 169.993 23.6948V27.9648H168.943L168.873 26.7188C168.677 27.1108 168.387 27.4468 168.005 27.7268C167.631 27.9975 167.127 28.1328 166.493 28.1328ZM166.675 27.1388C167.123 27.1388 167.505 27.0222 167.823 26.7888C168.149 26.5555 168.397 26.2522 168.565 25.8788C168.733 25.5055 168.817 25.1135 168.817 24.7028V24.6888H167.039C166.348 24.6888 165.858 24.8102 165.569 25.0528C165.289 25.2862 165.149 25.5802 165.149 25.9348C165.149 26.2988 165.279 26.5928 165.541 26.8168C165.811 27.0315 166.189 27.1388 166.675 27.1388ZM171.757 27.9648V21.0208H172.821L172.891 22.2668C173.115 21.8282 173.437 21.4828 173.857 21.2308C174.277 20.9788 174.753 20.8528 175.285 20.8528C176.106 20.8528 176.76 21.1048 177.245 21.6088C177.74 22.1035 177.987 22.8688 177.987 23.9048V27.9648H176.811V24.0308C176.811 22.5842 176.214 21.8608 175.019 21.8608C174.422 21.8608 173.922 22.0802 173.521 22.5188C173.129 22.9482 172.933 23.5642 172.933 24.3668V27.9648H171.757ZM180.32 31.0448L182.042 27.2928H181.636L178.878 21.0208H180.152L182.448 26.4248L184.884 21.0208H186.102L181.552 31.0448H180.32ZM194.212 28.1328C193.559 28.1328 192.971 27.9835 192.448 27.6848C191.925 27.3862 191.51 26.9662 191.202 26.4248C190.903 25.8742 190.754 25.2302 190.754 24.4928C190.754 23.7555 190.908 23.1162 191.216 22.5748C191.524 22.0242 191.939 21.5995 192.462 21.3008C192.994 21.0022 193.587 20.8528 194.24 20.8528C194.893 20.8528 195.481 21.0022 196.004 21.3008C196.527 21.5995 196.937 22.0242 197.236 22.5748C197.544 23.1162 197.698 23.7555 197.698 24.4928C197.698 25.2302 197.544 25.8742 197.236 26.4248C196.928 26.9662 196.508 27.3862 195.976 27.6848C195.453 27.9835 194.865 28.1328 194.212 28.1328ZM194.212 27.1248C194.613 27.1248 194.987 27.0268 195.332 26.8308C195.677 26.6348 195.957 26.3408 196.172 25.9488C196.387 25.5568 196.494 25.0715 196.494 24.4928C196.494 23.9142 196.387 23.4288 196.172 23.0368C195.967 22.6448 195.691 22.3508 195.346 22.1548C195.001 21.9588 194.632 21.8608 194.24 21.8608C193.839 21.8608 193.465 21.9588 193.12 22.1548C192.775 22.3508 192.495 22.6448 192.28 23.0368C192.065 23.4288 191.958 23.9142 191.958 24.4928C191.958 25.0715 192.065 25.5568 192.28 25.9488C192.495 26.3408 192.77 26.6348 193.106 26.8308C193.451 27.0268 193.82 27.1248 194.212 27.1248ZM199.333 27.9648V21.0208H200.397L200.495 22.3508C200.71 21.8935 201.037 21.5295 201.475 21.2588C201.914 20.9882 202.455 20.8528 203.099 20.8528V22.0848H202.777C202.367 22.0848 201.989 22.1595 201.643 22.3088C201.298 22.4488 201.023 22.6915 200.817 23.0368C200.612 23.3822 200.509 23.8582 200.509 24.4648V27.9648H199.333ZM207.309 28.1328C206.619 28.1328 206.012 27.9742 205.489 27.6568C204.976 27.3395 204.575 26.9055 204.285 26.3548C204.005 25.8042 203.865 25.1788 203.865 24.4788C203.865 23.7788 204.01 23.1582 204.299 22.6168C204.589 22.0662 204.99 21.6368 205.503 21.3288C206.017 21.0115 206.623 20.8528 207.323 20.8528C207.893 20.8528 208.397 20.9695 208.835 21.2028C209.274 21.4362 209.615 21.7628 209.857 22.1828V17.8848H211.033V27.9648H209.969L209.857 26.8168C209.633 27.1528 209.311 27.4562 208.891 27.7268C208.471 27.9975 207.944 28.1328 207.309 28.1328ZM207.435 27.1108C207.902 27.1108 208.313 27.0035 208.667 26.7888C209.031 26.5648 209.311 26.2568 209.507 25.8648C209.713 25.4728 209.815 25.0155 209.815 24.4928C209.815 23.9702 209.713 23.5128 209.507 23.1208C209.311 22.7288 209.031 22.4255 208.667 22.2108C208.313 21.9868 207.902 21.8748 207.435 21.8748C206.978 21.8748 206.567 21.9868 206.203 22.2108C205.849 22.4255 205.569 22.7288 205.363 23.1208C205.167 23.5128 205.069 23.9702 205.069 24.4928C205.069 25.0155 205.167 25.4728 205.363 25.8648C205.569 26.2568 205.849 26.5648 206.203 26.7888C206.567 27.0035 206.978 27.1108 207.435 27.1108ZM216.072 28.1328C215.41 28.1328 214.822 27.9835 214.308 27.6848C213.795 27.3768 213.389 26.9522 213.09 26.4108C212.801 25.8695 212.656 25.2302 212.656 24.4928C212.656 23.7648 212.801 23.1302 213.09 22.5888C213.38 22.0382 213.781 21.6135 214.294 21.3148C214.817 21.0068 215.419 20.8528 216.1 20.8528C216.772 20.8528 217.351 21.0068 217.836 21.3148C218.331 21.6135 218.709 22.0102 218.97 22.5048C219.232 22.9995 219.362 23.5315 219.362 24.1008C219.362 24.2035 219.358 24.3062 219.348 24.4088C219.348 24.5115 219.348 24.6282 219.348 24.7588H213.818C213.846 25.2908 213.968 25.7342 214.182 26.0888C214.406 26.4342 214.682 26.6955 215.008 26.8728C215.344 27.0502 215.699 27.1388 216.072 27.1388C216.558 27.1388 216.964 27.0268 217.29 26.8028C217.617 26.5788 217.855 26.2755 218.004 25.8928H219.166C218.98 26.5368 218.62 27.0735 218.088 27.5028C217.566 27.9228 216.894 28.1328 216.072 28.1328ZM216.072 21.8468C215.512 21.8468 215.013 22.0195 214.574 22.3648C214.145 22.7008 213.898 23.1955 213.832 23.8488H218.2C218.172 23.2235 217.958 22.7335 217.556 22.3788C217.155 22.0242 216.66 21.8468 216.072 21.8468ZM220.921 27.9648V21.0208H221.985L222.083 22.3508C222.298 21.8935 222.624 21.5295 223.063 21.2588C223.502 20.9882 224.043 20.8528 224.687 20.8528V22.0848H224.365C223.954 22.0848 223.576 22.1595 223.231 22.3088C222.886 22.4488 222.61 22.6915 222.405 23.0368C222.2 23.3822 222.097 23.8582 222.097 24.4648V27.9648H220.921ZM228.667 28.1328C227.836 28.1328 227.146 27.9228 226.595 27.5028C226.044 27.0828 225.722 26.5135 225.629 25.7948H226.833C226.908 26.1588 227.099 26.4762 227.407 26.7468C227.724 27.0082 228.149 27.1388 228.681 27.1388C229.176 27.1388 229.54 27.0362 229.773 26.8308C230.006 26.6162 230.123 26.3642 230.123 26.0748C230.123 25.6548 229.969 25.3748 229.661 25.2348C229.362 25.0948 228.938 24.9688 228.387 24.8568C228.014 24.7822 227.64 24.6748 227.267 24.5348C226.894 24.3948 226.581 24.1988 226.329 23.9468C226.077 23.6855 225.951 23.3448 225.951 22.9248C225.951 22.3182 226.175 21.8235 226.623 21.4408C227.08 21.0488 227.696 20.8528 228.471 20.8528C229.208 20.8528 229.81 21.0395 230.277 21.4128C230.753 21.7768 231.028 22.2995 231.103 22.9808H229.941C229.894 22.6262 229.74 22.3508 229.479 22.1548C229.227 21.9495 228.886 21.8468 228.457 21.8468C228.037 21.8468 227.71 21.9355 227.477 22.1128C227.253 22.2902 227.141 22.5235 227.141 22.8128C227.141 23.0928 227.286 23.3122 227.575 23.4708C227.874 23.6295 228.275 23.7648 228.779 23.8768C229.208 23.9702 229.614 24.0868 229.997 24.2268C230.389 24.3575 230.706 24.5582 230.949 24.8288C231.201 25.0902 231.327 25.4728 231.327 25.9768C231.336 26.6022 231.098 27.1202 230.613 27.5308C230.137 27.9322 229.488 28.1328 228.667 28.1328ZM239.876 28.1328C239.223 28.1328 238.635 27.9835 238.112 27.6848C237.589 27.3862 237.174 26.9662 236.866 26.4248C236.567 25.8742 236.418 25.2302 236.418 24.4928C236.418 23.7555 236.572 23.1162 236.88 22.5748C237.188 22.0242 237.603 21.5995 238.126 21.3008C238.658 21.0022 239.251 20.8528 239.904 20.8528C240.557 20.8528 241.145 21.0022 241.668 21.3008C242.191 21.5995 242.601 22.0242 242.9 22.5748C243.208 23.1162 243.362 23.7555 243.362 24.4928C243.362 25.2302 243.208 25.8742 242.9 26.4248C242.592 26.9662 242.172 27.3862 241.64 27.6848C241.117 27.9835 240.529 28.1328 239.876 28.1328ZM239.876 27.1248C240.277 27.1248 240.651 27.0268 240.996 26.8308C241.341 26.6348 241.621 26.3408 241.836 25.9488C242.051 25.5568 242.158 25.0715 242.158 24.4928C242.158 23.9142 242.051 23.4288 241.836 23.0368C241.631 22.6448 241.355 22.3508 241.01 22.1548C240.665 21.9588 240.296 21.8608 239.904 21.8608C239.503 21.8608 239.129 21.9588 238.784 22.1548C238.439 22.3508 238.159 22.6448 237.944 23.0368C237.729 23.4288 237.622 23.9142 237.622 24.4928C237.622 25.0715 237.729 25.5568 237.944 25.9488C238.159 26.3408 238.434 26.6348 238.77 26.8308C239.115 27.0268 239.484 27.1248 239.876 27.1248ZM244.997 27.9648V21.0208H246.061L246.159 22.3508C246.374 21.8935 246.701 21.5295 247.139 21.2588C247.578 20.9882 248.119 20.8528 248.763 20.8528V22.0848H248.441C248.031 22.0848 247.653 22.1595 247.307 22.3088C246.962 22.4488 246.687 22.6915 246.481 23.0368C246.276 23.3822 246.173 23.8582 246.173 24.4648V27.9648H244.997ZM257.498 28.1328C256.929 28.1328 256.42 28.0162 255.972 27.7828C255.534 27.5495 255.198 27.2228 254.964 26.8028L254.852 27.9648H253.788V17.8848H254.964V22.1688C255.188 21.8328 255.506 21.5295 255.916 21.2588C256.336 20.9882 256.868 20.8528 257.512 20.8528C258.203 20.8528 258.805 21.0115 259.318 21.3288C259.832 21.6462 260.228 22.0802 260.508 22.6308C260.798 23.1815 260.942 23.8068 260.942 24.5068C260.942 25.2068 260.798 25.8322 260.508 26.3828C260.228 26.9242 259.827 27.3535 259.304 27.6708C258.791 27.9788 258.189 28.1328 257.498 28.1328ZM257.372 27.1108C257.839 27.1108 258.25 27.0035 258.604 26.7888C258.959 26.5648 259.239 26.2568 259.444 25.8648C259.65 25.4728 259.752 25.0155 259.752 24.4928C259.752 23.9702 259.65 23.5128 259.444 23.1208C259.239 22.7288 258.959 22.4255 258.604 22.2108C258.25 21.9868 257.839 21.8748 257.372 21.8748C256.906 21.8748 256.495 21.9868 256.14 22.2108C255.786 22.4255 255.506 22.7288 255.3 23.1208C255.095 23.5128 254.992 23.9702 254.992 24.4928C254.992 25.0155 255.095 25.4728 255.3 25.8648C255.506 26.2568 255.786 26.5648 256.14 26.7888C256.495 27.0035 256.906 27.1108 257.372 27.1108ZM265.743 28.1328C265.09 28.1328 264.502 27.9835 263.979 27.6848C263.457 27.3862 263.041 26.9662 262.733 26.4248C262.435 25.8742 262.285 25.2302 262.285 24.4928C262.285 23.7555 262.439 23.1162 262.747 22.5748C263.055 22.0242 263.471 21.5995 263.993 21.3008C264.525 21.0022 265.118 20.8528 265.771 20.8528C266.425 20.8528 267.013 21.0022 267.535 21.3008C268.058 21.5995 268.469 22.0242 268.767 22.5748C269.075 23.1162 269.229 23.7555 269.229 24.4928C269.229 25.2302 269.075 25.8742 268.767 26.4248C268.459 26.9662 268.039 27.3862 267.507 27.6848C266.985 27.9835 266.397 28.1328 265.743 28.1328ZM265.743 27.1248C266.145 27.1248 266.518 27.0268 266.863 26.8308C267.209 26.6348 267.489 26.3408 267.703 25.9488C267.918 25.5568 268.025 25.0715 268.025 24.4928C268.025 23.9142 267.918 23.4288 267.703 23.0368C267.498 22.6448 267.223 22.3508 266.877 22.1548C266.532 21.9588 266.163 21.8608 265.771 21.8608C265.37 21.8608 264.997 21.9588 264.651 22.1548C264.306 22.3508 264.026 22.6448 263.811 23.0368C263.597 23.4288 263.489 23.9142 263.489 24.4928C263.489 25.0715 263.597 25.5568 263.811 25.9488C264.026 26.3408 264.301 26.6348 264.637 26.8308C264.983 27.0268 265.351 27.1248 265.743 27.1248ZM274.028 28.1328C273.375 28.1328 272.787 27.9835 272.264 27.6848C271.742 27.3862 271.326 26.9662 271.018 26.4248C270.72 25.8742 270.57 25.2302 270.57 24.4928C270.57 23.7555 270.724 23.1162 271.032 22.5748C271.34 22.0242 271.756 21.5995 272.278 21.3008C272.81 21.0022 273.403 20.8528 274.056 20.8528C274.71 20.8528 275.298 21.0022 275.82 21.3008C276.343 21.5995 276.754 22.0242 277.052 22.5748C277.36 23.1162 277.514 23.7555 277.514 24.4928C277.514 25.2302 277.36 25.8742 277.052 26.4248C276.744 26.9662 276.324 27.3862 275.792 27.6848C275.27 27.9835 274.682 28.1328 274.028 28.1328ZM274.028 27.1248C274.43 27.1248 274.803 27.0268 275.148 26.8308C275.494 26.6348 275.774 26.3408 275.988 25.9488C276.203 25.5568 276.31 25.0715 276.31 24.4928C276.31 23.9142 276.203 23.4288 275.988 23.0368C275.783 22.6448 275.508 22.3508 275.162 22.1548C274.817 21.9588 274.448 21.8608 274.056 21.8608C273.655 21.8608 273.282 21.9588 272.936 22.1548C272.591 22.3508 272.311 22.6448 272.096 23.0368C271.882 23.4288 271.774 23.9142 271.774 24.4928C271.774 25.0715 271.882 25.5568 272.096 25.9488C272.311 26.3408 272.586 26.6348 272.922 26.8308C273.268 27.0268 273.636 27.1248 274.028 27.1248ZM279.15 27.9648V17.8848H280.326V23.9468L283.168 21.0208H284.61L281.53 24.1568L285.002 27.9648H283.504L280.326 24.3668V27.9648H279.15ZM286.918 19.4808C286.685 19.4808 286.489 19.4062 286.33 19.2568C286.181 19.0982 286.106 18.9022 286.106 18.6688C286.106 18.4448 286.181 18.2582 286.33 18.1088C286.489 17.9595 286.685 17.8848 286.918 17.8848C287.142 17.8848 287.334 17.9595 287.492 18.1088C287.651 18.2582 287.73 18.4448 287.73 18.6688C287.73 18.9022 287.651 19.0982 287.492 19.2568C287.334 19.4062 287.142 19.4808 286.918 19.4808ZM286.33 27.9648V21.0208H287.506V27.9648H286.33ZM289.554 27.9648V21.0208H290.618L290.688 22.2668C290.912 21.8282 291.234 21.4828 291.654 21.2308C292.074 20.9788 292.55 20.8528 293.082 20.8528C293.903 20.8528 294.557 21.1048 295.042 21.6088C295.537 22.1035 295.784 22.8688 295.784 23.9048V27.9648H294.608V24.0308C294.608 22.5842 294.011 21.8608 292.816 21.8608C292.219 21.8608 291.719 22.0802 291.318 22.5188C290.926 22.9482 290.73 23.5642 290.73 24.3668V27.9648H289.554ZM300.31 25.7808C299.918 25.7808 299.558 25.7295 299.232 25.6268L298.532 26.2848C298.634 26.3595 298.76 26.4248 298.91 26.4808C299.068 26.5275 299.292 26.5742 299.582 26.6208C299.871 26.6582 300.277 26.7002 300.8 26.7468C301.733 26.8122 302.4 27.0268 302.802 27.3908C303.203 27.7548 303.404 28.2308 303.404 28.8188C303.404 29.2202 303.292 29.6028 303.068 29.9668C302.853 30.3308 302.517 30.6295 302.06 30.8628C301.612 31.0962 301.033 31.2128 300.324 31.2128C299.698 31.2128 299.143 31.1288 298.658 30.9608C298.172 30.8022 297.794 30.5548 297.524 30.2188C297.253 29.8922 297.118 29.4768 297.118 28.9728C297.118 28.7115 297.188 28.4268 297.328 28.1188C297.468 27.8202 297.729 27.5355 298.112 27.2648C297.906 27.1808 297.729 27.0922 297.58 26.9988C297.44 26.8962 297.309 26.7842 297.188 26.6628V26.3408L298.378 25.1648C297.827 24.6982 297.552 24.0822 297.552 23.3168C297.552 22.8595 297.659 22.4442 297.874 22.0708C298.088 21.6975 298.401 21.4035 298.812 21.1888C299.222 20.9648 299.722 20.8528 300.31 20.8528C300.711 20.8528 301.075 20.9088 301.402 21.0208H303.964V21.9028L302.662 21.9588C302.932 22.3508 303.068 22.8035 303.068 23.3168C303.068 23.7742 302.956 24.1895 302.732 24.5628C302.517 24.9362 302.204 25.2348 301.794 25.4588C301.392 25.6735 300.898 25.7808 300.31 25.7808ZM300.31 24.8148C300.804 24.8148 301.196 24.6888 301.486 24.4368C301.784 24.1755 301.934 23.8022 301.934 23.3168C301.934 22.8408 301.784 22.4768 301.486 22.2248C301.196 21.9635 300.804 21.8328 300.31 21.8328C299.806 21.8328 299.404 21.9635 299.106 22.2248C298.816 22.4768 298.672 22.8408 298.672 23.3168C298.672 23.8022 298.816 24.1755 299.106 24.4368C299.404 24.6888 299.806 24.8148 300.31 24.8148ZM298.266 28.8608C298.266 29.3275 298.462 29.6728 298.854 29.8968C299.246 30.1302 299.736 30.2468 300.324 30.2468C300.902 30.2468 301.364 30.1208 301.71 29.8688C302.064 29.6168 302.242 29.2808 302.242 28.8608C302.242 28.5622 302.12 28.3008 301.878 28.0768C301.635 27.8622 301.187 27.7362 300.534 27.6988C300.02 27.6615 299.577 27.6148 299.204 27.5588C298.821 27.7642 298.569 27.9835 298.448 28.2168C298.326 28.4595 298.266 28.6742 298.266 28.8608ZM307.95 28.1328C307.12 28.1328 306.429 27.9228 305.878 27.5028C305.328 27.0828 305.006 26.5135 304.912 25.7948H306.116C306.191 26.1588 306.382 26.4762 306.69 26.7468C307.008 27.0082 307.432 27.1388 307.964 27.1388C308.459 27.1388 308.823 27.0362 309.056 26.8308C309.29 26.6162 309.406 26.3642 309.406 26.0748C309.406 25.6548 309.252 25.3748 308.944 25.2348C308.646 25.0948 308.221 24.9688 307.67 24.8568C307.297 24.7822 306.924 24.6748 306.55 24.5348C306.177 24.3948 305.864 24.1988 305.612 23.9468C305.36 23.6855 305.234 23.3448 305.234 22.9248C305.234 22.3182 305.458 21.8235 305.906 21.4408C306.364 21.0488 306.98 20.8528 307.754 20.8528C308.492 20.8528 309.094 21.0395 309.56 21.4128C310.036 21.7768 310.312 22.2995 310.386 22.9808H309.224C309.178 22.6262 309.024 22.3508 308.762 22.1548C308.51 21.9495 308.17 21.8468 307.74 21.8468C307.32 21.8468 306.994 21.9355 306.76 22.1128C306.536 22.2902 306.424 22.5235 306.424 22.8128C306.424 23.0928 306.569 23.3122 306.858 23.4708C307.157 23.6295 307.558 23.7648 308.062 23.8768C308.492 23.9702 308.898 24.0868 309.28 24.2268C309.672 24.3575 309.99 24.5582 310.232 24.8288C310.484 25.0902 310.61 25.4728 310.61 25.9768C310.62 26.6022 310.382 27.1202 309.896 27.5308C309.42 27.9322 308.772 28.1328 307.95 28.1328Z" fill="black" fill-opacity="0.6"/>
<path d="M30.2488 26.7637C29.6757 26.7637 29.1953 27.2441 29.1953 27.8172C29.1953 28.3903 29.6757 28.8707 30.2488 28.8707C30.8009 28.8707 31.3024 28.3903 31.2771 27.8425C31.3024 27.2399 30.8262 26.7637 30.2488 26.7637Z" fill="#EF4444"/>
<path d="M40.0011 30.4974C40.6628 29.3554 40.667 27.9943 40.0096 26.8565L33.4103 15.4279C32.7571 14.2774 31.5772 13.5947 30.254 13.5947C28.9307 13.5947 27.7508 14.2816 27.0976 15.4236L20.4899 26.8649C19.8325 28.0153 19.8367 29.3849 20.5026 30.5269C21.1599 31.6563 22.3357 32.3348 23.6505 32.3348H36.8321C38.1512 32.3348 39.3353 31.6479 40.0011 30.4974ZM38.5684 29.6715C38.2017 30.3036 37.5528 30.6786 36.8279 30.6786H23.6463C22.9299 30.6786 22.2851 30.312 21.9269 29.6926C21.5645 29.0647 21.5603 28.3145 21.9227 27.6824L28.5304 16.2454C28.8886 15.6175 29.5291 15.2466 30.254 15.2466C30.9746 15.2466 31.6193 15.6217 31.9775 16.2496L38.581 27.6866C38.935 28.3019 38.9308 29.0436 38.5684 29.6715Z" fill="#EF4444"/>
<path d="M29.9871 19.3686C29.4857 19.5119 29.1738 19.967 29.1738 20.5191C29.1991 20.852 29.2202 21.1891 29.2455 21.522C29.3171 22.7905 29.3887 24.0336 29.4604 25.302C29.4857 25.7319 29.8186 26.0437 30.2484 26.0437C30.6783 26.0437 31.0154 25.7108 31.0365 25.2768C31.0365 25.0155 31.0365 24.7753 31.0617 24.5098C31.1081 23.6965 31.1587 22.8832 31.205 22.0698C31.2303 21.5431 31.2767 21.0163 31.3019 20.4896C31.3019 20.2999 31.2767 20.1314 31.205 19.9628C30.9901 19.4908 30.4886 19.2506 29.9871 19.3686Z" fill="#EF4444"/>
</svg>
