<svg width="279" height="76" viewBox="0 0 279 76" fill="none" xmlns="http://www.w3.org/2000/svg">
<rect width="278.07" height="76" rx="5" fill="#EF4444" fill-opacity="0.1"/>
<path d="M76.8266 43.5V32.3H78.1706L84.1386 41.276V32.3H85.4826V43.5H84.1386L78.1706 34.524V43.5H76.8266ZM91.3938 43.692C90.6472 43.692 89.9752 43.5213 89.3778 43.18C88.7805 42.8387 88.3058 42.3587 87.9538 41.74C87.6125 41.1107 87.4418 40.3747 87.4418 39.532C87.4418 38.6893 87.6178 37.9587 87.9698 37.34C88.3218 36.7107 88.7965 36.2253 89.3938 35.884C90.0018 35.5427 90.6792 35.372 91.4258 35.372C92.1725 35.372 92.8445 35.5427 93.4418 35.884C94.0392 36.2253 94.5085 36.7107 94.8498 37.34C95.2018 37.9587 95.3778 38.6893 95.3778 39.532C95.3778 40.3747 95.2018 41.1107 94.8498 41.74C94.4978 42.3587 94.0178 42.8387 93.4098 43.18C92.8125 43.5213 92.1405 43.692 91.3938 43.692ZM91.3938 42.54C91.8525 42.54 92.2792 42.428 92.6738 42.204C93.0685 41.98 93.3885 41.644 93.6338 41.196C93.8792 40.748 94.0018 40.1933 94.0018 39.532C94.0018 38.8707 93.8792 38.316 93.6338 37.868C93.3992 37.42 93.0845 37.084 92.6898 36.86C92.2952 36.636 91.8738 36.524 91.4258 36.524C90.9672 36.524 90.5405 36.636 90.1458 36.86C89.7512 37.084 89.4312 37.42 89.1858 37.868C88.9405 38.316 88.8178 38.8707 88.8178 39.532C88.8178 40.1933 88.9405 40.748 89.1858 41.196C89.4312 41.644 89.7458 41.98 90.1298 42.204C90.5245 42.428 90.9458 42.54 91.3938 42.54ZM105.097 43.692C104.35 43.692 103.678 43.5213 103.081 43.18C102.484 42.8387 102.009 42.3587 101.657 41.74C101.316 41.1107 101.145 40.3747 101.145 39.532C101.145 38.6893 101.321 37.9587 101.673 37.34C102.025 36.7107 102.5 36.2253 103.097 35.884C103.705 35.5427 104.382 35.372 105.129 35.372C105.876 35.372 106.548 35.5427 107.145 35.884C107.742 36.2253 108.212 36.7107 108.553 37.34C108.905 37.9587 109.081 38.6893 109.081 39.532C109.081 40.3747 108.905 41.1107 108.553 41.74C108.201 42.3587 107.721 42.8387 107.113 43.18C106.516 43.5213 105.844 43.692 105.097 43.692ZM105.097 42.54C105.556 42.54 105.982 42.428 106.377 42.204C106.772 41.98 107.092 41.644 107.337 41.196C107.582 40.748 107.705 40.1933 107.705 39.532C107.705 38.8707 107.582 38.316 107.337 37.868C107.102 37.42 106.788 37.084 106.393 36.86C105.998 36.636 105.577 36.524 105.129 36.524C104.67 36.524 104.244 36.636 103.849 36.86C103.454 37.084 103.134 37.42 102.889 37.868C102.644 38.316 102.521 38.8707 102.521 39.532C102.521 40.1933 102.644 40.748 102.889 41.196C103.134 41.644 103.449 41.98 103.833 42.204C104.228 42.428 104.649 42.54 105.097 42.54ZM110.95 43.5V35.564H112.166L112.278 37.084C112.523 36.5613 112.896 36.1453 113.398 35.836C113.899 35.5267 114.518 35.372 115.254 35.372V36.78H114.886C114.416 36.78 113.984 36.8653 113.59 37.036C113.195 37.196 112.88 37.4733 112.646 37.868C112.411 38.2627 112.294 38.8067 112.294 39.5V43.5H110.95ZM120.065 43.692C119.276 43.692 118.583 43.5107 117.985 43.148C117.399 42.7853 116.94 42.2893 116.609 41.66C116.289 41.0307 116.129 40.316 116.129 39.516C116.129 38.716 116.295 38.0067 116.625 37.388C116.956 36.7587 117.415 36.268 118.001 35.916C118.588 35.5533 119.281 35.372 120.081 35.372C120.732 35.372 121.308 35.5053 121.809 35.772C122.311 36.0387 122.7 36.412 122.977 36.892V31.98H124.321V43.5H123.105L122.977 42.188C122.721 42.572 122.353 42.9187 121.873 43.228C121.393 43.5373 120.791 43.692 120.065 43.692ZM120.209 42.524C120.743 42.524 121.212 42.4013 121.617 42.156C122.033 41.9 122.353 41.548 122.577 41.1C122.812 40.652 122.929 40.1293 122.929 39.532C122.929 38.9347 122.812 38.412 122.577 37.964C122.353 37.516 122.033 37.1693 121.617 36.924C121.212 36.668 120.743 36.54 120.209 36.54C119.687 36.54 119.217 36.668 118.801 36.924C118.396 37.1693 118.076 37.516 117.841 37.964C117.617 38.412 117.505 38.9347 117.505 39.532C117.505 40.1293 117.617 40.652 117.841 41.1C118.076 41.548 118.396 41.9 118.801 42.156C119.217 42.4013 119.687 42.524 120.209 42.524ZM130.08 43.692C129.323 43.692 128.651 43.5213 128.064 43.18C127.478 42.828 127.014 42.3427 126.672 41.724C126.342 41.1053 126.176 40.3747 126.176 39.532C126.176 38.7 126.342 37.9747 126.672 37.356C127.003 36.7267 127.462 36.2413 128.048 35.9C128.646 35.548 129.334 35.372 130.112 35.372C130.88 35.372 131.542 35.548 132.096 35.9C132.662 36.2413 133.094 36.6947 133.392 37.26C133.691 37.8253 133.84 38.4333 133.84 39.084C133.84 39.2013 133.835 39.3187 133.824 39.436C133.824 39.5533 133.824 39.6867 133.824 39.836H127.504C127.536 40.444 127.675 40.9507 127.92 41.356C128.176 41.7507 128.491 42.0493 128.864 42.252C129.248 42.4547 129.654 42.556 130.08 42.556C130.635 42.556 131.099 42.428 131.472 42.172C131.846 41.916 132.118 41.5693 132.288 41.132H133.616C133.403 41.868 132.992 42.4813 132.384 42.972C131.787 43.452 131.019 43.692 130.08 43.692ZM130.08 36.508C129.44 36.508 128.87 36.7053 128.368 37.1C127.878 37.484 127.595 38.0493 127.52 38.796H132.512C132.48 38.0813 132.235 37.5213 131.776 37.116C131.318 36.7107 130.752 36.508 130.08 36.508ZM135.622 43.5V35.564H136.838L136.95 37.084C137.195 36.5613 137.568 36.1453 138.07 35.836C138.571 35.5267 139.19 35.372 139.926 35.372V36.78H139.558C139.088 36.78 138.656 36.8653 138.262 37.036C137.867 37.196 137.552 37.4733 137.318 37.868C137.083 38.2627 136.966 38.8067 136.966 39.5V43.5H135.622ZM144.474 43.692C143.525 43.692 142.735 43.452 142.106 42.972C141.477 42.492 141.109 41.8413 141.002 41.02H142.378C142.463 41.436 142.682 41.7987 143.034 42.108C143.397 42.4067 143.882 42.556 144.49 42.556C145.055 42.556 145.471 42.4387 145.738 42.204C146.005 41.9587 146.138 41.6707 146.138 41.34C146.138 40.86 145.962 40.54 145.61 40.38C145.269 40.22 144.783 40.076 144.154 39.948C143.727 39.8627 143.301 39.74 142.874 39.58C142.447 39.42 142.09 39.196 141.802 38.908C141.514 38.6093 141.37 38.22 141.37 37.74C141.37 37.0467 141.626 36.4813 142.138 36.044C142.661 35.596 143.365 35.372 144.25 35.372C145.093 35.372 145.781 35.5853 146.314 36.012C146.858 36.428 147.173 37.0253 147.258 37.804H145.93C145.877 37.3987 145.701 37.084 145.402 36.86C145.114 36.6253 144.725 36.508 144.234 36.508C143.754 36.508 143.381 36.6093 143.114 36.812C142.858 37.0147 142.73 37.2813 142.73 37.612C142.73 37.932 142.895 38.1827 143.226 38.364C143.567 38.5453 144.026 38.7 144.602 38.828C145.093 38.9347 145.557 39.068 145.994 39.228C146.442 39.3773 146.805 39.6067 147.082 39.916C147.37 40.2147 147.514 40.652 147.514 41.228C147.525 41.9427 147.253 42.5347 146.698 43.004C146.154 43.4627 145.413 43.692 144.474 43.692ZM149.722 40.396L149.562 32.3H151.018L150.858 40.396H149.722ZM150.33 43.58C150.063 43.58 149.839 43.4947 149.658 43.324C149.487 43.1427 149.402 42.924 149.402 42.668C149.402 42.412 149.487 42.1987 149.658 42.028C149.839 41.8467 150.063 41.756 150.33 41.756C150.586 41.756 150.799 41.8467 150.97 42.028C151.151 42.1987 151.242 42.412 151.242 42.668C151.242 42.924 151.151 43.1427 150.97 43.324C150.799 43.4947 150.586 43.58 150.33 43.58ZM157.717 43.5V32.3H159.061L165.029 41.276V32.3H166.373V43.5H165.029L159.061 34.524V43.5H157.717ZM172.284 43.692C171.538 43.692 170.866 43.5213 170.268 43.18C169.671 42.8387 169.196 42.3587 168.844 41.74C168.503 41.1107 168.332 40.3747 168.332 39.532C168.332 38.6893 168.508 37.9587 168.86 37.34C169.212 36.7107 169.687 36.2253 170.284 35.884C170.892 35.5427 171.57 35.372 172.316 35.372C173.063 35.372 173.735 35.5427 174.332 35.884C174.93 36.2253 175.399 36.7107 175.74 37.34C176.092 37.9587 176.268 38.6893 176.268 39.532C176.268 40.3747 176.092 41.1107 175.74 41.74C175.388 42.3587 174.908 42.8387 174.3 43.18C173.703 43.5213 173.031 43.692 172.284 43.692ZM172.284 42.54C172.743 42.54 173.17 42.428 173.564 42.204C173.959 41.98 174.279 41.644 174.524 41.196C174.77 40.748 174.892 40.1933 174.892 39.532C174.892 38.8707 174.77 38.316 174.524 37.868C174.29 37.42 173.975 37.084 173.58 36.86C173.186 36.636 172.764 36.524 172.316 36.524C171.858 36.524 171.431 36.636 171.036 36.86C170.642 37.084 170.322 37.42 170.076 37.868C169.831 38.316 169.708 38.8707 169.708 39.532C169.708 40.1933 169.831 40.748 170.076 41.196C170.322 41.644 170.636 41.98 171.02 42.204C171.415 42.428 171.836 42.54 172.284 42.54ZM186.612 43.692C185.961 43.692 185.38 43.5587 184.868 43.292C184.366 43.0253 183.982 42.652 183.716 42.172L183.588 43.5H182.372V31.98H183.716V36.876C183.972 36.492 184.334 36.1453 184.804 35.836C185.284 35.5267 185.892 35.372 186.628 35.372C187.417 35.372 188.105 35.5533 188.692 35.916C189.278 36.2787 189.732 36.7747 190.052 37.404C190.382 38.0333 190.548 38.748 190.548 39.548C190.548 40.348 190.382 41.0627 190.052 41.692C189.732 42.3107 189.273 42.8013 188.676 43.164C188.089 43.516 187.401 43.692 186.612 43.692ZM186.468 42.524C187.001 42.524 187.47 42.4013 187.876 42.156C188.281 41.9 188.601 41.548 188.836 41.1C189.07 40.652 189.188 40.1293 189.188 39.532C189.188 38.9347 189.07 38.412 188.836 37.964C188.601 37.516 188.281 37.1693 187.876 36.924C187.47 36.668 187.001 36.54 186.468 36.54C185.934 36.54 185.465 36.668 185.06 36.924C184.654 37.1693 184.334 37.516 184.1 37.964C183.865 38.412 183.748 38.9347 183.748 39.532C183.748 40.1293 183.865 40.652 184.1 41.1C184.334 41.548 184.654 41.9 185.06 42.156C185.465 42.4013 185.934 42.524 186.468 42.524ZM196.034 43.692C195.288 43.692 194.616 43.5213 194.018 43.18C193.421 42.8387 192.946 42.3587 192.594 41.74C192.253 41.1107 192.082 40.3747 192.082 39.532C192.082 38.6893 192.258 37.9587 192.61 37.34C192.962 36.7107 193.437 36.2253 194.034 35.884C194.642 35.5427 195.32 35.372 196.066 35.372C196.813 35.372 197.485 35.5427 198.082 35.884C198.68 36.2253 199.149 36.7107 199.49 37.34C199.842 37.9587 200.018 38.6893 200.018 39.532C200.018 40.3747 199.842 41.1107 199.49 41.74C199.138 42.3587 198.658 42.8387 198.05 43.18C197.453 43.5213 196.781 43.692 196.034 43.692ZM196.034 42.54C196.493 42.54 196.92 42.428 197.314 42.204C197.709 41.98 198.029 41.644 198.274 41.196C198.52 40.748 198.642 40.1933 198.642 39.532C198.642 38.8707 198.52 38.316 198.274 37.868C198.04 37.42 197.725 37.084 197.33 36.86C196.936 36.636 196.514 36.524 196.066 36.524C195.608 36.524 195.181 36.636 194.786 36.86C194.392 37.084 194.072 37.42 193.826 37.868C193.581 38.316 193.458 38.8707 193.458 39.532C193.458 40.1933 193.581 40.748 193.826 41.196C194.072 41.644 194.386 41.98 194.77 42.204C195.165 42.428 195.586 42.54 196.034 42.54ZM205.503 43.692C204.757 43.692 204.085 43.5213 203.487 43.18C202.89 42.8387 202.415 42.3587 202.063 41.74C201.722 41.1107 201.551 40.3747 201.551 39.532C201.551 38.6893 201.727 37.9587 202.079 37.34C202.431 36.7107 202.906 36.2253 203.503 35.884C204.111 35.5427 204.789 35.372 205.535 35.372C206.282 35.372 206.954 35.5427 207.551 35.884C208.149 36.2253 208.618 36.7107 208.959 37.34C209.311 37.9587 209.487 38.6893 209.487 39.532C209.487 40.3747 209.311 41.1107 208.959 41.74C208.607 42.3587 208.127 42.8387 207.519 43.18C206.922 43.5213 206.25 43.692 205.503 43.692ZM205.503 42.54C205.962 42.54 206.389 42.428 206.783 42.204C207.178 41.98 207.498 41.644 207.743 41.196C207.989 40.748 208.111 40.1933 208.111 39.532C208.111 38.8707 207.989 38.316 207.743 37.868C207.509 37.42 207.194 37.084 206.799 36.86C206.405 36.636 205.983 36.524 205.535 36.524C205.077 36.524 204.65 36.636 204.255 36.86C203.861 37.084 203.541 37.42 203.295 37.868C203.05 38.316 202.927 38.8707 202.927 39.532C202.927 40.1933 203.05 40.748 203.295 41.196C203.541 41.644 203.855 41.98 204.239 42.204C204.634 42.428 205.055 42.54 205.503 42.54ZM211.356 43.5V31.98H212.7V38.908L215.948 35.564H217.596L214.076 39.148L218.044 43.5H216.332L212.7 39.388V43.5H211.356ZM220.234 33.804C219.968 33.804 219.744 33.7187 219.562 33.548C219.392 33.3667 219.306 33.1427 219.306 32.876C219.306 32.62 219.392 32.4067 219.562 32.236C219.744 32.0653 219.968 31.98 220.234 31.98C220.49 31.98 220.709 32.0653 220.89 32.236C221.072 32.4067 221.162 32.62 221.162 32.876C221.162 33.1427 221.072 33.3667 220.89 33.548C220.709 33.7187 220.49 33.804 220.234 33.804ZM219.562 43.5V35.564H220.906V43.5H219.562ZM223.247 43.5V35.564H224.463L224.543 36.988C224.799 36.4867 225.167 36.092 225.647 35.804C226.127 35.516 226.671 35.372 227.279 35.372C228.217 35.372 228.964 35.66 229.519 36.236C230.084 36.8013 230.367 37.676 230.367 38.86V43.5H229.023V39.004C229.023 37.3507 228.34 36.524 226.975 36.524C226.292 36.524 225.721 36.7747 225.263 37.276C224.815 37.7667 224.591 38.4707 224.591 39.388V43.5H223.247ZM235.539 41.004C235.091 41.004 234.68 40.9453 234.307 40.828L233.507 41.58C233.624 41.6653 233.768 41.74 233.939 41.804C234.12 41.8573 234.376 41.9107 234.707 41.964C235.037 42.0067 235.501 42.0547 236.099 42.108C237.165 42.1827 237.928 42.428 238.387 42.844C238.845 43.26 239.075 43.804 239.075 44.476C239.075 44.9347 238.947 45.372 238.691 45.788C238.445 46.204 238.061 46.5453 237.539 46.812C237.027 47.0787 236.365 47.212 235.555 47.212C234.84 47.212 234.205 47.116 233.651 46.924C233.096 46.7427 232.664 46.46 232.355 46.076C232.045 45.7027 231.891 45.228 231.891 44.652C231.891 44.3533 231.971 44.028 232.131 43.676C232.291 43.3347 232.589 43.0093 233.027 42.7C232.792 42.604 232.589 42.5027 232.419 42.396C232.259 42.2787 232.109 42.1507 231.971 42.012V41.644L233.331 40.3C232.701 39.7667 232.387 39.0627 232.387 38.188C232.387 37.6653 232.509 37.1907 232.755 36.764C233 36.3373 233.357 36.0013 233.827 35.756C234.296 35.5 234.867 35.372 235.539 35.372C235.997 35.372 236.413 35.436 236.787 35.564H239.715V36.572L238.227 36.636C238.536 37.084 238.691 37.6013 238.691 38.188C238.691 38.7107 238.563 39.1853 238.307 39.612C238.061 40.0387 237.704 40.38 237.235 40.636C236.776 40.8813 236.211 41.004 235.539 41.004ZM235.539 39.9C236.104 39.9 236.552 39.756 236.883 39.468C237.224 39.1693 237.395 38.7427 237.395 38.188C237.395 37.644 237.224 37.228 236.883 36.94C236.552 36.6413 236.104 36.492 235.539 36.492C234.963 36.492 234.504 36.6413 234.163 36.94C233.832 37.228 233.667 37.644 233.667 38.188C233.667 38.7427 233.832 39.1693 234.163 39.468C234.504 39.756 234.963 39.9 235.539 39.9ZM233.203 44.524C233.203 45.0573 233.427 45.452 233.875 45.708C234.323 45.9747 234.883 46.108 235.555 46.108C236.216 46.108 236.744 45.964 237.139 45.676C237.544 45.388 237.747 45.004 237.747 44.524C237.747 44.1827 237.608 43.884 237.331 43.628C237.053 43.3827 236.541 43.2387 235.795 43.196C235.208 43.1533 234.701 43.1 234.275 43.036C233.837 43.2707 233.549 43.5213 233.411 43.788C233.272 44.0653 233.203 44.3107 233.203 44.524ZM244.271 43.692C243.322 43.692 242.532 43.452 241.903 42.972C241.274 42.492 240.906 41.8413 240.799 41.02H242.175C242.26 41.436 242.479 41.7987 242.831 42.108C243.194 42.4067 243.679 42.556 244.287 42.556C244.852 42.556 245.268 42.4387 245.535 42.204C245.802 41.9587 245.935 41.6707 245.935 41.34C245.935 40.86 245.759 40.54 245.407 40.38C245.066 40.22 244.58 40.076 243.951 39.948C243.524 39.8627 243.098 39.74 242.671 39.58C242.244 39.42 241.887 39.196 241.599 38.908C241.311 38.6093 241.167 38.22 241.167 37.74C241.167 37.0467 241.423 36.4813 241.935 36.044C242.458 35.596 243.162 35.372 244.047 35.372C244.89 35.372 245.578 35.5853 246.111 36.012C246.655 36.428 246.97 37.0253 247.055 37.804H245.727C245.674 37.3987 245.498 37.084 245.199 36.86C244.911 36.6253 244.522 36.508 244.031 36.508C243.551 36.508 243.178 36.6093 242.911 36.812C242.655 37.0147 242.527 37.2813 242.527 37.612C242.527 37.932 242.692 38.1827 243.023 38.364C243.364 38.5453 243.823 38.7 244.399 38.828C244.89 38.9347 245.354 39.068 245.791 39.228C246.239 39.3773 246.602 39.6067 246.879 39.916C247.167 40.2147 247.311 40.652 247.311 41.228C247.322 41.9427 247.05 42.5347 246.495 43.004C245.951 43.4627 245.21 43.692 244.271 43.692Z" fill="black" fill-opacity="0.6"/>
<path d="M37.82 44.6045C36.8235 44.6045 35.9883 45.4397 35.9883 46.4362C35.9883 47.4326 36.8235 48.2678 37.82 48.2678C38.7798 48.2678 39.6516 47.4326 39.6077 46.4801C39.6516 45.4324 38.8237 44.6045 37.82 44.6045Z" fill="#EF4444"/>
<path d="M54.7744 51.0964C55.9247 49.1109 55.932 46.7443 54.7891 44.7661L43.3154 24.8961C42.1798 22.8959 40.1283 21.709 37.8277 21.709C35.5271 21.709 33.4757 22.9032 32.34 24.8888L20.8518 44.7808C19.7088 46.781 19.7161 49.1621 20.8737 51.1477C22.0167 53.1112 24.0609 54.2908 26.3468 54.2908H49.2647C51.558 54.2908 53.6168 53.0966 54.7744 51.0964ZM52.2833 49.6604C51.6459 50.7594 50.5176 51.4114 49.2574 51.4114H26.3395C25.0939 51.4114 23.9729 50.774 23.3502 49.697C22.7201 48.6053 22.7127 47.3012 23.3428 46.2022L34.8311 26.3175C35.4539 25.2258 36.5675 24.5811 37.8277 24.5811C39.0806 24.5811 40.2016 25.2331 40.8244 26.3248L52.3053 46.2095C52.9207 47.2792 52.9134 48.5687 52.2833 49.6604Z" fill="#EF4444"/>
<path d="M37.3652 31.747C36.4933 31.9961 35.9512 32.7874 35.9512 33.7472C35.9951 34.326 36.0318 34.9122 36.0757 35.491C36.2003 37.6963 36.3248 39.8577 36.4494 42.063C36.4933 42.8103 37.0722 43.3525 37.8195 43.3525C38.5668 43.3525 39.1529 42.7737 39.1896 42.0191C39.1896 41.5648 39.1896 41.1472 39.2335 40.6856C39.3141 39.2715 39.402 37.8575 39.4826 36.4434C39.5266 35.5276 39.6072 34.6118 39.6512 33.6959C39.6512 33.3662 39.6072 33.0732 39.4826 32.7801C39.109 31.9595 38.2371 31.5419 37.3652 31.747Z" fill="#EF4444"/>
</svg>
