<svg width="279" height="77" viewBox="0 0 279 77" fill="none" xmlns="http://www.w3.org/2000/svg">
<rect y="0.5" width="278.07" height="76" rx="5" fill="#EF9644" fill-opacity="0.1"/>
<path d="M76.8266 33.5V22.3H80.2666C82.2399 22.3 83.6906 22.8013 84.6186 23.804C85.5572 24.8067 86.0266 26.1827 86.0266 27.932C86.0266 29.6493 85.5572 31.0093 84.6186 32.012C83.6906 33.004 82.2399 33.5 80.2666 33.5H76.8266ZM78.1706 32.38H80.2346C81.3226 32.38 82.1866 32.204 82.8266 31.852C83.4772 31.4893 83.9412 30.9773 84.2186 30.316C84.4959 29.644 84.6346 28.8493 84.6346 27.932C84.6346 26.9933 84.4959 26.188 84.2186 25.516C83.9412 24.844 83.4772 24.3267 82.8266 23.964C82.1866 23.6013 81.3226 23.42 80.2346 23.42H78.1706V32.38ZM91.5032 33.692C90.7565 33.692 90.0845 33.5213 89.4872 33.18C88.8899 32.8387 88.4152 32.3587 88.0632 31.74C87.7219 31.1107 87.5512 30.3747 87.5512 29.532C87.5512 28.6893 87.7272 27.9587 88.0792 27.34C88.4312 26.7107 88.9059 26.2253 89.5032 25.884C90.1112 25.5427 90.7885 25.372 91.5352 25.372C92.2819 25.372 92.9539 25.5427 93.5512 25.884C94.1485 26.2253 94.6179 26.7107 94.9592 27.34C95.3112 27.9587 95.4872 28.6893 95.4872 29.532C95.4872 30.3747 95.3112 31.1107 94.9592 31.74C94.6072 32.3587 94.1272 32.8387 93.5192 33.18C92.9219 33.5213 92.2499 33.692 91.5032 33.692ZM91.5032 32.54C91.9619 32.54 92.3885 32.428 92.7832 32.204C93.1779 31.98 93.4979 31.644 93.7432 31.196C93.9885 30.748 94.1112 30.1933 94.1112 29.532C94.1112 28.8707 93.9885 28.316 93.7432 27.868C93.5085 27.42 93.1939 27.084 92.7992 26.86C92.4045 26.636 91.9832 26.524 91.5352 26.524C91.0765 26.524 90.6499 26.636 90.2552 26.86C89.8605 27.084 89.5405 27.42 89.2952 27.868C89.0499 28.316 88.9272 28.8707 88.9272 29.532C88.9272 30.1933 89.0499 30.748 89.2952 31.196C89.5405 31.644 89.8552 31.98 90.2392 32.204C90.6339 32.428 91.0552 32.54 91.5032 32.54ZM101.59 33.5V25.564H102.806L102.886 26.988C103.142 26.4867 103.51 26.092 103.99 25.804C104.47 25.516 105.014 25.372 105.622 25.372C106.561 25.372 107.308 25.66 107.862 26.236C108.428 26.8013 108.71 27.676 108.71 28.86V33.5H107.366V29.004C107.366 27.3507 106.684 26.524 105.318 26.524C104.636 26.524 104.065 26.7747 103.606 27.276C103.158 27.7667 102.934 28.4707 102.934 29.388V33.5H101.59ZM114.363 33.692C113.616 33.692 112.944 33.5213 112.347 33.18C111.749 32.8387 111.275 32.3587 110.923 31.74C110.581 31.1107 110.411 30.3747 110.411 29.532C110.411 28.6893 110.587 27.9587 110.939 27.34C111.291 26.7107 111.765 26.2253 112.363 25.884C112.971 25.5427 113.648 25.372 114.395 25.372C115.141 25.372 115.813 25.5427 116.411 25.884C117.008 26.2253 117.477 26.7107 117.819 27.34C118.171 27.9587 118.347 28.6893 118.347 29.532C118.347 30.3747 118.171 31.1107 117.819 31.74C117.467 32.3587 116.987 32.8387 116.379 33.18C115.781 33.5213 115.109 33.692 114.363 33.692ZM114.363 32.54C114.821 32.54 115.248 32.428 115.643 32.204C116.037 31.98 116.357 31.644 116.603 31.196C116.848 30.748 116.971 30.1933 116.971 29.532C116.971 28.8707 116.848 28.316 116.603 27.868C116.368 27.42 116.053 27.084 115.659 26.86C115.264 26.636 114.843 26.524 114.395 26.524C113.936 26.524 113.509 26.636 113.115 26.86C112.72 27.084 112.4 27.42 112.155 27.868C111.909 28.316 111.787 28.8707 111.787 29.532C111.787 30.1933 111.909 30.748 112.155 31.196C112.4 31.644 112.715 31.98 113.099 32.204C113.493 32.428 113.915 32.54 114.363 32.54ZM123.039 33.5C122.313 33.5 121.743 33.324 121.327 32.972C120.911 32.62 120.703 31.9853 120.703 31.068V26.7H119.327V25.564H120.703L120.879 23.66H122.047V25.564H124.383V26.7H122.047V31.068C122.047 31.5693 122.148 31.9107 122.351 32.092C122.553 32.2627 122.911 32.348 123.423 32.348H124.255V33.5H123.039ZM130.325 33.5V21.98H131.669V33.5H130.325ZM137.44 33.692C136.682 33.692 136.01 33.5213 135.424 33.18C134.837 32.828 134.373 32.3427 134.032 31.724C133.701 31.1053 133.536 30.3747 133.536 29.532C133.536 28.7 133.701 27.9747 134.032 27.356C134.362 26.7267 134.821 26.2413 135.408 25.9C136.005 25.548 136.693 25.372 137.472 25.372C138.24 25.372 138.901 25.548 139.456 25.9C140.021 26.2413 140.453 26.6947 140.752 27.26C141.05 27.8253 141.2 28.4333 141.2 29.084C141.2 29.2013 141.194 29.3187 141.184 29.436C141.184 29.5533 141.184 29.6867 141.184 29.836H134.864C134.896 30.444 135.034 30.9507 135.28 31.356C135.536 31.7507 135.85 32.0493 136.224 32.252C136.608 32.4547 137.013 32.556 137.44 32.556C137.994 32.556 138.458 32.428 138.832 32.172C139.205 31.916 139.477 31.5693 139.648 31.132H140.976C140.762 31.868 140.352 32.4813 139.744 32.972C139.146 33.452 138.378 33.692 137.44 33.692ZM137.44 26.508C136.8 26.508 136.229 26.7053 135.728 27.1C135.237 27.484 134.954 28.0493 134.88 28.796H139.872C139.84 28.0813 139.594 27.5213 139.136 27.116C138.677 26.7107 138.112 26.508 137.44 26.508ZM145.621 33.692C144.96 33.692 144.41 33.58 143.973 33.356C143.536 33.132 143.21 32.8333 142.997 32.46C142.784 32.0867 142.677 31.6813 142.677 31.244C142.677 30.4333 142.986 29.8093 143.605 29.372C144.224 28.9347 145.066 28.716 146.133 28.716H148.277V28.62C148.277 27.9267 148.096 27.404 147.733 27.052C147.37 26.6893 146.885 26.508 146.277 26.508C145.754 26.508 145.301 26.6413 144.917 26.908C144.544 27.164 144.309 27.5427 144.213 28.044H142.837C142.89 27.468 143.082 26.9827 143.413 26.588C143.754 26.1933 144.176 25.8947 144.677 25.692C145.178 25.4787 145.712 25.372 146.277 25.372C147.386 25.372 148.218 25.6707 148.773 26.268C149.338 26.8547 149.621 27.6387 149.621 28.62V33.5H148.421L148.341 32.076C148.117 32.524 147.786 32.908 147.349 33.228C146.922 33.5373 146.346 33.692 145.621 33.692ZM145.829 32.556C146.341 32.556 146.778 32.4227 147.141 32.156C147.514 31.8893 147.797 31.5427 147.989 31.116C148.181 30.6893 148.277 30.2413 148.277 29.772V29.756H146.245C145.456 29.756 144.896 29.8947 144.565 30.172C144.245 30.4387 144.085 30.7747 144.085 31.18C144.085 31.596 144.234 31.932 144.533 32.188C144.842 32.4333 145.274 32.556 145.829 32.556ZM153.628 33.5L150.62 25.564H152.028L154.412 32.204L156.812 25.564H158.188L155.18 33.5H153.628ZM162.846 33.692C162.088 33.692 161.416 33.5213 160.83 33.18C160.243 32.828 159.779 32.3427 159.438 31.724C159.107 31.1053 158.942 30.3747 158.942 29.532C158.942 28.7 159.107 27.9747 159.438 27.356C159.768 26.7267 160.227 26.2413 160.814 25.9C161.411 25.548 162.099 25.372 162.878 25.372C163.646 25.372 164.307 25.548 164.862 25.9C165.427 26.2413 165.859 26.6947 166.158 27.26C166.456 27.8253 166.606 28.4333 166.606 29.084C166.606 29.2013 166.6 29.3187 166.59 29.436C166.59 29.5533 166.59 29.6867 166.59 29.836H160.27C160.302 30.444 160.44 30.9507 160.686 31.356C160.942 31.7507 161.256 32.0493 161.63 32.252C162.014 32.4547 162.419 32.556 162.846 32.556C163.4 32.556 163.864 32.428 164.238 32.172C164.611 31.916 164.883 31.5693 165.054 31.132H166.382C166.168 31.868 165.758 32.4813 165.15 32.972C164.552 33.452 163.784 33.692 162.846 33.692ZM162.846 26.508C162.206 26.508 161.635 26.7053 161.134 27.1C160.643 27.484 160.36 28.0493 160.286 28.796H165.278C165.246 28.0813 165 27.5213 164.542 27.116C164.083 26.7107 163.518 26.508 162.846 26.508ZM172.622 37.02V25.564H173.838L173.966 26.876C174.222 26.492 174.584 26.1453 175.054 25.836C175.534 25.5267 176.142 25.372 176.878 25.372C177.667 25.372 178.355 25.5533 178.942 25.916C179.528 26.2787 179.982 26.7747 180.302 27.404C180.632 28.0333 180.798 28.748 180.798 29.548C180.798 30.348 180.632 31.0627 180.302 31.692C179.982 32.3107 179.523 32.8013 178.926 33.164C178.339 33.516 177.651 33.692 176.862 33.692C176.211 33.692 175.63 33.5587 175.118 33.292C174.616 33.0253 174.232 32.652 173.966 32.172V37.02H172.622ZM176.718 32.524C177.251 32.524 177.72 32.4013 178.126 32.156C178.531 31.9 178.851 31.548 179.086 31.1C179.32 30.652 179.438 30.1293 179.438 29.532C179.438 28.9347 179.32 28.412 179.086 27.964C178.851 27.516 178.531 27.1693 178.126 26.924C177.72 26.668 177.251 26.54 176.718 26.54C176.184 26.54 175.715 26.668 175.31 26.924C174.904 27.1693 174.584 27.516 174.35 27.964C174.115 28.412 173.998 28.9347 173.998 29.532C173.998 30.1293 174.115 30.652 174.35 31.1C174.584 31.548 174.904 31.9 175.31 32.156C175.715 32.4013 176.184 32.524 176.718 32.524ZM182.668 33.5V25.564H183.884L183.996 27.084C184.242 26.5613 184.615 26.1453 185.116 25.836C185.618 25.5267 186.236 25.372 186.972 25.372V26.78H186.604C186.135 26.78 185.703 26.8653 185.308 27.036C184.914 27.196 184.599 27.4733 184.364 27.868C184.13 28.2627 184.012 28.8067 184.012 29.5V33.5H182.668ZM191.8 33.692C191.053 33.692 190.381 33.5213 189.784 33.18C189.187 32.8387 188.712 32.3587 188.36 31.74C188.019 31.1107 187.848 30.3747 187.848 29.532C187.848 28.6893 188.024 27.9587 188.376 27.34C188.728 26.7107 189.203 26.2253 189.8 25.884C190.408 25.5427 191.085 25.372 191.832 25.372C192.579 25.372 193.251 25.5427 193.848 25.884C194.445 26.2253 194.915 26.7107 195.256 27.34C195.608 27.9587 195.784 28.6893 195.784 29.532C195.784 30.3747 195.608 31.1107 195.256 31.74C194.904 32.3587 194.424 32.8387 193.816 33.18C193.219 33.5213 192.547 33.692 191.8 33.692ZM191.8 32.54C192.259 32.54 192.685 32.428 193.08 32.204C193.475 31.98 193.795 31.644 194.04 31.196C194.285 30.748 194.408 30.1933 194.408 29.532C194.408 28.8707 194.285 28.316 194.04 27.868C193.805 27.42 193.491 27.084 193.096 26.86C192.701 26.636 192.28 26.524 191.832 26.524C191.373 26.524 190.947 26.636 190.552 26.86C190.157 27.084 189.837 27.42 189.592 27.868C189.347 28.316 189.224 28.8707 189.224 29.532C189.224 30.1933 189.347 30.748 189.592 31.196C189.837 31.644 190.152 31.98 190.536 32.204C190.931 32.428 191.352 32.54 191.8 32.54ZM201.253 33.692C200.463 33.692 199.77 33.5107 199.173 33.148C198.586 32.7853 198.127 32.2893 197.797 31.66C197.477 31.0307 197.317 30.316 197.317 29.516C197.317 28.716 197.482 28.0067 197.813 27.388C198.143 26.7587 198.602 26.268 199.189 25.916C199.775 25.5533 200.469 25.372 201.269 25.372C201.919 25.372 202.495 25.5053 202.997 25.772C203.498 26.0387 203.887 26.412 204.165 26.892V21.98H205.509V33.5H204.293L204.165 32.188C203.909 32.572 203.541 32.9187 203.061 33.228C202.581 33.5373 201.978 33.692 201.253 33.692ZM201.397 32.524C201.93 32.524 202.399 32.4013 202.805 32.156C203.221 31.9 203.541 31.548 203.765 31.1C203.999 30.652 204.117 30.1293 204.117 29.532C204.117 28.9347 203.999 28.412 203.765 27.964C203.541 27.516 203.221 27.1693 202.805 26.924C202.399 26.668 201.93 26.54 201.397 26.54C200.874 26.54 200.405 26.668 199.989 26.924C199.583 27.1693 199.263 27.516 199.029 27.964C198.805 28.412 198.693 28.9347 198.693 29.532C198.693 30.1293 198.805 30.652 199.029 31.1C199.263 31.548 199.583 31.9 199.989 32.156C200.405 32.4013 200.874 32.524 201.397 32.524ZM210.596 33.692C209.657 33.692 208.91 33.4093 208.356 32.844C207.801 32.268 207.524 31.388 207.524 30.204V25.564H208.868V30.06C208.868 31.7133 209.545 32.54 210.9 32.54C211.593 32.54 212.164 32.2947 212.612 31.804C213.07 31.3027 213.3 30.5933 213.3 29.676V25.564H214.644V33.5H213.428L213.332 32.076C213.086 32.5773 212.718 32.972 212.228 33.26C211.748 33.548 211.204 33.692 210.596 33.692ZM220.504 33.692C219.747 33.692 219.064 33.5213 218.456 33.18C217.859 32.828 217.384 32.3427 217.032 31.724C216.691 31.0947 216.52 30.364 216.52 29.532C216.52 28.7 216.691 27.9747 217.032 27.356C217.384 26.7267 217.859 26.2413 218.456 25.9C219.064 25.548 219.747 25.372 220.504 25.372C221.443 25.372 222.232 25.6173 222.872 26.108C223.523 26.5987 223.933 27.2547 224.104 28.076H222.728C222.621 27.5853 222.36 27.2067 221.944 26.94C221.528 26.6627 221.043 26.524 220.488 26.524C220.04 26.524 219.619 26.636 219.224 26.86C218.829 27.084 218.509 27.42 218.264 27.868C218.019 28.316 217.896 28.8707 217.896 29.532C217.896 30.1933 218.019 30.748 218.264 31.196C218.509 31.644 218.829 31.9853 219.224 32.22C219.619 32.444 220.04 32.556 220.488 32.556C221.043 32.556 221.528 32.4227 221.944 32.156C222.36 31.8787 222.621 31.4893 222.728 30.988H224.104C223.944 31.788 223.539 32.4387 222.888 32.94C222.237 33.4413 221.443 33.692 220.504 33.692ZM228.898 33.5C228.173 33.5 227.602 33.324 227.186 32.972C226.77 32.62 226.562 31.9853 226.562 31.068V26.7H225.186V25.564H226.562L226.738 23.66H227.906V25.564H230.242V26.7H227.906V31.068C227.906 31.5693 228.008 31.9107 228.21 32.092C228.413 32.2627 228.77 32.348 229.282 32.348H230.114V33.5H228.898ZM76.7466 54.5V46.564H77.9626L78.0746 48.084C78.3199 47.5613 78.6932 47.1453 79.1946 46.836C79.6959 46.5267 80.3146 46.372 81.0506 46.372V47.78H80.6826C80.2132 47.78 79.7812 47.8653 79.3866 48.036C78.9919 48.196 78.6772 48.4733 78.4426 48.868C78.2079 49.2627 78.0906 49.8067 78.0906 50.5V54.5H76.7466ZM85.8302 54.692C85.0729 54.692 84.4009 54.5213 83.8142 54.18C83.2275 53.828 82.7635 53.3427 82.4222 52.724C82.0915 52.1053 81.9262 51.3747 81.9262 50.532C81.9262 49.7 82.0915 48.9747 82.4222 48.356C82.7529 47.7267 83.2115 47.2413 83.7982 46.9C84.3955 46.548 85.0835 46.372 85.8622 46.372C86.6302 46.372 87.2915 46.548 87.8462 46.9C88.4115 47.2413 88.8435 47.6947 89.1422 48.26C89.4409 48.8253 89.5902 49.4333 89.5902 50.084C89.5902 50.2013 89.5849 50.3187 89.5742 50.436C89.5742 50.5533 89.5742 50.6867 89.5742 50.836H83.2542C83.2862 51.444 83.4249 51.9507 83.6702 52.356C83.9262 52.7507 84.2409 53.0493 84.6142 53.252C84.9982 53.4547 85.4035 53.556 85.8302 53.556C86.3849 53.556 86.8489 53.428 87.2222 53.172C87.5955 52.916 87.8675 52.5693 88.0382 52.132H89.3662C89.1529 52.868 88.7422 53.4813 88.1342 53.972C87.5369 54.452 86.7689 54.692 85.8302 54.692ZM85.8302 47.508C85.1902 47.508 84.6195 47.7053 84.1182 48.1C83.6275 48.484 83.3449 49.0493 83.2702 49.796H88.2622C88.2302 49.0813 87.9849 48.5213 87.5262 48.116C87.0675 47.7107 86.5022 47.508 85.8302 47.508ZM93.3471 54.5L90.3391 46.564H91.7471L94.1311 53.204L96.5311 46.564H97.9071L94.8991 54.5H93.3471ZM100.219 44.804C99.9522 44.804 99.7282 44.7187 99.5468 44.548C99.3762 44.3667 99.2908 44.1427 99.2908 43.876C99.2908 43.62 99.3762 43.4067 99.5468 43.236C99.7282 43.0653 99.9522 42.98 100.219 42.98C100.475 42.98 100.693 43.0653 100.875 43.236C101.056 43.4067 101.147 43.62 101.147 43.876C101.147 44.1427 101.056 44.3667 100.875 44.548C100.693 44.7187 100.475 44.804 100.219 44.804ZM99.5468 54.5V46.564H100.891V54.5H99.5468ZM106.799 54.692C106.042 54.692 105.37 54.5213 104.783 54.18C104.196 53.828 103.732 53.3427 103.391 52.724C103.06 52.1053 102.895 51.3747 102.895 50.532C102.895 49.7 103.06 48.9747 103.391 48.356C103.722 47.7267 104.18 47.2413 104.767 46.9C105.364 46.548 106.052 46.372 106.831 46.372C107.599 46.372 108.26 46.548 108.815 46.9C109.38 47.2413 109.812 47.6947 110.111 48.26C110.41 48.8253 110.559 49.4333 110.559 50.084C110.559 50.2013 110.554 50.3187 110.543 50.436C110.543 50.5533 110.543 50.6867 110.543 50.836H104.223C104.255 51.444 104.394 51.9507 104.639 52.356C104.895 52.7507 105.21 53.0493 105.583 53.252C105.967 53.4547 106.372 53.556 106.799 53.556C107.354 53.556 107.818 53.428 108.191 53.172C108.564 52.916 108.836 52.5693 109.007 52.132H110.335C110.122 52.868 109.711 53.4813 109.103 53.972C108.506 54.452 107.738 54.692 106.799 54.692ZM106.799 47.508C106.159 47.508 105.588 47.7053 105.087 48.1C104.596 48.484 104.314 49.0493 104.239 49.796H109.231C109.199 49.0813 108.954 48.5213 108.495 48.116C108.036 47.7107 107.471 47.508 106.799 47.508ZM113.628 54.5L111.308 46.564H112.652L114.332 52.788L116.188 46.564H117.708L119.58 52.788L121.244 46.564H122.604L120.284 54.5H118.908L116.956 47.956L115.004 54.5H113.628ZM127.13 54.692C126.181 54.692 125.392 54.452 124.762 53.972C124.133 53.492 123.765 52.8413 123.658 52.02H125.034C125.12 52.436 125.338 52.7987 125.69 53.108C126.053 53.4067 126.538 53.556 127.146 53.556C127.712 53.556 128.128 53.4387 128.394 53.204C128.661 52.9587 128.794 52.6707 128.794 52.34C128.794 51.86 128.618 51.54 128.266 51.38C127.925 51.22 127.44 51.076 126.81 50.948C126.384 50.8627 125.957 50.74 125.53 50.58C125.104 50.42 124.746 50.196 124.458 49.908C124.17 49.6093 124.026 49.22 124.026 48.74C124.026 48.0467 124.282 47.4813 124.794 47.044C125.317 46.596 126.021 46.372 126.906 46.372C127.749 46.372 128.437 46.5853 128.97 47.012C129.514 47.428 129.829 48.0253 129.914 48.804H128.586C128.533 48.3987 128.357 48.084 128.058 47.86C127.77 47.6253 127.381 47.508 126.89 47.508C126.41 47.508 126.037 47.6093 125.77 47.812C125.514 48.0147 125.386 48.2813 125.386 48.612C125.386 48.932 125.552 49.1827 125.882 49.364C126.224 49.5453 126.682 49.7 127.258 49.828C127.749 49.9347 128.213 50.068 128.65 50.228C129.098 50.3773 129.461 50.6067 129.738 50.916C130.026 51.2147 130.17 51.652 130.17 52.228C130.181 52.9427 129.909 53.5347 129.354 54.004C128.81 54.4627 128.069 54.692 127.13 54.692ZM139.941 54.692C139.194 54.692 138.522 54.5213 137.925 54.18C137.327 53.8387 136.853 53.3587 136.501 52.74C136.159 52.1107 135.989 51.3747 135.989 50.532C135.989 49.6893 136.165 48.9587 136.517 48.34C136.869 47.7107 137.343 47.2253 137.941 46.884C138.549 46.5427 139.226 46.372 139.973 46.372C140.719 46.372 141.391 46.5427 141.989 46.884C142.586 47.2253 143.055 47.7107 143.397 48.34C143.749 48.9587 143.925 49.6893 143.925 50.532C143.925 51.3747 143.749 52.1107 143.397 52.74C143.045 53.3587 142.565 53.8387 141.957 54.18C141.359 54.5213 140.687 54.692 139.941 54.692ZM139.941 53.54C140.399 53.54 140.826 53.428 141.221 53.204C141.615 52.98 141.935 52.644 142.181 52.196C142.426 51.748 142.549 51.1933 142.549 50.532C142.549 49.8707 142.426 49.316 142.181 48.868C141.946 48.42 141.631 48.084 141.237 47.86C140.842 47.636 140.421 47.524 139.973 47.524C139.514 47.524 139.087 47.636 138.693 47.86C138.298 48.084 137.978 48.42 137.733 48.868C137.487 49.316 137.365 49.8707 137.365 50.532C137.365 51.1933 137.487 51.748 137.733 52.196C137.978 52.644 138.293 52.98 138.677 53.204C139.071 53.428 139.493 53.54 139.941 53.54ZM145.793 54.5V46.564H147.009L147.121 48.084C147.367 47.5613 147.74 47.1453 148.241 46.836C148.743 46.5267 149.361 46.372 150.097 46.372V47.78H149.729C149.26 47.78 148.828 47.8653 148.433 48.036C148.039 48.196 147.724 48.4733 147.489 48.868C147.255 49.2627 147.137 49.8067 147.137 50.5V54.5H145.793ZM159.488 54.692C158.731 54.692 158.048 54.5213 157.44 54.18C156.843 53.828 156.368 53.3427 156.016 52.724C155.675 52.0947 155.504 51.364 155.504 50.532C155.504 49.7 155.675 48.9747 156.016 48.356C156.368 47.7267 156.843 47.2413 157.44 46.9C158.048 46.548 158.731 46.372 159.488 46.372C160.427 46.372 161.216 46.6173 161.856 47.108C162.507 47.5987 162.918 48.2547 163.088 49.076H161.712C161.606 48.5853 161.344 48.2067 160.928 47.94C160.512 47.6627 160.027 47.524 159.472 47.524C159.024 47.524 158.603 47.636 158.208 47.86C157.814 48.084 157.494 48.42 157.248 48.868C157.003 49.316 156.88 49.8707 156.88 50.532C156.88 51.1933 157.003 51.748 157.248 52.196C157.494 52.644 157.814 52.9853 158.208 53.22C158.603 53.444 159.024 53.556 159.472 53.556C160.027 53.556 160.512 53.4227 160.928 53.156C161.344 52.8787 161.606 52.4893 161.712 51.988H163.088C162.928 52.788 162.523 53.4387 161.872 53.94C161.222 54.4413 160.427 54.692 159.488 54.692ZM168.581 54.692C167.835 54.692 167.163 54.5213 166.565 54.18C165.968 53.8387 165.493 53.3587 165.141 52.74C164.8 52.1107 164.629 51.3747 164.629 50.532C164.629 49.6893 164.805 48.9587 165.157 48.34C165.509 47.7107 165.984 47.2253 166.581 46.884C167.189 46.5427 167.867 46.372 168.613 46.372C169.36 46.372 170.032 46.5427 170.629 46.884C171.227 47.2253 171.696 47.7107 172.037 48.34C172.389 48.9587 172.565 49.6893 172.565 50.532C172.565 51.3747 172.389 52.1107 172.037 52.74C171.685 53.3587 171.205 53.8387 170.597 54.18C170 54.5213 169.328 54.692 168.581 54.692ZM168.581 53.54C169.04 53.54 169.467 53.428 169.861 53.204C170.256 52.98 170.576 52.644 170.821 52.196C171.067 51.748 171.189 51.1933 171.189 50.532C171.189 49.8707 171.067 49.316 170.821 48.868C170.587 48.42 170.272 48.084 169.877 47.86C169.483 47.636 169.061 47.524 168.613 47.524C168.155 47.524 167.728 47.636 167.333 47.86C166.939 48.084 166.619 48.42 166.373 48.868C166.128 49.316 166.005 49.8707 166.005 50.532C166.005 51.1933 166.128 51.748 166.373 52.196C166.619 52.644 166.933 52.98 167.317 53.204C167.712 53.428 168.133 53.54 168.581 53.54ZM174.434 54.5V46.564H175.65L175.746 47.716C176.002 47.2893 176.343 46.9587 176.77 46.724C177.197 46.4893 177.677 46.372 178.21 46.372C178.839 46.372 179.378 46.5 179.826 46.756C180.285 47.012 180.637 47.4013 180.882 47.924C181.159 47.444 181.538 47.0653 182.018 46.788C182.509 46.5107 183.037 46.372 183.602 46.372C184.551 46.372 185.309 46.66 185.874 47.236C186.439 47.8013 186.722 48.676 186.722 49.86V54.5H185.394V50.004C185.394 49.1827 185.229 48.564 184.898 48.148C184.567 47.732 184.093 47.524 183.474 47.524C182.834 47.524 182.301 47.7747 181.874 48.276C181.458 48.7667 181.25 49.4707 181.25 50.388V54.5H179.906V50.004C179.906 49.1827 179.741 48.564 179.41 48.148C179.079 47.732 178.605 47.524 177.986 47.524C177.357 47.524 176.829 47.7747 176.402 48.276C175.986 48.7667 175.778 49.4707 175.778 50.388V54.5H174.434ZM188.747 54.5V46.564H189.963L190.059 47.716C190.315 47.2893 190.656 46.9587 191.083 46.724C191.509 46.4893 191.989 46.372 192.523 46.372C193.152 46.372 193.691 46.5 194.139 46.756C194.597 47.012 194.949 47.4013 195.195 47.924C195.472 47.444 195.851 47.0653 196.331 46.788C196.821 46.5107 197.349 46.372 197.915 46.372C198.864 46.372 199.621 46.66 200.187 47.236C200.752 47.8013 201.035 48.676 201.035 49.86V54.5H199.707V50.004C199.707 49.1827 199.541 48.564 199.211 48.148C198.88 47.732 198.405 47.524 197.787 47.524C197.147 47.524 196.613 47.7747 196.187 48.276C195.771 48.7667 195.563 49.4707 195.563 50.388V54.5H194.219V50.004C194.219 49.1827 194.053 48.564 193.723 48.148C193.392 47.732 192.917 47.524 192.299 47.524C191.669 47.524 191.141 47.7747 190.715 48.276C190.299 48.7667 190.091 49.4707 190.091 50.388V54.5H188.747ZM206.627 54.692C205.87 54.692 205.198 54.5213 204.611 54.18C204.024 53.828 203.56 53.3427 203.219 52.724C202.888 52.1053 202.723 51.3747 202.723 50.532C202.723 49.7 202.888 48.9747 203.219 48.356C203.55 47.7267 204.008 47.2413 204.595 46.9C205.192 46.548 205.88 46.372 206.659 46.372C207.427 46.372 208.088 46.548 208.643 46.9C209.208 47.2413 209.64 47.6947 209.939 48.26C210.238 48.8253 210.387 49.4333 210.387 50.084C210.387 50.2013 210.382 50.3187 210.371 50.436C210.371 50.5533 210.371 50.6867 210.371 50.836H204.051C204.083 51.444 204.222 51.9507 204.467 52.356C204.723 52.7507 205.038 53.0493 205.411 53.252C205.795 53.4547 206.2 53.556 206.627 53.556C207.182 53.556 207.646 53.428 208.019 53.172C208.392 52.916 208.664 52.5693 208.835 52.132H210.163C209.95 52.868 209.539 53.4813 208.931 53.972C208.334 54.452 207.566 54.692 206.627 54.692ZM206.627 47.508C205.987 47.508 205.416 47.7053 204.915 48.1C204.424 48.484 204.142 49.0493 204.067 49.796H209.059C209.027 49.0813 208.782 48.5213 208.323 48.116C207.864 47.7107 207.299 47.508 206.627 47.508ZM212.168 54.5V46.564H213.384L213.464 47.988C213.72 47.4867 214.088 47.092 214.568 46.804C215.048 46.516 215.592 46.372 216.2 46.372C217.139 46.372 217.886 46.66 218.44 47.236C219.006 47.8013 219.288 48.676 219.288 49.86V54.5H217.944V50.004C217.944 48.3507 217.262 47.524 215.896 47.524C215.214 47.524 214.643 47.7747 214.184 48.276C213.736 48.7667 213.512 49.4707 213.512 50.388V54.5H212.168ZM224.461 54.5C223.735 54.5 223.165 54.324 222.749 53.972C222.333 53.62 222.125 52.9853 222.125 52.068V47.7H220.749V46.564H222.125L222.301 44.66H223.469V46.564H225.805V47.7H223.469V52.068C223.469 52.5693 223.57 52.9107 223.773 53.092C223.975 53.2627 224.333 53.348 224.845 53.348H225.677V54.5H224.461ZM230.552 54.692C229.603 54.692 228.814 54.452 228.184 53.972C227.555 53.492 227.187 52.8413 227.08 52.02H228.456C228.542 52.436 228.76 52.7987 229.112 53.108C229.475 53.4067 229.96 53.556 230.568 53.556C231.134 53.556 231.55 53.4387 231.816 53.204C232.083 52.9587 232.216 52.6707 232.216 52.34C232.216 51.86 232.04 51.54 231.688 51.38C231.347 51.22 230.862 51.076 230.232 50.948C229.806 50.8627 229.379 50.74 228.952 50.58C228.526 50.42 228.168 50.196 227.88 49.908C227.592 49.6093 227.448 49.22 227.448 48.74C227.448 48.0467 227.704 47.4813 228.216 47.044C228.739 46.596 229.443 46.372 230.328 46.372C231.171 46.372 231.859 46.5853 232.392 47.012C232.936 47.428 233.251 48.0253 233.336 48.804H232.008C231.955 48.3987 231.779 48.084 231.48 47.86C231.192 47.6253 230.803 47.508 230.312 47.508C229.832 47.508 229.459 47.6093 229.192 47.812C228.936 48.0147 228.808 48.2813 228.808 48.612C228.808 48.932 228.974 49.1827 229.304 49.364C229.646 49.5453 230.104 49.7 230.68 49.828C231.171 49.9347 231.635 50.068 232.072 50.228C232.52 50.3773 232.883 50.6067 233.16 50.916C233.448 51.2147 233.592 51.652 233.592 52.228C233.603 52.9427 233.331 53.5347 232.776 54.004C232.232 54.4627 231.491 54.692 230.552 54.692Z" fill="black" fill-opacity="0.6"/>
<path d="M37.82 45.1045C36.8235 45.1045 35.9883 45.9397 35.9883 46.9362C35.9883 47.9326 36.8235 48.7678 37.82 48.7678C38.7798 48.7678 39.6516 47.9326 39.6077 46.9801C39.6516 45.9324 38.8237 45.1045 37.82 45.1045Z" fill="#EF9644"/>
<path d="M54.7744 51.5964C55.9247 49.6109 55.932 47.2443 54.7891 45.2661L43.3154 25.3961C42.1798 23.3959 40.1283 22.209 37.8277 22.209C35.5271 22.209 33.4757 23.4032 32.34 25.3888L20.8518 45.2808C19.7088 47.281 19.7161 49.6621 20.8737 51.6477C22.0167 53.6112 24.0609 54.7908 26.3468 54.7908H49.2647C51.558 54.7908 53.6168 53.5966 54.7744 51.5964ZM52.2833 50.1604C51.6459 51.2594 50.5176 51.9114 49.2574 51.9114H26.3395C25.0939 51.9114 23.9729 51.274 23.3502 50.197C22.7201 49.1053 22.7127 47.8012 23.3428 46.7022L34.8311 26.8175C35.4539 25.7258 36.5675 25.0811 37.8277 25.0811C39.0806 25.0811 40.2016 25.7331 40.8244 26.8248L52.3053 46.7095C52.9207 47.7792 52.9134 49.0687 52.2833 50.1604Z" fill="#EF9644"/>
<path d="M37.3652 32.247C36.4933 32.4961 35.9512 33.2874 35.9512 34.2472C35.9951 34.826 36.0318 35.4122 36.0757 35.991C36.2003 38.1963 36.3248 40.3577 36.4494 42.563C36.4933 43.3103 37.0722 43.8525 37.8195 43.8525C38.5668 43.8525 39.1529 43.2737 39.1896 42.5191C39.1896 42.0648 39.1896 41.6472 39.2335 41.1856C39.3141 39.7715 39.402 38.3575 39.4826 36.9434C39.5266 36.0276 39.6072 35.1118 39.6512 34.1959C39.6512 33.8662 39.6072 33.5732 39.4826 33.2801C39.109 32.4595 38.2371 32.0419 37.3652 32.247Z" fill="#EF9644"/>
</svg>
