<svg width="216" height="41" viewBox="0 0 216 41" fill="none" xmlns="http://www.w3.org/2000/svg">
<path d="M203.825 27.3336V14.126H206.101V20.7671L212.264 14.126H215.058L209.673 19.8054L215.299 27.3336H212.541L208.118 21.3901L206.1 23.503V27.3336H203.825ZM61.7621 27.3336H59.4939V12.9365H64.9907C68.2527 12.9365 70.2838 14.8236 70.2838 17.6714V17.7127C70.2838 20.881 67.7977 22.5514 64.7062 22.5514H61.7621V27.3336ZM61.7621 15.0252V20.4838H64.7869C66.7262 20.4838 67.9743 19.3689 67.9743 17.7752V17.7339C67.9743 15.9486 66.6989 15.0252 64.7869 15.0252H61.7621ZM72.5953 27.3336V14.126H78.3696C79.9991 14.126 81.2755 14.617 82.1089 15.4466C82.794 16.1633 83.1824 17.1452 83.1824 18.2953C83.1824 20.503 81.9051 21.8044 80.092 22.3326L83.59 27.3326H80.9062L77.7229 22.7288H74.8726V27.3326H72.5953V27.3336ZM74.8726 20.6733H78.2042C79.8327 20.6733 80.8689 19.8054 80.8689 18.4657C80.8689 17.0131 79.869 16.2389 78.185 16.2389H74.8726V20.6733ZM91.9705 27.5604C87.9912 27.5604 85.2155 24.4848 85.2155 20.7681C85.2155 17.0141 88.0285 13.9002 92.0079 13.9002C95.9872 13.9002 98.7629 16.9758 98.7629 20.6925C98.7629 24.4465 95.9499 27.5604 91.9705 27.5604ZM92.0079 25.4283C94.5807 25.4283 96.3757 23.3336 96.3757 20.7671C96.3757 18.1633 94.5434 16.0313 91.9705 16.0313C89.3977 16.0313 87.6027 18.125 87.6027 20.6915C87.6037 23.2953 89.436 25.4283 92.0079 25.4283ZM105.609 27.4283L100.223 14.126H102.74L106.645 24.2771L110.531 14.126H112.993L107.607 27.4283H105.609ZM115.16 27.3336V14.126H117.436V27.3336H115.16ZM120.711 27.3336V14.126H125.541C129.612 14.126 132.426 16.9748 132.426 20.6915C132.426 24.4465 129.613 27.3336 125.541 27.3336H120.711ZM122.987 25.2207H125.541C128.261 25.2207 130.038 23.3528 130.038 20.7681C130.038 18.1451 128.261 16.2399 125.541 16.2399H122.987V25.2207ZM140.31 27.5412C136.942 27.5412 134.795 25.5604 134.795 21.7298V14.126H137.071V21.635C137.071 24.0876 138.311 25.4082 140.347 25.4082C142.365 25.4082 143.604 24.1632 143.604 21.7288V14.125H145.881V21.6159C145.881 25.5604 143.696 27.5412 140.31 27.5412ZM153.356 27.5221C151.375 27.5221 149.507 26.8235 147.952 25.4092L149.321 23.7489C150.561 24.8427 151.801 25.4656 153.412 25.4656C154.818 25.4656 155.707 24.8054 155.707 23.8054C155.707 22.8245 155.189 22.3145 152.783 21.7489C150.025 21.0695 148.471 20.2399 148.471 17.8054C148.471 15.503 150.321 13.9375 152.894 13.9375C154.782 13.9375 156.281 14.5222 157.595 15.5978L156.374 17.3518C155.208 16.4647 154.042 15.994 152.858 15.994C151.525 15.994 150.748 16.6925 150.748 17.5595C150.748 18.6159 151.34 19.0695 153.82 19.6723C156.56 20.3518 157.984 21.3518 157.984 23.5403C157.983 26.0503 156.076 27.5221 153.356 27.5221ZM167.233 27.3295H160.761V13.0494H167.031C168.637 13.0494 169.884 13.5 170.669 14.3004C171.277 14.9204 171.591 15.6784 171.591 16.624V16.6653C171.591 18.3427 170.741 19.2026 169.383 19.9223C171.125 20.5292 172.384 21.3558 172.384 23.4253V23.4667C172.384 25.9606 170.378 27.3295 167.233 27.3295ZM162.988 15.0756V19.1653H166.521C168.15 19.1653 169.323 18.505 169.323 17.0786V17.0373C169.323 15.8034 168.342 15.0756 166.705 15.0756H162.988ZM162.988 21.0887V25.3023H167.254C168.986 25.3023 170.116 24.5997 170.116 23.1955V23.1542C170.116 21.8296 169.065 21.0887 167.071 21.0887H162.988ZM173.847 27.3336L179.548 14.0313H181.658L187.358 27.3336H184.953L183.639 24.1451H177.513L176.181 27.3336H173.847ZM178.345 22.0887H182.806L180.566 16.8054L178.345 22.0887ZM189.39 27.3336V14.126H191.5L198.44 23.258V14.126H200.68V27.3336H198.774L191.629 17.9375V27.3336H189.39Z" fill="#384C55"/>
<path fill-rule="evenodd" clip-rule="evenodd" d="M7.04542 13.7621L10.1783 8.34078H40.6995L41.4825 9.69461L43.8324 13.7621H7.04542ZM11.3769 6.26621L14.5128 0.839844H36.364L39.4998 6.26621H11.3769ZM36.365 36.2599H18.5133C18.1683 36.2599 17.8777 36.4383 17.7193 36.7044L15.545 40.4675H9.34183L14.4583 31.6137C14.6904 31.2115 15.3139 30.8859 15.8497 30.8859L39.4666 30.892L36.365 36.2599ZM43.8122 23.3729L40.6652 28.8184H14.1243C13.7853 28.8184 13.5018 28.9857 13.3404 29.2388L11.1963 32.9484H4.99318L10.1096 24.0957C10.3417 23.6935 10.9653 23.3679 11.501 23.3679L43.8122 23.3729ZM9.74039 21.2993C9.40743 21.2993 9.11682 21.4777 8.95842 21.7439L6.83961 25.4102H0.636475L5.75195 16.5584C5.98401 16.1562 6.60754 15.8296 7.14331 15.8296L45.03 15.8377L46.5979 18.5504L45.0098 21.2983H9.77165L9.74039 21.2993Z" fill="#FBB900"/>
</svg>
