<svg width="54" height="19" viewBox="0 0 54 19" fill="none" xmlns="http://www.w3.org/2000/svg">
<path d="M28.2376 13.2989H18.5871C19.0155 14.817 20.2174 15.548 22.157 15.548C22.7023 15.5815 23.2481 15.4895 23.7476 15.2799C24.2471 15.0704 24.6853 14.7495 25.0248 14.3447L27.6903 15.7954C27.0769 16.6391 26.2455 17.3207 25.275 17.7753C24.3044 18.23 23.227 18.4426 22.1451 18.3931C21.2106 18.4338 20.2771 18.2943 19.4015 17.9831C18.5258 17.6718 17.7265 17.1953 17.0521 16.5825C16.4173 15.9843 15.9188 15.2697 15.5873 14.4826C15.2557 13.6954 15.0982 12.8525 15.1244 12.0057C15.1111 11.1742 15.2726 10.3484 15.5994 9.5763C15.9262 8.80417 16.4119 8.101 17.0283 7.50751C17.6578 6.89605 18.4165 6.4168 19.2551 6.10097C20.0937 5.78515 20.9932 5.63984 21.8952 5.67451C22.7615 5.6429 23.6246 5.79057 24.4242 6.10719C25.2238 6.42381 25.9404 6.90173 26.5241 7.50751C27.7532 8.73471 28.4166 10.3728 28.3685 12.0619C28.3551 12.4766 28.3114 12.8899 28.2376 13.2989ZM18.5395 10.8811H25.0605C24.9392 10.1783 24.5508 9.54151 23.968 9.09015C23.3852 8.63879 22.6482 8.40393 21.8952 8.42963C21.1054 8.39871 20.3282 8.62498 19.6938 9.07062C19.0936 9.52533 18.6844 10.1672 18.5395 10.8811Z" fill="white"/>
<path d="M33.3307 18.0666H30.0107V0.400238H33.3307V18.0666Z" fill="white"/>
<path d="M38.852 18.0666H35.5439V0.400238H38.852V18.0666Z" fill="white"/>
<path d="M10.2095 6.01141V6.0339V18.0664H13.4461V6.01141H10.2095Z" fill="white"/>
<path d="M13.3988 12.0392C13.4012 13.2919 13.0103 14.5171 12.2756 15.5597C11.5409 16.6023 10.4954 17.4156 9.27143 17.8965C8.04748 18.3774 6.70008 18.5044 5.39973 18.2614C4.09939 18.0183 2.90455 17.4162 1.96643 16.5313C1.02831 15.6463 0.389069 14.5182 0.129604 13.2898C-0.129861 12.0613 0.00211344 10.7878 0.508826 9.63026C1.01554 8.47274 1.87421 7.48328 2.97618 6.78711C4.07815 6.09093 5.37389 5.71933 6.69942 5.71933C8.47416 5.71933 10.1764 6.38481 11.4324 7.5697C12.6885 8.7546 13.3957 10.3621 13.3988 12.0392ZM3.27236 12.0392C3.27236 12.6798 3.47335 13.306 3.84992 13.8386C4.22649 14.3711 4.76173 14.7863 5.38794 15.0314C6.01415 15.2765 6.70322 15.3406 7.368 15.2157C8.03279 15.0907 8.64343 14.7823 9.12271 14.3293C9.602 13.8764 9.92839 13.2993 10.0606 12.6711C10.1929 12.0428 10.125 11.3916 9.86561 10.7999C9.60622 10.2081 9.16697 9.70225 8.60339 9.34638C8.03981 8.99051 7.37723 8.80057 6.69942 8.80057C5.79051 8.80057 4.91882 9.14178 4.27612 9.74915C3.63342 10.3565 3.27236 11.1803 3.27236 12.0392Z" fill="white"/>
<path d="M50.7637 6.01141V6.0339V18.0664H54.0003V6.01141H50.7637Z" fill="white"/>
<path d="M53.9526 12.0392C53.9549 13.2919 53.564 14.5171 52.8293 15.5597C52.0946 16.6023 51.0491 17.4156 49.8251 17.8965C48.6012 18.3774 47.2538 18.5044 45.9534 18.2614C44.6531 18.0183 43.4583 17.4162 42.5201 16.5313C41.582 15.6463 40.9428 14.5182 40.6833 13.2898C40.4238 12.0613 40.5558 10.7878 41.0625 9.63026C41.5692 8.47274 42.4279 7.48328 43.5299 6.78711C44.6319 6.09093 45.9276 5.71933 47.2531 5.71933C49.0279 5.71933 50.7301 6.38481 51.9861 7.5697C53.2422 8.7546 53.9494 10.3621 53.9526 12.0392ZM43.8261 12.0392C43.8261 12.6798 44.0271 13.306 44.4036 13.8386C44.7802 14.3711 45.3154 14.7863 45.9416 15.0314C46.5679 15.2765 47.2569 15.3406 47.9217 15.2157C48.5865 15.0907 49.1971 14.7823 49.6764 14.3293C50.1557 13.8764 50.4821 13.2993 50.6143 12.6711C50.7466 12.0428 50.6787 11.3916 50.4193 10.7999C50.1599 10.2081 49.7207 9.70225 49.1571 9.34638C48.5935 8.99051 47.9309 8.80057 47.2531 8.80057C46.3452 8.80353 45.4753 9.1457 44.8333 9.75243C44.1913 10.3592 43.8292 11.1812 43.8261 12.0392Z" fill="white"/>
</svg>
