<svg width="112" height="22" viewBox="0 0 112 22" fill="none" xmlns="http://www.w3.org/2000/svg">
<path d="M105.747 14.3717V7.53817H106.924V10.9742L110.113 7.53817H111.559L108.772 10.4767L111.683 14.3717H110.257L107.968 11.2965L106.924 12.3897V14.3717H105.747ZM32.2443 14.3717H31.0708V6.92273H33.9148C35.6026 6.92273 36.6534 7.89909 36.6534 9.37251V9.39389C36.6534 11.0332 35.3671 11.8974 33.7676 11.8974H32.2443V14.3717ZM32.2443 8.00341V10.8277H33.8094C34.8127 10.8277 35.4585 10.2508 35.4585 9.42623V9.40484C35.4585 8.48116 34.7986 8.00341 33.8094 8.00341H32.2443ZM37.8494 14.3717V7.53817H40.837C41.6801 7.53817 42.3405 7.79217 42.7717 8.22142C43.1261 8.59225 43.3271 9.10025 43.3271 9.69535C43.3271 10.8376 42.6662 11.5109 41.7281 11.7842L43.538 14.3712H42.1494L40.5024 11.9892H39.0276V14.3712H37.8494V14.3717ZM39.0276 10.9257H40.7514C41.594 10.9257 42.1301 10.4767 42.1301 9.7835C42.1301 9.03193 41.6128 8.63137 40.7415 8.63137H39.0276V10.9257ZM47.874 14.489C45.8151 14.489 44.379 12.8977 44.379 10.9747C44.379 9.03245 45.8344 7.42134 47.8933 7.42134C49.9522 7.42134 51.3884 9.01263 51.3884 10.9356C51.3884 12.8779 49.9329 14.489 47.874 14.489ZM47.8933 13.3859C49.2245 13.3859 50.1532 12.3021 50.1532 10.9742C50.1532 9.62703 49.2052 8.52392 47.874 8.52392C46.5428 8.52392 45.6141 9.60721 45.6141 10.9351C45.6147 12.2823 46.5627 13.3859 47.8933 13.3859ZM54.9304 14.4207L52.1437 7.53817H53.4462L55.4665 12.7903L57.4774 7.53817H58.7511L55.9645 14.4207H54.9304ZM59.8719 14.3717V7.53817H61.0496V14.3717H59.8719ZM62.7442 14.3717V7.53817H65.2431C67.3495 7.53817 68.8055 9.01211 68.8055 10.9351C68.8055 12.8779 67.3501 14.3717 65.2431 14.3717H62.7442ZM63.9219 13.2785H65.2431C66.6505 13.2785 67.5698 12.312 67.5698 10.9747C67.5698 9.61764 66.6505 8.63189 65.2431 8.63189H63.9219V13.2785ZM72.8847 14.4791C71.1421 14.4791 70.0312 13.4542 70.0312 11.4723V7.53817H71.2089V11.4233C71.2089 12.6922 71.8505 13.3755 72.904 13.3755C73.9481 13.3755 74.5891 12.7314 74.5891 11.4718V7.53765H75.7668V11.4134C75.7668 13.4543 74.6366 14.4791 72.8847 14.4791ZM79.6346 14.4692C78.6098 14.4692 77.643 14.1078 76.8386 13.376L77.547 12.517C78.1885 13.0829 78.8301 13.4052 79.6633 13.4052C80.391 13.4052 80.8509 13.0636 80.8509 12.5462C80.8509 12.0387 80.5831 11.7748 79.3381 11.4822C77.9113 11.1307 77.1069 10.7014 77.1069 9.44187C77.1069 8.25063 78.0643 7.44064 79.3955 7.44064C80.3722 7.44064 81.1479 7.74315 81.8276 8.29965L81.196 9.20717C80.5925 8.7482 79.9895 8.50463 79.3767 8.50463C78.6871 8.50463 78.2851 8.86607 78.2851 9.31461C78.2851 9.86121 78.5915 10.0959 79.8747 10.4078C81.292 10.7593 82.0291 11.2767 82.0291 12.409C82.0286 13.7077 81.042 14.4692 79.6346 14.4692ZM86.8146 14.3696H83.4658V6.98114H86.7097C87.5408 6.98114 88.186 7.21428 88.5921 7.6284C88.9069 7.94916 89.0693 8.34138 89.0693 8.8306V8.85199C89.0693 9.71987 88.6292 10.1648 87.9266 10.5372C88.8281 10.8511 89.4796 11.2788 89.4796 12.3496V12.371C89.4796 13.6613 88.4418 14.3696 86.8146 14.3696ZM84.6179 8.02948V10.1455H86.4461C87.2886 10.1455 87.8958 9.80384 87.8958 9.06583V9.04444C87.8958 8.40605 87.3883 8.02948 86.5411 8.02948H84.6179ZM84.6179 11.1406V13.3207H86.8251C87.7214 13.3207 88.3061 12.9572 88.3061 12.2307V12.2093C88.3061 11.5239 87.7621 11.1406 86.7306 11.1406H84.6179ZM90.2366 14.3717L93.186 7.48915H94.2776L97.2271 14.3717H95.9826L95.3029 12.722H92.1331L91.444 14.3717H90.2366ZM92.5638 11.658H94.8717L93.7128 8.92448L92.5638 11.658ZM98.2785 14.3717V7.53817H99.3701L102.961 12.263V7.53817H104.12V14.3717H103.133L99.4369 9.5102V14.3717H98.2785Z" fill="white"/>
<path fill-rule="evenodd" clip-rule="evenodd" d="M3.93412 7.34988L5.55503 4.54492H21.3466L21.7517 5.24538L22.9675 7.34988H3.93412ZM6.1752 3.47154L7.79769 0.663971H19.1034L20.7259 3.47154H6.1752ZM19.1039 18.9901H9.86755C9.68902 18.9901 9.53867 19.0824 9.45671 19.2201L8.33173 21.1671H5.12227L7.7695 16.5862C7.88956 16.3781 8.21218 16.2096 8.48938 16.2096L20.7086 16.2128L19.1039 18.9901ZM22.957 12.3224L21.3288 15.1399H7.5967C7.4213 15.1399 7.27461 15.2265 7.19108 15.3574L6.08176 17.2768H2.8723L5.51953 12.6964C5.6396 12.4883 5.96221 12.3198 6.23941 12.3198L22.957 12.3224ZM5.32848 11.2496C5.15621 11.2496 5.00585 11.3419 4.92389 11.4796L3.82763 13.3765H0.618164L3.26488 8.79669C3.38495 8.58858 3.70756 8.4196 3.98477 8.4196L23.5871 8.42377L24.3984 9.82729L23.5767 11.2491H5.34465L5.32848 11.2496Z" fill="#FBB900"/>
</svg>
