<svg width="79" height="23" viewBox="0 0 79 23" fill="none" xmlns="http://www.w3.org/2000/svg">
<path fill-rule="evenodd" clip-rule="evenodd" d="M14.1436 0.0482483L0.618164 7.43933L9.75525 22.4183L9.75572 22.418L9.7562 22.4186L25.5819 13.7704L19.6619 4.06539L17.361 5.32277L14.1436 0.0482483Z" fill="white"/>
<path fill-rule="evenodd" clip-rule="evenodd" d="M4.62585 7.66033C4.40886 7.77891 4.3345 8.04148 4.45977 8.24686L10.1076 17.5057C10.4833 18.1218 11.3156 18.3328 11.9665 17.9771L12.768 17.5392L12.7684 17.54L18.6015 14.3524L18.6012 14.352C20.453 13.3159 21.0819 11.059 20.0038 9.29165C18.9189 7.51298 16.5159 6.90357 14.6367 7.93045C14.6238 7.93751 14.611 7.94461 14.5982 7.95183C14.754 7.25724 14.6496 6.50781 14.245 5.84445C13.3992 4.45796 11.5537 3.95843 10.068 4.69064L10.066 4.68747L4.62585 7.66033Z" fill="#A7FC81"/>
<path d="M37.7438 7.94164H37.4464V7.90409C40.1423 7.90409 41.7479 6.83467 41.7479 5.07099C41.7479 3.15727 40.2216 2.03152 37.6248 2.03152H31.2617V15.9155H37.4662C40.8361 15.9155 42.8183 14.3958 42.8183 11.8066C42.8183 9.36753 40.9352 7.94164 37.7438 7.94164ZM38.9133 5.97158C38.9133 7.1724 38.1006 7.90409 36.7328 7.90409H33.9972V4.03912H36.7328C38.1006 4.03912 38.9133 4.77084 38.9133 5.97158ZM37.605 13.9079H33.9972V9.7052H37.605C39.0917 9.7052 39.9837 10.4933 39.9837 11.8066C39.9837 13.12 39.0917 13.9079 37.605 13.9079Z" fill="white"/>
<path d="M44.8237 15.9155H47.4403V2.03152H44.8237V15.9155Z" fill="white"/>
<path d="M59.287 11.2062C59.287 8.11038 57.4633 6.30927 54.4106 6.30927C51.3182 6.30927 49.4946 8.11038 49.4946 11.2062C49.4946 14.2831 51.3182 16.103 54.4106 16.103C57.1065 16.103 58.9302 14.7897 59.287 12.5571H56.7497C56.4919 13.5889 55.6396 14.2269 54.4106 14.2269C53.0032 14.2269 52.131 13.2137 52.0319 11.4875H59.287V11.2062ZM54.4106 8.16673C55.7189 8.16673 56.5713 9.06731 56.7299 10.6433H52.0518C52.2301 9.06731 53.0825 8.16673 54.4106 8.16673Z" fill="white"/>
<path d="M67.6445 6.49701L65.3842 15.7468H65.3446L63.0848 6.49701H60.29L62.8868 15.9157H65.0472L63.8381 20.2309H66.6335L70.4393 6.49701H67.6445Z" fill="white"/>
<path d="M78.3819 8.20373V6.49641H72.9105V6.45886C74.4969 6.17743 75.4482 5.3332 75.4482 4.13239V3.34442H72.8313V6.49641H71.2456V8.20373H72.6729V13.0631C72.6729 14.9769 73.9216 16.1026 76.043 16.1026C76.7962 16.1026 77.6086 15.9338 78.2034 15.6711V13.8324C77.8468 14.02 77.3514 14.1326 76.8754 14.1326C75.8845 14.1326 75.2897 13.626 75.2897 12.7442V8.20373H78.3819Z" fill="white"/>
</svg>
