<svg width="92" height="41" viewBox="0 0 92 41" fill="none" xmlns="http://www.w3.org/2000/svg">
<path d="M55.332 27.8249C54.5107 27.8249 53.7907 27.6809 53.172 27.3929C52.5533 27.1049 52.068 26.6943 51.716 26.1609C51.3747 25.6276 51.1987 24.9929 51.188 24.2569H52.98C52.9907 24.8543 53.1987 25.3609 53.604 25.7769C54.0093 26.1929 54.58 26.4009 55.316 26.4009C55.9667 26.4009 56.4733 26.2463 56.836 25.9369C57.2093 25.6169 57.396 25.2116 57.396 24.7209C57.396 24.3263 57.3053 24.0063 57.124 23.7609C56.9533 23.5156 56.7133 23.3129 56.404 23.1529C56.1053 22.9929 55.7587 22.8489 55.364 22.7209C54.9693 22.5929 54.5533 22.4543 54.116 22.3049C53.252 22.0169 52.6013 21.6436 52.164 21.1849C51.7373 20.7263 51.524 20.1236 51.524 19.3769C51.5133 18.7476 51.6573 18.1983 51.956 17.7289C52.2653 17.2596 52.692 16.8969 53.236 16.6409C53.7907 16.3743 54.436 16.2409 55.172 16.2409C55.8973 16.2409 56.532 16.3743 57.076 16.6409C57.6307 16.9076 58.0627 17.2809 58.372 17.7609C58.6813 18.2303 58.8413 18.7796 58.852 19.4089H57.06C57.06 19.1209 56.9853 18.8489 56.836 18.5929C56.6867 18.3263 56.468 18.1076 56.18 17.9369C55.892 17.7663 55.54 17.6809 55.124 17.6809C54.5907 17.6703 54.148 17.8036 53.796 18.0809C53.4547 18.3583 53.284 18.7423 53.284 19.2329C53.284 19.6703 53.412 20.0063 53.668 20.2409C53.924 20.4756 54.276 20.6729 54.724 20.8329C55.172 20.9823 55.684 21.1583 56.26 21.3609C56.8147 21.5423 57.3107 21.7609 57.748 22.0169C58.1853 22.2729 58.532 22.6089 58.788 23.0249C59.0547 23.4409 59.188 23.9689 59.188 24.6089C59.188 25.1743 59.044 25.7023 58.756 26.1929C58.468 26.6729 58.036 27.0676 57.46 27.3769C56.884 27.6756 56.1747 27.8249 55.332 27.8249ZM60.9783 27.6329V16.1129H62.6743V27.6329H60.9783ZM67.51 27.8249C66.838 27.8249 66.2833 27.7129 65.846 27.4889C65.4087 27.2649 65.0833 26.9716 64.87 26.6089C64.6567 26.2356 64.55 25.8303 64.55 25.3929C64.55 24.6249 64.8487 24.0169 65.446 23.5689C66.0433 23.1209 66.8967 22.8969 68.006 22.8969H70.086V22.7529C70.086 22.1343 69.9153 21.6703 69.574 21.3609C69.2433 21.0516 68.8113 20.8969 68.278 20.8969C67.8087 20.8969 67.398 21.0143 67.046 21.2489C66.7047 21.4729 66.4967 21.8089 66.422 22.2569H64.726C64.7793 21.6809 64.9713 21.1903 65.302 20.7849C65.6433 20.3689 66.07 20.0543 66.582 19.8409C67.1047 19.6169 67.6753 19.5049 68.294 19.5049C69.4033 19.5049 70.262 19.7983 70.87 20.3849C71.478 20.9609 71.782 21.7503 71.782 22.7529V27.6329H70.31L70.166 26.2729C69.942 26.7103 69.6167 27.0783 69.19 27.3769C68.7633 27.6756 68.2033 27.8249 67.51 27.8249ZM67.846 26.4489C68.3047 26.4489 68.6887 26.3423 68.998 26.1289C69.318 25.9049 69.5633 25.6116 69.734 25.2489C69.9153 24.8863 70.0273 24.4863 70.07 24.0489H68.182C67.51 24.0489 67.03 24.1663 66.742 24.4009C66.4647 24.6356 66.326 24.9289 66.326 25.2809C66.326 25.6436 66.4593 25.9316 66.726 26.1449C67.0033 26.3476 67.3767 26.4489 67.846 26.4489ZM77.5195 27.8249C76.7408 27.8249 76.0422 27.6489 75.4235 27.2969C74.8155 26.9449 74.3355 26.4596 73.9835 25.8409C73.6422 25.2116 73.4715 24.4863 73.4715 23.6649C73.4715 22.8436 73.6422 22.1236 73.9835 21.5049C74.3355 20.8756 74.8155 20.3849 75.4235 20.0329C76.0422 19.6809 76.7408 19.5049 77.5195 19.5049C78.5008 19.5049 79.3222 19.7609 79.9835 20.2729C80.6555 20.7849 81.0875 21.4783 81.2795 22.3529H79.5035C79.3968 21.9156 79.1622 21.5743 78.7995 21.3289C78.4368 21.0836 78.0102 20.9609 77.5195 20.9609C77.1035 20.9609 76.7195 21.0676 76.3675 21.2809C76.0155 21.4836 75.7328 21.7876 75.5195 22.1929C75.3062 22.5876 75.1995 23.0783 75.1995 23.6649C75.1995 24.2516 75.3062 24.7476 75.5195 25.1529C75.7328 25.5476 76.0155 25.8516 76.3675 26.0649C76.7195 26.2783 77.1035 26.3849 77.5195 26.3849C78.0102 26.3849 78.4368 26.2623 78.7995 26.0169C79.1622 25.7716 79.3968 25.4249 79.5035 24.9769H81.2795C81.0982 25.8303 80.6715 26.5183 79.9995 27.0409C79.3275 27.5636 78.5008 27.8249 77.5195 27.8249ZM83.1189 27.6329V16.1129H84.8149V22.9769L87.8549 19.6969H89.8869L86.5109 23.2969L90.3829 27.6329H88.2389L84.8149 23.5689V27.6329H83.1189Z" fill="white"/>
<path d="M15.1664 0.799683C12.9573 0.799683 11.1667 2.59077 11.1667 4.79955C11.1661 5.32429 11.2692 5.844 11.4699 6.32901C11.6706 6.81401 11.9651 7.2548 12.3365 7.62622C12.7079 7.99765 13.149 8.29242 13.6345 8.49372C14.1201 8.69502 14.6406 8.79889 15.1664 8.79942H19.1668V4.79955C19.1677 3.73972 18.7468 2.72294 17.9965 1.97284C17.2463 1.22274 16.2283 0.800746 15.1664 0.799683ZM15.1664 11.466H4.49974C2.29061 11.466 0.5 13.2571 0.5 15.4665C0.5 17.6753 2.29061 19.4664 4.49974 19.4664H15.1671C17.3755 19.4664 19.1668 17.6753 19.1668 15.4665C19.1668 13.2571 17.3755 11.466 15.1664 11.466Z" fill="white"/>
<path d="M40.4998 15.4665C40.4998 13.2571 38.7085 11.466 36.4994 11.466C34.2903 11.466 32.4997 13.2571 32.4997 15.4665V19.4664H36.4994C37.5613 19.4653 38.5794 19.0434 39.3296 18.2933C40.0798 17.5431 40.5007 16.5264 40.4998 15.4665ZM29.8332 15.4665V4.79955C29.8341 3.73972 29.4131 2.72294 28.6629 1.97284C27.9127 1.22274 26.8947 0.800746 25.8328 0.799683C23.6236 0.799683 21.833 2.59077 21.833 4.79955V15.4659C21.833 17.676 23.6236 19.4671 25.8328 19.4671C26.8947 19.466 27.9127 19.044 28.6629 18.2939C29.4131 17.5438 29.8341 16.527 29.8332 15.4672" fill="white"/>
<path d="M25.8328 40.7997C26.8947 40.7986 27.9127 40.3766 28.6629 39.6265C29.4131 38.8764 29.8341 37.8596 29.8332 36.7998C29.8341 35.74 29.4131 34.7232 28.6629 33.9731C27.9127 33.223 26.8947 32.801 25.8328 32.7999H21.833V36.7998C21.833 39.0086 23.6236 40.7997 25.8328 40.7997ZM25.8328 30.1333H36.5001C38.7085 30.1333 40.4998 28.3423 40.4998 26.1328C40.5007 25.073 40.0798 24.0562 39.3296 23.3061C38.5794 22.556 37.5613 22.134 36.4994 22.1329H25.8328C23.6236 22.1329 21.833 23.924 21.833 26.1328C21.8325 26.6575 21.9355 27.1773 22.1362 27.6623C22.337 28.1473 22.6314 28.5881 23.0028 28.9595C23.3743 29.3309 23.8153 29.6257 24.3009 29.827C24.7864 30.0283 25.307 30.1321 25.8328 30.1327" fill="white"/>
<path d="M0.500002 26.1328C0.499474 26.6575 0.602512 27.1773 0.803232 27.6623C1.00395 28.1473 1.29842 28.5881 1.66984 28.9595C2.04125 29.3309 2.48232 29.6257 2.96788 29.827C3.45344 30.0283 3.97397 30.1321 4.49975 30.1327C5.56167 30.1316 6.57969 29.7096 7.3299 28.9595C8.0801 28.2094 8.50105 27.1926 8.50016 26.1328V22.1329H4.49975C2.29061 22.1329 0.500002 23.924 0.500002 26.1328ZM11.1667 26.1328V36.7991C11.1667 39.0086 12.9573 40.7997 15.1664 40.7997C16.2283 40.7986 17.2463 40.3766 17.9966 39.6265C18.7468 38.8764 19.1677 37.8596 19.1668 36.7998V26.1328C19.1673 25.608 19.0643 25.0882 18.8635 24.6032C18.6628 24.1181 18.3682 23.6773 17.9967 23.3059C17.6253 22.9345 17.1841 22.6397 16.6985 22.4384C16.2128 22.2372 15.6922 22.1334 15.1664 22.1329C12.9573 22.1329 11.1667 23.924 11.1667 26.1328Z" fill="white"/>
</svg>
