<svg width="279" height="77" viewBox="0 0 279 77" fill="none" xmlns="http://www.w3.org/2000/svg">
<rect y="0.5" width="278.07" height="76" rx="5" fill="#4488EF" fill-opacity="0.1"/>
<path d="M80.3946 44.192C79.5732 44.192 78.8586 44.0427 78.2506 43.744C77.6426 43.4453 77.1732 43.0293 76.8426 42.496C76.5119 41.9627 76.3466 41.344 76.3466 40.64H77.7546C77.7546 41.0773 77.8559 41.4827 78.0586 41.856C78.2612 42.2187 78.5546 42.512 78.9386 42.736C79.3332 42.9493 79.8186 43.056 80.3946 43.056C81.1519 43.056 81.7386 42.8747 82.1546 42.512C82.5706 42.1493 82.7786 41.696 82.7786 41.152C82.7786 40.704 82.6826 40.3467 82.4906 40.08C82.2986 39.8027 82.0372 39.5787 81.7066 39.408C81.3866 39.2373 81.0132 39.088 80.5866 38.96C80.1706 38.832 79.7332 38.688 79.2746 38.528C78.4106 38.2293 77.7706 37.8613 77.3546 37.424C76.9386 36.976 76.7306 36.3947 76.7306 35.68C76.7199 35.0827 76.8586 34.5547 77.1466 34.096C77.4346 33.6267 77.8399 33.264 78.3626 33.008C78.8959 32.7413 79.5252 32.608 80.2506 32.608C80.9652 32.608 81.5839 32.7413 82.1066 33.008C82.6399 33.2747 83.0506 33.6427 83.3386 34.112C83.6372 34.5813 83.7919 35.1147 83.8026 35.712H82.3946C82.3946 35.4027 82.3146 35.0987 82.1546 34.8C81.9946 34.4907 81.7492 34.24 81.4186 34.048C81.0986 33.856 80.6932 33.76 80.2026 33.76C79.5946 33.7493 79.0932 33.904 78.6986 34.224C78.3146 34.544 78.1226 34.9867 78.1226 35.552C78.1226 36.032 78.2559 36.4 78.5226 36.656C78.7999 36.912 79.1839 37.1253 79.6746 37.296C80.1652 37.456 80.7306 37.6427 81.3706 37.856C81.9039 38.048 82.3839 38.272 82.8106 38.528C83.2372 38.784 83.5679 39.1147 83.8026 39.52C84.0479 39.9253 84.1706 40.4427 84.1706 41.072C84.1706 41.6053 84.0319 42.112 83.7546 42.592C83.4772 43.0613 83.0559 43.4453 82.4906 43.744C81.9359 44.0427 81.2372 44.192 80.3946 44.192ZM88.8926 44.192C87.9539 44.192 87.2072 43.9093 86.6526 43.344C86.0979 42.768 85.8206 41.888 85.8206 40.704V36.064H87.1646V40.56C87.1646 42.2133 87.8419 43.04 89.1966 43.04C89.8899 43.04 90.4606 42.7947 90.9086 42.304C91.3672 41.8027 91.5966 41.0933 91.5966 40.176V36.064H92.9406V44H91.7246L91.6286 42.576C91.3832 43.0773 91.0152 43.472 90.5246 43.76C90.0446 44.048 89.5006 44.192 88.8926 44.192ZM99.3928 44.192C98.7422 44.192 98.1608 44.0587 97.6488 43.792C97.1475 43.5253 96.7635 43.152 96.4968 42.672L96.3688 44H95.1528V32.48H96.4968V37.376C96.7528 36.992 97.1155 36.6453 97.5848 36.336C98.0648 36.0267 98.6728 35.872 99.4088 35.872C100.198 35.872 100.886 36.0533 101.473 36.416C102.059 36.7787 102.513 37.2747 102.833 37.904C103.163 38.5333 103.329 39.248 103.329 40.048C103.329 40.848 103.163 41.5627 102.833 42.192C102.513 42.8107 102.054 43.3013 101.457 43.664C100.87 44.016 100.182 44.192 99.3928 44.192ZM99.2488 43.024C99.7822 43.024 100.251 42.9013 100.657 42.656C101.062 42.4 101.382 42.048 101.617 41.6C101.851 41.152 101.969 40.6293 101.969 40.032C101.969 39.4347 101.851 38.912 101.617 38.464C101.382 38.016 101.062 37.6693 100.657 37.424C100.251 37.168 99.7822 37.04 99.2488 37.04C98.7155 37.04 98.2462 37.168 97.8408 37.424C97.4355 37.6693 97.1155 38.016 96.8808 38.464C96.6462 38.912 96.5288 39.4347 96.5288 40.032C96.5288 40.6293 96.6462 41.152 96.8808 41.6C97.1155 42.048 97.4355 42.4 97.8408 42.656C98.2462 42.9013 98.7155 43.024 99.2488 43.024ZM105.2 44V36.064H106.416L106.512 37.216C106.768 36.7893 107.109 36.4587 107.536 36.224C107.962 35.9893 108.442 35.872 108.976 35.872C109.605 35.872 110.144 36 110.592 36.256C111.05 36.512 111.402 36.9013 111.648 37.424C111.925 36.944 112.304 36.5653 112.784 36.288C113.274 36.0107 113.802 35.872 114.368 35.872C115.317 35.872 116.074 36.16 116.64 36.736C117.205 37.3013 117.488 38.176 117.488 39.36V44H116.16V39.504C116.16 38.6827 115.994 38.064 115.664 37.648C115.333 37.232 114.858 37.024 114.24 37.024C113.6 37.024 113.066 37.2747 112.64 37.776C112.224 38.2667 112.016 38.9707 112.016 39.888V44H110.672V39.504C110.672 38.6827 110.506 38.064 110.176 37.648C109.845 37.232 109.37 37.024 108.752 37.024C108.122 37.024 107.594 37.2747 107.168 37.776C106.752 38.2667 106.544 38.9707 106.544 39.888V44H105.2ZM120.328 34.304C120.062 34.304 119.838 34.2187 119.656 34.048C119.486 33.8667 119.4 33.6427 119.4 33.376C119.4 33.12 119.486 32.9067 119.656 32.736C119.838 32.5653 120.062 32.48 120.328 32.48C120.584 32.48 120.803 32.5653 120.984 32.736C121.166 32.9067 121.256 33.12 121.256 33.376C121.256 33.6427 121.166 33.8667 120.984 34.048C120.803 34.2187 120.584 34.304 120.328 34.304ZM119.656 44V36.064H121V44H119.656ZM126.476 44C125.751 44 125.18 43.824 124.764 43.472C124.348 43.12 124.14 42.4853 124.14 41.568V37.2H122.764V36.064H124.14L124.316 34.16H125.484V36.064H127.82V37.2H125.484V41.568C125.484 42.0693 125.586 42.4107 125.788 42.592C125.991 42.7627 126.348 42.848 126.86 42.848H127.692V44H126.476ZM133.762 44V36.064H134.978L135.09 37.584C135.336 37.0613 135.709 36.6453 136.21 36.336C136.712 36.0267 137.33 35.872 138.066 35.872V37.28H137.698C137.229 37.28 136.797 37.3653 136.402 37.536C136.008 37.696 135.693 37.9733 135.458 38.368C135.224 38.7627 135.106 39.3067 135.106 40V44H133.762ZM142.846 44.192C142.088 44.192 141.416 44.0213 140.83 43.68C140.243 43.328 139.779 42.8427 139.438 42.224C139.107 41.6053 138.942 40.8747 138.942 40.032C138.942 39.2 139.107 38.4747 139.438 37.856C139.768 37.2267 140.227 36.7413 140.814 36.4C141.411 36.048 142.099 35.872 142.878 35.872C143.646 35.872 144.307 36.048 144.862 36.4C145.427 36.7413 145.859 37.1947 146.158 37.76C146.456 38.3253 146.606 38.9333 146.606 39.584C146.606 39.7013 146.6 39.8187 146.59 39.936C146.59 40.0533 146.59 40.1867 146.59 40.336H140.27C140.302 40.944 140.44 41.4507 140.686 41.856C140.942 42.2507 141.256 42.5493 141.63 42.752C142.014 42.9547 142.419 43.056 142.846 43.056C143.4 43.056 143.864 42.928 144.238 42.672C144.611 42.416 144.883 42.0693 145.054 41.632H146.382C146.168 42.368 145.758 42.9813 145.15 43.472C144.552 43.952 143.784 44.192 142.846 44.192ZM142.846 37.008C142.206 37.008 141.635 37.2053 141.134 37.6C140.643 37.984 140.36 38.5493 140.286 39.296H145.278C145.246 38.5813 145 38.0213 144.542 37.616C144.083 37.2107 143.518 37.008 142.846 37.008ZM148.387 47.52V36.064H149.603L149.731 37.376C149.987 36.992 150.35 36.6453 150.819 36.336C151.299 36.0267 151.907 35.872 152.643 35.872C153.433 35.872 154.121 36.0533 154.707 36.416C155.294 36.7787 155.747 37.2747 156.067 37.904C156.398 38.5333 156.563 39.248 156.563 40.048C156.563 40.848 156.398 41.5627 156.067 42.192C155.747 42.8107 155.289 43.3013 154.691 43.664C154.105 44.016 153.417 44.192 152.627 44.192C151.977 44.192 151.395 44.0587 150.883 43.792C150.382 43.5253 149.998 43.152 149.731 42.672V47.52H148.387ZM152.483 43.024C153.017 43.024 153.486 42.9013 153.891 42.656C154.297 42.4 154.617 42.048 154.851 41.6C155.086 41.152 155.203 40.6293 155.203 40.032C155.203 39.4347 155.086 38.912 154.851 38.464C154.617 38.016 154.297 37.6693 153.891 37.424C153.486 37.168 153.017 37.04 152.483 37.04C151.95 37.04 151.481 37.168 151.075 37.424C150.67 37.6693 150.35 38.016 150.115 38.464C149.881 38.912 149.763 39.4347 149.763 40.032C149.763 40.6293 149.881 41.152 150.115 41.6C150.35 42.048 150.67 42.4 151.075 42.656C151.481 42.9013 151.95 43.024 152.483 43.024ZM162.05 44.192C161.303 44.192 160.631 44.0213 160.034 43.68C159.437 43.3387 158.962 42.8587 158.61 42.24C158.269 41.6107 158.098 40.8747 158.098 40.032C158.098 39.1893 158.274 38.4587 158.626 37.84C158.978 37.2107 159.453 36.7253 160.05 36.384C160.658 36.0427 161.335 35.872 162.082 35.872C162.829 35.872 163.501 36.0427 164.098 36.384C164.695 36.7253 165.165 37.2107 165.506 37.84C165.858 38.4587 166.034 39.1893 166.034 40.032C166.034 40.8747 165.858 41.6107 165.506 42.24C165.154 42.8587 164.674 43.3387 164.066 43.68C163.469 44.0213 162.797 44.192 162.05 44.192ZM162.05 43.04C162.509 43.04 162.935 42.928 163.33 42.704C163.725 42.48 164.045 42.144 164.29 41.696C164.535 41.248 164.658 40.6933 164.658 40.032C164.658 39.3707 164.535 38.816 164.29 38.368C164.055 37.92 163.741 37.584 163.346 37.36C162.951 37.136 162.53 37.024 162.082 37.024C161.623 37.024 161.197 37.136 160.802 37.36C160.407 37.584 160.087 37.92 159.842 38.368C159.597 38.816 159.474 39.3707 159.474 40.032C159.474 40.6933 159.597 41.248 159.842 41.696C160.087 42.144 160.402 42.48 160.786 42.704C161.181 42.928 161.602 43.04 162.05 43.04ZM167.903 44V36.064H169.119L169.231 37.584C169.476 37.0613 169.849 36.6453 170.351 36.336C170.852 36.0267 171.471 35.872 172.207 35.872V37.28H171.839C171.369 37.28 170.937 37.3653 170.543 37.536C170.148 37.696 169.833 37.9733 169.599 38.368C169.364 38.7627 169.247 39.3067 169.247 40V44H167.903ZM176.851 44C176.126 44 175.555 43.824 175.139 43.472C174.723 43.12 174.515 42.4853 174.515 41.568V37.2H173.139V36.064H174.515L174.691 34.16H175.859V36.064H178.195V37.2H175.859V41.568C175.859 42.0693 175.961 42.4107 176.163 42.592C176.366 42.7627 176.723 42.848 177.235 42.848H178.067V44H176.851ZM182.943 44.192C181.993 44.192 181.204 43.952 180.575 43.472C179.945 42.992 179.577 42.3413 179.471 41.52H180.847C180.932 41.936 181.151 42.2987 181.503 42.608C181.865 42.9067 182.351 43.056 182.959 43.056C183.524 43.056 183.94 42.9387 184.207 42.704C184.473 42.4587 184.607 42.1707 184.607 41.84C184.607 41.36 184.431 41.04 184.079 40.88C183.737 40.72 183.252 40.576 182.623 40.448C182.196 40.3627 181.769 40.24 181.343 40.08C180.916 39.92 180.559 39.696 180.271 39.408C179.983 39.1093 179.839 38.72 179.839 38.24C179.839 37.5467 180.095 36.9813 180.607 36.544C181.129 36.096 181.833 35.872 182.719 35.872C183.561 35.872 184.249 36.0853 184.783 36.512C185.327 36.928 185.641 37.5253 185.727 38.304H184.399C184.345 37.8987 184.169 37.584 183.871 37.36C183.583 37.1253 183.193 37.008 182.703 37.008C182.223 37.008 181.849 37.1093 181.583 37.312C181.327 37.5147 181.199 37.7813 181.199 38.112C181.199 38.432 181.364 38.6827 181.695 38.864C182.036 39.0453 182.495 39.2 183.071 39.328C183.561 39.4347 184.025 39.568 184.463 39.728C184.911 39.8773 185.273 40.1067 185.551 40.416C185.839 40.7147 185.983 41.152 185.983 41.728C185.993 42.4427 185.721 43.0347 185.167 43.504C184.623 43.9627 183.881 44.192 182.943 44.192ZM192.953 34.304C192.687 34.304 192.463 34.2187 192.281 34.048C192.111 33.8667 192.025 33.6427 192.025 33.376C192.025 33.12 192.111 32.9067 192.281 32.736C192.463 32.5653 192.687 32.48 192.953 32.48C193.209 32.48 193.428 32.5653 193.609 32.736C193.791 32.9067 193.881 33.12 193.881 33.376C193.881 33.6427 193.791 33.8667 193.609 34.048C193.428 34.2187 193.209 34.304 192.953 34.304ZM192.281 44V36.064H193.625V44H192.281ZM195.965 44V36.064H197.181L197.261 37.488C197.517 36.9867 197.885 36.592 198.365 36.304C198.845 36.016 199.389 35.872 199.997 35.872C200.936 35.872 201.683 36.16 202.237 36.736C202.803 37.3013 203.085 38.176 203.085 39.36V44H201.741V39.504C201.741 37.8507 201.059 37.024 199.693 37.024C199.011 37.024 198.44 37.2747 197.981 37.776C197.533 38.2667 197.309 38.9707 197.309 39.888V44H195.965ZM209.436 44V32.8H216.364V33.904H210.78V37.808H215.884V38.896H210.78V42.896H216.364V44H209.436ZM218.387 44V36.064H219.603L219.683 37.488C219.939 36.9867 220.307 36.592 220.787 36.304C221.267 36.016 221.811 35.872 222.419 35.872C223.358 35.872 224.105 36.16 224.659 36.736C225.225 37.3013 225.507 38.176 225.507 39.36V44H224.163V39.504C224.163 37.8507 223.481 37.024 222.115 37.024C221.433 37.024 220.862 37.2747 220.403 37.776C219.955 38.2667 219.731 38.9707 219.731 39.888V44H218.387ZM230.679 41.504C230.231 41.504 229.821 41.4453 229.447 41.328L228.647 42.08C228.765 42.1653 228.909 42.24 229.079 42.304C229.261 42.3573 229.517 42.4107 229.847 42.464C230.178 42.5067 230.642 42.5547 231.239 42.608C232.306 42.6827 233.069 42.928 233.527 43.344C233.986 43.76 234.215 44.304 234.215 44.976C234.215 45.4347 234.087 45.872 233.831 46.288C233.586 46.704 233.202 47.0453 232.679 47.312C232.167 47.5787 231.506 47.712 230.695 47.712C229.981 47.712 229.346 47.616 228.791 47.424C228.237 47.2427 227.805 46.96 227.495 46.576C227.186 46.2027 227.031 45.728 227.031 45.152C227.031 44.8533 227.111 44.528 227.271 44.176C227.431 43.8347 227.73 43.5093 228.167 43.2C227.933 43.104 227.73 43.0027 227.559 42.896C227.399 42.7787 227.25 42.6507 227.111 42.512V42.144L228.471 40.8C227.842 40.2667 227.527 39.5627 227.527 38.688C227.527 38.1653 227.65 37.6907 227.895 37.264C228.141 36.8373 228.498 36.5013 228.967 36.256C229.437 36 230.007 35.872 230.679 35.872C231.138 35.872 231.554 35.936 231.927 36.064H234.855V37.072L233.367 37.136C233.677 37.584 233.831 38.1013 233.831 38.688C233.831 39.2107 233.703 39.6853 233.447 40.112C233.202 40.5387 232.845 40.88 232.375 41.136C231.917 41.3813 231.351 41.504 230.679 41.504ZM230.679 40.4C231.245 40.4 231.693 40.256 232.023 39.968C232.365 39.6693 232.535 39.2427 232.535 38.688C232.535 38.144 232.365 37.728 232.023 37.44C231.693 37.1413 231.245 36.992 230.679 36.992C230.103 36.992 229.645 37.1413 229.303 37.44C228.973 37.728 228.807 38.144 228.807 38.688C228.807 39.2427 228.973 39.6693 229.303 39.968C229.645 40.256 230.103 40.4 230.679 40.4ZM228.343 45.024C228.343 45.5573 228.567 45.952 229.015 46.208C229.463 46.4747 230.023 46.608 230.695 46.608C231.357 46.608 231.885 46.464 232.279 46.176C232.685 45.888 232.887 45.504 232.887 45.024C232.887 44.6827 232.749 44.384 232.471 44.128C232.194 43.8827 231.682 43.7387 230.935 43.696C230.349 43.6533 229.842 43.6 229.415 43.536C228.978 43.7707 228.69 44.0213 228.551 44.288C228.413 44.5653 228.343 44.8107 228.343 45.024ZM236.372 44V32.48H237.716V44H236.372ZM240.734 34.304C240.468 34.304 240.244 34.2187 240.062 34.048C239.892 33.8667 239.806 33.6427 239.806 33.376C239.806 33.12 239.892 32.9067 240.062 32.736C240.244 32.5653 240.468 32.48 240.734 32.48C240.99 32.48 241.209 32.5653 241.39 32.736C241.572 32.9067 241.662 33.12 241.662 33.376C241.662 33.6427 241.572 33.8667 241.39 34.048C241.209 34.2187 240.99 34.304 240.734 34.304ZM240.062 44V36.064H241.406V44H240.062ZM246.787 44.192C245.837 44.192 245.048 43.952 244.419 43.472C243.789 42.992 243.421 42.3413 243.315 41.52H244.691C244.776 41.936 244.995 42.2987 245.347 42.608C245.709 42.9067 246.195 43.056 246.803 43.056C247.368 43.056 247.784 42.9387 248.051 42.704C248.317 42.4587 248.451 42.1707 248.451 41.84C248.451 41.36 248.275 41.04 247.923 40.88C247.581 40.72 247.096 40.576 246.467 40.448C246.04 40.3627 245.613 40.24 245.187 40.08C244.76 39.92 244.403 39.696 244.115 39.408C243.827 39.1093 243.683 38.72 243.683 38.24C243.683 37.5467 243.939 36.9813 244.451 36.544C244.973 36.096 245.677 35.872 246.563 35.872C247.405 35.872 248.093 36.0853 248.627 36.512C249.171 36.928 249.485 37.5253 249.571 38.304H248.243C248.189 37.8987 248.013 37.584 247.715 37.36C247.427 37.1253 247.037 37.008 246.547 37.008C246.067 37.008 245.693 37.1093 245.427 37.312C245.171 37.5147 245.043 37.7813 245.043 38.112C245.043 38.432 245.208 38.6827 245.539 38.864C245.88 39.0453 246.339 39.2 246.915 39.328C247.405 39.4347 247.869 39.568 248.307 39.728C248.755 39.8773 249.117 40.1067 249.395 40.416C249.683 40.7147 249.827 41.152 249.827 41.728C249.837 42.4427 249.565 43.0347 249.011 43.504C248.467 43.9627 247.725 44.192 246.787 44.192ZM251.747 44V32.48H253.091V37.424C253.357 36.9333 253.736 36.5547 254.227 36.288C254.717 36.0107 255.251 35.872 255.827 35.872C256.744 35.872 257.48 36.16 258.035 36.736C258.589 37.3013 258.867 38.176 258.867 39.36V44H257.539V39.504C257.539 37.8507 256.872 37.024 255.539 37.024C254.845 37.024 254.264 37.2747 253.795 37.776C253.325 38.2667 253.091 38.9707 253.091 39.888V44H251.747Z" fill="black" fill-opacity="0.6"/>
<path d="M37.82 45.1045C36.8235 45.1045 35.9883 45.9397 35.9883 46.9362C35.9883 47.9326 36.8235 48.7678 37.82 48.7678C38.7798 48.7678 39.6516 47.9326 39.6077 46.9801C39.6516 45.9324 38.8237 45.1045 37.82 45.1045Z" fill="#4488EF"/>
<path d="M54.7744 51.5964C55.9247 49.6109 55.932 47.2443 54.7891 45.2661L43.3154 25.3961C42.1798 23.3959 40.1283 22.209 37.8277 22.209C35.5271 22.209 33.4757 23.4032 32.34 25.3888L20.8518 45.2808C19.7088 47.281 19.7161 49.6621 20.8737 51.6477C22.0167 53.6112 24.0609 54.7908 26.3468 54.7908H49.2647C51.558 54.7908 53.6168 53.5966 54.7744 51.5964ZM52.2833 50.1604C51.6459 51.2594 50.5176 51.9114 49.2574 51.9114H26.3395C25.0939 51.9114 23.9729 51.274 23.3502 50.197C22.7201 49.1053 22.7127 47.8012 23.3428 46.7022L34.8311 26.8175C35.4539 25.7258 36.5675 25.0811 37.8277 25.0811C39.0806 25.0811 40.2016 25.7331 40.8244 26.8248L52.3053 46.7095C52.9207 47.7792 52.9134 49.0687 52.2833 50.1604Z" fill="#4488EF"/>
<path d="M37.3652 32.247C36.4933 32.4961 35.9512 33.2874 35.9512 34.2472C35.9951 34.826 36.0318 35.4122 36.0757 35.991C36.2003 38.1963 36.3248 40.3577 36.4494 42.563C36.4933 43.3103 37.0722 43.8525 37.8195 43.8525C38.5668 43.8525 39.1529 43.2737 39.1896 42.5191C39.1896 42.0648 39.1896 41.6472 39.2335 41.1856C39.3141 39.7715 39.402 38.3575 39.4826 36.9434C39.5266 36.0276 39.6072 35.1118 39.6512 34.1959C39.6512 33.8662 39.6072 33.5732 39.4826 33.2801C39.109 32.4595 38.2371 32.0419 37.3652 32.247Z" fill="#4488EF"/>
</svg>
