<svg width="41" height="41" viewBox="0 0 41 41" fill="none" xmlns="http://www.w3.org/2000/svg">
<path d="M20.375 0.5C9.33152 0.5 0.375 9.45652 0.375 20.5C0.375 31.5435 9.33152 40.5 20.375 40.5C31.4185 40.5 40.375 31.5435 40.375 20.5C40.375 9.45652 31.4185 0.5 20.375 0.5ZM21.9837 36.9348C21.8967 36.9348 21.8098 36.9348 21.6793 36.9783V27.5435C23.9402 27.5 25.9837 27.4565 27.8533 27.3261C26.2011 32.413 23.1141 35.8043 21.9837 36.9348ZM18.7663 36.9348C17.5924 35.7609 14.5489 32.3696 12.8967 27.3261C14.7228 27.4565 16.8098 27.5435 19.0707 27.5435V36.9783C18.9837 36.9783 18.8967 36.9348 18.7663 36.9348ZM3.85326 20.5C3.85326 19.413 3.9837 18.3261 4.15761 17.2826C5.11413 17.1087 6.94022 16.8478 9.50543 16.587C9.28804 17.8478 9.15761 19.1522 9.15761 20.5435C9.15761 21.9348 9.28804 23.2391 9.46196 24.4565C6.94022 24.1957 5.07065 23.9348 4.11413 23.7609C3.9837 22.6739 3.85326 21.587 3.85326 20.5ZM11.8098 20.5C11.8098 19.0217 11.9837 17.6304 12.2446 16.3261C14.2446 16.1957 16.5054 16.0652 19.0707 16.0652V24.9348C16.5489 24.8913 14.2446 24.8043 12.2011 24.6304C11.9837 23.3696 11.8098 21.9783 11.8098 20.5ZM21.9402 4.06522C23.1141 5.23913 26.1141 8.71739 27.8098 13.6739C25.9837 13.5435 23.9402 13.4565 21.6793 13.4565V4.02174C21.7663 4.02174 21.8533 4.06522 21.9402 4.06522ZM19.0707 4.02174V13.4565C16.8098 13.5 14.7663 13.5435 12.9402 13.6739C14.5924 8.71739 17.6359 5.23913 18.7663 4.06522C18.8967 4.06522 18.9837 4.02174 19.0707 4.02174ZM21.6793 24.9348V16.0652C24.2011 16.1087 26.5054 16.1957 28.5054 16.3261C28.7663 17.6304 28.9402 19.0217 28.9402 20.5C28.9402 21.9783 28.8098 23.3696 28.5489 24.6739C26.5489 24.8043 24.2446 24.8913 21.6793 24.9348ZM31.2011 16.587C33.7663 16.8478 35.5924 17.1087 36.5489 17.2826C36.7663 18.3261 36.8967 19.413 36.8967 20.5C36.8967 21.587 36.7663 22.6739 36.5924 23.7174C35.6359 23.8913 33.8098 24.1522 31.2446 24.413C31.462 23.1522 31.5489 21.8478 31.5489 20.4565C31.5489 19.1522 31.4185 17.8043 31.2011 16.587ZM35.7663 14.5C34.5489 14.3261 32.8098 14.1087 30.5924 13.8913C29.5489 10.1522 27.7228 7.15217 26.2011 5.02174C30.5924 6.67391 34.0707 10.1522 35.7663 14.5ZM14.5489 5.02174C12.9837 7.1087 11.2011 10.1087 10.1576 13.8478C7.9837 14.0217 6.24457 14.2826 4.9837 14.4565C6.67935 10.1522 10.2011 6.67391 14.5489 5.02174ZM4.9837 26.5C6.20109 26.6739 7.94022 26.8913 10.1141 27.1087C11.1576 30.8478 12.8967 33.8478 14.462 35.9348C10.1141 34.2391 6.67935 30.8043 4.9837 26.5ZM26.288 35.9348C27.8533 33.8478 29.5924 30.8913 30.6359 27.1522C32.8098 26.9783 34.5489 26.7174 35.7663 26.5435C34.0707 30.8043 30.6359 34.2391 26.288 35.9348Z" fill="white"/>
</svg>
