<svg width="41" height="25" viewBox="0 0 41 25" fill="none" xmlns="http://www.w3.org/2000/svg">
<path d="M22.5034 8.15217H21.2061V11.5217H22.6115C23.4763 11.5217 24.2331 10.7609 24.2331 9.8913C24.2331 8.91304 23.4764 8.15217 22.5034 8.15217ZM22.5034 8.15217H21.2061V11.5217H22.6115C23.4763 11.5217 24.2331 10.7609 24.2331 9.8913C24.2331 8.91304 23.4764 8.15217 22.5034 8.15217ZM0.125 0V25H40.125V0H0.125ZM16.8818 19.1304H14.7196V15.1087H11.6926V19.1304H9.5304V9.67391C9.5304 7.6087 11.152 5.97826 13.2061 5.97826C15.2601 5.97826 16.8818 7.6087 16.8818 9.67391V19.1304V19.1304ZM22.5034 13.6957H21.2061V19.1304H19.0439V5.97826H22.6115C24.6655 5.97826 26.3953 7.71739 26.3953 9.8913C26.3953 11.9565 24.6655 13.6957 22.5034 13.6957ZM30.7196 19.1304H28.5574V6.08696H30.7196V19.1304ZM22.5034 8.15217H21.2061V11.5217H22.6115C23.4763 11.5217 24.2331 10.7609 24.2331 9.8913C24.2331 8.91304 23.4764 8.15217 22.5034 8.15217ZM13.2061 8.15217C12.3412 8.15217 11.6926 8.80435 11.6926 9.67391V12.9348H14.7196V9.67391C14.7196 8.80435 13.9628 8.15217 13.2061 8.15217Z" fill="white"/>
</svg>
