<svg width="34" height="41" viewBox="0 0 34 41" fill="none" xmlns="http://www.w3.org/2000/svg">
<path d="M22.1797 4.48452L23.8909 1.3973C23.9129 1.35769 23.9268 1.31415 23.932 1.26915C23.9371 1.22416 23.9333 1.1786 23.9208 1.13506C23.9084 1.09153 23.8874 1.05088 23.8592 1.01544C23.831 0.979999 23.7961 0.950456 23.7565 0.928499C23.6766 0.884155 23.5822 0.873404 23.4943 0.898609C23.4064 0.923814 23.3321 0.982912 23.2877 1.0629L21.5575 4.18434C20.0813 3.53717 18.4869 3.20304 16.875 3.20304C15.2631 3.20304 13.6688 3.53717 12.1925 4.18434L10.4623 1.0629C10.4179 0.982912 10.3436 0.923814 10.2557 0.898609C10.1678 0.873404 10.0734 0.884155 9.99346 0.928499C9.91347 0.972843 9.85437 1.04715 9.82916 1.13506C9.80396 1.22298 9.81471 1.31731 9.85905 1.3973L11.5704 4.48454C9.94139 5.28749 8.56502 6.52357 7.59223 8.05717C6.61943 9.59077 6.08779 11.3627 6.05561 13.1785H27.6945C27.6623 11.3627 27.1306 9.59076 26.1578 8.05716C25.185 6.52355 23.8087 5.28748 22.1797 4.48452ZM11.8813 9.21914C11.7026 9.21914 11.5279 9.16615 11.3793 9.06686C11.2308 8.96758 11.1149 8.82646 11.0466 8.66136C10.9782 8.49625 10.9603 8.31457 10.9951 8.1393C11.03 7.96403 11.1161 7.80303 11.2424 7.67666C11.3688 7.5503 11.5298 7.46424 11.7051 7.42937C11.8803 7.39451 12.062 7.4124 12.2271 7.48079C12.3922 7.54918 12.5333 7.66499 12.6326 7.81358C12.7319 7.96217 12.7849 8.13687 12.7849 8.31558C12.7846 8.55514 12.6894 8.7848 12.52 8.9542C12.3506 9.12359 12.1209 9.21887 11.8813 9.21914ZM21.8687 9.21914C21.6899 9.21914 21.5153 9.16615 21.3667 9.06686C21.2181 8.96758 21.1023 8.82646 21.0339 8.66136C20.9655 8.49625 20.9476 8.31457 20.9825 8.1393C21.0173 7.96403 21.1034 7.80303 21.2297 7.67666C21.3561 7.5503 21.5171 7.46424 21.6924 7.42937C21.8677 7.39451 22.0493 7.4124 22.2144 7.48079C22.3795 7.54918 22.5207 7.66499 22.6199 7.81358C22.7192 7.96217 22.7722 8.13687 22.7722 8.31558C22.772 8.55514 22.6767 8.7848 22.5073 8.9542C22.3379 9.12359 22.1082 9.21887 21.8687 9.21914ZM6.05545 29.7169C6.05545 30.4107 6.33104 31.076 6.82158 31.5665C7.31212 32.0571 7.97744 32.3327 8.67117 32.3327H10.407V37.683C10.4061 38.0021 10.4682 38.3182 10.5897 38.6132C10.7112 38.9083 10.8898 39.1764 11.1151 39.4024C11.3404 39.6283 11.6081 39.8075 11.9028 39.9299C12.1975 40.0522 12.5134 40.1151 12.8325 40.1151C13.1516 40.1151 13.4675 40.0522 13.7623 39.9299C14.057 39.8075 14.3246 39.6283 14.55 39.4024C14.7753 39.1764 14.9538 38.9083 15.0753 38.6132C15.1968 38.3182 15.2589 38.0021 15.258 37.683V32.3327H18.4919V37.683C18.4911 38.0021 18.5532 38.3182 18.6747 38.6132C18.7962 38.9083 18.9747 39.1764 19.2 39.4024C19.4254 39.6283 19.693 39.8075 19.9877 39.9299C20.2825 40.0522 20.5984 40.1151 20.9175 40.1151C21.2366 40.1151 21.5525 40.0522 21.8472 39.9299C22.1419 39.8075 22.4096 39.6283 22.6349 39.4024C22.8602 39.1764 23.0388 38.9083 23.1603 38.6132C23.2818 38.3182 23.3439 38.0021 23.343 37.683V32.3327H25.0789C25.7726 32.3327 26.4379 32.0571 26.9285 31.5665C27.419 31.076 27.6946 30.4107 27.6946 29.7169V14.0345H6.05545V29.7169ZM2.72631 13.6183C2.08325 13.619 1.46673 13.8748 1.01201 14.3295C0.557295 14.7843 0.301517 15.4008 0.30079 16.0439V26.1501C0.299925 26.4691 0.362025 26.7852 0.483532 27.0803C0.605039 27.3753 0.783565 27.6435 1.00888 27.8694C1.2342 28.0953 1.50188 28.2746 1.79659 28.3969C2.0913 28.5192 2.40724 28.5822 2.72632 28.5822C3.0454 28.5822 3.36135 28.5192 3.65605 28.3969C3.95076 28.2746 4.21844 28.0953 4.44376 27.8694C4.66908 27.6435 4.8476 27.3753 4.96911 27.0803C5.09062 26.7852 5.15272 26.4691 5.15185 26.1501V16.0439C5.15113 15.4008 4.89534 14.7843 4.44063 14.3295C3.98591 13.8748 3.36938 13.619 2.72631 13.6183ZM31.0237 13.6183C30.3806 13.619 29.7641 13.8748 29.3094 14.3295C28.8547 14.7843 28.5989 15.4008 28.5981 16.0439V26.1501C28.5973 26.4691 28.6594 26.7852 28.7809 27.0803C28.9024 27.3753 29.0809 27.6435 29.3062 27.8694C29.5316 28.0953 29.7992 28.2746 30.0939 28.3969C30.3887 28.5192 30.7046 28.5822 31.0237 28.5822C31.3428 28.5822 31.6587 28.5192 31.9534 28.3969C32.2481 28.2746 32.5158 28.0953 32.7411 27.8694C32.9664 27.6435 33.145 27.3753 33.2665 27.0803C33.388 26.7852 33.4501 26.4691 33.4492 26.1501V16.0439C33.4485 15.4008 33.1927 14.7843 32.738 14.3295C32.2833 13.8748 31.6668 13.619 31.0237 13.6183Z" fill="white"/>
</svg>
