<svg width="33" height="39" viewBox="0 0 33 39" fill="none" xmlns="http://www.w3.org/2000/svg">
<path d="M23.7202 0.572266C21.702 0.711854 19.3432 2.00364 17.9686 3.6858C16.7147 5.21181 15.6832 7.47835 16.0854 9.68101C18.2904 9.74962 20.5688 8.42708 21.8889 6.71653C23.124 5.12427 24.0585 2.87193 23.7202 0.572266Z" fill="white"/>
<path d="M31.6966 13.273C29.7589 10.8432 27.0357 9.43311 24.464 9.43311C21.0689 9.43311 19.6328 11.0585 17.274 11.0585C14.8418 11.0585 12.9941 9.43784 10.058 9.43784C7.17393 9.43784 4.10299 11.2004 2.15584 14.2146C-0.581513 18.459 -0.113063 26.4393 4.32301 33.2365C5.91054 35.6687 8.03039 38.4037 10.8032 38.4273C13.2709 38.451 13.9665 36.8445 17.3095 36.828C20.6525 36.809 21.2866 38.4486 23.7495 38.4226C26.5247 38.4013 28.7605 35.3706 30.348 32.9384C31.486 31.1947 31.9095 30.317 32.792 28.3485C26.3733 25.9046 25.3441 16.7769 31.6966 13.273Z" fill="white"/>
</svg>
