<svg width="50" height="51" viewBox="0 0 50 51" fill="none" xmlns="http://www.w3.org/2000/svg">
<circle cx="25" cy="25.0039" r="25" fill="#00690B"/>
<path d="M33.9615 26.7104H26.7084V33.9634C26.7084 34.9056 25.9441 35.6699 25.002 35.6699C24.0598 35.6699 23.2955 34.9056 23.2955 33.9634V26.7104H16.0424C15.1003 26.7104 14.3359 25.946 14.3359 25.0039C14.3359 24.0618 15.1003 23.2974 16.0424 23.2974H23.2955V16.0444C23.2955 15.1022 24.0598 14.3379 25.002 14.3379C25.9441 14.3379 26.7084 15.1022 26.7084 16.0444V23.2974H33.9615C34.9036 23.2974 35.668 24.0618 35.668 25.0039C35.668 25.946 34.9036 26.7104 33.9615 26.7104Z" fill="white"/>
</svg>
