<svg width="35" height="40" viewBox="0 0 35 40" fill="none" xmlns="http://www.w3.org/2000/svg">
<path d="M22.8047 3.91323L24.5159 0.82601C24.5379 0.786403 24.5518 0.74286 24.557 0.697865C24.5621 0.652871 24.5583 0.607307 24.5458 0.563775C24.5334 0.520242 24.5124 0.479595 24.4842 0.444152C24.456 0.40871 24.4211 0.379167 24.3815 0.35721C24.3016 0.312866 24.2072 0.302114 24.1193 0.32732C24.0314 0.352525 23.9571 0.411623 23.9127 0.491613L22.1825 3.61305C20.7063 2.96588 19.1119 2.63175 17.5 2.63175C15.8881 2.63175 14.2938 2.96588 12.8175 3.61305L11.0873 0.491613C11.0429 0.411623 10.9686 0.352525 10.8807 0.32732C10.7928 0.302114 10.6984 0.312866 10.6185 0.35721C10.5385 0.401554 10.4794 0.475858 10.4542 0.563775C10.429 0.651692 10.4397 0.74602 10.4841 0.82601L12.1954 3.91325C10.5664 4.71621 9.19002 5.95228 8.21723 7.48588C7.24443 9.01948 6.71279 10.7914 6.68061 12.6072H28.3195C28.2873 10.7914 27.7556 9.01948 26.7828 7.48587C25.81 5.95226 24.4337 4.71619 22.8047 3.91323ZM12.5063 8.64785C12.3276 8.64785 12.1529 8.59486 12.0043 8.49557C11.8558 8.39629 11.7399 8.25517 11.6716 8.09007C11.6032 7.92496 11.5853 7.74329 11.6201 7.56801C11.655 7.39274 11.7411 7.23174 11.8674 7.10537C11.9938 6.97901 12.1548 6.89295 12.3301 6.85809C12.5053 6.82322 12.687 6.84111 12.8521 6.9095C13.0172 6.97789 13.1583 7.0937 13.2576 7.24229C13.3569 7.39089 13.4099 7.56558 13.4099 7.74429C13.4096 7.98385 13.3144 8.21352 13.145 8.38291C12.9756 8.5523 12.7459 8.64758 12.5063 8.64785ZM22.4937 8.64785C22.3149 8.64785 22.1403 8.59486 21.9917 8.49557C21.8431 8.39629 21.7273 8.25517 21.6589 8.09007C21.5905 7.92496 21.5726 7.74329 21.6075 7.56801C21.6423 7.39274 21.7284 7.23174 21.8547 7.10537C21.9811 6.97901 22.1421 6.89295 22.3174 6.85809C22.4927 6.82322 22.6743 6.84111 22.8394 6.9095C23.0045 6.97789 23.1457 7.0937 23.2449 7.24229C23.3442 7.39089 23.3972 7.56558 23.3972 7.74429C23.397 7.98385 23.3017 8.21352 23.1323 8.38291C22.9629 8.5523 22.7332 8.64758 22.4937 8.64785ZM6.68045 29.1456C6.68045 29.8394 6.95604 30.5047 7.44658 30.9952C7.93712 31.4858 8.60244 31.7614 9.29617 31.7614H11.032V37.1117C11.0311 37.4308 11.0932 37.7469 11.2147 38.0419C11.3362 38.337 11.5148 38.6051 11.7401 38.8311C11.9654 39.057 12.2331 39.2363 12.5278 39.3586C12.8225 39.4809 13.1384 39.5438 13.4575 39.5438C13.7766 39.5438 14.0925 39.4809 14.3873 39.3586C14.682 39.2363 14.9496 39.057 15.175 38.8311C15.4003 38.6051 15.5788 38.337 15.7003 38.0419C15.8218 37.7469 15.8839 37.4308 15.883 37.1117V31.7614H19.1169V37.1117C19.1161 37.4308 19.1782 37.7469 19.2997 38.0419C19.4212 38.337 19.5997 38.6051 19.825 38.8311C20.0504 39.057 20.318 39.2363 20.6127 39.3586C20.9075 39.4809 21.2234 39.5438 21.5425 39.5438C21.8616 39.5438 22.1775 39.4809 22.4722 39.3586C22.7669 39.2363 23.0346 39.057 23.2599 38.8311C23.4852 38.6051 23.6638 38.337 23.7853 38.0419C23.9068 37.7469 23.9689 37.4308 23.968 37.1117V31.7614H25.7039C26.3976 31.7614 27.0629 31.4858 27.5535 30.9952C28.044 30.5047 28.3196 29.8394 28.3196 29.1456V13.4632H6.68045V29.1456ZM3.35131 13.047C2.70825 13.0478 2.09173 13.3035 1.63701 13.7583C1.18229 14.213 0.926517 14.8295 0.92579 15.4726V25.5788C0.924925 25.8978 0.987025 26.214 1.10853 26.509C1.23004 26.804 1.40856 27.0722 1.63388 27.2981C1.8592 27.5241 2.12688 27.7033 2.42159 27.8256C2.7163 27.9479 3.03224 28.0109 3.35132 28.0109C3.6704 28.0109 3.98635 27.9479 4.28105 27.8256C4.57576 27.7033 4.84344 27.5241 5.06876 27.2981C5.29408 27.0722 5.4726 26.804 5.59411 26.509C5.71562 26.214 5.77772 25.8978 5.77685 25.5788V15.4726C5.77613 14.8295 5.52034 14.213 5.06563 13.7583C4.61091 13.3035 3.99438 13.0478 3.35131 13.047ZM31.6487 13.047C31.0056 13.0478 30.3891 13.3035 29.9344 13.7583C29.4797 14.213 29.2239 14.8295 29.2231 15.4726V25.5788C29.2223 25.8978 29.2844 26.214 29.4059 26.509C29.5274 26.804 29.7059 27.0722 29.9312 27.2981C30.1566 27.5241 30.4242 27.7033 30.7189 27.8256C31.0137 27.9479 31.3296 28.0109 31.6487 28.0109C31.9678 28.0109 32.2837 27.9479 32.5784 27.8256C32.8731 27.7033 33.1408 27.5241 33.3661 27.2981C33.5914 27.0722 33.77 26.804 33.8915 26.509C34.013 26.214 34.0751 25.8978 34.0742 25.5788V15.4726C34.0735 14.8295 33.8177 14.213 33.363 13.7583C32.9083 13.3035 32.2918 13.0478 31.6487 13.047Z" fill="black" fill-opacity="0.8"/>
</svg>
