<svg width="41" height="26" viewBox="0 0 41 26" fill="none" xmlns="http://www.w3.org/2000/svg">
<path d="M22.8784 8.47297H21.5811V11.8425H22.9865C23.8513 11.8425 24.6081 11.0817 24.6081 10.2121C24.6081 9.23384 23.8514 8.47297 22.8784 8.47297ZM22.8784 8.47297H21.5811V11.8425H22.9865C23.8513 11.8425 24.6081 11.0817 24.6081 10.2121C24.6081 9.23384 23.8514 8.47297 22.8784 8.47297ZM0.5 0.320801V25.3208H40.5V0.320801H0.5ZM17.2568 19.4512H15.0946V15.4295H12.0676V19.4512H9.90541V9.99471C9.90541 7.9295 11.527 6.29906 13.5811 6.29906C15.6351 6.29906 17.2568 7.9295 17.2568 9.99471V19.4512ZM22.8784 14.0165H21.5811V19.4512H19.4189V6.29906H22.9865C25.0405 6.29906 26.7703 8.03819 26.7703 10.2121C26.7703 12.2773 25.0405 14.0165 22.8784 14.0165ZM31.0946 19.4512H28.9324V6.40776H31.0946V19.4512ZM22.8784 8.47297H21.5811V11.8425H22.9865C23.8513 11.8425 24.6081 11.0817 24.6081 10.2121C24.6081 9.23384 23.8514 8.47297 22.8784 8.47297ZM13.5811 8.47297C12.7162 8.47297 12.0676 9.12515 12.0676 9.99471V13.2556H15.0946V9.99471C15.0946 9.12515 14.3378 8.47297 13.5811 8.47297Z" fill="black"/>
</svg>
