<svg width="105" height="40" viewBox="0 0 105 40" fill="none" xmlns="http://www.w3.org/2000/svg">
<path d="M0 5C0 2.23858 2.23858 0 5 0H100C102.761 0 105 2.23858 105 5V35C105 37.7614 102.761 40 100 40H5C2.23858 40 0 37.7614 0 35V5Z" fill="#00690B" fill-opacity="0.1"/>
<path d="M20.92 24.5L24.532 14.7H25.778L29.376 24.5H28.13L27.234 21.98H23.062L22.152 24.5H20.92ZM23.412 21.028H26.884L25.148 16.184L23.412 21.028ZM30.7629 27.58V17.556H31.8269L31.9389 18.704C32.1629 18.368 32.4802 18.0647 32.8909 17.794C33.3109 17.5233 33.8429 17.388 34.4869 17.388C35.1775 17.388 35.7795 17.5467 36.2929 17.864C36.8062 18.1813 37.2029 18.6153 37.4829 19.166C37.7722 19.7167 37.9169 20.342 37.9169 21.042C37.9169 21.742 37.7722 22.3673 37.4829 22.918C37.2029 23.4593 36.8015 23.8887 36.2789 24.206C35.7655 24.514 35.1635 24.668 34.4729 24.668C33.9035 24.668 33.3949 24.5513 32.9469 24.318C32.5082 24.0847 32.1722 23.758 31.9389 23.338V27.58H30.7629ZM34.3469 23.646C34.8135 23.646 35.2242 23.5387 35.5789 23.324C35.9335 23.1 36.2135 22.792 36.4189 22.4C36.6242 22.008 36.7269 21.5507 36.7269 21.028C36.7269 20.5053 36.6242 20.048 36.4189 19.656C36.2135 19.264 35.9335 18.9607 35.5789 18.746C35.2242 18.522 34.8135 18.41 34.3469 18.41C33.8802 18.41 33.4695 18.522 33.1149 18.746C32.7602 18.9607 32.4802 19.264 32.2749 19.656C32.0695 20.048 31.9669 20.5053 31.9669 21.028C31.9669 21.5507 32.0695 22.008 32.2749 22.4C32.4802 22.792 32.7602 23.1 33.1149 23.324C33.4695 23.5387 33.8802 23.646 34.3469 23.646ZM39.5539 27.58V17.556H40.6179L40.7299 18.704C40.9539 18.368 41.2712 18.0647 41.6819 17.794C42.1019 17.5233 42.6339 17.388 43.2779 17.388C43.9686 17.388 44.5706 17.5467 45.0839 17.864C45.5972 18.1813 45.9939 18.6153 46.2739 19.166C46.5632 19.7167 46.7079 20.342 46.7079 21.042C46.7079 21.742 46.5632 22.3673 46.2739 22.918C45.9939 23.4593 45.5926 23.8887 45.0699 24.206C44.5566 24.514 43.9546 24.668 43.2639 24.668C42.6946 24.668 42.1859 24.5513 41.7379 24.318C41.2992 24.0847 40.9632 23.758 40.7299 23.338V27.58H39.5539ZM43.1379 23.646C43.6046 23.646 44.0152 23.5387 44.3699 23.324C44.7246 23.1 45.0046 22.792 45.2099 22.4C45.4152 22.008 45.5179 21.5507 45.5179 21.028C45.5179 20.5053 45.4152 20.048 45.2099 19.656C45.0046 19.264 44.7246 18.9607 44.3699 18.746C44.0152 18.522 43.6046 18.41 43.1379 18.41C42.6712 18.41 42.2606 18.522 41.9059 18.746C41.5512 18.9607 41.2712 19.264 41.0659 19.656C40.8606 20.048 40.7579 20.5053 40.7579 21.028C40.7579 21.5507 40.8606 22.008 41.0659 22.4C41.2712 22.792 41.5512 23.1 41.9059 23.324C42.2606 23.5387 42.6712 23.646 43.1379 23.646ZM48.3449 24.5V17.556H49.4089L49.5069 18.886C49.7216 18.4287 50.0482 18.0647 50.4869 17.794C50.9256 17.5233 51.4669 17.388 52.1109 17.388V18.62H51.7889C51.3782 18.62 51.0002 18.6947 50.6549 18.844C50.3096 18.984 50.0342 19.2267 49.8289 19.572C49.6236 19.9173 49.5209 20.3933 49.5209 21V24.5H48.3449ZM56.3351 24.668C55.6817 24.668 55.0937 24.5187 54.5711 24.22C54.0484 23.9213 53.6331 23.5013 53.3251 22.96C53.0264 22.4093 52.8771 21.7653 52.8771 21.028C52.8771 20.2907 53.0311 19.6513 53.3391 19.11C53.6471 18.5593 54.0624 18.1347 54.5851 17.836C55.1171 17.5373 55.7097 17.388 56.3631 17.388C57.0164 17.388 57.6044 17.5373 58.1271 17.836C58.6497 18.1347 59.0604 18.5593 59.3591 19.11C59.6671 19.6513 59.8211 20.2907 59.8211 21.028C59.8211 21.7653 59.6671 22.4093 59.3591 22.96C59.0511 23.5013 58.6311 23.9213 58.0991 24.22C57.5764 24.5187 56.9884 24.668 56.3351 24.668ZM56.3351 23.66C56.7364 23.66 57.1097 23.562 57.4551 23.366C57.8004 23.17 58.0804 22.876 58.2951 22.484C58.5097 22.092 58.6171 21.6067 58.6171 21.028C58.6171 20.4493 58.5097 19.964 58.2951 19.572C58.0897 19.18 57.8144 18.886 57.4691 18.69C57.1237 18.494 56.7551 18.396 56.3631 18.396C55.9617 18.396 55.5884 18.494 55.2431 18.69C54.8977 18.886 54.6177 19.18 54.4031 19.572C54.1884 19.964 54.0811 20.4493 54.0811 21.028C54.0811 21.6067 54.1884 22.092 54.4031 22.484C54.6177 22.876 54.8931 23.17 55.2291 23.366C55.5744 23.562 55.9431 23.66 56.3351 23.66ZM63.1028 24.5L60.4708 17.556H61.7028L63.7888 23.366L65.8888 17.556H67.0928L64.4608 24.5H63.1028ZM71.1681 24.668C70.5054 24.668 69.9174 24.5187 69.4041 24.22C68.8907 23.912 68.4847 23.4873 68.1861 22.946C67.8967 22.4047 67.7521 21.7653 67.7521 21.028C67.7521 20.3 67.8967 19.6653 68.1861 19.124C68.4754 18.5733 68.8767 18.1487 69.3901 17.85C69.9127 17.542 70.5147 17.388 71.1961 17.388C71.8681 17.388 72.4467 17.542 72.9321 17.85C73.4267 18.1487 73.8047 18.5453 74.0661 19.04C74.3274 19.5347 74.4581 20.0667 74.4581 20.636C74.4581 20.7387 74.4534 20.8413 74.4441 20.944C74.4441 21.0467 74.4441 21.1633 74.4441 21.294H68.9141C68.9421 21.826 69.0634 22.2693 69.2781 22.624C69.5021 22.9693 69.7774 23.2307 70.1041 23.408C70.4401 23.5853 70.7947 23.674 71.1681 23.674C71.6534 23.674 72.0594 23.562 72.3861 23.338C72.7127 23.114 72.9507 22.8107 73.1001 22.428H74.2621C74.0754 23.072 73.7161 23.6087 73.1841 24.038C72.6614 24.458 71.9894 24.668 71.1681 24.668ZM71.1681 18.382C70.6081 18.382 70.1087 18.5547 69.6701 18.9C69.2407 19.236 68.9934 19.7307 68.9281 20.384H73.2961C73.2681 19.7587 73.0534 19.2687 72.6521 18.914C72.2507 18.5593 71.7561 18.382 71.1681 18.382ZM79.1668 24.668C78.4761 24.668 77.8694 24.5093 77.3468 24.192C76.8334 23.8747 76.4321 23.4407 76.1428 22.89C75.8628 22.3393 75.7228 21.714 75.7228 21.014C75.7228 20.314 75.8674 19.6933 76.1568 19.152C76.4461 18.6013 76.8474 18.172 77.3608 17.864C77.8741 17.5467 78.4808 17.388 79.1808 17.388C79.7501 17.388 80.2541 17.5047 80.6928 17.738C81.1314 17.9713 81.4721 18.298 81.7148 18.718V14.42H82.8908V24.5H81.8268L81.7148 23.352C81.4908 23.688 81.1688 23.9913 80.7488 24.262C80.3288 24.5327 79.8014 24.668 79.1668 24.668ZM79.2928 23.646C79.7594 23.646 80.1701 23.5387 80.5248 23.324C80.8888 23.1 81.1688 22.792 81.3648 22.4C81.5701 22.008 81.6728 21.5507 81.6728 21.028C81.6728 20.5053 81.5701 20.048 81.3648 19.656C81.1688 19.264 80.8888 18.9607 80.5248 18.746C80.1701 18.522 79.7594 18.41 79.2928 18.41C78.8354 18.41 78.4248 18.522 78.0608 18.746C77.7061 18.9607 77.4261 19.264 77.2208 19.656C77.0248 20.048 76.9268 20.5053 76.9268 21.028C76.9268 21.5507 77.0248 22.008 77.2208 22.4C77.4261 22.792 77.7061 23.1 78.0608 23.324C78.4248 23.5387 78.8354 23.646 79.2928 23.646Z" fill="#00690B"/>
</svg>
