<svg width="11" height="7" viewBox="0 0 11 7" fill="none" xmlns="http://www.w3.org/2000/svg">
<path d="M5.92922 6.82846L10.8243 2.27872C10.9376 2.17349 11 2.0331 11 1.88348C11 1.73386 10.9376 1.5936 10.8243 1.48859L10.4639 1.15425C10.229 0.936694 9.84734 0.937074 9.61285 1.1551L5.50228 4.97563L1.38716 1.15904C1.27385 1.05403 1.1228 0.996143 0.961737 0.996303C0.800494 0.996464 0.649447 1.05465 0.536049 1.15988L0.175735 1.49494C0.062427 1.60025 5.21272e-06 1.74055 5.20618e-06 1.89018C5.19964e-06 2.0398 0.062427 2.18006 0.175735 2.28506L5.07525 6.82931C5.18892 6.93456 5.34068 6.99228 5.50201 6.99179C5.66397 6.99196 5.81565 6.93394 5.92922 6.82846Z" fill="black"/>
</svg>
