<svg width="17" height="18" viewBox="0 0 17 18" fill="none" xmlns="http://www.w3.org/2000/svg">
<path d="M8.5 0.330078C3.80652 0.330078 0 4.1366 0 8.83008C0 13.5236 3.80652 17.3301 8.5 17.3301C13.1935 17.3301 17 13.5236 17 8.83008C17 4.1366 13.1935 0.330078 8.5 0.330078ZM9.1837 15.8149C9.14674 15.8149 9.10978 15.8149 9.05435 15.8333V11.8236C10.0152 11.8051 10.8837 11.7866 11.6783 11.7312C10.9761 13.8931 9.66413 15.3344 9.1837 15.8149ZM7.8163 15.8149C7.31739 15.3159 6.02391 13.8746 5.32174 11.7312C6.09783 11.7866 6.98478 11.8236 7.94565 11.8236V15.8333C7.9087 15.8333 7.87174 15.8149 7.8163 15.8149ZM1.47826 8.83008C1.47826 8.36812 1.5337 7.90616 1.60761 7.46269C2.01413 7.38877 2.79022 7.2779 3.88043 7.16703C3.78804 7.7029 3.73261 8.25725 3.73261 8.84856C3.73261 9.43986 3.78804 9.99421 3.86196 10.5116C2.79022 10.4007 1.99565 10.2899 1.58913 10.2159C1.5337 9.75399 1.47826 9.29204 1.47826 8.83008ZM4.85978 8.83008C4.85978 8.20182 4.9337 7.61051 5.04457 7.05617C5.89457 7.00073 6.85543 6.9453 7.94565 6.9453V10.7149C6.87391 10.6964 5.89457 10.6594 5.02609 10.5855C4.9337 10.0496 4.85978 9.45834 4.85978 8.83008ZM9.16522 1.8453C9.66413 2.34421 10.9391 3.82247 11.6598 5.92899C10.8837 5.87356 10.0152 5.8366 9.05435 5.8366V1.82682C9.0913 1.82682 9.12826 1.8453 9.16522 1.8453ZM7.94565 1.82682V5.8366C6.98478 5.85508 6.1163 5.87356 5.34022 5.92899C6.04239 3.82247 7.33587 2.34421 7.8163 1.8453C7.87174 1.8453 7.9087 1.82682 7.94565 1.82682ZM9.05435 10.7149V6.9453C10.1261 6.96377 11.1054 7.00073 11.9554 7.05617C12.0663 7.61051 12.1402 8.20182 12.1402 8.83008C12.1402 9.45834 12.0848 10.0496 11.9739 10.604C11.1239 10.6594 10.1446 10.6964 9.05435 10.7149ZM13.1011 7.16703C14.1913 7.2779 14.9674 7.38877 15.3739 7.46269C15.4663 7.90616 15.5217 8.36812 15.5217 8.83008C15.5217 9.29204 15.4663 9.75399 15.3924 10.1975C14.9859 10.2714 14.2098 10.3823 13.1196 10.4931C13.212 9.95725 13.2489 9.4029 13.2489 8.8116C13.2489 8.25725 13.1935 7.68443 13.1011 7.16703ZM15.0413 6.28008C14.5239 6.20617 13.7848 6.11377 12.8424 6.02138C12.3989 4.43225 11.6228 3.15725 10.9761 2.25182C12.8424 2.95399 14.3207 4.43225 15.0413 6.28008ZM6.02391 2.25182C5.3587 3.13877 4.60109 4.41377 4.15761 6.0029C3.2337 6.07682 2.49457 6.18769 1.9587 6.2616C2.67935 4.43225 4.17609 2.95399 6.02391 2.25182ZM1.9587 11.3801C2.47609 11.454 3.21522 11.5464 4.13913 11.6388C4.58261 13.2279 5.32174 14.5029 5.98696 15.3899C4.13913 14.6692 2.67935 13.2094 1.9587 11.3801ZM11.013 15.3899C11.6783 14.5029 12.4174 13.2464 12.8609 11.6573C13.7848 11.5833 14.5239 11.4725 15.0413 11.3986C14.3207 13.2094 12.8609 14.6692 11.013 15.3899Z" fill="black" fill-opacity="0.8"/>
</svg>
