<svg width="17" height="21" viewBox="0 0 17 21" fill="none" xmlns="http://www.w3.org/2000/svg">
<path d="M1.27501 7.32031C0.570845 7.32031 0 7.87984 0 8.57004V14.4021C0 15.0923 0.570845 15.6518 1.27501 15.6518C1.97917 15.6518 2.55002 15.0923 2.55002 14.4021V8.57004C2.55002 7.87984 1.97917 7.32031 1.27501 7.32031Z" fill="black"/>
<path d="M15.7252 7.32031C15.021 7.32031 14.4502 7.87984 14.4502 8.57004V14.4021C14.4502 15.0923 15.021 15.6518 15.7252 15.6518C16.4294 15.6518 17.0002 15.0923 17.0002 14.4021V8.57004C17.0002 7.87984 16.4294 7.32031 15.7252 7.32031Z" fill="black"/>
<path d="M13.1754 7.32031H3.82541C3.59069 7.32031 3.40039 7.50683 3.40039 7.7369V14.4021C3.40019 15.392 4.11085 16.2453 5.10042 16.4433V19.4009C5.10042 20.0911 5.67126 20.6507 6.37543 20.6507C7.07959 20.6507 7.65044 20.0911 7.65044 19.4009V16.4849H9.35046V19.4009C9.35046 20.0911 9.92131 20.6507 10.6255 20.6507C11.3296 20.6507 11.9005 20.0911 11.9005 19.4009V16.4433C12.89 16.2453 13.6007 15.392 13.6005 14.4021V7.7369C13.6005 7.50683 13.4102 7.32031 13.1754 7.32031Z" fill="black"/>
<path d="M11.5903 2.38137L12.6264 1.3666C12.7952 1.20675 12.7999 0.94306 12.6369 0.77755C12.4738 0.612078 12.2047 0.607509 12.0359 0.767317C12.0323 0.770676 12.0289 0.774074 12.0255 0.77755L10.8185 1.96065C9.34016 1.33122 7.66165 1.33122 6.18336 1.96065L4.97636 0.776729C4.80754 0.616882 4.53848 0.62149 4.37539 0.786962C4.21634 0.94841 4.21634 1.20433 4.37539 1.36574L5.4107 2.38133C4.14856 3.1999 3.39264 4.58713 3.40045 6.07051C3.40045 6.30058 3.59075 6.4871 3.82547 6.4871H13.1756C13.4103 6.4871 13.6006 6.30058 13.6006 6.07051C13.6083 4.58717 12.8524 3.19994 11.5903 2.38137Z" fill="black"/>
</svg>
