<svg width="17" height="21" viewBox="0 0 17 21" fill="none" xmlns="http://www.w3.org/2000/svg">
<path d="M12.2295 0.650391C11.1684 0.72414 9.92823 1.40664 9.20552 2.29539C8.54625 3.10163 8.00391 4.29913 8.21537 5.46288C9.37469 5.49913 10.5726 4.80038 11.2667 3.89663C11.916 3.05538 12.4073 1.86539 12.2295 0.650391Z" fill="#222222" fill-opacity="0.8"/>
<path d="M16.4241 7.3598C15.4053 6.07605 13.9736 5.33105 12.6215 5.33105C10.8364 5.33105 10.0814 6.1898 8.84122 6.1898C7.56248 6.1898 6.59099 5.33355 5.04731 5.33355C3.53098 5.33355 1.91639 6.2648 0.892658 7.8573C-0.546541 10.0998 -0.300248 14.316 2.03208 17.9073C2.86674 19.1923 3.98128 20.6373 5.43914 20.6498C6.73653 20.6623 7.10224 19.8135 8.85988 19.8048C10.6175 19.7948 10.9509 20.661 12.2458 20.6473C13.7049 20.636 14.8804 19.0348 15.715 17.7498C16.3134 16.8285 16.536 16.3648 17 15.3248C13.6253 14.0335 13.0842 9.21104 16.4241 7.3598Z" fill="#222222" fill-opacity="0.8"/>
</svg>
