<svg width="164" height="50" viewBox="0 0 164 50" fill="none" xmlns="http://www.w3.org/2000/svg">
<path d="M0 0H164L134.752 45.4145C132.911 48.2727 129.745 50 126.345 50H0V0Z" fill="black"/>
<path d="M31.096 30.692C29.9973 30.692 29.048 30.452 28.248 29.972C27.4587 29.4813 26.8453 28.804 26.408 27.94C25.9707 27.0653 25.752 26.052 25.752 24.9C25.752 23.7587 25.9707 22.756 26.408 21.892C26.8453 21.0173 27.4587 20.3347 28.248 19.844C29.048 19.3533 29.9973 19.108 31.096 19.108C32.376 19.108 33.416 19.4173 34.216 20.036C35.0267 20.644 35.544 21.4973 35.768 22.596H34.28C34.1093 21.9027 33.7573 21.348 33.224 20.932C32.7013 20.5053 31.992 20.292 31.096 20.292C30.296 20.292 29.5973 20.4787 29 20.852C28.4027 21.2147 27.9387 21.7427 27.608 22.436C27.288 23.1187 27.128 23.94 27.128 24.9C27.128 25.86 27.288 26.6867 27.608 27.38C27.9387 28.0627 28.4027 28.5907 29 28.964C29.5973 29.3267 30.296 29.508 31.096 29.508C31.992 29.508 32.7013 29.3053 33.224 28.9C33.7573 28.484 34.1093 27.9347 34.28 27.252H35.768C35.544 28.3293 35.0267 29.172 34.216 29.78C33.416 30.388 32.376 30.692 31.096 30.692ZM37.6196 30.5V18.98H38.9636V23.924C39.2303 23.4333 39.609 23.0547 40.0996 22.788C40.5903 22.5107 41.1236 22.372 41.6996 22.372C42.617 22.372 43.353 22.66 43.9076 23.236C44.4623 23.8013 44.7396 24.676 44.7396 25.86V30.5H43.4116V26.004C43.4116 24.3507 42.745 23.524 41.4116 23.524C40.7183 23.524 40.137 23.7747 39.6676 24.276C39.1983 24.7667 38.9636 25.4707 38.9636 26.388V30.5H37.6196ZM49.4159 30.692C48.7545 30.692 48.2052 30.58 47.7679 30.356C47.3305 30.132 47.0052 29.8333 46.7919 29.46C46.5785 29.0867 46.4719 28.6813 46.4719 28.244C46.4719 27.4333 46.7812 26.8093 47.3999 26.372C48.0185 25.9347 48.8612 25.716 49.9279 25.716H52.0719V25.62C52.0719 24.9267 51.8905 24.404 51.5279 24.052C51.1652 23.6893 50.6799 23.508 50.0719 23.508C49.5492 23.508 49.0959 23.6413 48.7119 23.908C48.3385 24.164 48.1039 24.5427 48.0079 25.044H46.6319C46.6852 24.468 46.8772 23.9827 47.2079 23.588C47.5492 23.1933 47.9705 22.8947 48.4719 22.692C48.9732 22.4787 49.5065 22.372 50.0719 22.372C51.1812 22.372 52.0132 22.6707 52.5679 23.268C53.1332 23.8547 53.4159 24.6387 53.4159 25.62V30.5H52.2159L52.1359 29.076C51.9119 29.524 51.5812 29.908 51.1439 30.228C50.7172 30.5373 50.1412 30.692 49.4159 30.692ZM49.6239 29.556C50.1359 29.556 50.5732 29.4227 50.9359 29.156C51.3092 28.8893 51.5919 28.5427 51.7839 28.116C51.9759 27.6893 52.0719 27.2413 52.0719 26.772V26.756H50.0399C49.2505 26.756 48.6905 26.8947 48.3599 27.172C48.0399 27.4387 47.8799 27.7747 47.8799 28.18C47.8799 28.596 48.0292 28.932 48.3279 29.188C48.6372 29.4333 49.0692 29.556 49.6239 29.556ZM58.3494 30.5C57.624 30.5 57.0534 30.324 56.6374 29.972C56.2214 29.62 56.0134 28.9853 56.0134 28.068V23.7H54.6374V22.564H56.0134L56.1894 20.66H57.3574V22.564H59.6934V23.7H57.3574V28.068C57.3574 28.5693 57.4587 28.9107 57.6614 29.092C57.864 29.2627 58.2214 29.348 58.7334 29.348H59.5654V30.5H58.3494ZM64.4409 30.692C63.4915 30.692 62.7022 30.452 62.0729 29.972C61.4435 29.492 61.0755 28.8413 60.9689 28.02H62.3449C62.4302 28.436 62.6489 28.7987 63.0009 29.108C63.3635 29.4067 63.8489 29.556 64.4569 29.556C65.0222 29.556 65.4382 29.4387 65.7049 29.204C65.9715 28.9587 66.1049 28.6707 66.1049 28.34C66.1049 27.86 65.9289 27.54 65.5769 27.38C65.2355 27.22 64.7502 27.076 64.1209 26.948C63.6942 26.8627 63.2675 26.74 62.8409 26.58C62.4142 26.42 62.0569 26.196 61.7689 25.908C61.4809 25.6093 61.3369 25.22 61.3369 24.74C61.3369 24.0467 61.5929 23.4813 62.1049 23.044C62.6275 22.596 63.3315 22.372 64.2169 22.372C65.0595 22.372 65.7475 22.5853 66.2809 23.012C66.8249 23.428 67.1395 24.0253 67.2249 24.804H65.8969C65.8435 24.3987 65.6675 24.084 65.3689 23.86C65.0809 23.6253 64.6915 23.508 64.2009 23.508C63.7209 23.508 63.3475 23.6093 63.0809 23.812C62.8249 24.0147 62.6969 24.2813 62.6969 24.612C62.6969 24.932 62.8622 25.1827 63.1929 25.364C63.5342 25.5453 63.9929 25.7 64.5689 25.828C65.0595 25.9347 65.5235 26.068 65.9609 26.228C66.4089 26.3773 66.7715 26.6067 67.0489 26.916C67.3369 27.2147 67.4809 27.652 67.4809 28.228C67.4915 28.9427 67.2195 29.5347 66.6649 30.004C66.1209 30.4627 65.3795 30.692 64.4409 30.692ZM76.6753 30.692C75.7259 30.692 74.9366 30.452 74.3073 29.972C73.6779 29.492 73.3099 28.8413 73.2033 28.02H74.5793C74.6646 28.436 74.8833 28.7987 75.2353 29.108C75.5979 29.4067 76.0833 29.556 76.6913 29.556C77.2566 29.556 77.6726 29.4387 77.9393 29.204C78.2059 28.9587 78.3393 28.6707 78.3393 28.34C78.3393 27.86 78.1633 27.54 77.8113 27.38C77.4699 27.22 76.9846 27.076 76.3553 26.948C75.9286 26.8627 75.5019 26.74 75.0753 26.58C74.6486 26.42 74.2913 26.196 74.0033 25.908C73.7153 25.6093 73.5713 25.22 73.5713 24.74C73.5713 24.0467 73.8273 23.4813 74.3393 23.044C74.8619 22.596 75.5659 22.372 76.4513 22.372C77.2939 22.372 77.9819 22.5853 78.5153 23.012C79.0593 23.428 79.3739 24.0253 79.4593 24.804H78.1313C78.0779 24.3987 77.9019 24.084 77.6033 23.86C77.3153 23.6253 76.9259 23.508 76.4353 23.508C75.9553 23.508 75.5819 23.6093 75.3153 23.812C75.0593 24.0147 74.9313 24.2813 74.9313 24.612C74.9313 24.932 75.0966 25.1827 75.4273 25.364C75.7686 25.5453 76.2273 25.7 76.8033 25.828C77.2939 25.9347 77.7579 26.068 78.1953 26.228C78.6433 26.3773 79.0059 26.6067 79.2833 26.916C79.5713 27.2147 79.7153 27.652 79.7153 28.228C79.7259 28.9427 79.4539 29.5347 78.8993 30.004C78.3553 30.4627 77.6139 30.692 76.6753 30.692ZM85.2033 30.692C84.4459 30.692 83.7739 30.5213 83.1873 30.18C82.6006 29.828 82.1366 29.3427 81.7953 28.724C81.4646 28.1053 81.2993 27.3747 81.2993 26.532C81.2993 25.7 81.4646 24.9747 81.7953 24.356C82.1259 23.7267 82.5846 23.2413 83.1713 22.9C83.7686 22.548 84.4566 22.372 85.2352 22.372C86.0033 22.372 86.6646 22.548 87.2193 22.9C87.7846 23.2413 88.2166 23.6947 88.5153 24.26C88.8139 24.8253 88.9633 25.4333 88.9633 26.084C88.9633 26.2013 88.9579 26.3187 88.9473 26.436C88.9473 26.5533 88.9473 26.6867 88.9473 26.836H82.6273C82.6593 27.444 82.7979 27.9507 83.0433 28.356C83.2993 28.7507 83.6139 29.0493 83.9873 29.252C84.3713 29.4547 84.7766 29.556 85.2033 29.556C85.7579 29.556 86.2219 29.428 86.5953 29.172C86.9686 28.916 87.2406 28.5693 87.4113 28.132H88.7393C88.5259 28.868 88.1153 29.4813 87.5073 29.972C86.9099 30.452 86.1419 30.692 85.2033 30.692ZM85.2033 23.508C84.5633 23.508 83.9926 23.7053 83.4913 24.1C83.0006 24.484 82.7179 25.0493 82.6432 25.796H87.6353C87.6033 25.0813 87.3579 24.5213 86.8993 24.116C86.4406 23.7107 85.8753 23.508 85.2033 23.508ZM93.7846 30.692C92.8353 30.692 92.046 30.452 91.4166 29.972C90.7873 29.492 90.4193 28.8413 90.3126 28.02H91.6886C91.774 28.436 91.9926 28.7987 92.3446 29.108C92.7073 29.4067 93.1926 29.556 93.8006 29.556C94.366 29.556 94.782 29.4387 95.0486 29.204C95.3153 28.9587 95.4486 28.6707 95.4486 28.34C95.4486 27.86 95.2726 27.54 94.9206 27.38C94.5793 27.22 94.094 27.076 93.4646 26.948C93.038 26.8627 92.6113 26.74 92.1846 26.58C91.758 26.42 91.4006 26.196 91.1126 25.908C90.8246 25.6093 90.6806 25.22 90.6806 24.74C90.6806 24.0467 90.9366 23.4813 91.4486 23.044C91.9713 22.596 92.6753 22.372 93.5606 22.372C94.4033 22.372 95.0913 22.5853 95.6246 23.012C96.1686 23.428 96.4833 24.0253 96.5686 24.804H95.2406C95.1873 24.3987 95.0113 24.084 94.7126 23.86C94.4246 23.6253 94.0353 23.508 93.5446 23.508C93.0646 23.508 92.6913 23.6093 92.4246 23.812C92.1686 24.0147 92.0406 24.2813 92.0406 24.612C92.0406 24.932 92.206 25.1827 92.5366 25.364C92.878 25.5453 93.3366 25.7 93.9126 25.828C94.4033 25.9347 94.8673 26.068 95.3046 26.228C95.7526 26.3773 96.1153 26.6067 96.3926 26.916C96.6806 27.2147 96.8246 27.652 96.8246 28.228C96.8353 28.9427 96.5633 29.5347 96.0086 30.004C95.4646 30.4627 94.7233 30.692 93.7846 30.692ZM101.785 30.692C100.835 30.692 100.046 30.452 99.4166 29.972C98.7873 29.492 98.4193 28.8413 98.3126 28.02H99.6886C99.774 28.436 99.9926 28.7987 100.345 29.108C100.707 29.4067 101.193 29.556 101.801 29.556C102.366 29.556 102.782 29.4387 103.049 29.204C103.315 28.9587 103.449 28.6707 103.449 28.34C103.449 27.86 103.273 27.54 102.921 27.38C102.579 27.22 102.094 27.076 101.465 26.948C101.038 26.8627 100.611 26.74 100.185 26.58C99.758 26.42 99.4006 26.196 99.1126 25.908C98.8246 25.6093 98.6806 25.22 98.6806 24.74C98.6806 24.0467 98.9366 23.4813 99.4486 23.044C99.9713 22.596 100.675 22.372 101.561 22.372C102.403 22.372 103.091 22.5853 103.625 23.012C104.169 23.428 104.483 24.0253 104.569 24.804H103.241C103.187 24.3987 103.011 24.084 102.713 23.86C102.425 23.6253 102.035 23.508 101.545 23.508C101.065 23.508 100.691 23.6093 100.425 23.812C100.169 24.0147 100.041 24.2813 100.041 24.612C100.041 24.932 100.206 25.1827 100.537 25.364C100.878 25.5453 101.337 25.7 101.913 25.828C102.403 25.9347 102.867 26.068 103.305 26.228C103.753 26.3773 104.115 26.6067 104.393 26.916C104.681 27.2147 104.825 27.652 104.825 28.228C104.835 28.9427 104.563 29.5347 104.009 30.004C103.465 30.4627 102.723 30.692 101.785 30.692ZM107.561 20.804C107.294 20.804 107.07 20.7187 106.889 20.548C106.718 20.3667 106.633 20.1427 106.633 19.876C106.633 19.62 106.718 19.4067 106.889 19.236C107.07 19.0653 107.294 18.98 107.561 18.98C107.817 18.98 108.035 19.0653 108.217 19.236C108.398 19.4067 108.489 19.62 108.489 19.876C108.489 20.1427 108.398 20.3667 108.217 20.548C108.035 20.7187 107.817 20.804 107.561 20.804ZM106.889 30.5V22.564H108.233V30.5H106.889ZM114.189 30.692C113.442 30.692 112.77 30.5213 112.173 30.18C111.575 29.8387 111.101 29.3587 110.749 28.74C110.407 28.1107 110.237 27.3747 110.237 26.532C110.237 25.6893 110.413 24.9587 110.765 24.34C111.117 23.7107 111.591 23.2253 112.189 22.884C112.797 22.5427 113.474 22.372 114.221 22.372C114.967 22.372 115.639 22.5427 116.237 22.884C116.834 23.2253 117.303 23.7107 117.645 24.34C117.997 24.9587 118.173 25.6893 118.173 26.532C118.173 27.3747 117.997 28.1107 117.645 28.74C117.293 29.3587 116.813 29.8387 116.205 30.18C115.607 30.5213 114.935 30.692 114.189 30.692ZM114.189 29.54C114.647 29.54 115.074 29.428 115.469 29.204C115.863 28.98 116.183 28.644 116.429 28.196C116.674 27.748 116.797 27.1933 116.797 26.532C116.797 25.8707 116.674 25.316 116.429 24.868C116.194 24.42 115.879 24.084 115.485 23.86C115.09 23.636 114.669 23.524 114.221 23.524C113.762 23.524 113.335 23.636 112.941 23.86C112.546 24.084 112.226 24.42 111.981 24.868C111.735 25.316 111.613 25.8707 111.613 26.532C111.613 27.1933 111.735 27.748 111.981 28.196C112.226 28.644 112.541 28.98 112.925 29.204C113.319 29.428 113.741 29.54 114.189 29.54ZM120.042 30.5V22.564H121.258L121.338 23.988C121.594 23.4867 121.962 23.092 122.442 22.804C122.922 22.516 123.466 22.372 124.074 22.372C125.012 22.372 125.759 22.66 126.314 23.236C126.879 23.8013 127.161 24.676 127.161 25.86V30.5H125.818V26.004C125.818 24.3507 125.135 23.524 123.77 23.524C123.087 23.524 122.516 23.7747 122.058 24.276C121.61 24.7667 121.386 25.4707 121.386 26.388V30.5H120.042Z" fill="white"/>
</svg>
