<svg width="14" height="14" viewBox="0 0 14 14" fill="none" xmlns="http://www.w3.org/2000/svg">
<path d="M13.7576 0.604592C13.4339 0.280891 12.9148 0.280891 12.5911 0.604592L7.36298 5.83267L2.13491 0.604592C1.81121 0.280891 1.29206 0.280891 0.968362 0.604592C0.644661 0.928293 0.644661 1.44744 0.968362 1.77114L6.19644 6.99922L0.968362 12.2273C0.644661 12.551 0.644661 13.0701 0.968362 13.3938C1.12716 13.5526 1.34092 13.6381 1.54858 13.6381C1.75624 13.6381 1.97 13.5587 2.1288 13.3938L7.35688 8.16576L12.585 13.3938C12.7438 13.5526 12.9575 13.6381 13.1652 13.6381C13.3789 13.6381 13.5866 13.5587 13.7454 13.3938C14.0691 13.0701 14.0691 12.551 13.7454 12.2273L8.52953 6.99922L13.7576 1.77114C14.0813 1.44744 14.0813 0.928293 13.7576 0.604592Z" fill="black"/>
</svg>
