<svg width="15" height="14" viewBox="0 0 15 14" fill="none" xmlns="http://www.w3.org/2000/svg">
<path d="M13.782 0.60508C13.4583 0.281379 12.9392 0.281379 12.6155 0.60508L7.3874 5.83316L2.15932 0.60508C1.83562 0.281379 1.31648 0.281379 0.992776 0.60508C0.669075 0.928782 0.669075 1.44793 0.992776 1.77163L6.22085 6.9997L0.992776 12.2278C0.669075 12.5515 0.669075 13.0706 0.992776 13.3943C1.15157 13.5531 1.36534 13.6386 1.57299 13.6386C1.78065 13.6386 1.99442 13.5592 2.15321 13.3943L7.38129 8.16625L12.6094 13.3943C12.7682 13.5531 12.9819 13.6386 13.1896 13.6386C13.4034 13.6386 13.611 13.5592 13.7698 13.3943C14.0935 13.0706 14.0935 12.5515 13.7698 12.2278L8.55394 6.9997L13.782 1.77163C14.1057 1.44793 14.1057 0.928782 13.782 0.60508Z" fill="white"/>
</svg>
