<svg width="105" height="40" viewBox="0 0 105 40" fill="none" xmlns="http://www.w3.org/2000/svg">
<path d="M0 5C0 2.23858 2.23858 0 5 0H100C102.761 0 105 2.23858 105 5V35C105 37.7614 102.761 40 100 40H5C2.23858 40 0 37.7614 0 35V5Z" fill="#EF4444" fill-opacity="0.1"/>
<path d="M25.036 24.5V14.7H28.046C29.7727 14.7 31.042 15.1387 31.854 16.016C32.6753 16.8933 33.086 18.0973 33.086 19.628C33.086 21.1307 32.6753 22.3207 31.854 23.198C31.042 24.066 29.7727 24.5 28.046 24.5H25.036ZM26.212 23.52H28.018C28.97 23.52 29.726 23.366 30.286 23.058C30.8553 22.7407 31.2613 22.2927 31.504 21.714C31.7467 21.126 31.868 20.4307 31.868 19.628C31.868 18.8067 31.7467 18.102 31.504 17.514C31.2613 16.926 30.8553 16.4733 30.286 16.156C29.726 15.8387 28.97 15.68 28.018 15.68H26.212V23.52ZM37.836 24.668C37.1734 24.668 36.5854 24.5187 36.072 24.22C35.5587 23.912 35.1527 23.4873 34.854 22.946C34.5647 22.4047 34.42 21.7653 34.42 21.028C34.42 20.3 34.5647 19.6653 34.854 19.124C35.1434 18.5733 35.5447 18.1487 36.058 17.85C36.5807 17.542 37.1827 17.388 37.864 17.388C38.536 17.388 39.1147 17.542 39.6 17.85C40.0947 18.1487 40.4727 18.5453 40.734 19.04C40.9954 19.5347 41.126 20.0667 41.126 20.636C41.126 20.7387 41.1214 20.8413 41.112 20.944C41.112 21.0467 41.112 21.1633 41.112 21.294H35.582C35.61 21.826 35.7314 22.2693 35.946 22.624C36.17 22.9693 36.4454 23.2307 36.772 23.408C37.108 23.5853 37.4627 23.674 37.836 23.674C38.3214 23.674 38.7274 23.562 39.054 23.338C39.3807 23.114 39.6187 22.8107 39.768 22.428H40.93C40.7434 23.072 40.384 23.6087 39.852 24.038C39.3294 24.458 38.6574 24.668 37.836 24.668ZM37.836 18.382C37.276 18.382 36.7767 18.5547 36.338 18.9C35.9087 19.236 35.6614 19.7307 35.596 20.384H39.964C39.936 19.7587 39.7214 19.2687 39.32 18.914C38.9187 18.5593 38.424 18.382 37.836 18.382ZM45.8768 24.668C45.2141 24.668 44.6168 24.5187 44.0848 24.22C43.5621 23.912 43.1468 23.4873 42.8388 22.946C42.5401 22.3953 42.3908 21.756 42.3908 21.028C42.3908 20.3 42.5401 19.6653 42.8388 19.124C43.1468 18.5733 43.5621 18.1487 44.0848 17.85C44.6168 17.542 45.2141 17.388 45.8768 17.388C46.6981 17.388 47.3888 17.6027 47.9488 18.032C48.5181 18.4613 48.8774 19.0353 49.0268 19.754H47.8228C47.7294 19.3247 47.5008 18.9933 47.1368 18.76C46.7728 18.5173 46.3481 18.396 45.8628 18.396C45.4708 18.396 45.1021 18.494 44.7568 18.69C44.4114 18.886 44.1314 19.18 43.9168 19.572C43.7021 19.964 43.5948 20.4493 43.5948 21.028C43.5948 21.6067 43.7021 22.092 43.9168 22.484C44.1314 22.876 44.4114 23.1747 44.7568 23.38C45.1021 23.576 45.4708 23.674 45.8628 23.674C46.3481 23.674 46.7728 23.5573 47.1368 23.324C47.5008 23.0813 47.7294 22.7407 47.8228 22.302H49.0268C48.8868 23.002 48.5321 23.5713 47.9628 24.01C47.3934 24.4487 46.6981 24.668 45.8768 24.668ZM50.6691 24.5V14.42H51.8451V24.5H50.6691ZM54.4866 16.016C54.2533 16.016 54.0573 15.9413 53.8986 15.792C53.7493 15.6333 53.6746 15.4373 53.6746 15.204C53.6746 14.98 53.7493 14.7933 53.8986 14.644C54.0573 14.4947 54.2533 14.42 54.4866 14.42C54.7106 14.42 54.902 14.4947 55.0606 14.644C55.2193 14.7933 55.2986 14.98 55.2986 15.204C55.2986 15.4373 55.2193 15.6333 55.0606 15.792C54.902 15.9413 54.7106 16.016 54.4866 16.016ZM53.8986 24.5V17.556H55.0746V24.5H53.8986ZM57.1223 24.5V17.556H58.1863L58.2563 18.802C58.4803 18.3633 58.8023 18.018 59.2223 17.766C59.6423 17.514 60.1183 17.388 60.6503 17.388C61.4716 17.388 62.1249 17.64 62.6103 18.144C63.1049 18.6387 63.3522 19.404 63.3522 20.44V24.5H62.1763V20.566C62.1763 19.1193 61.5789 18.396 60.3843 18.396C59.7869 18.396 59.2876 18.6153 58.8863 19.054C58.4943 19.4833 58.2983 20.0993 58.2983 20.902V24.5H57.1223ZM68.256 24.668C67.5933 24.668 67.0053 24.5187 66.492 24.22C65.9786 23.912 65.5726 23.4873 65.274 22.946C64.9846 22.4047 64.84 21.7653 64.84 21.028C64.84 20.3 64.9846 19.6653 65.274 19.124C65.5633 18.5733 65.9646 18.1487 66.478 17.85C67.0006 17.542 67.6026 17.388 68.284 17.388C68.956 17.388 69.5346 17.542 70.02 17.85C70.5146 18.1487 70.8926 18.5453 71.154 19.04C71.4153 19.5347 71.546 20.0667 71.546 20.636C71.546 20.7387 71.5413 20.8413 71.532 20.944C71.532 21.0467 71.532 21.1633 71.532 21.294H66.002C66.03 21.826 66.1513 22.2693 66.366 22.624C66.59 22.9693 66.8653 23.2307 67.192 23.408C67.528 23.5853 67.8826 23.674 68.256 23.674C68.7413 23.674 69.1473 23.562 69.474 23.338C69.8006 23.114 70.0386 22.8107 70.188 22.428H71.35C71.1633 23.072 70.804 23.6087 70.272 24.038C69.7493 24.458 69.0773 24.668 68.256 24.668ZM68.256 18.382C67.696 18.382 67.1966 18.5547 66.758 18.9C66.3286 19.236 66.0813 19.7307 66.016 20.384H70.384C70.356 19.7587 70.1413 19.2687 69.74 18.914C69.3386 18.5593 68.844 18.382 68.256 18.382ZM76.2547 24.668C75.564 24.668 74.9573 24.5093 74.4347 24.192C73.9213 23.8747 73.52 23.4407 73.2307 22.89C72.9507 22.3393 72.8107 21.714 72.8107 21.014C72.8107 20.314 72.9553 19.6933 73.2447 19.152C73.534 18.6013 73.9353 18.172 74.4487 17.864C74.962 17.5467 75.5687 17.388 76.2687 17.388C76.838 17.388 77.342 17.5047 77.7807 17.738C78.2193 17.9713 78.56 18.298 78.8027 18.718V14.42H79.9787V24.5H78.9147L78.8027 23.352C78.5787 23.688 78.2567 23.9913 77.8367 24.262C77.4167 24.5327 76.8893 24.668 76.2547 24.668ZM76.3807 23.646C76.8473 23.646 77.258 23.5387 77.6127 23.324C77.9767 23.1 78.2567 22.792 78.4527 22.4C78.658 22.008 78.7607 21.5507 78.7607 21.028C78.7607 20.5053 78.658 20.048 78.4527 19.656C78.2567 19.264 77.9767 18.9607 77.6127 18.746C77.258 18.522 76.8473 18.41 76.3807 18.41C75.9233 18.41 75.5127 18.522 75.1487 18.746C74.794 18.9607 74.514 19.264 74.3087 19.656C74.1127 20.048 74.0147 20.5053 74.0147 21.028C74.0147 21.5507 74.1127 22.008 74.3087 22.4C74.514 22.792 74.794 23.1 75.1487 23.324C75.5127 23.5387 75.9233 23.646 76.3807 23.646Z" fill="#EF4444"/>
</svg>
