<svg width="20" height="24" viewBox="0 0 20 24" fill="none" xmlns="http://www.w3.org/2000/svg">
<path d="M13.5699 8.69629C13.2594 8.69629 13.0078 8.94789 13.0078 9.25833V19.8808C13.0078 20.1911 13.2594 20.4429 13.5699 20.4429C13.8803 20.4429 14.1319 20.1911 14.1319 19.8808V9.25833C14.1319 8.94789 13.8803 8.69629 13.5699 8.69629Z" fill="black"/>
<path d="M6.93704 8.69629C6.6266 8.69629 6.375 8.94789 6.375 9.25833V19.8808C6.375 20.1911 6.6266 20.4429 6.93704 20.4429C7.24748 20.4429 7.49908 20.1911 7.49908 19.8808V9.25833C7.49908 8.94789 7.24748 8.69629 6.93704 8.69629Z" fill="black"/>
<path d="M2.10409 7.14572V20.9931C2.10409 21.8116 2.40421 22.5802 2.92848 23.1317C3.45034 23.6847 4.1766 23.9987 4.93666 24H15.5706C16.3309 23.9987 17.0571 23.6847 17.5787 23.1317C18.103 22.5802 18.4031 21.8116 18.4031 20.9931V7.14572C19.4453 6.86909 20.1206 5.86225 19.9812 4.79285C19.8416 3.72366 18.9307 2.92386 17.8523 2.92364H14.9747V2.22109C14.978 1.6303 14.7444 1.06299 14.3262 0.645636C13.9079 0.228499 13.3398 -0.00377959 12.749 0.00105041H7.75826C7.16746 -0.00377959 6.59928 0.228499 6.18105 0.645636C5.76281 1.06299 5.52922 1.6303 5.53251 2.22109V2.92364H2.65493C1.57652 2.92386 0.665626 3.72366 0.525995 4.79285C0.386583 5.86225 1.06191 6.86909 2.10409 7.14572ZM15.5706 22.8759H4.93666C3.97571 22.8759 3.22816 22.0504 3.22816 20.9931V7.19512H17.2791V20.9931C17.2791 22.0504 16.5315 22.8759 15.5706 22.8759ZM6.65658 2.22109C6.65285 1.92844 6.76789 1.64676 6.97558 1.44017C7.18305 1.23358 7.46539 1.12007 7.75826 1.12512H12.749C13.0418 1.12007 13.3242 1.23358 13.5316 1.44017C13.7393 1.64654 13.8544 1.92844 13.8506 2.22109V2.92364H6.65658V2.22109ZM2.65493 4.04771H17.8523C18.411 4.04771 18.864 4.50063 18.864 5.05938C18.864 5.61812 18.411 6.07104 17.8523 6.07104H2.65493C2.09618 6.07104 1.64326 5.61812 1.64326 5.05938C1.64326 4.50063 2.09618 4.04771 2.65493 4.04771Z" fill="black"/>
<path d="M10.2534 8.69629C9.94301 8.69629 9.69141 8.94789 9.69141 9.25833V19.8808C9.69141 20.1911 9.94301 20.4429 10.2534 20.4429C10.5639 20.4429 10.8155 20.1911 10.8155 19.8808V9.25833C10.8155 8.94789 10.5639 8.69629 10.2534 8.69629Z" fill="black"/>
</svg>
