<svg width="16" height="11" viewBox="0 0 16 11" fill="none" xmlns="http://www.w3.org/2000/svg">
<path d="M8.62432 10.6919L15.7444 3.11C15.9092 2.93464 16 2.70068 16 2.45131C16 2.20194 15.9092 1.96816 15.7444 1.79312L15.2202 1.23581C14.8786 0.873169 14.3234 0.873721 13.9823 1.23704L8.00332 7.60373L2.01768 1.24188C1.85287 1.06684 1.63316 0.970331 1.39889 0.970564C1.16436 0.970797 0.944649 1.06775 0.779708 1.24311L0.255615 1.80146C0.0908031 1.97696 7.57524e-06 2.21078 7.56434e-06 2.46015C7.55344e-06 2.70952 0.090803 2.9433 0.255615 3.11833L7.38219 10.6931C7.54752 10.8686 7.76827 10.9648 8.00293 10.964C8.23851 10.9643 8.45912 10.8676 8.62432 10.6919Z" fill="black" fill-opacity="0.5"/>
</svg>
