<svg width="27" height="27" viewBox="0 0 27 27" fill="none" xmlns="http://www.w3.org/2000/svg">
<path d="M13.5 26.3955C20.4036 26.3955 26 20.7991 26 13.8955C26 6.99195 20.4036 1.39551 13.5 1.39551C6.59644 1.39551 1 6.99195 1 13.8955C1 20.7991 6.59644 26.3955 13.5 26.3955Z" stroke="white"/>
<path d="M8.28397 17.7994C8.31522 17.9237 9.09508 20.8404 13.4819 20.8404C17.8694 20.8404 18.6486 17.9237 18.6798 17.7994C18.718 17.6487 18.6499 17.4925 18.5152 17.4147C18.3798 17.3376 18.2104 17.3605 18.0986 17.4682C18.0854 17.4814 16.7416 18.7571 13.4819 18.7571C10.2222 18.7571 8.87772 17.4814 8.86522 17.4689C8.79855 17.4029 8.70966 17.3682 8.62077 17.3682C8.56244 17.3682 8.50341 17.3827 8.44994 17.4126C8.31383 17.4904 8.24577 17.648 8.28397 17.7994Z" fill="white"/>
<path d="M9.32986 13.201C10.2887 13.201 11.066 12.1128 11.066 10.7704C11.066 9.42804 10.2887 8.33984 9.32986 8.33984C8.37103 8.33984 7.59375 9.42804 7.59375 10.7704C7.59375 12.1128 8.37103 13.201 9.32986 13.201Z" fill="white"/>
<path d="M17.6775 13.201C18.6363 13.201 19.4136 12.1128 19.4136 10.7704C19.4136 9.42804 18.6363 8.33984 17.6775 8.33984C16.7187 8.33984 15.9414 9.42804 15.9414 10.7704C15.9414 12.1128 16.7187 13.201 17.6775 13.201Z" fill="white"/>
</svg>
