<svg width="36" height="36" viewBox="0 0 36 36" fill="none" xmlns="http://www.w3.org/2000/svg">
<rect x="0.25" y="0.5" width="35" height="35" rx="4" fill="#112A63" fill-opacity="0.1"/>
<path d="M17.7501 11.8936C13.5863 11.8936 10.0305 14.4259 8.58984 18.0004C10.0305 21.5749 13.5863 24.1072 17.7501 24.1072C21.9138 24.1072 25.4697 21.5749 26.9103 18.0004C25.4697 14.4259 21.9138 11.8936 17.7501 11.8936ZM17.7501 22.0716C15.4517 22.0716 13.5863 20.2477 13.5863 18.0004C13.5863 15.7531 15.4517 13.9292 17.7501 13.9292C20.0485 13.9292 21.9138 15.7531 21.9138 18.0004C21.9138 20.2477 20.0485 22.0716 17.7501 22.0716ZM17.7501 15.5577C16.3677 15.5577 15.2518 16.6487 15.2518 18.0004C15.2518 19.352 16.3677 20.4431 17.7501 20.4431C19.1324 20.4431 20.2483 19.352 20.2483 18.0004C20.2483 16.6487 19.1324 15.5577 17.7501 15.5577Z" stroke="#112A63" stroke-opacity="0.8"/>
</svg>
