<svg width="20" height="25" viewBox="0 0 20 25" fill="none" xmlns="http://www.w3.org/2000/svg">
<path d="M14.2966 1.41211C11.7909 -0.0345731 8.57164 0.828093 7.125 3.33374L1 13.9426C-0.931475 17.288 0.216839 21.5733 3.56218 23.5047C6.90752 25.4362 11.1929 24.288 13.1244 20.9426L19.2494 10.3337L17.7338 9.45874L11.6088 20.0676C10.1469 22.5996 6.96912 23.451 4.43718 21.9892C1.90524 20.5274 1.05368 17.3496 2.51554 14.8176L8.64054 4.20874C9.61757 2.51649 11.7293 1.95059 13.4216 2.92765C15.114 3.90472 15.6797 6.01649 14.7027 7.70874L13.3902 9.98206L9.45272 16.802C8.96036 17.6548 7.9149 17.9349 7.06218 17.4426C6.20946 16.9502 5.92927 15.9048 6.42163 15.052L11.2341 6.71651L9.71859 5.84151L4.90609 14.177C3.94411 15.8432 4.52106 17.9962 6.18718 18.9581C7.85329 19.92 10.0063 19.3432 10.9683 17.677L14.9058 10.8571L16.2183 8.58374C17.6649 6.07809 16.8024 2.85879 14.2966 1.41211Z" fill="white"/>
</svg>
