<svg width="19" height="19" viewBox="0 0 19 19" fill="none" xmlns="http://www.w3.org/2000/svg">
<path d="M17.6025 0.0703125H1.46786C0.715579 0.0703125 0.273368 0.835398 0.704398 1.39212C0.712696 1.40273 0.44899 1.07867 6.86099 8.95463C7.00482 9.14243 7.08083 9.36218 7.08083 9.59055V17.1812C7.08083 17.9193 8.0185 18.3264 8.65434 17.8923L11.3874 16.0331C11.7645 15.7804 11.9895 15.3768 11.9895 14.9528V9.59055C11.9895 9.36218 12.0655 9.14243 12.2094 8.95463C18.6164 1.08472 18.3577 1.40266 18.3659 1.39212C18.7968 0.835644 18.3551 0.0703125 17.6025 0.0703125V0.0703125ZM11.263 8.33572C10.998 8.66115 10.8208 9.1149 10.8208 9.59052V14.9527C10.8208 15.0446 10.7719 15.1321 10.6901 15.1867C10.6181 15.2345 11.1631 14.8649 8.24956 16.8468V9.59055C8.24956 9.14317 8.09946 8.71279 7.8155 8.34598C7.80844 8.33688 8.00631 8.58008 3.7973 3.4101H15.273L11.263 8.33572ZM16.1316 2.35541H2.93871L1.93699 1.12497H17.1334L16.1316 2.35541Z" fill="black" fill-opacity="0.5"/>
</svg>
