<svg width="33" height="34" viewBox="0 0 33 34" fill="none" xmlns="http://www.w3.org/2000/svg">
<path d="M4.45517 8.99865C5.31675 8.39646 6.61553 8.51195 7.38911 9.1508L6.50187 7.86119C5.78787 6.84288 6.04359 5.74116 7.06281 5.02624C8.08204 4.31406 10.9701 6.22878 10.9701 6.22878C10.2497 5.20039 10.3845 3.89702 11.4129 3.17568C12.4412 2.45709 13.8601 2.70548 14.5805 3.73571L24.1312 17.2276L22.914 29.0284L12.7556 25.3237L3.89515 12.1865C3.16831 11.1517 3.41945 9.72457 4.45517 8.99865Z" fill="#90603E"/>
<path d="M2.47002 16.5045C2.47002 16.5045 1.43247 14.9922 2.94572 13.9555C4.45715 12.9189 5.49379 14.4303 5.49379 14.4303L10.3067 21.4494C10.4726 21.1726 10.6541 20.8994 10.8566 20.63L4.17668 10.8896C4.17668 10.8896 3.14004 9.37817 4.65238 8.34153C6.1638 7.30489 7.20044 8.81631 7.20044 8.81631L13.4835 17.9793C13.7172 17.7886 13.9565 17.597 14.203 17.4091L6.91905 6.78519C6.91905 6.78519 5.88241 5.27377 7.39475 4.23713C8.90617 3.20049 9.94281 4.71191 9.94281 4.71191L17.2268 15.334C17.4944 15.17 17.7593 15.0279 18.0251 14.8776L11.2168 4.94931C11.2168 4.94931 10.1802 3.43788 11.6916 2.40124C13.2031 1.3646 14.2397 2.87603 14.2397 2.87603L21.4384 13.3744L22.5328 14.9711C17.9976 18.0819 17.5659 23.9342 20.1571 27.7132C20.6749 28.4694 21.4311 27.9515 21.4311 27.9515C18.3212 23.4154 19.2707 18.3184 23.8068 15.2085L22.4696 8.51568C22.4696 8.51568 21.97 6.7522 23.7326 6.25175C25.4961 5.75222 25.9965 7.5157 25.9965 7.5157L27.5409 12.1022C28.1532 13.9207 28.8049 15.7327 29.6674 17.4467C32.1027 22.2862 30.6481 28.3007 26.0561 31.451C21.0471 34.8854 14.1994 33.6086 10.7641 28.6005L2.47002 16.5045Z" fill="#AF7E57"/>
<path d="M10.9991 29.9835C7.33283 29.9835 3.62806 26.2788 3.62806 22.6125C3.62806 22.1056 3.25685 21.6959 2.74999 21.6959C2.24312 21.6959 1.79492 22.1056 1.79492 22.6125C1.79492 28.1119 5.49969 31.8167 10.9991 31.8167C11.506 31.8167 11.9157 31.3685 11.9157 30.8616C11.9157 30.3548 11.506 29.9835 10.9991 29.9835Z" fill="#5DADEC"/>
<path d="M6.41599 31.7782C3.66628 31.7782 1.83314 29.9451 1.83314 27.1954C1.83314 26.6885 1.42343 26.2788 0.916569 26.2788C0.409707 26.2788 0 26.6885 0 27.1954C0 30.8616 2.74971 33.6114 6.41599 33.6114C6.92285 33.6114 7.33255 33.2016 7.33255 32.6948C7.33255 32.1879 6.92285 31.7782 6.41599 31.7782ZM21.9977 2.448C21.4917 2.448 21.0811 2.85862 21.0811 3.36457C21.0811 3.87051 21.4917 4.28114 21.9977 4.28114C25.6639 4.28114 29.3302 7.5707 29.3302 11.6137C29.3302 12.1196 29.7408 12.5303 30.2468 12.5303C30.7527 12.5303 31.1634 12.1196 31.1634 11.6137C31.1634 6.55973 27.4971 2.448 21.9977 2.448Z" fill="#5DADEC"/>
<path d="M26.5806 0.65332C26.0747 0.65332 25.6641 1.02545 25.6641 1.53139C25.6641 2.03734 26.0747 2.48646 26.5806 2.48646C29.3303 2.48646 31.125 4.52583 31.125 7.03081C31.125 7.53676 31.5732 7.94738 32.08 7.94738C32.5869 7.94738 32.9581 7.53676 32.9581 7.03081C32.9581 3.51393 30.2469 0.65332 26.5806 0.65332Z" fill="#5DADEC"/>
</svg>
