<svg width="105" height="40" viewBox="0 0 105 40" fill="none" xmlns="http://www.w3.org/2000/svg">
<path d="M0 5C0 2.23858 2.23858 0 5 0H100C102.761 0 105 2.23858 105 5V35C105 37.7614 102.761 40 100 40H5C2.23858 40 0 37.7614 0 35V5Z" fill="#0038FF" fill-opacity="0.1"/>
<path d="M25.036 24.5V14.7H26.212V24.5H25.036ZM28.2199 24.5V17.556H29.2839L29.3539 18.802C29.5779 18.3633 29.8999 18.018 30.3199 17.766C30.7399 17.514 31.2159 17.388 31.7479 17.388C32.5692 17.388 33.2226 17.64 33.7079 18.144C34.2026 18.6387 34.4499 19.404 34.4499 20.44V24.5H33.2739V20.566C33.2739 19.1193 32.6766 18.396 31.4819 18.396C30.8846 18.396 30.3852 18.6153 29.9839 19.054C29.5919 19.4833 29.3959 20.0993 29.3959 20.902V24.5H28.2199ZM39.9367 24.5V17.556H41.0007L41.0987 18.886C41.3134 18.4287 41.64 18.0647 42.0787 17.794C42.5174 17.5233 43.0587 17.388 43.7027 17.388V18.62H43.3807C42.97 18.62 42.592 18.6947 42.2467 18.844C41.9014 18.984 41.626 19.2267 41.4207 19.572C41.2154 19.9173 41.1127 20.3933 41.1127 21V24.5H39.9367ZM47.8849 24.668C47.2222 24.668 46.6342 24.5187 46.1209 24.22C45.6075 23.912 45.2015 23.4873 44.9029 22.946C44.6135 22.4047 44.4689 21.7653 44.4689 21.028C44.4689 20.3 44.6135 19.6653 44.9029 19.124C45.1922 18.5733 45.5935 18.1487 46.1069 17.85C46.6295 17.542 47.2315 17.388 47.9129 17.388C48.5849 17.388 49.1635 17.542 49.6489 17.85C50.1435 18.1487 50.5215 18.5453 50.7829 19.04C51.0442 19.5347 51.1749 20.0667 51.1749 20.636C51.1749 20.7387 51.1702 20.8413 51.1609 20.944C51.1609 21.0467 51.1609 21.1633 51.1609 21.294H45.6309C45.6589 21.826 45.7802 22.2693 45.9949 22.624C46.2189 22.9693 46.4942 23.2307 46.8209 23.408C47.1569 23.5853 47.5115 23.674 47.8849 23.674C48.3702 23.674 48.7762 23.562 49.1029 23.338C49.4295 23.114 49.6675 22.8107 49.8169 22.428H50.9789C50.7922 23.072 50.4329 23.6087 49.9009 24.038C49.3782 24.458 48.7062 24.668 47.8849 24.668ZM47.8849 18.382C47.3249 18.382 46.8255 18.5547 46.3869 18.9C45.9575 19.236 45.7102 19.7307 45.6449 20.384H50.0129C49.9849 19.7587 49.7702 19.2687 49.3689 18.914C48.9675 18.5593 48.4729 18.382 47.8849 18.382ZM54.4621 24.5L51.8301 17.556H53.0621L55.1481 23.366L57.2481 17.556H58.4521L55.8201 24.5H54.4621ZM60.4749 16.016C60.2416 16.016 60.0456 15.9413 59.8869 15.792C59.7376 15.6333 59.6629 15.4373 59.6629 15.204C59.6629 14.98 59.7376 14.7933 59.8869 14.644C60.0456 14.4947 60.2416 14.42 60.4749 14.42C60.6989 14.42 60.8903 14.4947 61.0489 14.644C61.2076 14.7933 61.2869 14.98 61.2869 15.204C61.2869 15.4373 61.2076 15.6333 61.0489 15.792C60.8903 15.9413 60.6989 16.016 60.4749 16.016ZM59.8869 24.5V17.556H61.0629V24.5H59.8869ZM66.2325 24.668C65.5699 24.668 64.9819 24.5187 64.4685 24.22C63.9552 23.912 63.5492 23.4873 63.2505 22.946C62.9612 22.4047 62.8165 21.7653 62.8165 21.028C62.8165 20.3 62.9612 19.6653 63.2505 19.124C63.5399 18.5733 63.9412 18.1487 64.4545 17.85C64.9772 17.542 65.5792 17.388 66.2605 17.388C66.9325 17.388 67.5112 17.542 67.9965 17.85C68.4912 18.1487 68.8692 18.5453 69.1305 19.04C69.3919 19.5347 69.5225 20.0667 69.5225 20.636C69.5225 20.7387 69.5179 20.8413 69.5085 20.944C69.5085 21.0467 69.5085 21.1633 69.5085 21.294H63.9785C64.0065 21.826 64.1279 22.2693 64.3425 22.624C64.5665 22.9693 64.8419 23.2307 65.1685 23.408C65.5045 23.5853 65.8592 23.674 66.2325 23.674C66.7179 23.674 67.1239 23.562 67.4505 23.338C67.7772 23.114 68.0152 22.8107 68.1645 22.428H69.3265C69.1399 23.072 68.7805 23.6087 68.2485 24.038C67.7259 24.458 67.0539 24.668 66.2325 24.668ZM66.2325 18.382C65.6725 18.382 65.1732 18.5547 64.7345 18.9C64.3052 19.236 64.0579 19.7307 63.9925 20.384H68.3605C68.3325 19.7587 68.1179 19.2687 67.7165 18.914C67.3152 18.5593 66.8205 18.382 66.2325 18.382ZM72.2078 24.5L70.1778 17.556H71.3538L72.8238 23.002L74.4478 17.556H75.7778L77.4158 23.002L78.8718 17.556H80.0618L78.0318 24.5H76.8278L75.1198 18.774L73.4118 24.5H72.2078Z" fill="#0038FF"/>
</svg>
