<svg width="19" height="18" viewBox="0 0 19 18" fill="none" xmlns="http://www.w3.org/2000/svg">
<path d="M11.2192 8.83643C11.2192 9.68584 10.5306 10.3745 9.68115 10.3745C8.83173 10.3745 8.14307 9.68584 8.14307 8.83643C8.14307 7.98701 8.83173 7.29834 9.68115 7.29834C10.5306 7.29834 11.2192 7.98701 11.2192 8.83643Z" fill="black" fill-opacity="0.8"/>
<path d="M12.2788 4.18799H7.0835C5.95263 4.18799 5.03271 5.1079 5.03271 6.23877V11.4341C5.03271 12.5649 5.95263 13.4849 7.0835 13.4849H12.2788C13.4097 13.4849 14.3296 12.5649 14.3296 11.4341V6.23877C14.3296 5.1079 13.4097 4.18799 12.2788 4.18799ZM9.68115 11.3999C8.26764 11.3999 7.11768 10.2499 7.11768 8.83643C7.11768 7.42291 8.26764 6.27295 9.68115 6.27295C11.0947 6.27295 12.2446 7.42291 12.2446 8.83643C12.2446 10.2499 11.0947 11.3999 9.68115 11.3999ZM12.6206 6.40967C12.3374 6.40967 12.1079 6.18016 12.1079 5.89697C12.1079 5.61379 12.3374 5.38428 12.6206 5.38428C12.9038 5.38428 13.1333 5.61379 13.1333 5.89697C13.1333 6.18016 12.9038 6.40967 12.6206 6.40967Z" fill="black" fill-opacity="0.8"/>
<path d="M13.8169 0.0864258H5.54541C3.00116 0.0864258 0.931152 2.15643 0.931152 4.70068V12.9722C0.931152 15.5164 3.00116 17.5864 5.54541 17.5864H13.8169C16.3611 17.5864 18.4312 15.5164 18.4312 12.9722V4.70068C18.4312 2.15643 16.3611 0.0864258 13.8169 0.0864258ZM15.355 11.4341C15.355 13.1302 13.975 14.5103 12.2788 14.5103H7.0835C5.38733 14.5103 4.00732 13.1302 4.00732 11.4341V6.23877C4.00732 4.5426 5.38733 3.1626 7.0835 3.1626H12.2788C13.975 3.1626 15.355 4.5426 15.355 6.23877V11.4341Z" fill="black" fill-opacity="0.8"/>
</svg>
