<svg width="33" height="38" viewBox="0 0 33 38" fill="none" xmlns="http://www.w3.org/2000/svg">
<path d="M23.5952 0.000976562C21.577 0.140565 19.2182 1.43235 17.8436 3.11451C16.5897 4.64052 15.5582 6.90706 15.9604 9.10972C18.1654 9.17833 20.4438 7.85579 21.7639 6.14524C22.999 4.55298 23.9335 2.30064 23.5952 0.000976562Z" fill="black" fill-opacity="0.8"/>
<path d="M31.5716 12.7017C29.6339 10.2719 26.9107 8.86182 24.339 8.86182C20.9439 8.86182 19.5078 10.4872 17.149 10.4872C14.7168 10.4872 12.8691 8.86655 9.93298 8.86655C7.04893 8.86655 3.97799 10.6291 2.03084 13.6433C-0.706513 17.8878 -0.238063 25.868 4.19801 32.6652C5.78554 35.0974 7.90539 37.8324 10.6782 37.856C13.1459 37.8797 13.8415 36.2732 17.1845 36.2567C20.5275 36.2377 21.1616 37.8773 23.6245 37.8513C26.3997 37.83 28.6355 34.7993 30.223 32.3671C31.361 30.6234 31.7845 29.7457 32.667 27.7773C26.2483 25.3333 25.2191 16.2056 31.5716 12.7017Z" fill="black" fill-opacity="0.8"/>
</svg>
