<svg width="22" height="23" viewBox="0 0 22 23" fill="none" xmlns="http://www.w3.org/2000/svg">
<path d="M8.52696 9.84819L8.74338 9.63177L8.64908 9.34059C7.88893 6.99338 8.499 4.40709 10.2535 2.65261C12.8227 0.0834322 17.0039 0.0833972 19.5731 2.65257C22.1423 5.22174 22.1423 9.40308 19.5731 11.9722L19.573 11.9723C17.8225 13.724 15.2859 14.2903 12.934 13.5279L12.645 13.4342L12.4286 13.6476L10.7758 15.2786L10.7758 15.2786L10.7733 15.281C10.7461 15.3082 10.7096 15.3234 10.6713 15.3234H9.49298H8.99298V15.8234V17.0234C8.99298 17.0637 8.97588 17.1031 8.9446 17.1315C8.9078 17.1636 8.86823 17.1717 8.84104 17.168L8.84105 17.168L8.83196 17.1669L7.85257 17.053L7.34492 16.9939L7.29701 17.5028L7.16922 18.8598L7.1692 18.8599C7.1627 18.9292 7.10852 18.9833 7.03929 18.9898L7.03916 18.9899L5.68211 19.1176L5.1736 19.1655L5.2323 19.6729L5.34561 20.6523C5.35073 20.6965 5.33538 20.7402 5.30433 20.7713L5.3042 20.7714L4.39285 21.6834C4.39283 21.6834 4.39281 21.6834 4.39279 21.6834C4.36559 21.7106 4.32909 21.7257 4.29078 21.7257H0.644533C0.564419 21.7257 0.5 21.6613 0.5 21.5812V17.9349C0.5 17.8966 0.5151 17.8601 0.5424 17.8328L8.52696 9.84819ZM18.4568 7.21026L18.1033 6.8567L18.4568 7.21025C19.4061 6.26094 19.4062 4.71826 18.4568 3.76892C17.5075 2.8196 15.9648 2.8196 15.0155 3.76892C14.0662 4.71824 14.0662 6.26094 15.0155 7.21026C15.9648 8.15958 17.5075 8.15958 18.4568 7.21026Z" stroke="black" stroke-opacity="0.5"/>
</svg>
