<svg width="18" height="21" viewBox="0 0 18 21" fill="none" xmlns="http://www.w3.org/2000/svg">
<path d="M12.2998 0.90625C11.2387 0.98 9.99854 1.6625 9.27583 2.55125C8.61656 3.35749 8.07422 4.55499 8.28568 5.71874C9.445 5.75499 10.6429 5.05624 11.337 4.15249C11.9863 3.31124 12.4776 2.12125 12.2998 0.90625Z" fill="#222222" fill-opacity="0.6"/>
<path d="M16.4944 7.61566C15.4756 6.33191 14.0439 5.58691 12.6918 5.58691C10.9068 5.58691 10.1517 6.44566 8.91153 6.44566C7.6328 6.44566 6.6613 5.58941 5.11762 5.58941C3.6013 5.58941 1.98671 6.52066 0.962971 8.11316C-0.476229 10.3557 -0.229935 14.5719 2.10239 18.1631C2.93705 19.4481 4.05159 20.8931 5.50945 20.9056C6.80684 20.9181 7.17255 20.0694 8.93019 20.0606C10.6878 20.0506 11.0212 20.9169 12.3161 20.9031C13.7752 20.8919 14.9507 19.2906 15.7854 18.0056C16.3837 17.0844 16.6063 16.6206 17.0703 15.5806C13.6956 14.2894 13.1545 9.4669 16.4944 7.61566Z" fill="#222222" fill-opacity="0.6"/>
</svg>
