<svg width="18" height="20" viewBox="0 0 18 20" fill="none" xmlns="http://www.w3.org/2000/svg">
<path d="M8.57031 0.585938C3.87683 0.585938 0.0703125 4.783 0.0703125 9.95801C0.0703125 15.133 3.87683 19.3301 8.57031 19.3301C13.2638 19.3301 17.0703 15.133 17.0703 9.95801C17.0703 4.783 13.2638 0.585938 8.57031 0.585938ZM9.25401 17.6594C9.21705 17.6594 9.18009 17.6594 9.12466 17.6798V13.2586C10.0855 13.2382 10.954 13.2179 11.7486 13.1567C11.0464 15.5405 9.73444 17.1297 9.25401 17.6594ZM7.88662 17.6594C7.3877 17.1093 6.09423 15.5201 5.39205 13.1567C6.16814 13.2179 7.0551 13.2586 8.01596 13.2586V17.6798C7.97901 17.6798 7.94205 17.6594 7.88662 17.6594ZM1.54857 9.95801C1.54857 9.44866 1.60401 8.9393 1.67792 8.45033C2.08444 8.36883 2.86053 8.24659 3.95075 8.12434C3.85836 8.71519 3.80292 9.32641 3.80292 9.97838C3.80292 10.6304 3.85836 11.2416 3.93227 11.812C2.86053 11.6898 2.06596 11.5676 1.65944 11.4861C1.60401 10.9767 1.54857 10.4674 1.54857 9.95801ZM4.9301 9.95801C4.9301 9.26529 5.00401 8.61332 5.11488 8.0021C5.96488 7.94098 6.92575 7.87985 8.01596 7.87985V12.0362C6.94423 12.0158 5.96488 11.975 5.0964 11.8935C5.00401 11.3027 4.9301 10.6507 4.9301 9.95801ZM9.23553 2.25661C9.73444 2.80671 11.0094 4.43664 11.7301 6.75928C10.954 6.69816 10.0855 6.65741 9.12466 6.65741V2.23624C9.16162 2.23624 9.19857 2.25661 9.23553 2.25661ZM8.01596 2.23624V6.65741C7.0551 6.67778 6.18662 6.69816 5.41053 6.75928C6.1127 4.43664 7.40618 2.80671 7.88662 2.25661C7.94205 2.25661 7.97901 2.23624 8.01596 2.23624ZM9.12466 12.0362V7.87985C10.1964 7.90023 11.1757 7.94098 12.0257 8.0021C12.1366 8.61332 12.2105 9.26529 12.2105 9.95801C12.2105 10.6507 12.1551 11.3027 12.0442 11.9139C11.1942 11.975 10.2149 12.0158 9.12466 12.0362ZM13.1714 8.12434C14.2616 8.24659 15.0377 8.36883 15.4442 8.45033C15.5366 8.9393 15.5921 9.44866 15.5921 9.95801C15.5921 10.4674 15.5366 10.9767 15.4627 11.4657C15.0562 11.5472 14.2801 11.6694 13.1899 11.7917C13.2823 11.2008 13.3192 10.5896 13.3192 9.93763C13.3192 9.32641 13.2638 8.69482 13.1714 8.12434ZM15.1116 7.14639C14.5942 7.06489 13.8551 6.96302 12.9127 6.86115C12.4692 5.10898 11.6931 3.70317 11.0464 2.70484C12.9127 3.47905 14.391 5.10898 15.1116 7.14639ZM6.09423 2.70484C5.42901 3.6828 4.6714 5.08861 4.22792 6.84078C3.30401 6.92227 2.56488 7.04452 2.02901 7.12601C2.74966 5.10898 4.2464 3.47905 6.09423 2.70484ZM2.02901 12.7696C2.5464 12.8511 3.28553 12.953 4.20944 13.0549C4.65292 14.807 5.39205 16.2128 6.05727 17.1908C4.20944 16.3962 2.74966 14.7867 2.02901 12.7696ZM11.0834 17.1908C11.7486 16.2128 12.4877 14.8274 12.9312 13.0752C13.8551 12.9937 14.5942 12.8715 15.1116 12.79C14.391 14.7867 12.9312 16.3962 11.0834 17.1908Z" fill="black" fill-opacity="0.6"/>
</svg>
