<svg width="17" height="21" viewBox="0 0 17 21" fill="none" xmlns="http://www.w3.org/2000/svg">
<path d="M1.27501 7.57617C0.570845 7.57617 0 8.1357 0 8.82589V14.6579C0 15.3481 0.570845 15.9076 1.27501 15.9076C1.97917 15.9076 2.55002 15.3481 2.55002 14.6579V8.82589C2.55002 8.1357 1.97917 7.57617 1.27501 7.57617Z" fill="#4CAF50" fill-opacity="0.6"/>
<path d="M15.7252 7.57617C15.021 7.57617 14.4502 8.1357 14.4502 8.82589V14.6579C14.4502 15.3481 15.021 15.9076 15.7252 15.9076C16.4294 15.9076 17.0002 15.3481 17.0002 14.6579V8.82589C17.0002 8.1357 16.4294 7.57617 15.7252 7.57617Z" fill="#4CAF50" fill-opacity="0.6"/>
<path d="M13.175 7.57617H3.82492C3.5902 7.57617 3.3999 7.76269 3.3999 7.99276V14.6579C3.3997 15.6479 4.11036 16.5011 5.09993 16.6991V19.6568C5.09993 20.347 5.67077 20.9065 6.37494 20.9065C7.0791 20.9065 7.64995 20.347 7.64995 19.6568V16.7408H9.34997V19.6568C9.34997 20.347 9.92082 20.9065 10.625 20.9065C11.3291 20.9065 11.9 20.347 11.9 19.6568V16.6991C12.8896 16.5011 13.6002 15.6479 13.6 14.6579V7.99276C13.6 7.76269 13.4097 7.57617 13.175 7.57617Z" fill="#4CAF50" fill-opacity="0.6"/>
<path d="M11.5898 2.63723L12.6259 1.62246C12.7948 1.46261 12.7994 1.19892 12.6364 1.03341C12.4733 0.867938 12.2043 0.863369 12.0354 1.02318C12.0319 1.02654 12.0284 1.02993 12.025 1.03341L10.818 2.21651C9.33967 1.58707 7.66116 1.58707 6.18287 2.21651L4.97587 1.03259C4.80705 0.872741 4.53799 0.87735 4.37491 1.04282C4.21585 1.20427 4.21585 1.46019 4.37491 1.6216L5.41021 2.63719C4.14807 3.45576 3.39215 4.84299 3.39996 6.32637C3.39996 6.55644 3.59026 6.74296 3.82498 6.74296H13.1751C13.4098 6.74296 13.6001 6.55644 13.6001 6.32637C13.6078 4.84303 12.8519 3.4558 11.5898 2.63723Z" fill="#4CAF50" fill-opacity="0.6"/>
</svg>
