<svg width="16" height="16" viewBox="0 0 16 16" fill="none" xmlns="http://www.w3.org/2000/svg">
<path d="M15.7542 15.8944V15.8937H15.7581V10.1906C15.7581 7.40055 15.1606 5.25134 11.9158 5.25134C10.3559 5.25134 9.30913 6.1118 8.88178 6.92756H8.83666V5.51181H5.7601V15.8937H8.96364V10.753C8.96364 9.39944 9.21889 8.09061 10.8864 8.09061C12.5294 8.09061 12.5539 9.63529 12.5539 10.8398V15.8944H15.7542Z" fill="black" fill-opacity="0.8"/>
<path d="M0.492371 5.57385H3.71753V15.8944H0.492371V5.57385Z" fill="black" fill-opacity="0.8"/>
<path d="M2.15869 0.413574C1.1201 0.413574 0.277344 1.2524 0.277344 2.28615C0.277344 3.31989 1.1201 4.17626 2.15869 4.17626C3.19728 4.17626 4.04003 3.31989 4.04003 2.28615C4.03938 1.2524 3.19662 0.413574 2.15869 0.413574V0.413574Z" fill="black" fill-opacity="0.8"/>
</svg>
