<svg width="21" height="22" viewBox="0 0 21 22" fill="none" xmlns="http://www.w3.org/2000/svg">
<path d="M10.5 21.9008C16.2894 21.9008 21 17.1907 21 11.4008C21 10.4015 20.8605 9.41672 20.5843 8.47357C20.4482 8.0098 19.9639 7.74341 19.4989 7.87949C19.0347 8.01514 18.7691 8.50113 18.9048 8.9649C19.1336 9.74847 19.25 10.5684 19.25 11.4008C19.25 16.2255 15.3247 20.1508 10.5 20.1508C5.67532 20.1508 1.75 16.2255 1.75 11.4008C1.75 6.57617 5.67532 2.65085 10.5 2.65085C12.2534 2.65085 13.9404 3.16354 15.3785 4.13318C15.7788 4.40341 16.3232 4.29724 16.593 3.89691C16.863 3.49615 16.7577 2.95227 16.3569 2.68225C14.6287 1.51694 12.6035 0.900848 10.5 0.900848C4.7106 0.900848 0 5.61102 0 11.4008C0 17.1907 4.7106 21.9008 10.5 21.9008Z" fill="white"/>
<path d="M19.5062 2.90704L10.4998 11.913L7.61849 9.03204C7.2767 8.69045 6.72298 8.69045 6.38119 9.03204C6.0396 9.37383 6.0396 9.92754 6.38119 10.2693L9.88119 13.7693C10.0523 13.9405 10.2757 14.0257 10.4998 14.0257C10.7239 14.0257 10.9474 13.9405 11.1185 13.7693L20.7435 4.14434C21.0851 3.80254 21.0851 3.24883 20.7435 2.90704C20.4017 2.56545 19.848 2.56545 19.5062 2.90704Z" fill="white"/>
</svg>
