<svg width="20" height="21" viewBox="0 0 20 21" fill="none" xmlns="http://www.w3.org/2000/svg">
<path d="M10.7875 2.34806L10.7875 2.34803L10.7813 2.34706L2.59803 1.08558C2.5976 1.08551 2.59716 1.08545 2.59673 1.08538C2.07621 1.00292 1.54068 1.14739 1.13612 1.49466L1.13609 1.49462L1.13055 1.49952C0.736086 1.84838 0.5 2.35356 0.5 2.88656V18.8071C0.5 19.4921 1.05228 20.0627 1.74483 20.0627H4.16552H4.66552V19.5627V15.5958C4.66552 15.1322 5.02937 14.7735 5.46897 14.7735H7.33103C7.77063 14.7735 8.13448 15.1322 8.13448 15.5958V19.5627V20.0627H8.63448H11.8H12.3V19.5627V4.14842C12.3 3.25903 11.6663 2.4949 10.7875 2.34806ZM5.09655 12.0734H3.97931C3.95384 12.0734 3.92069 12.0502 3.92069 12.0067C3.92069 11.9632 3.95384 11.94 3.97931 11.94H5.09655C5.12202 11.94 5.15517 11.9632 5.15517 12.0067C5.15517 12.0502 5.12202 12.0734 5.09655 12.0734ZM5.09655 9.80659H3.97931C3.95384 9.80659 3.92069 9.78337 3.92069 9.73989C3.92069 9.69642 3.95384 9.67319 3.97931 9.67319H5.09655C5.12202 9.67319 5.15517 9.69642 5.15517 9.73989C5.15517 9.78337 5.12202 9.80659 5.09655 9.80659ZM5.09655 7.53978H3.97931C3.95384 7.53978 3.92069 7.51655 3.92069 7.47308C3.92069 7.42961 3.95384 7.40638 3.97931 7.40638H5.09655C5.12202 7.40638 5.15517 7.42961 5.15517 7.47308C5.15517 7.51655 5.12202 7.53978 5.09655 7.53978ZM5.09655 5.27297H3.97931C3.95384 5.27297 3.92069 5.24974 3.92069 5.20627C3.92069 5.16279 3.95384 5.13956 3.97931 5.13956H5.09655C5.12202 5.13956 5.15517 5.1628 5.15517 5.20627C5.15517 5.24974 5.12202 5.27297 5.09655 5.27297ZM8.82069 12.0734H7.70345C7.67798 12.0734 7.64483 12.0502 7.64483 12.0067C7.64483 11.9632 7.67798 11.94 7.70345 11.94H8.82069C8.84616 11.94 8.87931 11.9632 8.87931 12.0067C8.87931 12.0502 8.84616 12.0734 8.82069 12.0734ZM8.82069 9.80659H7.70345C7.67798 9.80659 7.64483 9.78337 7.64483 9.73989C7.64483 9.69642 7.67798 9.67319 7.70345 9.67319H8.82069C8.84616 9.67319 8.87931 9.69642 8.87931 9.73989C8.87931 9.78337 8.84616 9.80659 8.82069 9.80659ZM8.82069 7.53978H7.70345C7.67798 7.53978 7.64483 7.51655 7.64483 7.47308C7.64483 7.42961 7.67798 7.40638 7.70345 7.40638H8.82069C8.84616 7.40638 8.87931 7.42961 8.87931 7.47308C8.87931 7.51655 8.84616 7.53978 8.82069 7.53978ZM8.82069 5.27297H7.70345C7.67798 5.27297 7.64483 5.24974 7.64483 5.20627C7.64483 5.1628 7.67798 5.13956 7.70345 5.13956H8.82069C8.84616 5.13956 8.87931 5.16279 8.87931 5.20627C8.87931 5.24974 8.84616 5.27297 8.82069 5.27297Z" stroke="black" stroke-opacity="0.5"/>
<path d="M18.0318 9.37265L18.0318 9.37262L18.0264 9.37154L12.4979 8.2723L11.9004 8.15349V8.7627V19.5627V20.0627H12.4004H17.6416C18.6423 20.0627 19.5004 19.2842 19.5004 18.2725V11.1226C19.5004 10.2589 18.8792 9.55089 18.0318 9.37265ZM16.0886 16.8509H14.9239C14.893 16.8509 14.8702 16.8394 14.8565 16.8263C14.8432 16.8137 14.8416 16.8038 14.8416 16.798C14.8416 16.7922 14.8432 16.7823 14.8565 16.7697C14.8702 16.7567 14.893 16.7451 14.9239 16.7451H16.0886C16.1196 16.7451 16.1424 16.7567 16.1561 16.7697C16.1693 16.7823 16.171 16.7922 16.171 16.798C16.171 16.8038 16.1693 16.8137 16.1561 16.8263C16.1424 16.8394 16.1196 16.8509 16.0886 16.8509ZM16.0886 14.6392H14.9239C14.893 14.6392 14.8702 14.6276 14.8565 14.6146C14.8432 14.602 14.8416 14.592 14.8416 14.5862C14.8416 14.5805 14.8432 14.5705 14.8565 14.5579C14.8702 14.5449 14.893 14.5333 14.9239 14.5333H16.0886C16.1196 14.5333 16.1424 14.5449 16.1561 14.5579C16.1693 14.5705 16.171 14.5805 16.171 14.5862C16.171 14.592 16.1693 14.602 16.1561 14.6146C16.1424 14.6276 16.1196 14.6392 16.0886 14.6392ZM16.0886 12.4274H14.9239C14.893 12.4274 14.8702 12.4158 14.8565 12.4028C14.8432 12.3902 14.8416 12.3803 14.8416 12.3745C14.8416 12.3687 14.8432 12.3588 14.8565 12.3462C14.8702 12.3331 14.893 12.3216 14.9239 12.3216H16.0886C16.1196 12.3216 16.1424 12.3331 16.1561 12.3462C16.1693 12.3588 16.171 12.3687 16.171 12.3745C16.171 12.3803 16.1693 12.3902 16.1561 12.4028C16.1424 12.4158 16.1196 12.4274 16.0886 12.4274Z" stroke="black" stroke-opacity="0.5"/>
</svg>
