<svg width="27" height="34" viewBox="0 0 27 34" fill="none" xmlns="http://www.w3.org/2000/svg">
<path d="M13.5 0.611298C7.977 0.611298 3.5 5.0883 3.5 10.6113V20.6113H7.5V10.6113C7.5 7.2983 10.186 4.6113 13.5 4.6113C16.814 4.6113 19.5 7.2983 19.5 10.6113V20.6113H23.5V10.6113C23.5 5.0883 19.023 0.611298 13.5 0.611298Z" fill="#AAB8C2"/>
<path d="M26.5 29.6113C26.5 31.8203 24.709 33.6113 22.5 33.6113H4.5C2.291 33.6113 0.5 31.8203 0.5 29.6113V17.6113C0.5 15.4023 2.291 13.6113 4.5 13.6113H22.5C24.709 13.6113 26.5 15.4023 26.5 17.6113V29.6113Z" fill="#FFAC33"/>
</svg>
