<svg width="41" height="40" viewBox="0 0 41 40" fill="none" xmlns="http://www.w3.org/2000/svg">
<rect x="0.5" width="40" height="40" rx="3" fill="#00690B" fill-opacity="0.05"/>
<path d="M29.4 23.7556C28.0333 23.7556 26.7111 23.5333 25.4778 23.1333C25.0889 23 24.6556 23.1 24.3556 23.4L22.6111 25.5889C19.4667 24.0889 16.5222 21.2556 14.9556 18L17.1222 16.1556C17.4222 15.8444 17.5111 15.4111 17.3889 15.0222C16.9778 13.7889 16.7667 12.4667 16.7667 11.1C16.7667 10.5 16.2667 10 15.6667 10H11.8222C11.2222 10 10.5 10.2667 10.5 11.1C10.5 21.4222 19.0889 30 29.4 30C30.1889 30 30.5 29.3 30.5 28.6889V24.8556C30.5 24.2556 30 23.7556 29.4 23.7556Z" fill="#00690B"/>
</svg>
