<svg width="18" height="19" viewBox="0 0 18 19" fill="none" xmlns="http://www.w3.org/2000/svg">
<path d="M16.5601 10.9399H10.4399V17.0601C10.4399 17.8551 9.79498 18.5 9 18.5C8.20502 18.5 7.56007 17.8551 7.56007 17.0601V10.9399H1.43993C0.644948 10.9399 0 10.295 0 9.5C0 8.70502 0.644948 8.06007 1.43993 8.06007H7.56007V1.93993C7.56007 1.14495 8.20502 0.5 9 0.5C9.79498 0.5 10.4399 1.14495 10.4399 1.93993V8.06007H16.5601C17.3551 8.06007 18 8.70502 18 9.5C18 10.295 17.3551 10.9399 16.5601 10.9399Z" fill="white"/>
</svg>
