<svg width="21" height="20" viewBox="0 0 21 20" fill="none" xmlns="http://www.w3.org/2000/svg">
<path d="M10.5 15.7617C11.0393 15.7617 11.4766 15.3245 11.4766 14.7852C11.4766 14.2458 11.0393 13.8086 10.5 13.8086C9.96066 13.8086 9.52344 14.2458 9.52344 14.7852C9.52344 15.3245 9.96066 15.7617 10.5 15.7617Z" fill="#00690B"/>
<path d="M10.5 0C4.97328 0 0.5 4.47254 0.5 10C0.5 15.5267 4.97254 20 10.5 20C16.0267 20 20.5 15.5275 20.5 10C20.5 4.47328 16.0275 0 10.5 0ZM10.5 18.4375C5.83684 18.4375 2.0625 14.6638 2.0625 10C2.0625 5.33684 5.83621 1.5625 10.5 1.5625C15.1632 1.5625 18.9375 5.33621 18.9375 10C18.9375 14.6632 15.1638 18.4375 10.5 18.4375Z" fill="#00690B"/>
<path d="M10.5 5.01953C8.77688 5.01953 7.375 6.42141 7.375 8.14453C7.375 8.57602 7.72477 8.92578 8.15625 8.92578C8.58773 8.92578 8.9375 8.57602 8.9375 8.14453C8.9375 7.28297 9.63844 6.58203 10.5 6.58203C11.3616 6.58203 12.0625 7.28297 12.0625 8.14453C12.0625 9.00609 11.3616 9.70703 10.5 9.70703C10.0685 9.70703 9.71875 10.0568 9.71875 10.4883V12.4414C9.71875 12.8729 10.0685 13.2227 10.5 13.2227C10.9315 13.2227 11.2812 12.8729 11.2812 12.4414V11.1707C12.6276 10.8229 13.625 9.59801 13.625 8.14453C13.625 6.42141 12.2231 5.01953 10.5 5.01953Z" fill="#00690B"/>
</svg>
