<svg width="36" height="36" viewBox="0 0 36 36" fill="none" xmlns="http://www.w3.org/2000/svg">
<rect x="0.5" y="0.5" width="35" height="35" rx="5" fill="#FF0000" fill-opacity="0.1"/>
<path d="M13.7653 7.0602C13.6686 7.09041 13.5879 7.15779 13.5409 7.24751C13.4939 7.33723 13.4845 7.44194 13.5147 7.53861C13.5449 7.63529 13.6123 7.716 13.702 7.763C13.7917 7.80999 13.8965 7.81942 13.9931 7.78921C14.9397 7.78921 15.7704 8.28399 16.2485 9.01942C14.9889 9.66725 14.1298 10.9752 14.1298 12.4822C14.1305 12.7753 14.1773 13.0643 14.2437 13.3479C14.2559 13.4 14.2795 13.4487 14.3126 13.4907C14.3458 13.5326 14.3878 13.5668 14.4356 13.5907C14.4834 13.6146 14.5359 13.6277 14.5894 13.6291C14.6428 13.6304 14.6959 13.62 14.7449 13.5985C15.7491 13.1221 16.8706 12.8467 18.0483 12.8467C19.226 12.8467 20.3475 13.1221 21.3516 13.5985C21.4006 13.62 21.4537 13.6304 21.5071 13.6291C21.5606 13.6277 21.6131 13.6146 21.6609 13.5907C21.7088 13.5668 21.7507 13.5326 21.7839 13.4907C21.8171 13.4487 21.8406 13.4 21.8528 13.3479C21.9194 13.0638 21.9651 12.7741 21.9667 12.4822C21.9667 10.9752 21.1076 9.66725 19.848 9.01942C20.3261 8.28399 21.1568 7.78921 22.1034 7.78921C22.1517 7.78989 22.1997 7.78097 22.2445 7.76296C22.2893 7.74495 22.3301 7.71821 22.3645 7.68429C22.3989 7.65038 22.4262 7.60996 22.4448 7.5654C22.4635 7.52084 22.4731 7.47301 22.4731 7.42471C22.4731 7.3764 22.4635 7.32858 22.4448 7.28401C22.4262 7.23945 22.3989 7.19904 22.3645 7.16512C22.3301 7.1312 22.2893 7.10446 22.2445 7.08645C22.1997 7.06844 22.1517 7.05952 22.1034 7.0602C20.8532 7.0602 19.7595 7.73939 19.1646 8.74604C18.8114 8.6416 18.4344 8.58657 18.0483 8.58657C17.6621 8.58657 17.2852 8.6416 16.932 8.74604C16.337 7.73939 15.2433 7.0602 13.9931 7.0602C13.9704 7.05806 13.9475 7.05806 13.9248 7.0602C13.9021 7.05807 13.8792 7.05807 13.8564 7.0602C13.8413 7.05927 13.826 7.05927 13.8109 7.0602C13.7957 7.05928 13.7805 7.05928 13.7653 7.0602ZM18.0483 9.31558C19.8091 9.31558 21.2377 10.7263 21.2377 12.4822C21.2372 12.582 21.202 12.6793 21.1921 12.7784C20.2129 12.3782 19.1696 12.1177 18.0483 12.1177C16.9269 12.1177 15.8836 12.3782 14.9044 12.7784C14.8944 12.6795 14.8591 12.5815 14.8588 12.4822C14.8588 10.7263 16.2874 9.31558 18.0483 9.31558ZM26.1357 13.1885C26.12 13.195 26.1048 13.2026 26.0902 13.2112C26.0354 13.2238 25.9843 13.2488 25.9409 13.2844C25.8974 13.32 25.8627 13.3651 25.8396 13.4163C25.2509 14.5702 24.4449 15.5333 23.4931 16.2868C22.2195 14.6825 20.2562 13.6441 18.0483 13.6441C15.8403 13.6441 13.877 14.6825 12.6034 16.2868C11.6421 15.5262 10.8497 14.5621 10.2797 13.4618C10.2465 13.3951 10.194 13.3398 10.129 13.3032C10.064 13.2667 9.98952 13.2505 9.91521 13.2568C9.85376 13.262 9.79456 13.2824 9.74295 13.3162C9.69134 13.35 9.64894 13.396 9.61957 13.4503C9.59019 13.5045 9.57477 13.5652 9.57468 13.6268C9.57459 13.6885 9.58984 13.7493 9.61905 13.8036C10.2419 15.0059 11.1375 16.0302 12.1934 16.8563C11.5677 17.8336 11.1873 18.9763 11.1226 20.2052H8.9356C8.91287 20.2031 8.88999 20.2031 8.86726 20.2052C8.84453 20.2031 8.82164 20.2031 8.79891 20.2052C8.78374 20.2043 8.76852 20.2043 8.75335 20.2052C8.65668 20.2294 8.57356 20.291 8.52229 20.3764C8.47103 20.4619 8.4558 20.5642 8.47997 20.6608C8.50414 20.7575 8.56572 20.8406 8.65117 20.8919C8.73661 20.9432 8.83893 20.9584 8.9356 20.9342H11.1226C11.2016 22.4353 11.7603 23.7997 12.649 24.8982C11.3765 25.7735 10.3346 26.957 9.61905 28.3383C9.57452 28.4258 9.56641 28.5274 9.5965 28.6209C9.62659 28.7143 9.69243 28.7921 9.77966 28.8373C9.86689 28.8824 9.96843 28.8912 10.0621 28.8617C10.1558 28.8322 10.234 28.7669 10.2797 28.68C10.9522 27.3817 11.9458 26.2994 13.1502 25.4906C14.4065 26.7307 16.1437 27.4953 18.0483 27.4953C19.9642 27.4953 21.711 26.7211 22.9691 25.4678C24.146 26.2658 25.1467 27.3674 25.8396 28.7256C25.8627 28.7767 25.8974 28.8219 25.9409 28.8574C25.9843 28.893 26.0354 28.918 26.0902 28.9306C26.1585 28.9475 26.2302 28.9443 26.2966 28.9214C26.3631 28.8985 26.4216 28.8568 26.4649 28.8014C26.5083 28.746 26.5347 28.6793 26.5409 28.6092C26.5472 28.5392 26.5331 28.4688 26.5003 28.4066C25.7619 26.9592 24.6986 25.785 23.4475 24.921C24.3428 23.8201 24.8946 22.4417 24.9739 20.9342H27.1609C27.2092 20.9349 27.2572 20.926 27.302 20.908C27.3468 20.89 27.3876 20.8632 27.422 20.8293C27.4564 20.7954 27.4837 20.755 27.5024 20.7104C27.521 20.6658 27.5306 20.618 27.5306 20.5697C27.5306 20.5214 27.521 20.4736 27.5024 20.429C27.4837 20.3845 27.4564 20.344 27.422 20.3101C27.3876 20.2762 27.3468 20.2495 27.302 20.2315C27.2572 20.2135 27.2092 20.2045 27.1609 20.2052H24.9739C24.9093 18.9763 24.5288 17.8336 23.9031 16.8563C24.9507 16.0347 25.8577 14.9949 26.5003 13.7352C26.5353 13.6761 26.5528 13.6084 26.551 13.5397C26.5492 13.4711 26.528 13.4044 26.4899 13.3472C26.4518 13.2901 26.3984 13.2449 26.3357 13.2168C26.2731 13.1887 26.2037 13.1789 26.1357 13.1885ZM18.0483 14.3731C21.487 14.3731 24.2677 17.1393 24.2677 20.5697C24.2677 23.9999 21.487 26.7663 18.0483 26.7663C14.6096 26.7663 11.8289 23.9999 11.8289 20.5697C11.8289 17.1393 14.6096 14.3731 18.0483 14.3731Z" fill="#FF0000"/>
</svg>
