<svg width="20" height="21" viewBox="0 0 20 21" fill="none" xmlns="http://www.w3.org/2000/svg">
<path d="M15.4164 14.7461H14.4421L14.0968 14.4086C15.3054 12.9836 16.0331 11.1336 16.0331 9.12109C16.0331 4.63359 12.4441 0.996094 8.01655 0.996094C3.58895 0.996094 0 4.63359 0 9.12109C0 13.6086 3.58895 17.2461 8.01655 17.2461C10.0022 17.2461 11.8275 16.5086 13.2335 15.2836L13.5665 15.6336V16.6211L18.2199 20.9961L20 19.038L15.4164 14.7461ZM8.01655 14.7461C4.94559 14.7461 2.46663 12.2336 2.46663 9.12109C2.46663 6.00859 4.94559 3.49609 8.01655 3.49609C11.0875 3.49609 13.5665 6.00859 13.5665 9.12109C13.5665 12.2336 11.0875 14.7461 8.01655 14.7461Z" fill="black" fill-opacity="0.3"/>
</svg>
