<svg width="11" height="7" viewBox="0 0 11 7" fill="none" xmlns="http://www.w3.org/2000/svg">
<path d="M5.92922 5.84018L10.8243 1.29044C10.9376 1.18521 11 1.04482 11 0.895199C11 0.745577 10.9376 0.605316 10.8243 0.500311L10.4639 0.165971C10.229 -0.0515868 9.84734 -0.0512075 9.61285 0.166816L5.50228 3.98735L1.38716 0.170756C1.27385 0.0657507 1.1228 0.00786198 0.961737 0.00802203C0.800494 0.00818226 0.649447 0.0663712 0.536049 0.171601L0.175735 0.506658C0.062427 0.611971 5.21272e-06 0.752273 5.20618e-06 0.901895C5.19964e-06 1.05152 0.062427 1.19178 0.175735 1.29678L5.07525 5.84103C5.18892 5.94628 5.34068 6.004 5.50201 6.00351C5.66397 6.00368 5.81565 5.94566 5.92922 5.84018Z" fill="white"/>
</svg>
