<svg width="11" height="7" viewBox="0 0 11 7" fill="none" xmlns="http://www.w3.org/2000/svg">
<path d="M5.07078 0.166658L0.17573 4.7164C0.0624222 4.82163 -4.57559e-08 4.96202 -3.92158e-08 5.11164C-3.26756e-08 5.26126 0.0624222 5.40152 0.17573 5.50652L0.536134 5.84087C0.770977 6.05842 1.15266 6.05804 1.38715 5.84002L5.49772 2.01949L9.61284 5.83608C9.72615 5.94108 9.8772 5.99897 10.0383 5.99881C10.1995 5.99865 10.3506 5.94046 10.464 5.83523L10.8243 5.50018C10.9376 5.39486 11 5.25456 11 5.10494C11 4.95532 10.9376 4.81506 10.8243 4.71005L5.92475 0.165809C5.81108 0.0605554 5.65932 0.0028339 5.49798 0.00332659C5.33603 0.00315519 5.18435 0.0611782 5.07078 0.166658Z" fill="white"/>
</svg>
