<svg width="18" height="22" viewBox="0 0 18 22" fill="none" xmlns="http://www.w3.org/2000/svg">
<path d="M1.28171 7.34033C0.573844 7.34033 0 7.91418 0 8.62204V14.6033C0 15.3112 0.573844 15.885 1.28171 15.885C1.98957 15.885 2.56341 15.3112 2.56341 14.6033V8.62204C2.56341 7.91418 1.98957 7.34033 1.28171 7.34033Z" fill="#4CAF50"/>
<path d="M15.8071 7.34082C15.0992 7.34082 14.5254 7.91466 14.5254 8.62253V14.6038C14.5254 15.3117 15.0992 15.8855 15.8071 15.8855C16.515 15.8855 17.0888 15.3117 17.0888 14.6038V8.62253C17.0888 7.91466 16.515 7.34082 15.8071 7.34082Z" fill="#4CAF50"/>
<path d="M13.2444 7.34033H3.84522C3.60926 7.34033 3.41797 7.53163 3.41797 7.76758V14.6033C3.41777 15.6186 4.13216 16.4937 5.12692 16.6968V19.7301C5.12692 20.438 5.70077 21.0118 6.40863 21.0118C7.11649 21.0118 7.69034 20.438 7.69034 19.7301V16.7395H9.39929V19.7301C9.39929 20.438 9.97314 21.0118 10.681 21.0118C11.3889 21.0118 11.9627 20.438 11.9627 19.7301V16.6968C12.9575 16.4937 13.6719 15.6186 13.6717 14.6033V7.76758C13.6716 7.53163 13.4803 7.34033 13.2444 7.34033Z" fill="#4CAF50"/>
<path d="M11.6509 2.27528L12.6925 1.23454C12.8622 1.0706 12.8668 0.800159 12.7029 0.630413C12.539 0.460707 12.2686 0.456021 12.0988 0.619919C12.0953 0.623364 12.0918 0.626849 12.0883 0.630413L10.875 1.84379C9.38894 1.19825 7.70161 1.19825 6.21555 1.84379L5.00222 0.629572C4.83251 0.465634 4.56203 0.47036 4.39809 0.640066C4.2382 0.805646 4.2382 1.06812 4.39809 1.23366L5.43884 2.27524C4.17007 3.11476 3.41018 4.53749 3.41803 6.05884C3.41803 6.29479 3.60932 6.48609 3.84528 6.48609H13.2445C13.4804 6.48609 13.6717 6.29479 13.6717 6.05884C13.6795 4.53753 12.9196 3.1148 11.6509 2.27528Z" fill="#4CAF50"/>
</svg>
