<svg width="20" height="23" viewBox="0 0 20 23" fill="none" xmlns="http://www.w3.org/2000/svg">
<path d="M12.9513 3.72491C13.6976 2.76265 14.2624 1.40148 14.058 0.0117188C12.8383 0.0960769 11.4128 0.876747 10.5821 1.89333C9.82432 2.81555 9.20092 4.1853 9.44399 5.51644C10.7766 5.55791 12.1535 4.75865 12.9513 3.72491Z" fill="black"/>
<path d="M18.8785 7.68677C17.7075 6.21837 16.0618 5.36621 14.5076 5.36621C12.4559 5.36621 11.588 6.34848 10.1625 6.34848C8.69264 6.34848 7.57597 5.36907 5.80159 5.36907C4.05866 5.36907 2.20278 6.43427 1.02606 8.25583C-0.628218 10.8209 -0.345118 15.6436 2.33575 19.7514C3.29515 21.2212 4.57625 22.8741 6.25197 22.8884C7.74325 22.9027 8.16362 21.9319 10.1839 21.9219C12.2042 21.9104 12.5874 22.9013 14.0758 22.8855C15.753 22.8727 17.1041 21.0411 18.0635 19.5713C18.7513 18.5175 19.0072 17.987 19.5405 16.7975C15.6615 15.3205 15.0395 9.80431 18.8785 7.68677Z" fill="black"/>
</svg>
