<svg width="70" height="50" viewBox="0 0 70 50" fill="none" xmlns="http://www.w3.org/2000/svg">
<path d="M0 0H70L58.276 42.6505C57.0827 46.9916 53.1357 50 48.6336 50H0V0Z" fill="black"/>
<path d="M34.2187 11C26.4883 11 20.2188 17.2696 20.2188 25C20.2188 32.7304 26.4883 39 34.2187 39C41.9492 39 48.2187 32.7304 48.2187 25C48.2187 17.2696 41.9492 11 34.2187 11ZM35.3448 36.5043C35.284 36.5043 35.2231 36.5043 35.1318 36.5348V29.9304C36.7144 29.9 38.1448 29.8696 39.4535 29.7783C38.297 33.3391 36.1361 35.713 35.3448 36.5043ZM33.0927 36.5043C32.2709 35.6826 30.1405 33.3087 28.984 29.7783C30.2622 29.8696 31.7231 29.9304 33.3057 29.9304V36.5348C33.2448 36.5348 33.184 36.5043 33.0927 36.5043ZM22.6535 25C22.6535 24.2391 22.7448 23.4783 22.8666 22.7478C23.5361 22.6261 24.8144 22.4435 26.6101 22.2609C26.4579 23.1435 26.3666 24.0565 26.3666 25.0304C26.3666 26.0043 26.4579 26.9174 26.5796 27.7696C24.8144 27.587 23.5057 27.4043 22.8361 27.2826C22.7448 26.5217 22.6535 25.7609 22.6535 25ZM28.2231 25C28.2231 23.9652 28.3448 22.9913 28.5274 22.0783C29.9274 21.987 31.5101 21.8957 33.3057 21.8957V28.1043C31.5405 28.0739 29.9274 28.013 28.497 27.8913C28.3448 27.0087 28.2231 26.0348 28.2231 25ZM35.3144 13.4957C36.1361 14.3174 38.2361 16.7522 39.4231 20.2217C38.1448 20.1304 36.7144 20.0696 35.1318 20.0696V13.4652C35.1927 13.4652 35.2535 13.4957 35.3144 13.4957ZM33.3057 13.4652V20.0696C31.7231 20.1 30.2927 20.1304 29.0144 20.2217C30.1709 16.7522 32.3014 14.3174 33.0927 13.4957C33.184 13.4957 33.2448 13.4652 33.3057 13.4652ZM35.1318 28.1043V21.8957C36.897 21.9261 38.5101 21.987 39.9101 22.0783C40.0927 22.9913 40.2144 23.9652 40.2144 25C40.2144 26.0348 40.1231 27.0087 39.9405 27.9217C38.5405 28.013 36.9274 28.0739 35.1318 28.1043ZM41.797 22.2609C43.5927 22.4435 44.8709 22.6261 45.5405 22.7478C45.6927 23.4783 45.784 24.2391 45.784 25C45.784 25.7609 45.6927 26.5217 45.5709 27.2522C44.9014 27.3739 43.6231 27.5565 41.8274 27.7391C41.9796 26.8565 42.0405 25.9435 42.0405 24.9696C42.0405 24.0565 41.9492 23.113 41.797 22.2609ZM44.9927 20.8C44.1405 20.6783 42.9231 20.5261 41.3709 20.3739C40.6405 17.7565 39.3622 15.6565 38.297 14.1652C41.3709 15.3217 43.8057 17.7565 44.9927 20.8ZM30.1405 14.1652C29.0448 15.6261 27.797 17.7261 27.0666 20.3435C25.5448 20.4652 24.3274 20.6478 23.4448 20.7696C24.6318 17.7565 27.097 15.3217 30.1405 14.1652ZM23.4448 29.2C24.297 29.3217 25.5144 29.4739 27.0361 29.6261C27.7666 32.2435 28.984 34.3435 30.0796 35.8043C27.0361 34.6174 24.6318 32.213 23.4448 29.2ZM38.3579 35.8043C39.4535 34.3435 40.6709 32.2739 41.4014 29.6565C42.9231 29.5348 44.1405 29.3522 44.9927 29.2304C43.8057 32.213 41.4014 34.6174 38.3579 35.8043Z" fill="white"/>
</svg>
