<svg width="40" height="41" viewBox="0 0 40 41" fill="none" xmlns="http://www.w3.org/2000/svg">
<path d="M0 0.75H40V40.75H10C4.47715 40.75 0 36.2728 0 30.75V0.75Z" fill="#00690B"/>
<path d="M14.1543 15.5977L15.9824 21.8027C15.9883 22.002 15.9941 22.2041 16 22.4092C16.0117 22.6143 16.0205 22.8193 16.0264 23.0244C16.0439 23.4346 16.0527 23.8359 16.0527 24.2285V24.4922C16.0527 24.8262 16.0293 25.125 15.9824 25.3887C15.9414 25.6523 15.8359 25.8633 15.666 26.0215C15.4961 26.1738 15.2207 26.25 14.8398 26.25C14.459 26.25 14.1807 26.1738 14.0049 26.0215C13.8291 25.8633 13.7178 25.6523 13.6709 25.3887C13.6299 25.125 13.6094 24.8262 13.6094 24.4922V23.2617H10.0938V24.4922C10.0938 24.8262 10.0703 25.125 10.0234 25.3887C9.98242 25.6523 9.87402 25.8633 9.69824 26.0215C9.52832 26.1738 9.25 26.25 8.86328 26.25C8.47656 26.25 8.19824 26.1738 8.02832 26.0215C7.8584 25.8633 7.75293 25.6523 7.71191 25.3887C7.6709 25.125 7.65039 24.8262 7.65039 24.4922V24.2285C7.65039 24.0234 7.65332 23.7715 7.65918 23.4727C7.66504 23.1738 7.6709 22.8721 7.67676 22.5674C7.68848 22.2627 7.69727 22.0078 7.70312 21.8027C7.84961 21.293 7.99902 20.7803 8.15137 20.2646C8.30371 19.7432 8.46191 19.2217 8.62598 18.7002C8.79004 18.1787 8.94824 17.6602 9.10059 17.1445C9.25293 16.6289 9.40234 16.1133 9.54883 15.5977C9.68359 15.1113 9.87402 14.7158 10.1201 14.4111C10.3721 14.1006 10.8027 13.9453 11.4121 13.9453H12.291C12.918 13.9453 13.3486 14.1006 13.583 14.4111C13.8174 14.7158 14.0078 15.1113 14.1543 15.5977ZM11.957 16.2305H11.7637L10.4629 20.9414H13.2578L11.957 16.2305ZM21.748 21.3984H20.623V24.2461C20.623 24.6211 20.5996 24.9609 20.5527 25.2656C20.5059 25.5703 20.3857 25.8105 20.1924 25.9863C20.0049 26.1621 19.6973 26.25 19.2695 26.25C18.8535 26.25 18.5518 26.1621 18.3643 25.9863C18.1768 25.8047 18.0596 25.5645 18.0127 25.2656C17.9717 24.9609 17.9512 24.6211 17.9512 24.2461V15.9492C17.9512 15.5742 17.9717 15.2373 18.0127 14.9385C18.0596 14.6338 18.1768 14.3936 18.3643 14.2178C18.5518 14.0361 18.8535 13.9453 19.2695 13.9453H22.1699C22.9082 13.9805 23.5586 14.1328 24.1211 14.4023C24.3672 14.5195 24.6074 14.666 24.8418 14.8418C25.0762 15.0117 25.2842 15.2256 25.4658 15.4834C25.6533 15.7354 25.7998 16.0371 25.9053 16.3887C26.0166 16.7402 26.0723 17.1445 26.0723 17.6016C26.0723 18.2285 25.9727 18.7793 25.7734 19.2539C25.5801 19.7227 25.2988 20.1152 24.9297 20.4316C24.1797 21.0762 23.1191 21.3984 21.748 21.3984ZM20.623 16.0195V19.3066H21.8184C22.1113 19.2891 22.375 19.2188 22.6094 19.0957C22.8438 18.9727 23.0342 18.791 23.1807 18.5508C23.3271 18.3047 23.4004 17.9883 23.4004 17.6016C23.4004 17.2383 23.3271 16.9482 23.1807 16.7314C23.04 16.5088 22.8643 16.3389 22.6533 16.2217C22.4482 16.1162 22.1992 16.0488 21.9062 16.0195H20.623ZM27.6895 24.2285V15.9668C27.6895 15.5918 27.7217 15.252 27.7861 14.9473C27.8506 14.6426 27.9854 14.3994 28.1904 14.2178C28.4014 14.0361 28.7207 13.9453 29.1484 13.9453C29.5762 13.9453 29.8926 14.0361 30.0977 14.2178C30.3086 14.3994 30.4463 14.6426 30.5107 14.9473C30.5752 15.252 30.6074 15.5918 30.6074 15.9668V24.2285C30.6074 24.6094 30.5752 24.9551 30.5107 25.2656C30.4521 25.5703 30.3174 25.8105 30.1064 25.9863C29.9014 26.1621 29.582 26.25 29.1484 26.25C28.7266 26.25 28.4102 26.1621 28.1992 25.9863C27.9941 25.8047 27.8564 25.5615 27.7861 25.2568C27.7217 24.9521 27.6895 24.6094 27.6895 24.2285Z" fill="white"/>
</svg>
