<svg width="40" height="41" viewBox="0 0 40 41" fill="none" xmlns="http://www.w3.org/2000/svg">
<path d="M0 0.5H40V40.5H10C4.47715 40.5 0 36.0228 0 30.5V0.5Z" fill="#00690B"/>
<path d="M20 9.5C13.9261 9.5 9 14.4261 9 20.5C9 26.5739 13.9261 31.5 20 31.5C26.0739 31.5 31 26.5739 31 20.5C31 14.4261 26.0739 9.5 20 9.5ZM20.8848 29.5391C20.837 29.5391 20.7891 29.5391 20.7174 29.563V24.3739C21.9609 24.35 23.0848 24.3261 24.113 24.2543C23.2043 27.0522 21.5065 28.9174 20.8848 29.5391ZM19.1152 29.5391C18.4696 28.8935 16.7957 27.0283 15.887 24.2543C16.8913 24.3261 18.0391 24.3739 19.2826 24.3739V29.563C19.2348 29.563 19.187 29.5391 19.1152 29.5391ZM10.913 20.5C10.913 19.9022 10.9848 19.3043 11.0804 18.7304C11.6065 18.6348 12.6109 18.4913 14.0217 18.3478C13.9022 19.0413 13.8304 19.7587 13.8304 20.5239C13.8304 21.2891 13.9022 22.0065 13.9978 22.6761C12.6109 22.5326 11.5826 22.3891 11.0565 22.2935C10.9848 21.6957 10.913 21.0978 10.913 20.5ZM15.2891 20.5C15.2891 19.687 15.3848 18.9217 15.5283 18.2043C16.6283 18.1326 17.8717 18.0609 19.2826 18.0609V22.9391C17.8957 22.9152 16.6283 22.8674 15.5043 22.7717C15.3848 22.0783 15.2891 21.313 15.2891 20.5ZM20.8609 11.4609C21.5065 12.1065 23.1565 14.0196 24.0891 16.7457C23.0848 16.6739 21.9609 16.6261 20.7174 16.6261V11.437C20.7652 11.437 20.813 11.4609 20.8609 11.4609ZM19.2826 11.437V16.6261C18.0391 16.65 16.9152 16.6739 15.9109 16.7457C16.8196 14.0196 18.4935 12.1065 19.1152 11.4609C19.187 11.4609 19.2348 11.437 19.2826 11.437ZM20.7174 22.9391V18.0609C22.1043 18.0848 23.3717 18.1326 24.4717 18.2043C24.6152 18.9217 24.7109 19.687 24.7109 20.5C24.7109 21.313 24.6391 22.0783 24.4957 22.7957C23.3957 22.8674 22.1283 22.9152 20.7174 22.9391ZM25.9543 18.3478C27.3652 18.4913 28.3696 18.6348 28.8957 18.7304C29.0152 19.3043 29.087 19.9022 29.087 20.5C29.087 21.0978 29.0152 21.6957 28.9196 22.2696C28.3935 22.3652 27.3891 22.5087 25.9783 22.6522C26.0978 21.9587 26.1457 21.2413 26.1457 20.4761C26.1457 19.7587 26.0739 19.0174 25.9543 18.3478ZM28.4652 17.2C27.7957 17.1043 26.8391 16.9848 25.6196 16.8652C25.0457 14.8087 24.0413 13.1587 23.2043 11.987C25.6196 12.8957 27.5326 14.8087 28.4652 17.2ZM16.7957 11.987C15.9348 13.1348 14.9543 14.7848 14.3804 16.8413C13.1848 16.937 12.2283 17.0804 11.5348 17.1761C12.4674 14.8087 14.4043 12.8957 16.7957 11.987ZM11.5348 23.8C12.2043 23.8957 13.1609 24.0152 14.3565 24.1348C14.9304 26.1913 15.887 27.8413 16.7478 28.9891C14.3565 28.0565 12.4674 26.1674 11.5348 23.8ZM23.2522 28.9891C24.113 27.8413 25.0696 26.2152 25.6435 24.1587C26.8391 24.063 27.7957 23.9196 28.4652 23.8239C27.5326 26.1674 25.6435 28.0565 23.2522 28.9891Z" fill="white"/>
</svg>
