<svg width="40" height="41" viewBox="0 0 40 41" fill="none" xmlns="http://www.w3.org/2000/svg">
<path d="M0 0.5H40V40.5H10C4.47715 40.5 0 36.0228 0 30.5V0.5Z" fill="#00690B"/>
<path d="M24.0397 9.66602C22.8902 9.74591 21.5466 10.4853 20.7636 11.4482C20.0494 12.3216 19.4618 13.619 19.6909 14.8798C20.9469 14.919 22.2447 14.162 22.9966 13.1829C23.7001 12.2715 24.2324 10.9823 24.0397 9.66602Z" fill="white"/>
<path d="M28.5845 16.9362C27.4808 15.5454 25.9297 14.7383 24.4648 14.7383C22.531 14.7383 21.713 15.6686 20.3694 15.6686C18.9841 15.6686 17.9316 14.741 16.2592 14.741C14.6164 14.741 12.8672 15.7499 11.7581 17.4752C10.1989 19.9046 10.4657 24.4724 12.9925 28.3631C13.8968 29.7553 15.1043 31.3207 16.6837 31.3343C18.0892 31.3478 18.4854 30.4283 20.3896 30.4188C22.2938 30.408 22.655 31.3465 24.0579 31.3316C25.6386 31.3194 26.9121 29.5846 27.8164 28.1925C28.4646 27.1944 28.7058 26.692 29.2085 25.5653C25.5524 24.1664 24.9662 18.9418 28.5845 16.9362Z" fill="white"/>
</svg>
