<svg width="40" height="41" viewBox="0 0 40 41" fill="none" xmlns="http://www.w3.org/2000/svg">
<path d="M0 0.625H40V40.625H10C4.47715 40.625 0 36.1478 0 30.625V0.625Z" fill="#00690B"/>
<path d="M12.5376 17.1855C11.8103 17.1855 11.2207 17.7634 11.2207 18.4763V24.4998C11.2207 25.2127 11.8103 25.7906 12.5376 25.7906C13.2649 25.7906 13.8545 25.2127 13.8545 24.4998V18.4763C13.8545 17.7634 13.2649 17.1855 12.5376 17.1855Z" fill="white"/>
<path d="M27.4624 17.1855C26.7351 17.1855 26.1455 17.7634 26.1455 18.4763V24.4998C26.1455 25.2127 26.7351 25.7906 27.4624 25.7906C28.1897 25.7906 28.7793 25.2127 28.7793 24.4998V18.4763C28.7793 17.7634 28.1897 17.1855 27.4624 17.1855Z" fill="white"/>
<path d="M24.8275 17.1855H15.1704C14.928 17.1855 14.7314 17.3782 14.7314 17.6158V24.4998C14.7312 25.5223 15.4652 26.4036 16.4873 26.6081V29.6629C16.4873 30.3757 17.0769 30.9536 17.8042 30.9536C18.5315 30.9536 19.1211 30.3757 19.1211 29.6629V26.6511H20.8769V29.6629C20.8769 30.3757 21.4665 30.9536 22.1938 30.9536C22.9211 30.9536 23.5107 30.3757 23.5107 29.6629V26.6081C24.5327 26.4036 25.2667 25.5223 25.2665 24.4998V17.6158C25.2665 17.3782 25.0699 17.1855 24.8275 17.1855Z" fill="white"/>
<path d="M23.1903 12.0847L24.2604 11.0366C24.4348 10.8715 24.4396 10.5992 24.2712 10.4282C24.1028 10.2573 23.8249 10.2526 23.6505 10.4176C23.6468 10.4211 23.6433 10.4246 23.6397 10.4282L22.3931 11.6502C20.8663 11.0001 19.1326 11.0001 17.6058 11.6502L16.3592 10.4274C16.1848 10.2623 15.9069 10.267 15.7385 10.4379C15.5742 10.6047 15.5742 10.869 15.7385 11.0357L16.8078 12.0847C15.5042 12.9301 14.7234 14.3629 14.7315 15.895C14.7315 16.1326 14.9281 16.3252 15.1705 16.3252H24.8276C25.07 16.3252 25.2666 16.1326 25.2666 15.895C25.2746 14.3629 24.4938 12.9301 23.1903 12.0847Z" fill="white"/>
</svg>
