<svg width="21" height="17" viewBox="0 0 21 17" fill="none" xmlns="http://www.w3.org/2000/svg">
<path d="M20.5541 2.00875C19.8109 2.33476 19.0189 2.55085 18.1933 2.65577C19.0427 2.14865 19.6909 1.35174 19.9957 0.3912C19.2038 0.863351 18.3295 1.19685 17.3976 1.38297C16.6457 0.582309 15.574 0.0864258 14.4049 0.0864258C12.1365 0.0864258 10.3104 1.92756 10.3104 4.18464C10.3104 4.5094 10.3379 4.82167 10.4053 5.11895C6.99909 4.95282 3.98507 3.32028 1.96032 0.833373C1.60683 1.44667 1.39948 2.14865 1.39948 2.90434C1.39948 4.32329 2.13019 5.58111 3.21939 6.30932C2.56112 6.29683 1.91535 6.10572 1.36826 5.80469C1.36826 5.81718 1.36826 5.83342 1.36826 5.84966C1.36826 7.84069 2.78845 9.49446 4.65083 9.87543C4.31732 9.96661 3.95384 10.0103 3.57662 10.0103C3.31432 10.0103 3.04951 9.99534 2.80095 9.94038C3.3318 11.5629 4.83819 12.7558 6.62936 12.7945C5.23539 13.885 3.46545 14.542 1.54937 14.542C1.21337 14.542 0.891109 14.527 0.568848 14.4858C2.38375 15.6562 4.53466 16.3244 6.8542 16.3244C14.3936 16.3244 18.5156 10.079 18.5156 4.66554C18.5156 4.48442 18.5093 4.30955 18.5006 4.13593C19.3137 3.55886 19.997 2.83814 20.5541 2.00875Z" fill="black" fill-opacity="0.8"/>
</svg>
