<svg width="26" height="37" viewBox="0 0 26 37" fill="none" xmlns="http://www.w3.org/2000/svg">
<path d="M13.0003 0.548584C8.38833 0.548584 4.51733 3.67458 3.36133 7.91958L7.21633 8.97158C7.91033 6.42458 10.2333 4.54858 13.0003 4.54858C16.3133 4.54858 19.0003 7.23558 19.0003 10.5486V20.5486H23.0003V10.5486C23.0003 5.02658 18.5233 0.548584 13.0003 0.548584Z" fill="#AAB8C2"/>
<path d="M26 32.5486C26 34.7576 24.209 36.5486 22 36.5486H4C1.791 36.5486 0 34.7576 0 32.5486V20.5486C0 18.3396 1.791 16.5486 4 16.5486H22C24.209 16.5486 26 18.3396 26 20.5486V32.5486Z" fill="#FFAC33"/>
</svg>
