<svg width="16" height="11" viewBox="0 0 16 11" fill="none" xmlns="http://www.w3.org/2000/svg">
<path d="M7.37568 1.20168L0.255608 8.78356C0.090796 8.95892 2.08044e-08 9.19288 1.78307e-08 9.44225C1.4857e-08 9.69162 0.090796 9.9254 0.255608 10.1004L0.779831 10.6577C1.12142 11.0204 1.6766 11.0198 2.01767 10.6565L7.99668 4.28983L13.9823 10.6517C14.1471 10.8267 14.3668 10.9232 14.6011 10.923C14.8356 10.9228 15.0554 10.8258 15.2203 10.6504L15.7444 10.0921C15.9092 9.9166 16 9.68277 16 9.4334C16 9.18403 15.9092 8.95025 15.7444 8.77522L8.61781 1.20045C8.45248 1.025 8.23173 0.928769 7.99707 0.929556C7.76149 0.929236 7.54088 1.02591 7.37568 1.20168Z" fill="black" fill-opacity="0.5"/>
</svg>
