<svg width="41" height="41" viewBox="0 0 41 41" fill="none" xmlns="http://www.w3.org/2000/svg">
<path d="M20.5 0.820801C9.45652 0.820801 0.5 9.77732 0.5 20.8208C0.5 31.8643 9.45652 40.8208 20.5 40.8208C31.5435 40.8208 40.5 31.8643 40.5 20.8208C40.5 9.77732 31.5435 0.820801 20.5 0.820801ZM22.1087 37.2556C22.0217 37.2556 21.9348 37.2556 21.8043 37.2991V27.8643C24.0652 27.8208 26.1087 27.7773 27.9783 27.6469C26.3261 32.7338 23.2391 36.1251 22.1087 37.2556ZM18.8913 37.2556C17.7174 36.0817 14.6739 32.6904 13.0217 27.6469C14.8478 27.7773 16.9348 27.8643 19.1957 27.8643V37.2991C19.1087 37.2991 19.0217 37.2556 18.8913 37.2556ZM3.97826 20.8208C3.97826 19.7338 4.1087 18.6469 4.28261 17.6034C5.23913 17.4295 7.06522 17.1686 9.63043 16.9078C9.41304 18.1686 9.28261 19.473 9.28261 20.8643C9.28261 22.2556 9.41304 23.5599 9.58696 24.7773C7.06522 24.5165 5.19565 24.2556 4.23913 24.0817C4.1087 22.9947 3.97826 21.9078 3.97826 20.8208ZM11.9348 20.8208C11.9348 19.3425 12.1087 17.9512 12.3696 16.6469C14.3696 16.5165 16.6304 16.386 19.1957 16.386V25.2556C16.6739 25.2121 14.3696 25.1251 12.3261 24.9512C12.1087 23.6904 11.9348 22.2991 11.9348 20.8208ZM22.0652 4.38602C23.2391 5.55993 26.2391 9.03819 27.9348 13.9947C26.1087 13.8643 24.0652 13.7773 21.8043 13.7773V4.34254C21.8913 4.34254 21.9783 4.38602 22.0652 4.38602ZM19.1957 4.34254V13.7773C16.9348 13.8208 14.8913 13.8643 13.0652 13.9947C14.7174 9.03819 17.7609 5.55993 18.8913 4.38602C19.0217 4.38602 19.1087 4.34254 19.1957 4.34254ZM21.8043 25.2556V16.386C24.3261 16.4295 26.6304 16.5165 28.6304 16.6469C28.8913 17.9512 29.0652 19.3425 29.0652 20.8208C29.0652 22.2991 28.9348 23.6904 28.6739 24.9947C26.6739 25.1251 24.3696 25.2121 21.8043 25.2556ZM31.3261 16.9078C33.8913 17.1686 35.7174 17.4295 36.6739 17.6034C36.8913 18.6469 37.0217 19.7338 37.0217 20.8208C37.0217 21.9078 36.8913 22.9947 36.7174 24.0382C35.7609 24.2121 33.9348 24.473 31.3696 24.7338C31.587 23.473 31.6739 22.1686 31.6739 20.7773C31.6739 19.473 31.5435 18.1251 31.3261 16.9078ZM35.8913 14.8208C34.6739 14.6469 32.9348 14.4295 30.7174 14.2121C29.6739 10.473 27.8478 7.47297 26.3261 5.34254C30.7174 6.99471 34.1957 10.473 35.8913 14.8208ZM14.6739 5.34254C13.1087 7.4295 11.3261 10.4295 10.2826 14.1686C8.1087 14.3425 6.36957 14.6034 5.1087 14.7773C6.80435 10.473 10.3261 6.99471 14.6739 5.34254ZM5.1087 26.8208C6.32609 26.9947 8.06522 27.2121 10.2391 27.4295C11.2826 31.1686 13.0217 34.1686 14.587 36.2556C10.2391 34.5599 6.80435 31.1251 5.1087 26.8208ZM26.413 36.2556C27.9783 34.1686 29.7174 31.2121 30.7609 27.473C32.9348 27.2991 34.6739 27.0382 35.8913 26.8643C34.1957 31.1251 30.7609 34.5599 26.413 36.2556Z" fill="black" fill-opacity="0.8"/>
</svg>
