<svg width="23" height="23" viewBox="0 0 23 23" fill="none" xmlns="http://www.w3.org/2000/svg">
<path d="M10.6788 1.97221C14.5992 1.33212 18.0709 0.849443 21.9791 0.291484C22.0638 0.279357 22.1401 0.345106 22.1401 0.430692V10.6715C22.1401 10.7491 22.0774 10.812 21.9997 10.8121C18.1175 10.8139 14.1597 10.8912 10.2774 10.8931C10.1997 10.8931 10.1367 10.83 10.1367 10.7522V2.88191V2.17413C10.1367 2.10444 10.1878 2.04523 10.2567 2.03497L10.6788 1.97221Z" fill="#579ADD"/>
<path d="M0.572122 3.34034L8.92453 2.23659C9.00882 2.22542 9.08366 2.29104 9.08366 2.37606V10.7532C9.08366 10.8308 9.0206 10.8937 8.94302 10.8937C5.95862 10.896 3.0492 10.9723 0.140984 10.9747C0.0631505 10.9747 0 10.9116 0 10.8338V3.97133V3.5521C0 3.48301 0.0501566 3.42415 0.118418 3.41319L0.572122 3.34034Z" fill="#579ADD"/>
<path d="M0.140984 11.8662C3.04803 11.8686 5.95628 11.9435 8.93952 11.8698C9.01847 11.8679 9.08366 11.9312 9.08366 12.0102V20.4649C9.08366 20.55 9.0086 20.6155 8.92431 20.6045C5.93991 20.2114 3.03036 19.8184 0.12184 19.4253C0.0520623 19.4159 0 19.3563 0 19.2859V12.0072C0 11.9294 0.0631505 11.8662 0.140984 11.8662Z" fill="#579ADD"/>
<path d="M10.6789 11.9473H21.9994C22.0771 11.9473 22.1401 12.0103 22.1401 12.088V22.0042V22.3257C22.1401 22.4123 22.0627 22.4781 21.9772 22.4643C18.0955 21.8352 14.1387 21.3575 10.2576 20.8049C10.1882 20.795 10.1367 20.7355 10.1367 20.6654V12.088C10.1367 12.0103 10.1997 11.9473 10.2774 11.9473L10.6789 11.9473Z" fill="#579ADD"/>
<path d="M11.0278 10.7482V2.72509V2.00358C11.0278 1.9672 11.0415 1.93376 11.0643 1.9082C10.9363 1.92891 10.8079 1.94978 10.6789 1.97088L10.2567 2.03364C10.1878 2.0439 10.1367 2.10307 10.1367 2.1728V2.88054V10.7509C10.1367 10.8287 10.1997 10.8918 10.2774 10.8918C10.5669 10.8916 10.8576 10.8903 11.1479 10.8894C11.0798 10.8782 11.0278 10.8195 11.0278 10.7482Z" fill="#4987CE"/>
<path d="M0.890993 10.8294V3.81V3.38115C0.890993 3.34806 0.902601 3.31753 0.921702 3.29297L0.572079 3.33914L0.118418 3.41191C0.0501565 3.42286 0 3.48173 0 3.55081V3.97008V10.8325C0 10.9104 0.0631938 10.9735 0.140984 10.9735C0.429016 10.9732 0.717091 10.9718 1.00521 10.9702C0.940024 10.9565 0.890993 10.8987 0.890993 10.8294Z" fill="#4987CE"/>
<path d="M9.0141 11.8891C8.99185 11.8754 8.96565 11.8675 8.9375 11.8682L9.0141 11.8891Z" fill="#4987CE"/>
<path d="M0.891037 19.5197V12.0097C0.891037 11.939 0.941626 11.8801 1.00859 11.8671C0.719344 11.8656 0.430142 11.8645 0.140984 11.8643C0.0631938 11.8642 0 11.9274 0 12.0052V19.2839C0 19.3543 0.0520623 19.4139 0.121883 19.4233C0.37847 19.458 0.635143 19.4927 0.891816 19.5273C0.8916 19.5248 0.891037 19.5224 0.891037 19.5197Z" fill="#4987CE"/>
<path d="M11.0277 20.8488V12.089C11.0277 12.0097 11.0921 11.9453 11.1714 11.9453H10.6789H10.2774C10.1997 11.9453 10.1367 12.0083 10.1367 12.086V20.6634C10.1367 20.7335 10.1882 20.793 10.2576 20.8029C10.5193 20.8402 10.7814 20.877 11.0438 20.9137C11.0337 20.8941 11.0277 20.8721 11.0277 20.8488Z" fill="#4987CE"/>
</svg>
